<?xml version="1.0" standalone="no"?>
<!DOCTYPE svg PUBLIC "-//W3C//DTD SVG 20010904//EN"
 "http://www.w3.org/TR/2001/REC-SVG-20010904/DTD/svg10.dtd">
<svg version="1.0" xmlns="http://www.w3.org/2000/svg"
 width="700.000000pt" height="700.000000pt" viewBox="0 0 700.000000 700.000000"
 preserveAspectRatio="xMidYMid meet">
<metadata>
Created by potrace 1.11, written by Peter Selinger 2001-2013
</metadata>
<g transform="translate(0.000000,700.000000) scale(0.100000,-0.100000)"
fill="#000000" stroke="none">
<path d="M2478 4705 c-3 -3 -68 -8 -238 -21 -36 -2 -76 -7 -90 -9 -14 -3 -47
-7 -75 -10 -27 -3 -57 -8 -65 -10 -8 -2 -40 -7 -70 -10 -30 -4 -82 -13 -115
-20 -33 -8 -71 -16 -85 -18 -116 -21 -308 -86 -439 -148 -256 -121 -393 -277
-430 -489 -8 -50 -7 -163 2 -200 23 -91 47 -144 99 -222 136 -203 422 -411
783 -567 117 -52 335 -134 340 -129 2 2 6 28 9 58 4 30 8 71 11 90 9 69 16
126 20 155 3 17 14 102 25 190 28 217 30 237 34 260 2 11 7 53 11 94 8 79 18
78 30 -4 9 -71 12 -90 19 -122 3 -15 8 -46 12 -68 6 -45 33 -216 39 -255 2
-14 7 -42 10 -64 4 -21 8 -46 10 -56 2 -10 11 -67 20 -126 10 -60 19 -116 20
-124 2 -8 4 -18 4 -22 1 -5 110 -8 244 -8 l243 0 22 43 c11 23 46 89 77 147
63 117 135 252 203 380 25 47 57 108 72 135 15 28 44 83 65 123 20 39 39 72
42 72 5 0 3 -14 -12 -81 -2 -9 -6 -34 -9 -55 -4 -22 -8 -46 -11 -54 -2 -8 -6
-28 -9 -44 -3 -16 -10 -52 -15 -80 -6 -28 -13 -62 -15 -76 -3 -14 -16 -83 -30
-155 -15 -71 -29 -143 -32 -160 -2 -16 -7 -37 -9 -45 -2 -8 -6 -26 -9 -40 -2
-14 -7 -42 -11 -62 -4 -21 -4 -38 -1 -38 27 0 421 72 426 77 5 6 62 276 94
448 2 11 11 54 20 95 8 41 17 89 20 105 3 17 8 41 11 55 3 14 7 36 10 50 13
73 46 224 49 227 1 2 10 -41 19 -94 9 -54 19 -109 22 -123 2 -13 7 -42 11 -64
3 -22 7 -43 9 -46 2 -3 6 -26 10 -50 5 -43 24 -150 45 -255 5 -27 12 -66 15
-85 6 -40 76 -419 81 -442 1 -5 2 -14 3 -22 1 -12 28 -14 164 -11 89 2 194 4
233 4 l71 1 314 565 c173 310 319 564 324 565 11 0 161 -98 202 -133 177 -150
236 -216 291 -326 33 -67 37 -83 37 -150 0 -66 -4 -83 -29 -126 -124 -212
-482 -385 -926 -449 -308 -44 -711 -52 -1060 -20 -41 4 -81 7 -87 7 -17 0 -17
-1 17 102 30 92 36 120 23 112 -5 -3 -26 -8 -48 -11 -22 -4 -47 -8 -55 -11 -8
-2 -31 -6 -50 -9 -19 -3 -82 -14 -140 -25 -58 -11 -165 -31 -238 -45 -74 -13
-136 -27 -139 -29 -2 -3 120 -109 271 -236 152 -126 276 -229 276 -227 0 4 28
147 36 185 5 22 8 23 62 17 476 -51 1074 -55 1452 -10 560 67 898 213 1028
445 123 217 56 474 -188 719 -131 132 -361 293 -571 400 l-95 48 -195 -4
c-216 -5 -202 -1 -245 -82 -10 -20 -40 -73 -65 -117 -25 -44 -57 -100 -71
-125 -14 -25 -50 -88 -80 -140 -30 -52 -67 -117 -83 -145 -63 -114 -118 -206
-120 -203 -2 2 -15 57 -28 123 -183 883 -178 859 -183 864 -1 2 -200 5 -442 8
l-439 5 -273 -464 c-150 -254 -278 -471 -285 -480 -9 -14 -17 11 -45 140 -19
86 -35 162 -36 167 -4 20 -76 353 -107 498 l-32 147 -263 -4 c-145 -3 -265 -6
-267 -8 -2 -2 -6 -25 -9 -53 -11 -83 -17 -119 -21 -145 -3 -14 -7 -43 -10 -65
-3 -22 -8 -51 -10 -65 -3 -14 -7 -47 -10 -75 -3 -27 -8 -61 -10 -75 -8 -43
-14 -82 -25 -170 -12 -88 -20 -144 -25 -170 -2 -8 -4 -19 -4 -23 -2 -15 -115
72 -190 145 -81 81 -135 155 -171 238 -34 77 -35 205 -2 268 47 90 107 147
228 215 147 83 461 172 679 193 33 4 63 8 67 10 15 9 232 19 408 18 239 0 525
-17 680 -39 14 -2 52 -6 85 -10 134 -14 629 -124 703 -155 23 -10 24 -11 7
-38 -10 -15 -35 -50 -56 -78 -22 -28 -39 -53 -39 -55 0 -3 166 -5 370 -5 l369
-1 -38 46 c-21 25 -81 94 -132 152 -52 58 -143 161 -203 229 l-109 123 -34
-106 -33 -106 -43 15 c-74 26 -385 102 -487 119 -19 3 -46 7 -60 10 -14 3 -38
7 -55 10 -16 3 -39 7 -50 9 -11 2 -45 7 -75 11 -30 4 -62 9 -70 10 -15 3 -92
12 -160 20 -19 2 -66 7 -105 11 -38 3 -81 8 -95 11 -28 5 -716 13 -722 8z"/>
</g>
</svg>
