<?xml version="1.0" encoding="UTF-8"?>
<svg width="155px" height="50px" viewBox="0 0 155 50" version="1.1" xmlns="http://www.w3.org/2000/svg" xmlns:xlink="http://www.w3.org/1999/xlink">
    <!-- Generator: Sketch 42 (36781) - http://www.bohemiancoding.com/sketch -->
    <title>logo-amazon-ride</title>
    <desc>Created with Sketch.</desc>
    <defs></defs>
    <g id="Hub" stroke="none" stroke-width="1" fill="none" fill-rule="evenodd">
        <g id="Landing---Mobile-Copy" transform="translate(-111.000000, -100.000000)" fill="#FFFFFF">
            <g id="logo-large-amazon" transform="translate(111.000000, 100.000000)">
                <rect id="Rectangle-6" fill-opacity="0.286458333" opacity="0.900000036" x="130.166667" y="29.6296296" width="23.879166" height="10.1851852" rx="1"></rect>
                <path d="M135.474167,37.1759259 C135.620834,37.1759259 135.765972,37.160494 135.909583,37.1296296 C136.053195,37.0987653 136.181527,37.0416671 136.294583,36.9583333 C136.407639,36.8749996 136.497777,36.75926 136.565,36.6111111 C136.632223,36.4629622 136.665833,36.2746925 136.665833,36.0462963 C136.665833,35.824073 136.630695,35.6388896 136.560417,35.4907407 C136.490139,35.3425919 136.398473,35.2237659 136.285417,35.1342593 C136.172361,35.0447526 136.040973,34.9830249 135.89125,34.9490741 C135.741527,34.9151233 135.587223,34.8981481 135.428333,34.8981481 L134.585,34.8981481 L134.585,37.1759259 L135.474167,37.1759259 Z M135.235833,34.2777778 C135.370278,34.2777778 135.507777,34.2654322 135.648333,34.2407407 C135.78889,34.2160493 135.918749,34.1620375 136.037917,34.0787037 C136.157084,33.99537 136.254861,33.8750008 136.33125,33.7175926 C136.407639,33.5601844 136.445833,33.3456804 136.445833,33.0740741 C136.445833,32.8703694 136.418334,32.7052475 136.363333,32.5787037 C136.308333,32.4521599 136.233473,32.3564818 136.13875,32.2916667 C136.044027,32.2268515 135.935556,32.1836421 135.813333,32.162037 C135.69111,32.140432 135.562778,32.1296296 135.428333,32.1296296 L134.585,32.1296296 L134.585,34.2777778 L135.235833,34.2777778 Z M135.446667,31.4814815 C135.617779,31.4814815 135.808749,31.4922838 136.019583,31.5138889 C136.230418,31.5354939 136.429027,31.5956785 136.615417,31.6944444 C136.801806,31.7932104 136.957638,31.9444434 137.082917,32.1481481 C137.208195,32.3518529 137.270833,32.6327143 137.270833,32.9907407 C137.270833,33.2314827 137.237223,33.4382707 137.17,33.6111111 C137.102777,33.7839515 137.021806,33.930555 136.927083,34.0509259 C136.832361,34.1712969 136.733056,34.266975 136.629167,34.337963 C136.525277,34.408951 136.436667,34.4629628 136.363333,34.5 C136.479445,34.5370372 136.603194,34.5864194 136.734583,34.6481481 C136.865973,34.7098769 136.988194,34.7993821 137.10125,34.9166667 C137.214306,35.0339512 137.3075,35.1851843 137.380833,35.3703704 C137.454167,35.5555565 137.490833,35.790122 137.490833,36.0740741 C137.490833,36.2654331 137.469445,36.4367276 137.426667,36.587963 C137.383889,36.7391983 137.331945,36.871913 137.270833,36.9861111 C137.209722,37.1003092 137.144028,37.1975305 137.07375,37.2777778 C137.003472,37.3580251 136.940834,37.4228393 136.885833,37.4722222 C136.70861,37.626544 136.488612,37.7237652 136.225833,37.7638889 C135.963054,37.8040125 135.648335,37.8240741 135.281667,37.8240741 L133.943333,37.8240741 C133.87,37.8240741 133.833333,37.7870374 133.833333,37.712963 L133.833333,31.5925926 C133.833333,31.5185181 133.87,31.4814815 133.943333,31.4814815 L135.446667,31.4814815 Z M141.9825,37.6944444 C141.9825,37.7500003 141.973333,37.7854938 141.955,37.8009259 C141.936667,37.8163581 141.903056,37.8240741 141.854167,37.8240741 L139.030833,37.8240741 C138.9575,37.8240741 138.920833,37.7870374 138.920833,37.712963 L138.920833,31.5925926 C138.920833,31.5185181 138.9575,31.4814815 139.030833,31.4814815 L141.881667,31.4814815 C141.930556,31.4814815 141.962639,31.4876543 141.977917,31.5 C141.993195,31.5123457 142.000833,31.5246913 142.000833,31.537037 C142.000833,31.5493828 141.997778,31.5679011 141.991667,31.5925926 C141.985556,31.6172841 141.979444,31.6388888 141.973333,31.6574074 L141.845,32.0462963 C141.832778,32.0895064 141.8175,32.1141975 141.799167,32.1203704 C141.780833,32.1265432 141.750278,32.1296296 141.7075,32.1296296 L139.6725,32.1296296 L139.6725,34.1851852 L141.469167,34.1851852 C141.518056,34.1851852 141.550139,34.1929012 141.565417,34.2083333 C141.580695,34.2237655 141.588333,34.2561726 141.588333,34.3055556 L141.588333,34.712963 C141.588333,34.7623459 141.580695,34.794753 141.565417,34.8101852 C141.550139,34.8256174 141.518056,34.8333333 141.469167,34.8333333 L139.6725,34.8333333 L139.6725,37.1759259 L141.8725,37.1759259 C141.945834,37.1759259 141.9825,37.2098762 141.9825,37.2777778 L141.9825,37.6944444 Z M144.7325,32.1296296 L144.7325,37.712963 C144.7325,37.7870374 144.695834,37.8240741 144.6225,37.8240741 L144.090833,37.8240741 C144.0175,37.8240741 143.980833,37.7870374 143.980833,37.712963 L143.980833,32.1296296 L142.615,32.1296296 C142.541666,32.1296296 142.505,32.092593 142.505,32.0185185 L142.505,31.6018519 C142.505,31.5216045 142.547777,31.4814815 142.633333,31.4814815 L146.226667,31.4814815 C146.3,31.4814815 146.336667,31.5061726 146.336667,31.5555556 C146.336667,31.5740742 146.332083,31.5925925 146.322917,31.6111111 C146.31375,31.6296297 146.306111,31.6512344 146.3,31.6759259 L146.171667,32.0277778 C146.147222,32.0956794 146.098334,32.1296296 146.025,32.1296296 L144.7325,32.1296296 Z M150.489167,37.6111111 C150.501389,37.6419755 150.510556,37.669753 150.516667,37.6944444 C150.522778,37.7191359 150.528889,37.743827 150.535,37.7685185 C150.535,37.8055557 150.492223,37.8240741 150.406667,37.8240741 L149.838333,37.8240741 C149.783333,37.8240741 149.745139,37.8148149 149.72375,37.7962963 C149.702361,37.7777777 149.685556,37.7530866 149.673333,37.7222222 L149.16,35.9351852 L147.280833,35.9351852 L146.813333,37.7222222 C146.801111,37.7530866 146.784306,37.7777777 146.762917,37.7962963 C146.741528,37.8148149 146.703334,37.8240741 146.648333,37.8240741 L146.08,37.8240741 C145.994444,37.8240741 145.951667,37.8055557 145.951667,37.7685185 C145.957778,37.743827 145.963889,37.7191359 145.97,37.6944444 C145.976111,37.669753 145.985278,37.6419755 145.9975,37.6111111 L147.830833,31.5833333 C147.843056,31.5339504 147.856805,31.5046297 147.872083,31.4953704 C147.887361,31.4861111 147.919444,31.4814815 147.968333,31.4814815 L148.509167,31.4814815 C148.545834,31.4814815 148.573333,31.4861111 148.591667,31.4953704 C148.61,31.5046297 148.628333,31.5339504 148.646667,31.5833333 L150.489167,37.6111111 Z M148.435833,33.2407407 C148.399166,33.0987647 148.360972,32.9490749 148.32125,32.7916667 C148.281528,32.6342585 148.249445,32.4907414 148.225,32.3611111 L148.206667,32.3611111 C148.194444,32.4166669 148.182222,32.4814811 148.17,32.5555556 C148.157778,32.62963 148.1425,32.7067897 148.124167,32.787037 C148.105833,32.8672844 148.0875,32.9475305 148.069167,33.0277778 C148.050833,33.1080251 148.0325,33.179012 148.014167,33.2407407 L147.455,35.287037 L148.985833,35.287037 L148.435833,33.2407407 Z" id="BETA"></path>
                <g id="Amazon.com-Logo" stroke-width="1">
                    <g id="svg1936">
                        <g id="layer1" transform="translate(0.156800, 0.052426)">
                            <g id="g1967" transform="translate(0.020794, 0.020863)">
                                <path d="M88.7135302,5.30071111 L88.7135302,1.7820213 C88.7135302,1.24949936 89.1139327,0.892238384 89.5944153,0.892238384 L105.190097,0.892238384 C105.690605,0.892238384 106.091007,1.25624096 106.091007,1.7820213 L106.091007,4.79515298 C106.084338,5.30071111 105.663911,5.96130799 104.916489,7.00612966 L96.8350295,18.660951 C99.8380524,18.5868062 103.007907,19.0384342 105.730645,20.5888165 C106.344596,20.9393359 106.51143,21.4516356 106.558144,21.9571989 L106.558144,25.7118163 C106.558144,26.2241161 105.997579,26.8240411 105.410322,26.5139688 C100.612161,23.9726898 94.2390858,23.6963177 88.9337502,26.5409326 C88.3932076,26.8375269 87.8259709,26.2443383 87.8259709,25.7320386 L87.8259709,22.1661627 C87.8259709,21.5931963 87.83264,20.6157778 88.3998767,19.7462171 L97.7626287,6.183755 L89.6144353,6.183755 C89.1139327,6.183755 88.7135302,5.8264966 88.7135302,5.30071111" id="path12"></path>
                                <path d="M31.8229752,27.255452 L27.0782046,27.255452 C26.6244188,27.2217517 26.2640537,26.8779713 26.2306853,26.4398163 L26.2306853,1.84269311 C26.2306853,1.35061561 26.6377621,0.959646648 27.1449388,0.959646648 L31.5693868,0.959646648 C32.0298544,0.979856015 32.3968861,1.33712984 32.430257,1.7820213 L32.430257,4.99738035 L32.5170112,4.99738035 C33.6715046,1.88987401 35.840349,0.440605326 38.763292,0.440605326 C41.7329439,0.440605326 43.5881424,1.88987401 44.9228184,4.99738035 C46.0706403,1.88987401 48.6799297,0.440605326 51.4760784,0.440605326 C53.4647453,0.440605326 55.6402664,1.26972158 56.9682683,3.13017888 C58.4697784,5.1996 58.1628017,8.20599008 58.1628017,10.8416411 L58.1561301,26.3656716 C58.1561301,26.8577491 57.7490533,27.255452 57.2418766,27.255452 L52.5037752,27.255452 C52.0299693,27.2217517 51.6495868,26.8375269 51.6495868,26.3656716 L51.6495868,13.3289899 C51.6495868,12.2909098 51.7430101,9.70244738 51.5161184,8.71828981 C51.1624301,7.06680147 50.1013624,6.60168264 48.7266439,6.60168264 C47.5788221,6.60168264 46.3776144,7.37687383 45.8904577,8.61718127 C45.403301,9.85748613 45.4500152,11.9336437 45.4500152,13.3289899 L45.4500152,26.3656716 C45.4500152,26.8577491 45.0429384,27.255452 44.5357617,27.255452 L39.7976654,27.255452 C39.3171829,27.2217517 38.943472,26.8375269 38.943472,26.3656716 L38.9368004,13.3289899 C38.9368004,10.5854913 39.383912,6.54775758 36.0138599,6.54775758 C32.6037603,6.54775758 32.7372286,10.484375 32.7372286,13.3289899 L32.7372286,26.3656716 C32.7372286,26.8577491 32.3301519,27.255452 31.8229752,27.255452" id="path14"></path>
                                <path d="M119.517845,0.440605326 C126.558259,0.440605326 130.368756,6.54775758 130.368756,14.3131449 C130.368756,21.8156382 126.157851,27.7677517 119.517845,27.7677517 C112.604222,27.7677517 108.840434,21.6605994 108.840434,14.0502534 C108.840434,6.39271882 112.650936,0.440605326 119.517845,0.440605326 M119.557882,5.46249403 C116.061036,5.46249403 115.840811,10.2754112 115.840811,13.2750648 C115.840811,16.2814549 115.794097,22.6986821 119.517845,22.6986821 C123.194876,22.6986821 123.368384,17.5217624 123.368384,14.3670674 C123.368384,12.2909098 123.28163,9.81030009 122.661003,7.84198751 C122.127132,6.12983251 121.066069,5.46249403 119.557882,5.46249403" id="path16"></path>
                                <path d="M139.49794,27.255452 L134.773189,27.255452 C134.299376,27.2217517 133.918993,26.8375269 133.918993,26.3656716 L133.912324,1.76179908 C133.952364,1.31016602 134.346095,0.959646648 134.826577,0.959646648 L139.224336,0.959646648 C139.638082,0.979856015 139.978425,1.26298255 140.071856,1.64720735 L140.071856,5.40856382 L140.158605,5.40856382 C141.486612,2.04491276 143.348479,0.440605326 146.625108,0.440605326 C148.753915,0.440605326 150.829339,1.21579651 152.164015,3.3391427 C153.405262,5.30745271 153.405262,8.61718127 153.405262,10.9966747 L153.405262,26.4802659 C153.351876,26.9116716 152.958145,27.255452 152.491014,27.255452 L147.732892,27.255452 C147.299119,27.2217517 146.938756,26.8981936 146.892047,26.4802659 L146.892047,13.1200261 C146.892047,10.4304525 147.199021,6.49382994 143.92239,6.49382994 C142.767899,6.49382994 141.706829,7.27576529 141.179632,8.46213994 C140.512298,9.96533884 140.425544,11.4617936 140.425544,13.1200261 L140.425544,26.3656716 C140.418875,26.8577491 140.005121,27.255452 139.497945,27.255452" id="path18"></path>
                                <path d="M76.2810236,15.5062637 C76.2810236,17.3734601 76.3277378,18.9305815 75.3934644,20.5888165 C74.6393735,21.9369767 73.4381658,22.7660929 72.110164,22.7660929 C70.2883313,22.7660929 69.220592,21.3640051 69.220592,19.294584 C69.220592,15.2096694 72.8442349,14.4681837 76.2810236,14.4681837 L76.2810236,15.5062637 M81.0658367,27.1880437 C80.7521909,27.4711574 80.2983975,27.4913796 79.9447091,27.3026406 C78.3697905,25.9814468 78.0828364,25.368036 77.2219713,24.1075089 C74.6193535,26.7903409 72.770824,27.5924907 69.4007695,27.5924907 C65.4034156,27.5924907 62.3002955,25.105142 62.3002955,20.1237054 C62.3002955,16.2342689 64.3823931,13.5851398 67.3587193,12.2909098 C69.9346429,11.1449719 73.5315891,10.9427522 76.2810236,10.6259357 L76.2810236,10.0057833 C76.2810236,8.86658696 76.3677778,7.51842938 75.7004411,6.53427952 C75.1265302,5.65123306 74.0187458,5.28723049 73.0377633,5.28723049 C71.2292738,5.28723049 69.6209945,6.22419945 69.2272611,8.16554564 C69.1471811,8.59695904 68.8335353,9.02162828 68.3997618,9.04185051 L63.8018057,8.54302883 C63.414749,8.45540349 62.9809806,8.13858182 63.094429,7.53865675 C64.1488222,1.90335978 69.1938978,0.204677686 73.7050975,0.204677686 C76.0140895,0.204677686 79.0304556,0.824830119 80.8522884,2.59091534 C83.1612753,4.76818916 82.9410553,7.67346814 82.9410553,10.8348995 L82.9410553,18.30369 C82.9410553,20.5483747 83.8619804,21.5325245 84.7295196,22.7458707 C85.0298247,23.1772764 85.0965589,23.6963177 84.7094869,24.0198758 C83.7418476,24.835514 82.0201149,26.352191 81.0724956,27.2015295 L81.0658265,27.1880309" id="path28"></path>
                                <path d="M14.0784664,15.5062637 C14.0784664,17.3734601 14.1251755,18.9305815 13.1909069,20.5888165 C12.4368109,21.9369767 11.2422775,22.7660929 9.90760145,22.7660929 C8.08576873,22.7660929 7.02470364,21.3640051 7.02470364,19.294584 C7.02470364,15.2096694 10.6483465,14.4681837 14.0784664,14.4681837 L14.0784664,15.5062637 M18.863277,27.1880437 C18.5496286,27.4711574 18.0958352,27.4913796 17.7421468,27.3026406 C16.1672333,25.9814468 15.8869483,25.368036 15.019409,24.1075089 C12.4167909,26.7903409 10.5749433,27.5924907 7.19820945,27.5924907 C3.20752727,27.5924907 0.0977378182,25.105142 0.0977378182,20.1237054 C0.0977378182,16.2342689 2.18650473,13.5851398 5.15615673,12.2909098 C7.73208036,11.1449719 11.3290316,10.9427522 14.0784664,10.6259357 L14.0784664,10.0057833 C14.0784664,8.86658696 14.1652206,7.51842938 13.5045555,6.53427952 C12.9239676,5.65123306 11.8161909,5.28723049 10.8418749,5.28723049 C9.03339309,5.28723049 7.418432,6.22419945 7.02470364,8.16554564 C6.94462109,8.59695904 6.63097273,9.02162828 6.20387855,9.04185051 L1.599248,8.54302883 C1.21219127,8.45540349 0.785094545,8.13858182 0.891868727,7.53865675 C1.95293636,1.90335978 6.99133527,0.204677686 11.5025425,0.204677686 C13.8115272,0.204677686 16.8278933,0.824830119 18.6497261,2.59091534 C20.9587181,4.76818916 20.738493,7.67346814 20.738493,10.8348995 L20.738493,18.30369 C20.738493,20.5483747 21.6594232,21.5325245 22.5269624,22.7458707 C22.8339366,23.1772764 22.9006708,23.6963177 22.5136141,24.0198758 C21.5459748,24.835514 19.8242446,26.352191 18.8766203,27.2015295 L18.863277,27.1880309" id="path30"></path>
                            </g>
                        </g>
                    </g>
                </g>
                <path d="M62.7343913,48.6998061 C62.8096462,48.8518361 62.847273,48.9563552 62.847273,49.0133665 C62.847273,49.1083853 62.7437991,49.1748975 62.5368482,49.212905 L60.7589604,49.5549709 C60.5520095,49.5929784 60.4109087,49.5169646 60.3356538,49.326927 L55.6792812,40.2621794 L53.6474095,40.2621794 L53.6474095,48.813828 C53.6474095,49.0418731 53.5345288,49.155894 53.3087642,49.155894 L51.6719786,49.155894 C51.446214,49.155894 51.3333333,49.0418731 51.3333333,48.813828 L51.3333333,29.9716956 C51.3333333,29.7436505 51.446214,29.6296296 51.6719786,29.6296296 L56.0461469,29.6296296 C56.5917448,29.6296296 57.1984782,29.6628857 57.8663653,29.7293989 C58.5342524,29.795912 59.1550959,29.9954485 59.7289144,30.3280143 C60.3027329,30.66058 60.7871789,31.1784247 61.1822671,31.8815638 C61.5773552,32.5847028 61.7748963,33.5633817 61.7748963,34.8176298 C61.7748963,35.5967839 61.652609,36.2856598 61.4080306,36.8842782 C61.1634522,37.4828966 60.8577338,37.9959904 60.4908663,38.423575 C60.1239987,38.8511595 59.7242131,39.1979729 59.2914975,39.4640255 C58.858782,39.7300782 58.4448863,39.9296146 58.0497982,40.062641 L62.7343913,48.6998061 Z M55.4817381,38.4093222 C56.0085223,38.4093222 56.5117818,38.3665644 56.9915316,38.2810475 C57.4712815,38.1955306 57.8945839,38.0292502 58.2614515,37.7822013 C58.628319,37.5351525 58.9199273,37.1788373 59.1362851,36.7132452 C59.3526429,36.2476532 59.4608202,35.6347911 59.4608202,34.8746408 C59.4608202,34.0764829 59.3479396,33.45887 59.1221749,33.0217836 C58.8964102,32.5846971 58.6048019,32.2616381 58.2473412,32.0525967 C57.8898805,31.8435554 57.4947983,31.7200328 57.0620827,31.6820253 C56.6293672,31.6440178 56.2154715,31.6250143 55.8203834,31.6250143 L53.6474095,31.6250143 L53.6474095,38.4093222 L55.4817381,38.4093222 Z M73.6909773,48.813828 C73.6909773,49.0418731 73.5780967,49.155894 73.352332,49.155894 L65.9021357,49.155894 C65.6763711,49.155894 65.5634904,49.0418731 65.5634904,48.813828 L65.5634904,47.6451027 C65.5634904,47.4170576 65.6763711,47.3030368 65.9021357,47.3030368 L68.4701958,47.3030368 L68.4701958,31.4824868 L65.9021357,31.4824868 C65.6763711,31.4824868 65.5634904,31.368466 65.5634904,31.1404209 L65.5634904,29.9716956 C65.5634904,29.7436505 65.6763711,29.6296296 65.9021357,29.6296296 L73.352332,29.6296296 C73.5780967,29.6296296 73.6909773,29.7436505 73.6909773,29.9716956 L73.6909773,31.1404209 C73.6909773,31.368466 73.5780967,31.4824868 73.352332,31.4824868 L70.7842719,31.4824868 L70.7842719,47.3030368 L73.352332,47.3030368 C73.5780967,47.3030368 73.6909773,47.4170576 73.6909773,47.6451027 L73.6909773,48.813828 Z M82.3617076,29.6296296 C83.3400211,29.6296296 84.2853964,29.724647 85.1978619,29.9146846 C86.1103274,30.1047222 86.9193052,30.5275495 87.6248198,31.1831791 C88.3303343,31.8388088 88.8947375,32.7984842 89.3180462,34.0622342 C89.7413549,35.3259841 89.9530061,37.0410476 89.9530061,39.2074761 C89.9530061,40.8988106 89.8119053,42.3715798 89.5296995,43.6258279 C89.2474937,44.8800759 88.7912678,45.9157653 88.1610081,46.7329269 C87.5307485,47.5500885 86.7123639,48.1581997 85.7058298,48.5572786 C84.6992957,48.9563575 83.4811256,49.155894 82.0512828,49.155894 L78.8059321,49.155894 C78.5801675,49.155894 78.4672868,49.0418731 78.4672868,48.813828 L78.4672868,29.9716956 C78.4672868,29.7436505 78.5801675,29.6296296 78.8059321,29.6296296 L82.3617076,29.6296296 Z M82.5310303,47.1605093 C83.5469712,47.1605093 84.3700592,46.9704746 85.0003188,46.5903994 C85.6305785,46.2103242 86.1244312,45.6687252 86.4818919,44.9655862 C86.8393526,44.2624471 87.0839273,43.4120417 87.2156234,42.4143443 C87.3473194,41.416647 87.4131665,40.3096947 87.4131665,39.0934541 C87.4131665,37.5351459 87.3049892,36.266664 87.0886314,35.2879705 C86.8722736,34.3092769 86.5477418,33.549138 86.1150262,33.0075308 C85.6823106,32.4659237 85.150831,32.1001068 84.5205713,31.9100693 C83.8903117,31.7200317 83.1612909,31.6250143 82.3334872,31.6250143 L80.781363,31.6250143 L80.781363,47.1605093 L82.5310303,47.1605093 Z M104.408927,48.7568171 C104.408927,48.9278509 104.380707,49.0371209 104.324265,49.0846303 C104.267824,49.1321396 104.16435,49.155894 104.013841,49.155894 L95.3219449,49.155894 C95.0961803,49.155894 94.9832996,49.0418731 94.9832996,48.813828 L94.9832996,29.9716956 C94.9832996,29.7436505 95.0961803,29.6296296 95.3219449,29.6296296 L104.098502,29.6296296 C104.249012,29.6296296 104.347782,29.6486331 104.394817,29.6866406 C104.441851,29.7246481 104.465368,29.7626551 104.465368,29.8006626 C104.465368,29.8386701 104.455961,29.8956805 104.437147,29.9716956 C104.418333,30.0477106 104.39952,30.1142228 104.380706,30.171234 L103.98562,31.3684649 C103.947993,31.5014912 103.900959,31.5775051 103.844518,31.5965088 C103.788077,31.6155126 103.69401,31.6250143 103.562314,31.6250143 L97.2973757,31.6250143 L97.2973757,37.9532343 L102.828582,37.9532343 C102.979092,37.9532343 103.077862,37.9769886 103.124897,38.024498 C103.171931,38.0720074 103.195448,38.1717757 103.195448,38.3238057 L103.195448,39.5780475 C103.195448,39.7300776 103.171931,39.8298458 103.124897,39.8773552 C103.077862,39.9248646 102.979092,39.948619 102.828582,39.948619 L97.2973757,39.948619 L97.2973757,47.1605093 L104.070281,47.1605093 C104.296046,47.1605093 104.408927,47.2650284 104.408927,47.4740698 L104.408927,48.7568171 Z" id="RIDE"></path>
            </g>
        </g>
    </g>
</svg>