<?xml version="1.0" encoding="UTF-8"?>
<svg width="200px" height="51px" viewBox="0 0 200 51" version="1.1" xmlns="http://www.w3.org/2000/svg" xmlns:xlink="http://www.w3.org/1999/xlink">
    <!-- Generator: Sketch 42 (36781) - http://www.bohemiancoding.com/sketch -->
    <title>logo-amazon-drt</title>
    <desc>Created with Sketch.</desc>
    <defs></defs>
    <g id="Hub" stroke="none" stroke-width="1" fill="none" fill-rule="evenodd">
        <g id="Landing---Mobile-Copy-3" transform="translate(-88.000000, -100.000000)" fill="#FFFFFF">
            <g id="logo-amazon-drt" transform="translate(88.000000, 100.000000)">
                <path d="M52.4873047,50.4589844 C50.7685461,50.4589844 49.4550827,49.7347078 48.546875,48.2861328 C47.6386673,46.8375579 47.1845703,44.8828248 47.1845703,42.421875 C47.1845703,39.9674356 47.6386673,38.0159578 48.546875,36.5673828 C49.4550827,35.1188079 50.7685461,34.3945312 52.4873047,34.3945312 C54.2125737,34.3945312 55.5276647,35.1188079 56.4326172,36.5673828 C57.3375696,38.0159578 57.7900391,39.9674356 57.7900391,42.421875 C57.7900391,44.8828248 57.3375696,46.8375579 56.4326172,48.2861328 C55.5276647,49.7347078 54.2125737,50.4589844 52.4873047,50.4589844 Z M52.4873047,48.9355469 C53.4378303,48.9355469 54.2304656,48.3968153 54.8652344,47.3193359 C55.5000032,46.2418566 55.8173828,44.6093859 55.8173828,42.421875 C55.8173828,40.2343641 55.5000032,38.6018934 54.8652344,37.5244141 C54.2304656,36.4469347 53.4378303,35.9082031 52.4873047,35.9082031 C51.5367791,35.9082031 50.7441438,36.4469347 50.109375,37.5244141 C49.4746062,38.6018934 49.1572266,40.2343641 49.1572266,42.421875 C49.1572266,44.6093859 49.4746062,46.2418566 50.109375,47.3193359 C50.7441438,48.3968153 51.5367791,48.9355469 52.4873047,48.9355469 Z M61.5400391,50 L59.7236328,50 L59.7236328,34.84375 L61.5009766,34.84375 L66.8623047,44.9316406 L67.4482422,46.4355469 L67.4970703,46.4355469 L67.4482422,44.9316406 L67.4482422,34.84375 L69.2646484,34.84375 L69.2646484,50 L67.4482422,50 L62.2333984,40.078125 L61.5009766,38.4863281 L61.5400391,40.0585938 L61.5400391,50 Z M84.0107422,50 L84.0107422,34.84375 L87.6044922,34.84375 C89.2581463,34.84375 90.4869751,35.1318331 91.2910156,35.7080078 C92.0950561,36.2841826 92.6988912,37.1549421 93.1025391,38.3203125 C93.5061869,39.4856829 93.7080078,40.8658774 93.7080078,42.4609375 C93.7080078,43.9713617 93.4947938,45.2978458 93.0683594,46.4404297 C92.641925,47.5830135 92.0380898,48.461911 91.2568359,49.0771484 C90.475582,49.6923859 89.2581463,50 87.6044922,50 L84.0107422,50 Z M85.9833984,48.3300781 L87.3017578,48.3300781 C88.6363999,48.3300781 89.5885388,48.0924503 90.1582031,47.6171875 C90.7278674,47.1419247 91.1347644,46.4827516 91.3789062,45.6396484 C91.6230481,44.7965453 91.7451172,43.6328199 91.7451172,42.1484375 C91.7451172,40.6966073 91.6018895,39.580082 91.3154297,38.7988281 C91.0289699,38.0175742 90.6188178,37.4169943 90.0849609,36.9970703 C89.5511041,36.5771463 88.6754618,36.3671875 87.4580078,36.3671875 L85.9833984,36.3671875 L85.9833984,48.3300781 Z M104.665039,48.3300781 L104.665039,50 L96.4814453,50 L96.4814453,34.84375 L104.508789,34.84375 L104.508789,36.3671875 L98.4541016,36.3671875 L98.4541016,41.5136719 L103.90332,41.5136719 L103.90332,43.0273438 L98.4541016,43.0273438 L98.4541016,48.3300781 L104.665039,48.3300781 Z M108.639648,50 L107.047852,50 L107.047852,34.84375 L109.030273,34.84375 L112.526367,44.8242188 L116.022461,34.84375 L117.956055,34.84375 L117.956055,50 L116.139648,50 L116.139648,40.3417969 L116.188477,39.0136719 L116.139648,39.0136719 L115.709961,40.3417969 L113.366211,46.9726562 L111.393555,46.9726562 L109.020508,40.3417969 L108.639648,39.0136719 L108.59082,39.0136719 L108.639648,40.3417969 L108.639648,50 Z M120.719727,50 L118.825195,50 L123.493164,34.84375 L125.495117,34.84375 L130.192383,50 L128.112305,50 L127.077148,46.6699219 L121.745117,46.6699219 L120.719727,50 Z M122.213867,45.15625 L126.637695,45.15625 L124.811523,39.4042969 L124.381836,37.8808594 L124.000977,39.4042969 L122.213867,45.15625 Z M133.551758,50 L131.735352,50 L131.735352,34.84375 L133.512695,34.84375 L138.874023,44.9316406 L139.459961,46.4355469 L139.508789,46.4355469 L139.459961,44.9316406 L139.459961,34.84375 L141.276367,34.84375 L141.276367,50 L139.459961,50 L134.245117,40.078125 L133.512695,38.4863281 L133.551758,40.0585938 L133.551758,50 Z M144.020508,50 L144.020508,34.84375 L147.614258,34.84375 C149.267912,34.84375 150.496741,35.1318331 151.300781,35.7080078 C152.104822,36.2841826 152.708657,37.1549421 153.112305,38.3203125 C153.515953,39.4856829 153.717773,40.8658774 153.717773,42.4609375 C153.717773,43.9713617 153.504559,45.2978458 153.078125,46.4404297 C152.651691,47.5830135 152.047855,48.461911 151.266602,49.0771484 C150.485348,49.6923859 149.267912,50 147.614258,50 L144.020508,50 Z M145.993164,48.3300781 L147.311523,48.3300781 C148.646166,48.3300781 149.598304,48.0924503 150.167969,47.6171875 C150.737633,47.1419247 151.14453,46.4827516 151.388672,45.6396484 C151.632814,44.7965453 151.754883,43.6328199 151.754883,42.1484375 C151.754883,40.6966073 151.611655,39.580082 151.325195,38.7988281 C151.038736,38.0175742 150.628583,37.4169943 150.094727,36.9970703 C149.56087,36.5771463 148.685227,36.3671875 147.467773,36.3671875 L145.993164,36.3671875 L145.993164,48.3300781 Z" id="ON-DEMAND"></path>
                <g id="logo-large-amazon-slu">
                    <g id="Amazon.com-Logo">
                        <g id="svg1936">
                            <g id="layer1" transform="translate(0.159765, 0.052280)">
                                <g id="g1967" transform="translate(0.021187, 0.020805)">
                                    <path d="M90.3911122,5.28595913 L90.3911122,1.77706191 C90.3911122,1.24602198 90.7990864,0.889755268 91.2886549,0.889755268 L107.179253,0.889755268 C107.689225,0.889755268 108.097199,1.25274481 108.097199,1.77706191 L108.097199,4.78180798 C108.090404,5.28595913 107.662026,5.94471756 106.90047,6.98663147 L98.6661899,18.6090172 C101.726,18.5350788 104.955797,18.9854498 107.730022,20.5315175 C108.355583,20.8810613 108.525572,21.3919353 108.573169,21.8960916 L108.573169,25.6402599 C108.573169,26.1511339 108.002004,26.7493893 107.403642,26.4401799 C102.514747,23.9059734 96.0211567,23.6303704 90.6154966,26.4670687 C90.0647323,26.7628376 89.4867691,26.1712998 89.4867691,25.6604258 L89.4867691,22.1044739 C89.4867691,21.5331021 89.4935643,20.5584037 90.0715275,19.691263 L99.6113301,6.1665455 L91.3090535,6.1665455 C90.7990864,6.1665455 90.3911122,5.81028135 90.3911122,5.28595913" id="path12"></path>
                                    <path d="M32.4247509,27.1795995 L27.5902563,27.1795995 C27.1278893,27.1459931 26.7607097,26.8031694 26.7267103,26.3662338 L26.7267103,1.83756486 C26.7267103,1.34685682 27.1414849,0.956975934 27.6582524,0.956975934 L32.1663672,0.956975934 C32.6355423,0.977129057 33.0095145,1.33340859 33.0435165,1.77706191 L33.0435165,4.98347255 L33.1319112,4.98347255 C34.3082362,1.88461446 36.5180937,0.439379113 39.4963099,0.439379113 C42.5221182,0.439379113 44.4123987,1.88461446 45.7723136,4.98347255 C46.9418408,1.88461446 49.6004722,0.439379113 52.4494964,0.439379113 C54.4757692,0.439379113 56.6924296,1.26618792 58.0455441,3.12146753 C59.575448,5.18512942 59.2626663,8.18315266 59.2626663,10.8114686 L59.2558685,26.2922955 C59.2558685,26.7830035 58.8410939,27.1795995 58.3243264,27.1795995 L53.496627,27.1795995 C53.0138614,27.1459931 52.6262858,26.7628376 52.6262858,26.2922955 L52.6262858,13.2918951 C52.6262858,12.256704 52.7214757,9.67544529 52.4902936,8.69402664 C52.1299169,7.04713443 51.0487844,6.58331004 49.6480698,6.58331004 C48.4785425,6.58331004 47.2546199,7.35634385 46.758251,8.59319949 C46.2618821,9.83005256 46.3094796,11.9004322 46.3094796,13.2918951 L46.3094796,26.2922955 C46.3094796,26.7830035 45.8947051,27.1795995 45.3779376,27.1795995 L40.5502434,27.1795995 C40.0606749,27.1459931 39.6798971,26.7628376 39.6798971,26.2922955 L39.6730993,13.2918951 C39.6730993,10.5560317 40.1286658,6.52953504 36.6948857,6.52953504 C33.2203007,6.52953504 33.356293,10.4551968 33.356293,13.2918951 L33.356293,26.2922955 C33.356293,26.7830035 32.9415184,27.1795995 32.4247509,27.1795995" id="path14"></path>
                                    <path d="M121.77794,0.439379113 C128.951489,0.439379113 132.834043,6.52953504 132.834043,14.2733112 C132.834043,21.7549249 128.543509,27.6904735 121.77794,27.6904735 C114.73358,27.6904735 110.898618,21.6003176 110.898618,14.0111513 C110.898618,6.37492777 114.781177,0.439379113 121.77794,0.439379113 M121.818734,5.44729181 C118.255762,5.44729181 118.031373,10.2468145 118.031373,13.2381201 C118.031373,16.2361433 117.983775,22.6355112 121.77794,22.6355112 C125.524504,22.6355112 125.701293,17.472999 125.701293,14.3270836 C125.701293,12.256704 125.612899,9.78299784 124.980535,7.82016311 C124.436568,6.11277307 123.355441,5.44729181 121.818734,5.44729181" id="path16"></path>
                                    <path d="M142.13586,27.1795995 L137.321764,27.1795995 C136.838991,27.1459931 136.451415,26.7628376 136.451415,26.2922955 L136.44462,1.75689596 C136.485417,1.30651981 136.886593,0.956975934 137.376162,0.956975934 L141.857083,0.956975934 C142.278653,0.977129057 142.625431,1.25946765 142.720629,1.64262314 L142.720629,5.39351168 L142.809018,5.39351168 C144.162138,2.03922173 146.059214,0.439379113 149.397804,0.439379113 C151.566867,0.439379113 153.681537,1.21241293 155.041452,3.3298498 C156.306172,5.29268197 156.306172,8.59319949 156.306172,10.9660708 L156.306172,26.4065709 C156.251776,26.8367759 155.8506,27.1795995 155.374635,27.1795995 L150.526537,27.1795995 C150.08456,27.1459931 149.717383,26.8233354 149.669791,26.4065709 L149.669791,13.0835128 C149.669791,10.4014244 149.98257,6.47575748 146.643977,6.47575748 C145.467655,6.47575748 144.38652,7.2555167 143.849354,8.43858965 C143.1694,9.93760512 143.081006,11.4298952 143.081006,13.0835128 L143.081006,26.2922955 C143.07421,26.7830035 142.652633,27.1795995 142.135865,27.1795995" id="path18"></path>
                                    <path d="M77.7235057,15.4631095 C77.7235057,17.3251094 77.7711032,18.8778973 76.8191626,20.5315175 C76.0508117,21.8759257 74.8268891,22.7027345 73.4737746,22.7027345 C71.6174909,22.7027345 70.5295605,21.3045487 70.5295605,19.2408868 C70.5295605,15.1673406 74.2217269,14.4279184 77.7235057,14.4279184 L77.7235057,15.4631095 M82.5988001,27.1123789 C82.2792232,27.3947046 81.8168484,27.4148706 81.4564718,27.2266568 C79.8517714,25.90914 79.5593909,25.2974363 78.6822467,24.0404173 C76.0304131,26.7157828 74.1469278,27.5157003 70.7131452,27.5157003 C66.640201,27.5157003 63.4784005,25.0352739 63.4784005,20.0677008 C63.4784005,16.1890886 65.5998708,13.5473321 68.6324796,12.256704 C71.2571142,11.1139552 74.922079,10.9122984 77.7235057,10.5963635 L77.7235057,9.977937 C77.7235057,8.84191108 77.8119004,7.49750545 77.1319442,6.5160945 C76.5471806,5.63550557 75.4184479,5.27251602 74.4189149,5.27251602 C72.5762267,5.27251602 70.9375347,6.20687738 70.5363557,8.14282077 C70.4547614,8.57303355 70.1351845,8.99652092 69.6932084,9.01668686 L65.0083044,8.51925342 C64.6139284,8.43187194 64.1719575,8.11593199 64.2875511,7.51767653 C65.361883,1.89806269 70.5023616,0.204108064 75.0988685,0.204108064 C77.4515237,0.204108064 80.5249297,0.822534602 82.3812135,2.58370477 C84.7338636,4.7549192 84.5094792,7.65211273 84.5094792,10.8047458 L84.5094792,18.2527505 C84.5094792,20.4911881 85.4478191,21.4725991 86.3317636,22.6825685 C86.6377475,23.1127736 86.7057436,23.6303704 86.311352,23.9530281 C85.3254146,24.7663963 83.5711237,26.2788524 82.6055849,27.1258271 L82.5987897,27.1123661" id="path28"></path>
                                    <path d="M14.3446917,15.4631095 C14.3446917,17.3251094 14.3922841,18.8778973 13.4403483,20.5315175 C12.6719923,21.8759257 11.4548701,22.7027345 10.0949552,22.7027345 C8.23867145,22.7027345 7.15754151,21.3045487 7.15754151,19.2408868 C7.15754151,15.1673406 10.8497079,14.4279184 14.3446917,14.4279184 L14.3446917,15.4631095 M19.2199835,27.1123789 C18.900404,27.3947046 18.4380293,27.4148706 18.0776526,27.2266568 C16.4729574,25.90914 16.1873721,25.2974363 15.3034276,24.0404173 C12.6515937,26.7157828 10.7749165,27.5157003 7.33432834,27.5157003 C3.26818194,27.5157003 0.0995860504,25.0352739 0.0995860504,20.0677008 C0.0995860504,16.1890886 2.22785176,13.5473321 5.25366018,12.256704 C7.8782948,11.1139552 11.5432648,10.9122984 14.3446917,10.5963635 L14.3446917,9.977937 C14.3446917,8.84191108 14.4330864,7.49750545 13.7599281,6.5160945 C13.1683612,5.63550557 12.0396363,5.27251602 11.0468959,5.27251602 C9.20421549,5.27251602 7.55871531,6.20687738 7.15754151,8.14282077 C7.07594459,8.57303355 6.75636511,8.99652092 6.32119453,9.01668686 L1.62948994,8.51925342 C1.23511393,8.43187194 0.799940764,8.11593199 0.908734057,7.51767653 C1.98986659,1.89806269 7.12354214,0.204108064 11.7200568,0.204108064 C14.0727046,0.204108064 17.1461105,0.822534602 19.0023943,2.58370477 C21.3550496,4.7549192 21.13066,7.65211273 21.13066,10.8047458 L21.13066,18.2527505 C21.13066,20.4911881 22.0690051,21.4725991 22.9529496,22.6825685 C23.2657287,23.1127736 23.3337248,23.6303704 22.9393488,23.9530281 C21.9534114,24.7663963 20.1991231,26.2788524 19.2335791,27.1258271 L19.2199835,27.1123661" id="path30"></path>
                                </g>
                            </g>
                        </g>
                    </g>
                    <g id="Group-2" transform="translate(163.056604, 0.547170)">
                        <path d="M1.00367596,14.988694 C1.036316,14.9070939 1.09343519,14.8662945 1.17503527,14.8662945 C1.20767531,14.8662945 1.24439479,14.8744544 1.28519483,14.8907744 C1.32599487,14.9070944 1.42799344,14.9560537 1.5911936,15.0376538 C2.19503419,15.3640541 2.80702561,15.6170106 3.42718622,15.7965308 C4.04734683,15.9760509 4.61853882,16.0658097 5.14077933,16.0658097 C6.05470022,16.0658097 6.78093004,15.8128532 7.31949057,15.3069327 C7.85805109,14.8010122 8.12732732,14.1319016 8.12732732,13.2995808 C8.12732732,12.9242204 8.08244795,12.5896651 7.99268786,12.2959048 C7.90292777,12.0021446 7.73973006,11.7165486 7.50308983,11.4391083 C7.2664496,11.161668 6.952294,10.880152 6.56061362,10.5945517 C6.16893323,10.3089514 5.67118021,9.99479581 5.06733962,9.65207547 C4.54509911,9.35831518 4.12078506,9.11351862 3.79438474,8.91767842 C3.46798442,8.72183823 3.19462826,8.54640069 2.97430804,8.39136054 C2.75398782,8.23632039 2.5703904,8.08944245 2.42351025,7.95072231 C2.27663011,7.81200218 2.12975217,7.66104429 1.98287203,7.49784413 C1.65647171,7.12248377 1.41167514,6.70224966 1.24847498,6.2371292 C1.08527482,5.77200875 1.00367596,5.28649556 1.00367596,4.78057506 C1.00367596,4.12777442 1.1219943,3.53210277 1.35863454,2.99354225 C1.59527477,2.45498172 1.92575013,1.98986824 2.35007055,1.59818786 C2.77439096,1.20650748 3.28030387,0.900511766 3.86782445,0.68019155 C4.45534502,0.459871335 5.10813587,0.349712879 5.82621657,0.349712879 C6.23421697,0.349712879 6.67893073,0.39459225 7.16037121,0.484352338 C7.64181168,0.574112426 8.08652544,0.684270881 8.49452584,0.814831009 C8.90252624,0.945391137 9.24116149,1.08818913 9.51044176,1.24322929 C9.77972202,1.39826944 9.91436013,1.54106744 9.91436013,1.67162756 L9.91436013,1.74506727 L9.4247621,2.96906235 C9.37580205,3.06698244 9.31052297,3.11594176 9.22892289,3.11594176 C9.21260287,3.11594176 9.19220316,3.11186181 9.16772313,3.1037018 C9.14324311,3.0955418 9.09836374,3.07922203 9.03308368,3.054742 C8.96780361,3.03026198 8.86988498,2.98538261 8.73932486,2.92010254 C8.60876473,2.85482248 8.42108736,2.75690385 8.17628712,2.62634372 C7.83356679,2.46314356 7.45005216,2.3325854 7.02573175,2.2346653 C6.60141133,2.1367452 6.19341705,2.08778589 5.80173667,2.08778589 C4.95309584,2.08778589 4.29214511,2.29994292 3.81886464,2.72426333 C3.34558418,3.14858375 3.1089475,3.74425539 3.1089475,4.51129614 C3.1089475,5.37625699 3.43534292,6.06984727 4.08814356,6.59208778 C4.21870369,6.69000787 4.33294209,6.77160673 4.43086218,6.83688679 C4.52878228,6.90216686 4.67158028,6.9919256 4.85926046,7.10616571 C5.04694064,7.22040582 5.30397704,7.37952359 5.63037736,7.58352379 C5.95677768,7.78752399 6.42189116,8.06904004 7.02573175,8.42808039 C7.3847721,8.6402406 7.69076781,8.82791797 7.94372806,8.99111813 C8.1966883,9.15431829 8.41292527,9.30935612 8.59244545,9.45623626 C8.77196562,9.6031164 8.92700345,9.74999434 9.05756358,9.89687449 C9.1881237,10.0437546 9.31868187,10.2069523 9.449242,10.3864725 C9.72668227,10.7618329 9.93067941,11.1739071 10.0612395,11.6227075 C10.1917997,12.071508 10.2570788,12.5407014 10.2570788,13.0303019 C10.2570788,13.7483826 10.1346805,14.4011734 9.88988023,14.988694 C9.64507999,15.5762146 9.29420491,16.0821275 8.83724446,16.5064479 C8.38028402,16.9307683 7.83765162,17.2571637 7.20933101,17.485644 C6.58101039,17.7141242 5.88334018,17.8283626 5.11629943,17.8283626 C4.65933898,17.8283626 4.16158596,17.7794033 3.62302543,17.6814832 C3.0844649,17.5835631 2.58263194,17.4611648 2.11751148,17.3142847 C1.65239103,17.1674045 1.26479646,17.0082867 0.954716161,16.8369266 C0.644635857,16.6655664 0.489598031,16.5064486 0.489598031,16.3595685 C0.489598031,16.2942884 0.505917802,16.2290094 0.538557834,16.1637293 L1.00367596,14.988694 Z M21.885032,15.747571 C22.1135122,15.747571 22.2277506,15.8046902 22.2277506,15.9189303 C22.2277506,15.9352503 22.2114308,16.0086893 22.1787908,16.1392494 L21.7871124,17.2163651 C21.7055123,17.3958852 21.583114,17.485644 21.4199139,17.485644 L14.0269836,17.485644 C13.8801034,17.485644 13.7862648,17.4652443 13.7454647,17.4244442 C13.7046647,17.3836442 13.684265,17.2898055 13.684265,17.1429253 L13.684265,1.03515012 C13.684265,0.888269979 13.7046647,0.794431295 13.7454647,0.753631255 C13.7862648,0.712831215 13.8801034,0.692431501 14.0269836,0.692431501 L15.3488983,0.692431501 C15.4957784,0.692431501 15.5896171,0.712831215 15.6304171,0.753631255 C15.6712172,0.794431295 15.6916169,0.888269979 15.6916169,1.03515012 L15.6916169,15.747571 L21.885032,15.747571 Z M25.9486957,0.692431501 C26.0955758,0.692431501 26.1894145,0.712831215 26.2302145,0.753631255 C26.2710146,0.794431295 26.2914143,0.888269979 26.2914143,1.03515012 L26.2914143,12.9079024 C26.2914143,14.0992635 26.528051,14.9438117 27.0013314,15.4415722 C27.4746119,15.9393327 28.2742807,16.1882092 29.4003618,16.1882092 C30.5427629,16.1882092 31.3832311,15.9230129 31.9217916,15.3926124 C32.4603522,14.8622119 32.7296284,14.0339835 32.7296284,12.9079024 L32.7296284,1.03515012 C32.7296284,0.888269979 32.7500281,0.794431295 32.7908281,0.753631255 C32.8316282,0.712831215 32.9254669,0.692431501 33.072347,0.692431501 L34.320822,0.692431501 C34.4677021,0.692431501 34.5615408,0.712831215 34.6023409,0.753631255 C34.6431409,0.794431295 34.6635406,0.888269979 34.6635406,1.03515012 L34.6635406,12.9813421 C34.6635406,13.7810229 34.565622,14.4501335 34.3697818,14.988694 C34.1739416,15.5272545 33.8638659,16.0086878 33.4395455,16.4330082 C32.933625,16.9226087 32.3583531,17.2775637 31.7137125,17.4978839 C31.0690718,17.7182041 30.2653231,17.8283626 29.3024422,17.8283626 C25.9568389,17.8283626 24.2840623,16.2127052 24.2840623,12.9813421 L24.2840623,1.03515012 C24.2840623,0.888269979 24.3044621,0.794431295 24.3452621,0.753631255 C24.3860621,0.712831215 24.4799008,0.692431501 24.626781,0.692431501 L25.9486957,0.692431501 Z" id="SLU"></path>
                        <path d="M4.01722994,25.1150119 C4.01722994,25.664287 3.81801398,26.0926013 3.41957609,26.3999676 C3.0211382,26.707334 2.48040918,26.8610149 1.79737279,26.8610149 C1.05741671,26.8610149 0.488228265,26.7656758 0.0897903755,26.5749948 L0.0897903755,25.874886 C0.345929019,25.9830335 0.624831358,26.0684117 0.926505761,26.1310234 C1.22818016,26.1936351 1.5270041,26.2249404 1.82298653,26.2249404 C2.30680397,26.2249404 2.67108458,26.1331588 2.91583928,25.9495928 C3.16059398,25.7660267 3.2829695,25.5106034 3.2829695,25.1833152 C3.2829695,24.9670203 3.23956888,24.7898604 3.15276634,24.6518301 C3.0659638,24.5137999 2.92082075,24.3864439 2.71733282,24.2697586 C2.5138449,24.1530732 2.20434868,24.0207369 1.78883488,23.8727457 C1.20825396,23.6649888 0.793457876,23.4188148 0.544434195,23.1342163 C0.295410513,22.8496178 0.17090054,22.4782223 0.17090054,22.0200187 C0.17090054,21.5390473 0.351617873,21.156268 0.713057958,20.8716696 C1.07449804,20.5870711 1.55261634,20.4447739 2.14742719,20.4447739 C2.7678519,20.4447739 3.33846332,20.5586116 3.85927857,20.7862904 L3.63302389,21.4180959 C3.11790062,21.2018011 2.61701479,21.0936553 2.13035137,21.0936553 C1.7461434,21.0936553 1.44589649,21.1761876 1.22960164,21.3412547 C1.01330679,21.5063218 0.905160981,21.7354202 0.905160981,22.0285566 C0.905160981,22.2448515 0.945004172,22.4220114 1.02469175,22.5600417 C1.10437933,22.6980719 1.2388501,22.8247164 1.4281081,22.9399788 C1.61736609,23.0552411 1.90694072,23.1825971 2.29684065,23.3220503 C2.95141719,23.5554211 3.40178754,23.805864 3.64796524,24.0733866 C3.89414294,24.3409092 4.01722994,24.6881141 4.01722994,25.1150119 Z M10.032189,26.7756358 L9.30646648,26.7756358 L9.30646648,23.838594 L6.01937033,23.838594 L6.01937033,26.7756358 L5.2936478,26.7756358 L5.2936478,20.534422 L6.01937033,20.534422 L6.01937033,23.1897127 L9.30646648,23.1897127 L9.30646648,20.534422 L10.032189,20.534422 L10.032189,26.7756358 Z M16.4569679,20.534422 L16.4569679,24.5728544 C16.4569679,25.2843507 16.2420992,25.8435783 15.8123555,26.2505542 C15.3826118,26.65753 14.7920788,26.8610149 14.0407387,26.8610149 C13.2893987,26.8610149 12.708115,26.656107 12.2968702,26.2462852 C11.8856254,25.8364634 11.680006,25.2729668 11.680006,24.5557786 L11.680006,20.534422 L12.4057286,20.534422 L12.4057286,24.6070061 C12.4057286,25.1278213 12.5480257,25.5276762 12.8326242,25.8065827 C13.1172227,26.0854893 13.5355762,26.2249404 14.0876973,26.2249404 C14.6142045,26.2249404 15.0197512,26.0847778 15.3043497,25.8044483 C15.5889482,25.5241188 15.7312453,25.1221294 15.7312453,24.5984682 L15.7312453,20.534422 L16.4569679,20.534422 Z M20.0300841,26.7756358 L19.3043615,26.7756358 L19.3043615,21.1790344 L17.3278349,21.1790344 L17.3278349,20.534422 L22.0066107,20.534422 L22.0066107,21.1790344 L20.0300841,21.1790344 L20.0300841,26.7756358 Z M25.0418385,26.7756358 L24.3161159,26.7756358 L24.3161159,21.1790344 L22.3395893,21.1790344 L22.3395893,20.534422 L27.0183651,20.534422 L27.0183651,21.1790344 L25.0418385,21.1790344 L25.0418385,26.7756358 Z M27.9575355,26.7756358 L27.9575355,20.534422 L28.683258,20.534422 L28.683258,26.1182165 L31.4367346,26.1182165 L31.4367346,26.7756358 L27.9575355,26.7756358 Z M35.9746349,26.7756358 L32.4954357,26.7756358 L32.4954357,20.534422 L35.9746349,20.534422 L35.9746349,21.1790344 L33.2211583,21.1790344 L33.2211583,23.1897127 L35.8081456,23.1897127 L35.8081456,23.8300561 L33.2211583,23.8300561 L33.2211583,26.1267544 L35.9746349,26.1267544 L35.9746349,26.7756358 Z" id="SHUTTLE"></path>
                    </g>
                </g>
            </g>
        </g>
    </g>
</svg>