<?xml version="1.0" encoding="UTF-8"?>
<svg width="308px" height="76px" viewBox="0 0 308 76" version="1.1" xmlns="http://www.w3.org/2000/svg" xmlns:xlink="http://www.w3.org/1999/xlink">
    <!-- Generator: Sketch 44.1 (41455) - http://www.bohemiancoding.com/sketch -->
    <title>slu-logo</title>
    <desc>Created with Sketch.</desc>
    <defs></defs>
    <g id="Symbols" stroke="none" stroke-width="1" fill="none" fill-rule="evenodd">
        <g id="splash" transform="translate(-53.000000, -200.000000)" fill="#FFFFFF">
            <g id="slu-logo" transform="translate(53.000000, 200.000000)">
                <path d="M0,0 L76,0 L76,76 L0,76 L0,0 Z M19.7172587,13.4308313 C19.7933971,13.2670596 19.8124317,13.1851737 19.8124317,13.1237593 C19.8124317,12.7757444 17.9470401,11.875 16.1387523,11.875 C13.9307377,11.875 11.9511384,13.1032878 11.9511384,16.0511787 C11.9511384,17.7503102 12.5983151,18.5691687 13.6071494,19.2242556 C15.5486794,20.4934864 17.4902095,20.6777295 17.4902095,22.4996898 C17.4902095,23.7689206 16.8430328,24.3830645 15.7770947,24.3830645 C14.1401184,24.3830645 12.7315574,23.4823201 12.6173497,23.4823201 C12.5412113,23.4823201 12.4460383,23.564206 12.407969,23.6870347 L11.970173,25.0381514 C11.9321038,25.1609801 11.875,25.3042804 11.875,25.3656948 C11.875,25.6932382 13.9117031,26.5939826 15.8532332,26.5939826 C18.2515938,26.5939826 19.9647086,24.8743797 19.9647086,22.2745037 C19.9647086,20.7186725 19.2984973,19.6336849 18.3277322,18.8557692 C16.6526867,17.5251241 14.4256375,17.2385236 14.4256375,15.6826923 C14.4256375,14.4544045 15.3392987,14.0859181 16.2148907,14.0859181 C17.5853825,14.0859181 18.7655282,14.9866625 18.8797359,14.9866625 C18.9558743,14.9866625 19.0320128,14.9047767 19.0891166,14.7819479 L19.7172587,13.4308313 Z M30.928643,19.244727 C30.928643,14.2906328 29.1203552,11.875 26.1890255,11.875 C23.2576958,11.875 21.449408,14.2701613 21.449408,19.244727 C21.449408,24.1988213 23.2386612,26.5939826 26.1890255,26.5939826 C29.1393898,26.5939826 30.928643,24.1988213 30.928643,19.244727 Z M26.1890255,24.4444789 C24.7614299,24.4444789 24.1523224,22.4382754 24.1523224,19.244727 C24.1523224,16.0511787 24.7614299,14.0245037 26.1890255,14.0245037 C27.6166211,14.0245037 28.2257286,16.0307072 28.2257286,19.244727 C28.2257286,22.4382754 27.6166211,24.4444789 26.1890255,24.4444789 Z M42.4255464,12.6529156 C42.4255464,12.2844293 42.349408,12.2230149 42.0258197,12.2230149 L40.2556011,12.2230149 C39.9320128,12.2230149 39.8558743,12.2844293 39.8558743,12.6529156 L39.8558743,21.4965881 C39.8558743,22.9705335 39.7607013,24.3830645 37.8382058,24.3830645 C35.9157104,24.3830645 35.8205373,22.9705335 35.8205373,21.4965881 L35.8205373,12.6529156 C35.8205373,12.2844293 35.7443989,12.2230149 35.4208106,12.2230149 L33.650592,12.2230149 C33.3270036,12.2230149 33.2508652,12.2844293 33.2508652,12.6529156 L33.2508652,21.4965881 C33.2508652,24.5468362 34.2406648,26.5939826 37.8382058,26.5939826 C41.4357468,26.5939826 42.4255464,24.5468362 42.4255464,21.4965881 L42.4255464,12.6529156 Z M49.2589709,14.6795906 L51.6192623,14.6795906 C51.7715392,14.6795906 51.9809199,14.6795906 52.0570583,14.3520471 L52.4567851,12.7348015 C52.4948543,12.5915012 52.5138889,12.5505583 52.5138889,12.448201 C52.5138889,12.2639578 52.4187158,12.2230149 52.0380237,12.2230149 L44.195765,12.2230149 C43.9292805,12.2230149 43.8721767,12.2844293 43.8721767,12.5710298 L43.8721767,14.3315757 C43.8721767,14.6181762 43.9292805,14.6795906 44.195765,14.6795906 L46.6892987,14.6795906 L46.6892987,25.816067 C46.6892987,26.1845533 46.7654372,26.2459677 47.0890255,26.2459677 L48.8592441,26.2459677 C49.1828324,26.2459677 49.2589709,26.1845533 49.2589709,25.816067 L49.2589709,14.6795906 Z M62.6593352,12.6529156 C62.6593352,12.2844293 62.5831967,12.2230149 62.2596084,12.2230149 L60.4893898,12.2230149 C60.1658015,12.2230149 60.089663,12.2844293 60.089663,12.6529156 L60.089663,17.8936104 L56.4730874,17.8936104 L56.4730874,12.6529156 C56.4730874,12.2844293 56.396949,12.2230149 56.0733607,12.2230149 L54.3031421,12.2230149 C53.9795537,12.2230149 53.9034153,12.2844293 53.9034153,12.6529156 L53.9034153,25.816067 C53.9034153,26.1845533 53.9795537,26.2459677 54.3031421,26.2459677 L56.0733607,26.2459677 C56.396949,26.2459677 56.4730874,26.1845533 56.4730874,25.816067 L56.4730874,20.1045285 L60.089663,20.1045285 L60.089663,25.816067 C60.089663,26.1845533 60.1658015,26.2459677 60.4893898,26.2459677 L62.2596084,26.2459677 C62.5831967,26.2459677 62.6593352,26.1845533 62.6593352,25.816067 L62.6593352,12.6529156 Z M20.4976776,43.0871588 C20.5167122,43.005273 20.5357468,42.8824442 20.5357468,42.8210298 C20.5357468,42.6572581 20.4596084,42.5549007 20.1931239,42.5549007 L15.6057832,42.5549007 L15.6057832,31.4184243 C15.6057832,31.049938 15.5296448,30.9885236 15.2060565,30.9885236 L13.4358379,30.9885236 C13.1122495,30.9885236 13.0361111,31.049938 13.0361111,31.4184243 L13.0361111,44.5815757 C13.0361111,44.950062 13.1122495,45.0114764 13.4358379,45.0114764 L19.7172587,45.0114764 C20.0027778,45.0114764 20.0598816,44.9705335 20.13602,44.6429901 L20.4976776,43.0871588 Z M24.8185337,41.2651985 L28.0924863,41.2651985 L28.9300091,44.5815757 C29.0251821,44.950062 29.0632514,45.0114764 29.2535974,45.0114764 L31.3854736,45.0114764 C31.5758197,45.0114764 31.7661658,44.9705335 31.7661658,44.8477047 C31.7661658,44.7658189 31.7090619,44.6020471 31.6900273,44.5201613 L27.9592441,31.316067 C27.8831056,31.0704094 27.8450364,30.9885236 27.5595173,30.9885236 L25.579918,30.9885236 C25.2563297,30.9885236 25.2372951,31.0294665 25.1611566,31.2955955 L21.4113388,44.4792184 C21.3923042,44.5611042 21.3352004,44.7248759 21.3352004,44.8272333 C21.354235,44.9705335 21.4684426,45.0114764 21.7158925,45.0114764 L23.638388,45.0114764 C23.9239071,45.0114764 23.9619763,44.950062 24.0381148,44.5815757 L24.8185337,41.2651985 Z M27.6166211,39.4227667 L25.1040528,39.4227667 L25.9415756,35.9016749 C26.1319217,35.0828164 26.3032332,33.8954715 26.3793716,33.03567 L26.4174408,33.03567 C26.5126138,33.8954715 26.6648907,35.1032878 26.8362022,35.9016749 L27.6166211,39.4227667 Z M36.3915756,38.8290943 L36.4296448,38.8290943 L40.8076047,45.0933623 C40.8647086,45.1957196 41.0169854,45.3594913 41.1311931,45.3594913 C41.2263661,45.3594913 41.3215392,45.2776055 41.473816,45.1957196 L42.9965847,44.376861 C43.1107923,44.3154467 43.2440346,44.1926179 43.2440346,44.1312035 C43.2440346,43.9264888 43.1678962,43.8855459 43.1107923,43.80366 L38.6376594,37.8259926 L42.692031,32.0735112 C42.7491348,31.9916253 42.8252732,31.9506824 42.8252732,31.7459677 C42.8252732,31.6845533 42.692031,31.5617246 42.5778233,31.5003102 L41.2834699,30.8042804 C41.1311931,30.7223945 41.03602,30.6405087 40.940847,30.6405087 C40.8266393,30.6405087 40.6743625,30.8042804 40.6172587,30.9066377 L36.4296448,37.1504342 L36.3915756,37.1504342 L36.3915756,31.4184243 C36.3915756,31.049938 36.3154372,30.9885236 35.9918488,30.9885236 L34.2216302,30.9885236 C33.8980419,30.9885236 33.8219035,31.049938 33.8219035,31.4184243 L33.8219035,44.5815757 C33.8219035,44.950062 33.8980419,45.0114764 34.2216302,45.0114764 L35.9918488,45.0114764 C36.3154372,45.0114764 36.3915756,44.950062 36.3915756,44.5815757 L36.3915756,38.8290943 Z M51.6192623,43.2304591 C51.6192623,42.8619727 51.5621585,42.8005583 51.2195355,42.8005583 L47.1461293,42.8005583 L47.1461293,38.7881514 L50.3820128,38.7881514 C50.7056011,38.7881514 50.7817395,38.726737 50.7817395,38.3582506 L50.7817395,37.007134 C50.7817395,36.6386476 50.7246357,36.5772333 50.3820128,36.5772333 L47.1461293,36.5772333 L47.1461293,33.1994417 L50.8388434,33.1994417 C50.9911202,33.1994417 51.2005009,33.1789702 51.2766393,32.8718983 L51.6382969,31.5003102 C51.6763661,31.3570099 51.6954007,31.316067 51.6954007,31.2137097 C51.6954007,31.0294665 51.6002277,30.9885236 51.2195355,30.9885236 L44.976184,30.9885236 C44.6525956,30.9885236 44.5764572,31.049938 44.5764572,31.4184243 L44.5764572,44.5815757 C44.5764572,44.950062 44.6525956,45.0114764 44.976184,45.0114764 L51.2385701,45.0114764 C51.5621585,45.0114764 51.6192623,44.950062 51.6192623,44.5815757 L51.6192623,43.2304591 Z M21.982377,50.183933 C21.982377,49.8154467 21.9062386,49.7540323 21.5826503,49.7540323 L19.8124317,49.7540323 C19.4888434,49.7540323 19.4127049,49.8154467 19.4127049,50.183933 L19.4127049,59.0276055 C19.4127049,60.5015509 19.3175319,61.9140819 17.3950364,61.9140819 C15.472541,61.9140819 15.3773679,60.5015509 15.3773679,59.0276055 L15.3773679,50.183933 C15.3773679,49.8154467 15.3012295,49.7540323 14.9776412,49.7540323 L13.2074226,49.7540323 C12.8838342,49.7540323 12.8076958,49.8154467 12.8076958,50.183933 L12.8076958,59.0276055 C12.8076958,62.0778536 13.7974954,64.125 17.3950364,64.125 C20.9925774,64.125 21.982377,62.0778536 21.982377,59.0276055 L21.982377,50.183933 Z M33.8028689,50.183933 C33.8028689,49.8154467 33.7267304,49.7540323 33.4031421,49.7540323 L32.0136157,49.7540323 C31.6900273,49.7540323 31.6138889,49.8154467 31.6138889,50.183933 L31.6138889,56.6733871 C31.6138889,57.2465881 31.6709927,58.6795906 31.6709927,59.3346774 L31.6329235,59.3346774 C31.4045082,58.4953474 31.0428506,57.4513027 30.5098816,56.3663151 L27.3691712,50.0201613 C27.2549636,49.7949752 27.2168944,49.7540323 26.9313752,49.7540323 L25.3705373,49.7540323 C25.046949,49.7540323 24.9708106,49.8154467 24.9708106,50.183933 L24.9708106,63.3470844 C24.9708106,63.7155707 25.046949,63.7769851 25.3705373,63.7769851 L26.7600638,63.7769851 C27.0836521,63.7769851 27.1597905,63.7155707 27.1597905,63.3470844 L27.1597905,55.9773573 C27.1597905,55.03567 27.1026867,53.9916253 27.1026867,53.7254963 L27.1407559,53.7254963 C27.331102,54.6467122 27.6546903,55.3632134 28.2257286,56.5096154 L31.7090619,63.4903846 C31.8232696,63.7360422 31.8803734,63.7769851 32.1468579,63.7769851 L33.4031421,63.7769851 C33.745765,63.7769851 33.8028689,63.7155707 33.8028689,63.3470844 L33.8028689,50.183933 Z M41.6260929,62.2416253 C41.6260929,61.873139 41.5499545,61.8117246 41.2263661,61.8117246 L40.1794627,61.8117246 L40.1794627,51.7192928 L41.2263661,51.7192928 C41.5499545,51.7192928 41.6260929,51.6578784 41.6260929,51.2893921 L41.6260929,50.183933 C41.6260929,49.8154467 41.5499545,49.7540323 41.2263661,49.7540323 L36.5628871,49.7540323 C36.2392987,49.7540323 36.1631603,49.8154467 36.1631603,50.183933 L36.1631603,51.2893921 C36.1631603,51.6578784 36.2392987,51.7192928 36.5628871,51.7192928 L37.6097905,51.7192928 L37.6097905,61.8117246 L36.5628871,61.8117246 C36.2392987,61.8117246 36.1631603,61.873139 36.1631603,62.2416253 L36.1631603,63.3470844 C36.1631603,63.7155707 36.2392987,63.7769851 36.5628871,63.7769851 L41.2263661,63.7769851 C41.5499545,63.7769851 41.6260929,63.7155707 41.6260929,63.3470844 L41.6260929,62.2416253 Z M52.799408,56.7757444 C52.799408,51.8216501 50.9911202,49.4060174 48.0597905,49.4060174 C45.1284608,49.4060174 43.320173,51.8011787 43.320173,56.7757444 C43.320173,61.7298387 45.1094262,64.125 48.0597905,64.125 C51.0101548,64.125 52.799408,61.7298387 52.799408,56.7757444 Z M48.0597905,61.9754963 C46.6321949,61.9754963 46.0230874,59.9692928 46.0230874,56.7757444 C46.0230874,53.582196 46.6321949,51.5555211 48.0597905,51.5555211 C49.4873862,51.5555211 50.0964936,53.5617246 50.0964936,56.7757444 C50.0964936,59.9692928 49.4873862,61.9754963 48.0597905,61.9754963 Z M64.125,50.183933 C64.125,49.8154467 64.0488616,49.7540323 63.7252732,49.7540323 L62.3357468,49.7540323 C62.0121585,49.7540323 61.93602,49.8154467 61.93602,50.183933 L61.93602,56.6733871 C61.93602,57.2465881 61.9931239,58.6795906 61.9931239,59.3346774 L61.9550546,59.3346774 C61.7266393,58.4953474 61.3649818,57.4513027 60.8320128,56.3663151 L57.6913024,50.0201613 C57.5770947,49.7949752 57.5390255,49.7540323 57.2535064,49.7540323 L55.6926685,49.7540323 C55.3690801,49.7540323 55.2929417,49.8154467 55.2929417,50.183933 L55.2929417,63.3470844 C55.2929417,63.7155707 55.3690801,63.7769851 55.6926685,63.7769851 L57.0821949,63.7769851 C57.4057832,63.7769851 57.4819217,63.7155707 57.4819217,63.3470844 L57.4819217,55.9773573 C57.4819217,55.03567 57.4248179,53.9916253 57.4248179,53.7254963 L57.4628871,53.7254963 C57.6532332,54.6467122 57.9768215,55.3632134 58.5478597,56.5096154 L62.0311931,63.4903846 C62.1454007,63.7360422 62.2025046,63.7769851 62.4689891,63.7769851 L63.7252732,63.7769851 C64.0678962,63.7769851 64.125,63.7155707 64.125,63.3470844 L64.125,50.183933 Z" id="Combined-Shape"></path>
                <path d="M94.158732,38.7475083 L91.9676033,38.7475083 L91.9676033,22.1966777 L86,22.1966777 L86,20.2903654 L100.126335,20.2903654 L100.126335,22.1966777 L94.158732,22.1966777 L94.158732,38.7475083 Z M105.153042,31.0717608 L105.153042,38.7475083 L102.961914,38.7475083 L102.961914,20.2903654 L108.130399,20.2903654 C110.441837,20.2903654 112.149611,20.7238052 113.253774,21.5906977 C114.357936,22.4575902 114.910009,23.7621175 114.910009,25.5043189 C114.910009,27.9450842 113.646901,29.5946801 111.120646,30.4531561 L116.237575,38.7475083 L113.646888,38.7475083 L109.084185,31.0717608 L105.153042,31.0717608 Z M105.153042,29.2285714 L108.156177,29.2285714 C109.702864,29.2285714 110.837084,28.9276885 111.558871,28.3259136 C112.280659,27.7241387 112.641547,26.82149 112.641547,25.6179402 C112.641547,24.3975576 112.274214,23.5180536 111.539538,22.979402 C110.804862,22.4407504 109.625531,22.1714286 108.00151,22.1714286 L105.153042,22.1714286 L105.153042,29.2285714 Z M131.124361,38.7475083 L128.778565,32.8770764 L121.225615,32.8770764 L118.905597,38.7475083 L116.68869,38.7475083 L124.138528,20.2146179 L125.981654,20.2146179 L133.392824,38.7475083 L131.124361,38.7475083 Z M128.095448,30.945515 L125.90432,25.2265781 C125.62076,24.5027649 125.328613,23.6148447 125.027868,22.5627907 C124.838829,23.3707682 124.568162,24.2586884 124.215862,25.2265781 L121.998955,30.945515 L128.095448,30.945515 Z M150.70274,38.7475083 L148.202276,38.7475083 L137.903971,23.2571429 L137.800859,23.2571429 C137.938343,25.0750921 138.007083,26.7415207 138.007083,28.2564784 L138.007083,38.7475083 L135.983511,38.7475083 L135.983511,20.2903654 L138.458198,20.2903654 L148.730725,35.717608 L148.833837,35.717608 C148.816651,35.4903643 148.777985,34.7602498 148.717836,33.5272425 C148.657687,32.2942353 148.636205,31.4126272 148.653391,30.882392 L148.653391,20.2903654 L150.70274,20.2903654 L150.70274,38.7475083 Z M166.517534,33.8365449 C166.517534,35.4609162 165.916053,36.7275702 164.713075,37.6365449 C163.510096,38.5455195 161.877507,39 159.815258,39 C157.581155,39 155.86264,38.7180538 154.659661,38.1541528 L154.659661,36.0837209 C155.433004,36.4035453 156.275077,36.6560345 157.185903,36.841196 C158.09673,37.0263575 158.99895,37.1189369 159.892592,37.1189369 C161.353351,37.1189369 162.453201,36.847511 163.192174,36.3046512 C163.931146,35.7617913 164.300627,35.0064279 164.300627,34.0385382 C164.300627,33.3988894 164.16959,32.8749744 163.907513,32.4667774 C163.645435,32.0585805 163.207214,31.6819508 162.592836,31.3368771 C161.978457,30.9918034 161.044015,30.6004452 159.78948,30.1627907 C158.036568,29.5483912 156.7842,28.8203807 156.032339,27.9787375 C155.280477,27.1370944 154.904552,26.0387665 154.904552,24.6837209 C154.904552,23.2613439 155.45018,22.1293508 156.541454,21.2877076 C157.632727,20.4460645 159.07628,20.0252492 160.872155,20.0252492 C162.745365,20.0252492 164.468176,20.3619014 166.040641,21.0352159 L165.357524,22.9036545 C163.802245,22.2640057 162.289952,21.944186 160.820599,21.944186 C159.660584,21.944186 158.754067,22.1882589 158.101022,22.676412 C157.447976,23.164565 157.121458,23.8420776 157.121458,24.7089701 C157.121458,25.3486189 157.241754,25.872534 157.48235,26.2807309 C157.722946,26.6889278 158.128945,27.0634534 158.70036,27.4043189 C159.271775,27.7451844 160.146069,28.1218141 161.32327,28.5342193 C163.299592,29.2243667 164.659367,29.9650016 165.402636,30.7561462 C166.145905,31.5472908 166.517534,32.5740801 166.517534,33.8365449 Z M182.319438,25.6684385 C182.319438,27.5368864 181.66855,28.9739706 180.366756,29.9797342 C179.064961,30.9854978 177.20252,31.4883721 174.779378,31.4883721 L172.562471,31.4883721 L172.562471,38.7475083 L170.371342,38.7475083 L170.371342,20.2903654 L175.25627,20.2903654 C179.965072,20.2903654 182.319438,22.0830386 182.319438,25.6684385 Z M172.562471,29.6451827 L174.534487,29.6451827 C176.476438,29.6451827 177.881324,29.3379876 178.749187,28.723588 C179.61705,28.1091885 180.050975,27.1244808 180.050975,25.7694352 C180.050975,24.5490526 179.642828,23.6400916 178.826521,23.0425249 C178.010214,22.4449583 176.738513,22.1461794 175.011379,22.1461794 L172.562471,22.1461794 L172.562471,29.6451827 Z M202.619601,29.4936877 C202.619601,32.4478553 201.857009,34.7707557 200.331804,36.4624585 C198.806599,38.1541613 196.686381,39 193.971087,39 C191.195643,39 189.053944,38.1688898 187.545924,36.5066445 C186.037905,34.8443992 185.283906,32.498354 185.283906,29.4684385 C185.283906,26.4637724 186.040053,24.1345598 187.552369,22.4807309 C189.064685,20.826902 191.212829,20 193.996865,20 C196.703567,20 198.81734,20.8416306 200.338249,22.5249169 C201.859158,24.2082033 202.619601,26.5311037 202.619601,29.4936877 Z M187.603925,29.4936877 C187.603925,31.993368 188.147405,33.8891408 189.234382,35.1810631 C190.321359,36.4729854 191.900245,37.1189369 193.971087,37.1189369 C196.059114,37.1189369 197.635852,36.4750895 198.701347,35.1873754 C199.766842,33.8996613 200.299582,32.0017844 200.299582,29.4936877 C200.299582,27.0108403 199.76899,25.1276919 198.707791,23.844186 C197.646592,22.5606802 196.076299,21.9189369 193.996865,21.9189369 C191.908838,21.9189369 190.321359,22.5648883 189.234382,23.8568106 C188.147405,25.1487329 187.603925,27.0276732 187.603925,29.4936877 Z M209.012541,31.0717608 L209.012541,38.7475083 L206.821412,38.7475083 L206.821412,20.2903654 L211.989898,20.2903654 C214.301335,20.2903654 216.00911,20.7238052 217.113272,21.5906977 C218.217435,22.4575902 218.769508,23.7621175 218.769508,25.5043189 C218.769508,27.9450842 217.506399,29.5946801 214.980144,30.4531561 L220.097074,38.7475083 L217.506386,38.7475083 L212.943683,31.0717608 L209.012541,31.0717608 Z M209.012541,29.2285714 L212.015676,29.2285714 C213.562363,29.2285714 214.696583,28.9276885 215.41837,28.3259136 C216.140157,27.7241387 216.501045,26.82149 216.501045,25.6179402 C216.501045,24.3975576 216.133712,23.5180536 215.399036,22.979402 C214.66436,22.4407504 213.485029,22.1714286 211.861008,22.1714286 L209.012541,22.1714286 L209.012541,29.2285714 Z M228.938922,38.7475083 L226.747794,38.7475083 L226.747794,22.1966777 L220.78019,22.1966777 L220.78019,20.2903654 L234.906526,20.2903654 L234.906526,22.1966777 L228.938922,22.1966777 L228.938922,38.7475083 Z M247.743962,38.7475083 L245.398165,32.8770764 L237.845216,32.8770764 L235.525197,38.7475083 L233.308291,38.7475083 L240.758128,20.2146179 L242.601254,20.2146179 L250.012425,38.7475083 L247.743962,38.7475083 Z M244.715049,30.945515 L242.52392,25.2265781 C242.240361,24.5027649 241.948213,23.6148447 241.647469,22.5627907 C241.458429,23.3707682 241.187763,24.2586884 240.835462,25.2265781 L238.618556,30.945515 L244.715049,30.945515 Z M256.560033,38.7475083 L254.368904,38.7475083 L254.368904,22.1966777 L248.401301,22.1966777 L248.401301,20.2903654 L262.527636,20.2903654 L262.527636,22.1966777 L256.560033,22.1966777 L256.560033,38.7475083 Z M265.363214,38.7475083 L265.363214,20.2903654 L267.554343,20.2903654 L267.554343,38.7475083 L265.363214,38.7475083 Z M289.07896,29.4936877 C289.07896,32.4478553 288.316369,34.7707557 286.791163,36.4624585 C285.265958,38.1541613 283.14574,39 280.430446,39 C277.655002,39 275.513303,38.1688898 274.005283,36.5066445 C272.497264,34.8443992 271.743265,32.498354 271.743265,29.4684385 C271.743265,26.4637724 272.499412,24.1345598 274.011728,22.4807309 C275.524044,20.826902 277.672188,20 280.456224,20 C283.162926,20 285.276699,20.8416306 286.797608,22.5249169 C288.318517,24.2082033 289.07896,26.5311037 289.07896,29.4936877 Z M274.063284,29.4936877 C274.063284,31.993368 274.606764,33.8891408 275.693741,35.1810631 C276.780718,36.4729854 278.359604,37.1189369 280.430446,37.1189369 C282.518473,37.1189369 284.095211,36.4750895 285.160706,35.1873754 C286.226201,33.8996613 286.758941,32.0017844 286.758941,29.4936877 C286.758941,27.0108403 286.228349,25.1276919 285.16715,23.844186 C284.105951,22.5606802 282.535658,21.9189369 280.456224,21.9189369 C278.368197,21.9189369 276.780718,22.5648883 275.693741,23.8568106 C274.606764,25.1487329 274.063284,27.0276732 274.063284,29.4936877 Z M308,38.7475083 L305.499536,38.7475083 L295.201231,23.2571429 L295.098119,23.2571429 C295.235602,25.0750921 295.304343,26.7415207 295.304343,28.2564784 L295.304343,38.7475083 L293.280771,38.7475083 L293.280771,20.2903654 L295.755458,20.2903654 L306.027984,35.717608 L306.131096,35.717608 C306.113911,35.4903643 306.075244,34.7602498 306.015095,33.5272425 C305.954946,32.2942353 305.933465,31.4126272 305.95065,30.882392 L305.95065,20.2903654 L308,20.2903654 L308,38.7475083 Z" id="TRANSPORTATION"></path>
                <g id="Group-3" transform="translate(87.000000, 46.000000)">
                    <path d="M5.442,4.908 C5.42333324,4.94533352 5.38600028,4.964 5.33,4.964 C5.30199986,4.964 5.26700021,4.95000014 5.225,4.922 C5.18299979,4.89399986 5.05933436,4.79600084 4.854,4.628 C4.41533114,4.3013317 3.99066872,4.138 3.58,4.138 C2.93599678,4.138 2.46933478,4.4413303 2.18,5.048 C1.89066522,5.6546697 1.746,6.62999328 1.746,7.974 C1.746,9.39267376 1.91166501,10.4613297 2.243,11.18 C2.57433499,11.8986703 3.0666634,12.258 3.72,12.258 C4.19600238,12.258 4.71866382,12.0106691 5.288,11.516 C5.34400028,11.4599997 5.3953331,11.432 5.442,11.432 C5.47933352,11.432 5.51666648,11.4646663 5.554,11.53 L5.904,11.992 C5.93200014,12.0200001 5.946,12.0573331 5.946,12.104 C5.946,12.2066672 5.81533464,12.355999 5.554,12.552 C5.28333198,12.7666677 4.98700161,12.9276661 4.665,13.035 C4.34299839,13.1423339 4.00933506,13.196 3.664,13.196 C2.62799482,13.196 1.84166935,12.7643376 1.305,11.901 C0.76833065,11.0376623 0.5,9.77067502 0.5,8.1 C0.5,7.26932918 0.56533268,6.55300301 0.696,5.951 C0.82666732,5.34899699 1.02733198,4.82866886 1.298,4.39 C1.54066788,4.0166648 1.86033135,3.72500105 2.257,3.515 C2.65366865,3.30499895 3.08999762,3.2 3.566,3.2 C3.9393352,3.2 4.30799818,3.26766599 4.672,3.403 C5.03600182,3.53833401 5.36266522,3.73199874 5.652,3.984 C5.7453338,4.05866704 5.80599986,4.11233317 5.834,4.145 C5.86200014,4.17766683 5.876,4.2173331 5.876,4.264 C5.876,4.30133352 5.86666676,4.33866648 5.848,4.376 L5.442,4.908 Z M9.964,4.138 C9.64666508,4.138 9.35966795,4.21733254 9.103,4.376 C8.84633205,4.53466746 8.65266732,4.74933198 8.522,5.02 C8.20466508,5.71067012 8.046,6.76065962 8.046,8.17 C8.046,8.87933688 8.09033289,9.51166389 8.179,10.067 C8.26766711,10.6223361 8.4053324,11.0819982 8.592,11.446 C8.85333464,11.987336 9.30599678,12.258 9.95,12.258 C10.2766683,12.258 10.5659987,12.1810008 10.818,12.027 C11.0700013,11.8729992 11.2613327,11.6560014 11.392,11.376 C11.5506675,11.0399983 11.6696663,10.6130026 11.749,10.095 C11.8283337,9.57699741 11.868,8.97267012 11.868,8.282 C11.868,6.76999244 11.6906684,5.65933688 11.336,4.95 C11.0559986,4.40866396 10.5986698,4.138 9.964,4.138 Z M10.076,3.2 C11.0746717,3.2 11.8306641,3.6199958 12.344,4.46 C12.8573359,5.3000042 13.114,6.54132512 13.114,8.184 C13.114,9.83600826 12.8410027,11.0843291 12.295,11.929 C11.7489973,12.7736709 10.9440053,13.196 9.88,13.196 C8.86266158,13.196 8.09500259,12.7806708 7.577,11.95 C7.05899741,11.1193292 6.8,9.8873415 6.8,8.254 C6.8,4.88464982 7.89198908,3.2 10.076,3.2 Z M18.308,8.38 C18.3546669,8.51066732 18.3943332,8.65766585 18.427,8.821 C18.4596668,8.98433415 18.4853332,9.12666606 18.504,9.248 C18.5320001,9.07066578 18.5553332,8.93066718 18.574,8.828 C18.5926668,8.72533282 18.6299997,8.57600098 18.686,8.38 L20.352,3.55 C20.3800001,3.47533296 20.4033332,3.43100007 20.422,3.417 C20.4406668,3.40299993 20.487333,3.396 20.562,3.396 L21.444,3.396 C21.518667,3.396 21.5676665,3.40766655 21.591,3.431 C21.6143334,3.45433345 21.626,3.50333296 21.626,3.578 L22.158,12.804 L22.158,12.86 C22.158,12.9533338 22.0973339,13 21.976,13 L21.164,13 C21.0799996,13 21.0286668,12.9883334 21.01,12.965 C20.9913332,12.9416666 20.9773334,12.892667 20.968,12.818 L20.758,5.706 L20.758,5.636 C20.758,5.56133296 20.7603333,5.45633401 20.765,5.321 C20.7696667,5.18566599 20.7813332,5.05266732 20.8,4.922 L20.814,4.642 C20.7766665,4.88466788 20.7323336,5.11566557 20.681,5.335 C20.6296664,5.55433443 20.5760003,5.7339993 20.52,5.874 L18.882,10.606 C18.8633332,10.680667 18.8423334,10.7249999 18.819,10.739 C18.7956665,10.7530001 18.746667,10.76 18.672,10.76 L18.266,10.76 C18.1633328,10.76 18.0933335,10.7086672 18.056,10.606 L16.474,5.874 C16.4086663,5.67799902 16.3550002,5.48200098 16.313,5.286 C16.2709998,5.08999902 16.2360001,4.8753345 16.208,4.642 L16.208,4.908 L16.222,5.16 L16.236,5.44 L16.236,5.706 L16.026,12.818 C16.026,12.892667 16.0143335,12.9416666 15.991,12.965 C15.9676666,12.9883334 15.918667,13 15.844,13 L15.088,13 C14.9573327,13 14.892,12.9533338 14.892,12.86 L14.892,12.804 L15.424,3.578 C15.424,3.50333296 15.4356666,3.45433345 15.459,3.431 C15.4823335,3.40766655 15.5359996,3.396 15.62,3.396 L16.446,3.396 C16.520667,3.396 16.5696665,3.40299993 16.593,3.417 C16.6163334,3.43100007 16.6373332,3.47533296 16.656,3.55 L18.308,8.38 Z M27.646,8.38 C27.6926669,8.51066732 27.7323332,8.65766585 27.765,8.821 C27.7976668,8.98433415 27.8233332,9.12666606 27.842,9.248 C27.8700001,9.07066578 27.8933332,8.93066718 27.912,8.828 C27.9306668,8.72533282 27.9679997,8.57600098 28.024,8.38 L29.69,3.55 C29.7180001,3.47533296 29.7413332,3.43100007 29.76,3.417 C29.7786668,3.40299993 29.825333,3.396 29.9,3.396 L30.782,3.396 C30.856667,3.396 30.9056666,3.40766655 30.929,3.431 C30.9523335,3.45433345 30.964,3.50333296 30.964,3.578 L31.496,12.804 L31.496,12.86 C31.496,12.9533338 31.4353339,13 31.314,13 L30.502,13 C30.4179996,13 30.3666668,12.9883334 30.348,12.965 C30.3293332,12.9416666 30.3153334,12.892667 30.306,12.818 L30.096,5.706 L30.096,5.636 C30.096,5.56133296 30.0983333,5.45633401 30.103,5.321 C30.1076667,5.18566599 30.1193332,5.05266732 30.138,4.922 L30.152,4.642 C30.1146665,4.88466788 30.0703336,5.11566557 30.019,5.335 C29.9676664,5.55433443 29.9140003,5.7339993 29.858,5.874 L28.22,10.606 C28.2013332,10.680667 28.1803335,10.7249999 28.157,10.739 C28.1336666,10.7530001 28.084667,10.76 28.01,10.76 L27.604,10.76 C27.5013328,10.76 27.4313335,10.7086672 27.394,10.606 L25.812,5.874 C25.7466663,5.67799902 25.6930002,5.48200098 25.651,5.286 C25.6089998,5.08999902 25.5740001,4.8753345 25.546,4.642 L25.546,4.908 L25.56,5.16 L25.574,5.44 L25.574,5.706 L25.364,12.818 C25.364,12.892667 25.3523335,12.9416666 25.329,12.965 C25.3056666,12.9883334 25.256667,13 25.182,13 L24.426,13 C24.2953327,13 24.23,12.9533338 24.23,12.86 L24.23,12.804 L24.762,3.578 C24.762,3.50333296 24.7736666,3.45433345 24.797,3.431 C24.8203335,3.40766655 24.8739996,3.396 24.958,3.396 L25.784,3.396 C25.858667,3.396 25.9076666,3.40299993 25.931,3.417 C25.9543335,3.43100007 25.9753332,3.47533296 25.994,3.55 L27.646,8.38 Z M34.66,3.396 C34.7440004,3.396 34.7976665,3.40766655 34.821,3.431 C34.8443334,3.45433345 34.856,3.50799958 34.856,3.592 L34.856,10.382 C34.856,11.0633367 34.991332,11.5463319 35.262,11.831 C35.532668,12.1156681 35.9899968,12.258 36.634,12.258 C37.2873366,12.258 37.7679985,12.1063348 38.076,11.803 C38.3840015,11.4996652 38.538,11.0260032 38.538,10.382 L38.538,3.592 C38.538,3.50799958 38.5496665,3.45433345 38.573,3.431 C38.5963334,3.40766655 38.6499996,3.396 38.734,3.396 L39.448,3.396 C39.5320004,3.396 39.5856665,3.40766655 39.609,3.431 C39.6323334,3.45433345 39.644,3.50799958 39.644,3.592 L39.644,10.424 C39.644,10.8813356 39.5880006,11.2639985 39.476,11.572 C39.3639994,11.8800015 39.1866679,12.1553321 38.944,12.398 C38.6546652,12.6780014 38.3256685,12.8809994 37.957,13.007 C37.5883315,13.1330006 37.1286694,13.196 36.578,13.196 C34.6646571,13.196 33.708,12.2720092 33.708,10.424 L33.708,3.592 C33.708,3.50799958 33.7196665,3.45433345 33.743,3.431 C33.7663334,3.40766655 33.8199996,3.396 33.904,3.396 L34.66,3.396 Z M44.264,12.804 C44.264,12.8880004 44.2523334,12.9416666 44.229,12.965 C44.2056665,12.9883334 44.1520004,13 44.068,13 L43.312,13 C43.2279996,13 43.1743334,12.9883334 43.151,12.965 C43.1276665,12.9416666 43.116,12.8880004 43.116,12.804 L43.116,4.376 L41.072,4.376 C40.9879996,4.376 40.9343334,4.36433345 40.911,4.341 C40.8876665,4.31766655 40.876,4.26400042 40.876,4.18 L40.876,3.592 C40.876,3.50799958 40.8876665,3.45433345 40.911,3.431 C40.9343334,3.40766655 40.9879996,3.396 41.072,3.396 L46.532,3.396 C46.6626673,3.396 46.728,3.42866634 46.728,3.494 C46.728,3.53133352 46.7233334,3.55933324 46.714,3.578 L46.7,3.62 L46.49,4.222 C46.4619999,4.32466718 46.3920006,4.376 46.28,4.376 L44.264,4.376 L44.264,12.804 Z M49.01,7.54 L51.754,7.54 C51.8380004,7.54 51.8916665,7.55166655 51.915,7.575 C51.9383334,7.59833345 51.95,7.65199958 51.95,7.736 L51.95,8.282 C51.95,8.36600042 51.9383334,8.41966655 51.915,8.443 C51.8916665,8.46633345 51.8380004,8.478 51.754,8.478 L49.01,8.478 L49.01,12.006 L52.356,12.006 C52.4400004,12.006 52.4936665,12.0176666 52.517,12.041 C52.5403334,12.0643334 52.552,12.1179996 52.552,12.202 L52.552,12.804 C52.552,12.8880004 52.5403334,12.9416666 52.517,12.965 C52.4936665,12.9883334 52.4400004,13 52.356,13 L48.058,13 C47.9646662,13 47.9086668,12.9906668 47.89,12.972 C47.8713332,12.9533332 47.862,12.8973338 47.862,12.804 L47.862,3.592 C47.862,3.50799958 47.8736665,3.45433345 47.897,3.431 C47.9203334,3.40766655 47.9739996,3.396 48.058,3.396 L52.37,3.396 C52.5006673,3.396 52.566,3.42866634 52.566,3.494 L52.566,3.536 C52.566,3.54533338 52.5566668,3.5733331 52.538,3.62 L52.328,4.236 C52.2813331,4.33866718 52.2113338,4.39 52.118,4.39 L49.01,4.39 L49.01,7.54 Z" id="COMMUTE"></path>
                    <path d="M73.246,4.138 C72.9286651,4.138 72.6416679,4.21733254 72.385,4.376 C72.128332,4.53466746 71.9346673,4.74933198 71.804,5.02 C71.4866651,5.71067012 71.328,6.76065962 71.328,8.17 C71.328,8.87933688 71.3723329,9.51166389 71.461,10.067 C71.5496671,10.6223361 71.6873324,11.0819982 71.874,11.446 C72.1353346,11.987336 72.5879968,12.258 73.232,12.258 C73.5586683,12.258 73.8479987,12.1810008 74.1,12.027 C74.3520013,11.8729992 74.5433327,11.6560014 74.674,11.376 C74.8326675,11.0399983 74.9516663,10.6130026 75.031,10.095 C75.1103337,9.57699741 75.15,8.97267012 75.15,8.282 C75.15,6.76999244 74.9726684,5.65933688 74.618,4.95 C74.3379986,4.40866396 73.8806698,4.138 73.246,4.138 Z M73.358,3.2 C74.3566717,3.2 75.1126641,3.6199958 75.626,4.46 C76.1393359,5.3000042 76.396,6.54132512 76.396,8.184 C76.396,9.83600826 76.1230027,11.0843291 75.577,11.929 C75.0309973,12.7736709 74.2260053,13.196 73.162,13.196 C72.1446616,13.196 71.3770026,12.7806708 70.859,11.95 C70.3409974,11.1193292 70.082,9.8873415 70.082,8.254 C70.082,4.88464982 71.1739891,3.2 73.358,3.2 Z M82.696,10.06 C82.770667,10.2373342 82.8406663,10.4169991 82.906,10.599 C82.9713337,10.7810009 83.0319997,10.9933321 83.088,11.236 C83.0506665,10.9746654 83.0250001,10.7530009 83.011,10.571 C82.9969999,10.3889991 82.99,10.2046676 82.99,10.018 L82.99,3.592 C82.99,3.50799958 83.0016665,3.45433345 83.025,3.431 C83.0483335,3.40766655 83.1019996,3.396 83.186,3.396 L83.816,3.396 C83.9000004,3.396 83.9536665,3.40766655 83.977,3.431 C84.0003334,3.45433345 84.012,3.50799958 84.012,3.592 L84.012,12.804 C84.012,12.8880004 84.0003334,12.9416666 83.977,12.965 C83.9536665,12.9883334 83.9000004,13 83.816,13 L83.06,13 C82.9573328,13 82.8873335,12.9533338 82.85,12.86 L79.644,5.93 C79.5506662,5.73399902 79.4760003,5.54500091 79.42,5.363 C79.3639997,5.18099909 79.298667,4.93133492 79.224,4.614 C79.2520001,4.8006676 79.2753332,4.95699937 79.294,5.083 C79.3126668,5.20900063 79.3266666,5.32099951 79.336,5.419 C79.3453334,5.51700049 79.3523333,5.60799958 79.357,5.692 C79.3616667,5.77600042 79.364,5.87399944 79.364,5.986 L79.364,12.804 C79.364,12.8880004 79.3523335,12.9416666 79.329,12.965 C79.3056665,12.9883334 79.2520004,13 79.168,13 L78.538,13 C78.4539996,13 78.4003335,12.9883334 78.377,12.965 C78.3536665,12.9416666 78.342,12.8880004 78.342,12.804 L78.342,3.592 C78.342,3.50799958 78.3536665,3.45433345 78.377,3.431 C78.4003335,3.40766655 78.4539996,3.396 78.538,3.396 L79.42,3.396 C79.5226672,3.396 79.5926665,3.4426662 79.63,3.536 L82.696,10.06 Z M91.264,12.006 C91.534668,12.006 91.7703323,11.9920001 91.971,11.964 C92.1716677,11.9359999 92.3489992,11.8893337 92.503,11.824 C92.6570008,11.7586663 92.7923327,11.6723339 92.909,11.565 C93.0256672,11.4576661 93.1399994,11.3200008 93.252,11.152 C93.4666677,10.8439985 93.6229995,10.4356692 93.721,9.927 C93.8190005,9.41833079 93.868,8.78600378 93.868,8.03 C93.868,7.096662 93.7723343,6.35700273 93.581,5.811 C93.3896657,5.26499727 93.0886687,4.88466774 92.678,4.67 C92.4913324,4.56733282 92.2766679,4.49500021 92.034,4.453 C91.7913321,4.41099979 91.4880018,4.39 91.124,4.39 L90.55,4.39 L90.55,12.006 L91.264,12.006 Z M89.402,3.592 C89.402,3.50799958 89.4136666,3.45433345 89.437,3.431 C89.4603335,3.40766655 89.5139996,3.396 89.598,3.396 L91.054,3.396 C91.3620015,3.396 91.6373321,3.40533324 91.88,3.424 C92.1226679,3.44266676 92.341999,3.4753331 92.538,3.522 C92.734001,3.5686669 92.9136659,3.62699965 93.077,3.697 C93.2403341,3.76700035 93.3966659,3.85333282 93.546,3.956 C94.0500025,4.30133506 94.4349987,4.82166319 94.701,5.517 C94.9670013,6.21233681 95.1,7.0499951 95.1,8.03 C95.1,11.3433499 93.7933464,13 91.18,13 L89.598,13 C89.5139996,13 89.4603335,12.9883334 89.437,12.965 C89.4136666,12.9416666 89.402,12.8880004 89.402,12.804 L89.402,3.592 Z M98.334,7.54 L101.078,7.54 C101.162,7.54 101.215667,7.55166655 101.239,7.575 C101.262333,7.59833345 101.274,7.65199958 101.274,7.736 L101.274,8.282 C101.274,8.36600042 101.262333,8.41966655 101.239,8.443 C101.215667,8.46633345 101.162,8.478 101.078,8.478 L98.334,8.478 L98.334,12.006 L101.68,12.006 C101.764,12.006 101.817667,12.0176666 101.841,12.041 C101.864333,12.0643334 101.876,12.1179996 101.876,12.202 L101.876,12.804 C101.876,12.8880004 101.864333,12.9416666 101.841,12.965 C101.817667,12.9883334 101.764,13 101.68,13 L97.382,13 C97.2886662,13 97.2326668,12.9906668 97.214,12.972 C97.1953332,12.9533332 97.186,12.8973338 97.186,12.804 L97.186,3.592 C97.186,3.50799958 97.1976666,3.45433345 97.221,3.431 C97.2443334,3.40766655 97.2979996,3.396 97.382,3.396 L101.694,3.396 C101.824667,3.396 101.89,3.42866634 101.89,3.494 L101.89,3.536 C101.89,3.54533338 101.880667,3.5733331 101.862,3.62 L101.652,4.236 C101.605333,4.33866718 101.535334,4.39 101.442,4.39 L98.334,4.39 L98.334,7.54 Z M106.776,8.38 C106.822667,8.51066732 106.862333,8.65766585 106.895,8.821 C106.927667,8.98433415 106.953333,9.12666606 106.972,9.248 C107,9.07066578 107.023333,8.93066718 107.042,8.828 C107.060667,8.72533282 107.098,8.57600098 107.154,8.38 L108.82,3.55 C108.848,3.47533296 108.871333,3.43100007 108.89,3.417 C108.908667,3.40299993 108.955333,3.396 109.03,3.396 L109.912,3.396 C109.986667,3.396 110.035667,3.40766655 110.059,3.431 C110.082333,3.45433345 110.094,3.50333296 110.094,3.578 L110.626,12.804 L110.626,12.86 C110.626,12.9533338 110.565334,13 110.444,13 L109.632,13 C109.548,13 109.496667,12.9883334 109.478,12.965 C109.459333,12.9416666 109.445333,12.892667 109.436,12.818 L109.226,5.706 L109.226,5.636 C109.226,5.56133296 109.228333,5.45633401 109.233,5.321 C109.237667,5.18566599 109.249333,5.05266732 109.268,4.922 L109.282,4.642 C109.244666,4.88466788 109.200334,5.11566557 109.149,5.335 C109.097666,5.55433443 109.044,5.7339993 108.988,5.874 L107.35,10.606 C107.331333,10.680667 107.310333,10.7249999 107.287,10.739 C107.263667,10.7530001 107.214667,10.76 107.14,10.76 L106.734,10.76 C106.631333,10.76 106.561334,10.7086672 106.524,10.606 L104.942,5.874 C104.876666,5.67799902 104.823,5.48200098 104.781,5.286 C104.739,5.08999902 104.704,4.8753345 104.676,4.642 L104.676,4.908 L104.69,5.16 L104.704,5.44 L104.704,5.706 L104.494,12.818 C104.494,12.892667 104.482333,12.9416666 104.459,12.965 C104.435667,12.9883334 104.386667,13 104.312,13 L103.556,13 C103.425333,13 103.36,12.9533338 103.36,12.86 L103.36,12.804 L103.892,3.578 C103.892,3.50333296 103.903667,3.45433345 103.927,3.431 C103.950333,3.40766655 104.004,3.396 104.088,3.396 L104.914,3.396 C104.988667,3.396 105.037667,3.40299993 105.061,3.417 C105.084333,3.43100007 105.105333,3.47533296 105.124,3.55 L106.776,8.38 Z M116.562,9.15 L115.722,6.07 C115.656666,5.82733212 115.598334,5.59400112 115.547,5.37 C115.495666,5.14599888 115.446667,4.93133436 115.4,4.726 C115.362666,4.9126676 115.318334,5.11566557 115.267,5.335 C115.215666,5.55433443 115.152667,5.79466536 115.078,6.056 L114.238,9.15 L116.562,9.15 Z M113.986,10.116 L113.202,12.846 C113.174,12.9486672 113.104001,13 112.992,13 L112.152,13 C112.021333,13 111.956,12.9673337 111.956,12.902 L111.956,12.86 C111.956,12.8506666 111.965333,12.8226669 111.984,12.776 L114.798,3.55 C114.826,3.47533296 114.849333,3.43100007 114.868,3.417 C114.886667,3.40299993 114.933333,3.396 115.008,3.396 L115.848,3.396 C115.922667,3.396 115.969333,3.40299993 115.988,3.417 C116.006667,3.43100007 116.03,3.47533296 116.058,3.55 L118.872,12.776 C118.890667,12.8226669 118.9,12.8506666 118.9,12.86 L118.9,12.888 C118.9,12.962667 118.834667,13 118.704,13 L117.808,13 C117.714666,13 117.644667,12.9486672 117.598,12.846 L116.828,10.116 L113.986,10.116 Z M124.738,10.06 C124.812667,10.2373342 124.882666,10.4169991 124.948,10.599 C125.013334,10.7810009 125.074,10.9933321 125.13,11.236 C125.092666,10.9746654 125.067,10.7530009 125.053,10.571 C125.039,10.3889991 125.032,10.2046676 125.032,10.018 L125.032,3.592 C125.032,3.50799958 125.043667,3.45433345 125.067,3.431 C125.090333,3.40766655 125.144,3.396 125.228,3.396 L125.858,3.396 C125.942,3.396 125.995667,3.40766655 126.019,3.431 C126.042333,3.45433345 126.054,3.50799958 126.054,3.592 L126.054,12.804 C126.054,12.8880004 126.042333,12.9416666 126.019,12.965 C125.995667,12.9883334 125.942,13 125.858,13 L125.102,13 C124.999333,13 124.929334,12.9533338 124.892,12.86 L121.686,5.93 C121.592666,5.73399902 121.518,5.54500091 121.462,5.363 C121.406,5.18099909 121.340667,4.93133492 121.266,4.614 C121.294,4.8006676 121.317333,4.95699937 121.336,5.083 C121.354667,5.20900063 121.368667,5.32099951 121.378,5.419 C121.387333,5.51700049 121.394333,5.60799958 121.399,5.692 C121.403667,5.77600042 121.406,5.87399944 121.406,5.986 L121.406,12.804 C121.406,12.8880004 121.394333,12.9416666 121.371,12.965 C121.347667,12.9883334 121.294,13 121.21,13 L120.58,13 C120.496,13 120.442333,12.9883334 120.419,12.965 C120.395667,12.9416666 120.384,12.8880004 120.384,12.804 L120.384,3.592 C120.384,3.50799958 120.395667,3.45433345 120.419,3.431 C120.442333,3.40766655 120.496,3.396 120.58,3.396 L121.462,3.396 C121.564667,3.396 121.634666,3.4426662 121.672,3.536 L124.738,10.06 Z M130.422,12.006 C130.692668,12.006 130.928332,11.9920001 131.129,11.964 C131.329668,11.9359999 131.506999,11.8893337 131.661,11.824 C131.815001,11.7586663 131.950333,11.6723339 132.067,11.565 C132.183667,11.4576661 132.297999,11.3200008 132.41,11.152 C132.624668,10.8439985 132.781,10.4356692 132.879,9.927 C132.977,9.41833079 133.026,8.78600378 133.026,8.03 C133.026,7.096662 132.930334,6.35700273 132.739,5.811 C132.547666,5.26499727 132.246669,4.88466774 131.836,4.67 C131.649332,4.56733282 131.434668,4.49500021 131.192,4.453 C130.949332,4.41099979 130.646002,4.39 130.282,4.39 L129.708,4.39 L129.708,12.006 L130.422,12.006 Z M128.56,3.592 C128.56,3.50799958 128.571667,3.45433345 128.595,3.431 C128.618333,3.40766655 128.672,3.396 128.756,3.396 L130.212,3.396 C130.520002,3.396 130.795332,3.40533324 131.038,3.424 C131.280668,3.44266676 131.499999,3.4753331 131.696,3.522 C131.892001,3.5686669 132.071666,3.62699965 132.235,3.697 C132.398334,3.76700035 132.554666,3.85333282 132.704,3.956 C133.208003,4.30133506 133.592999,4.82166319 133.859,5.517 C134.125001,6.21233681 134.258,7.0499951 134.258,8.03 C134.258,11.3433499 132.951346,13 130.338,13 L128.756,13 C128.672,13 128.618333,12.9883334 128.595,12.965 C128.571667,12.9416666 128.56,12.8880004 128.56,12.804 L128.56,3.592 Z" id="ON-DEMAND"></path>
                    <circle id="Oval" cx="61" cy="7.5" r="2.5"></circle>
                    <circle id="Oval-Copy" cx="143" cy="8.5" r="2.5"></circle>
                    <path d="M153.548,7.638 L156.292,7.638 C156.376,7.638 156.429667,7.64966655 156.453,7.673 C156.476333,7.69633345 156.488,7.74999958 156.488,7.834 L156.488,8.38 C156.488,8.46400042 156.476333,8.51766655 156.453,8.541 C156.429667,8.56433345 156.376,8.576 156.292,8.576 L153.548,8.576 L153.548,12.804 C153.548,12.8880004 153.536333,12.9416666 153.513,12.965 C153.489667,12.9883334 153.436,13 153.352,13 L152.596,13 C152.512,13 152.458333,12.9883334 152.435,12.965 C152.411667,12.9416666 152.4,12.8880004 152.4,12.804 L152.4,3.592 C152.4,3.50799958 152.411667,3.45433345 152.435,3.431 C152.458333,3.40766655 152.512,3.396 152.596,3.396 L156.908,3.396 C157.038667,3.396 157.104,3.42866634 157.104,3.494 C157.104,3.52200014 157.099333,3.54533324 157.09,3.564 L157.076,3.62 L156.866,4.236 C156.819333,4.33866718 156.749334,4.39 156.656,4.39 L153.548,4.39 L153.548,7.638 Z M159.918,12.09 L161.164,12.09 C161.248,12.09 161.301667,12.1016666 161.325,12.125 C161.348333,12.1483334 161.36,12.2019996 161.36,12.286 L161.36,12.804 C161.36,12.8880004 161.348333,12.9416666 161.325,12.965 C161.301667,12.9883334 161.248,13 161.164,13 L157.538,13 C157.454,13 157.400333,12.9883334 157.377,12.965 C157.353667,12.9416666 157.342,12.8880004 157.342,12.804 L157.342,12.286 C157.342,12.2019996 157.353667,12.1483334 157.377,12.125 C157.400333,12.1016666 157.454,12.09 157.538,12.09 L158.77,12.09 L158.77,4.306 L157.538,4.306 C157.454,4.306 157.400333,4.29433345 157.377,4.271 C157.353667,4.24766655 157.342,4.19400042 157.342,4.11 L157.342,3.592 C157.342,3.50799958 157.353667,3.45433345 157.377,3.431 C157.400333,3.40766655 157.454,3.396 157.538,3.396 L161.164,3.396 C161.248,3.396 161.301667,3.40766655 161.325,3.431 C161.348333,3.45433345 161.36,3.50799958 161.36,3.592 L161.36,4.11 C161.36,4.19400042 161.348333,4.24766655 161.325,4.271 C161.301667,4.29433345 161.248,4.306 161.164,4.306 L159.918,4.306 L159.918,12.09 Z M162.102,3.816 C162.074,3.75999972 162.06,3.71333352 162.06,3.676 C162.06,3.6293331 162.106666,3.59200014 162.2,3.564 L162.9,3.312 L162.97,3.284 L163.012,3.284 C163.04,3.284 163.061,3.29099993 163.075,3.305 C163.089,3.31900007 163.114666,3.35399972 163.152,3.41 L164.734,6.322 C164.762,6.38733366 164.787667,6.44099979 164.811,6.483 C164.834333,6.52500021 164.855333,6.5693331 164.874,6.616 C164.892667,6.6626669 164.918333,6.71866634 164.951,6.784 C164.983667,6.84933366 165.023333,6.93799944 165.07,7.05 C165.116667,6.91933268 165.168,6.79566725 165.224,6.679 C165.28,6.56233275 165.35,6.42000084 165.434,6.252 L166.946,3.424 C167.002,3.33999958 167.048666,3.298 167.086,3.298 C167.104667,3.298 167.121,3.30033331 167.135,3.305 L167.198,3.326 L167.884,3.606 C167.977334,3.6526669 168.024,3.69466648 168.024,3.732 C168.024,3.76000014 168.005334,3.80666634 167.968,3.872 L165.672,7.96 L168.234,12.594 C168.271334,12.6593337 168.29,12.7059999 168.29,12.734 C168.29,12.7806669 168.238667,12.8179999 168.136,12.846 L167.38,13.084 L167.338,13.098 C167.319333,13.1073334 167.296,13.112 167.268,13.112 C167.221333,13.112 167.179334,13.0700004 167.142,12.986 L165.336,9.584 C165.270666,9.45333268 165.214667,9.33200056 165.168,9.22 C165.121333,9.10799944 165.084,9.0053338 165.056,8.912 C165,9.04266732 164.948667,9.16166613 164.902,9.269 C164.855333,9.37633387 164.808667,9.4766662 164.762,9.57 L162.956,12.986 C162.928,13.0420003 162.907,13.0769999 162.893,13.091 C162.879,13.1050001 162.858,13.112 162.83,13.112 L162.788,13.112 L162.718,13.084 L162.004,12.86 C161.901333,12.8226665 161.85,12.7806669 161.85,12.734 C161.85,12.7059999 161.868666,12.6593337 161.906,12.594 L164.398,7.988 L162.102,3.816 Z M170.922,7.54 L173.666,7.54 C173.75,7.54 173.803667,7.55166655 173.827,7.575 C173.850333,7.59833345 173.862,7.65199958 173.862,7.736 L173.862,8.282 C173.862,8.36600042 173.850333,8.41966655 173.827,8.443 C173.803667,8.46633345 173.75,8.478 173.666,8.478 L170.922,8.478 L170.922,12.006 L174.268,12.006 C174.352,12.006 174.405667,12.0176666 174.429,12.041 C174.452333,12.0643334 174.464,12.1179996 174.464,12.202 L174.464,12.804 C174.464,12.8880004 174.452333,12.9416666 174.429,12.965 C174.405667,12.9883334 174.352,13 174.268,13 L169.97,13 C169.876666,13 169.820667,12.9906668 169.802,12.972 C169.783333,12.9533332 169.774,12.8973338 169.774,12.804 L169.774,3.592 C169.774,3.50799958 169.785667,3.45433345 169.809,3.431 C169.832333,3.40766655 169.886,3.396 169.97,3.396 L174.282,3.396 C174.412667,3.396 174.478,3.42866634 174.478,3.494 L174.478,3.536 C174.478,3.54533338 174.468667,3.5733331 174.45,3.62 L174.24,4.236 C174.193333,4.33866718 174.123334,4.39 174.03,4.39 L170.922,4.39 L170.922,7.54 Z M178.118,12.006 C178.388668,12.006 178.624332,11.9920001 178.825,11.964 C179.025668,11.9359999 179.202999,11.8893337 179.357,11.824 C179.511001,11.7586663 179.646333,11.6723339 179.763,11.565 C179.879667,11.4576661 179.993999,11.3200008 180.106,11.152 C180.320668,10.8439985 180.477,10.4356692 180.575,9.927 C180.673,9.41833079 180.722,8.78600378 180.722,8.03 C180.722,7.096662 180.626334,6.35700273 180.435,5.811 C180.243666,5.26499727 179.942669,4.88466774 179.532,4.67 C179.345332,4.56733282 179.130668,4.49500021 178.888,4.453 C178.645332,4.41099979 178.342002,4.39 177.978,4.39 L177.404,4.39 L177.404,12.006 L178.118,12.006 Z M176.256,3.592 C176.256,3.50799958 176.267667,3.45433345 176.291,3.431 C176.314333,3.40766655 176.368,3.396 176.452,3.396 L177.908,3.396 C178.216002,3.396 178.491332,3.40533324 178.734,3.424 C178.976668,3.44266676 179.195999,3.4753331 179.392,3.522 C179.588001,3.5686669 179.767666,3.62699965 179.931,3.697 C180.094334,3.76700035 180.250666,3.85333282 180.4,3.956 C180.904003,4.30133506 181.288999,4.82166319 181.555,5.517 C181.821001,6.21233681 181.954,7.0499951 181.954,8.03 C181.954,11.3433499 180.647346,13 178.034,13 L176.452,13 C176.368,13 176.314333,12.9883334 176.291,12.965 C176.267667,12.9416666 176.256,12.8880004 176.256,12.804 L176.256,3.592 Z M189.15,7.764 C189.430001,7.764 189.653999,7.7406669 189.822,7.694 C189.990001,7.6473331 190.148666,7.56333394 190.298,7.442 C190.699335,7.10599832 190.9,6.58333688 190.9,5.874 C190.9,5.15532974 190.671336,4.68400112 190.214,4.46 C190.092666,4.39466634 189.962001,4.35266676 189.822,4.334 C189.681999,4.31533324 189.472001,4.306 189.192,4.306 L188.072,4.306 L188.072,7.764 L189.15,7.764 Z M192.594,12.72 C192.631334,12.7853337 192.65,12.8366665 192.65,12.874 C192.65,12.9113335 192.594001,12.9439999 192.482,12.972 L191.628,13.14 L191.558,13.14 C191.492666,13.14 191.441334,13.102667 191.404,13.028 L189.136,8.646 L188.072,8.646 L188.072,12.804 C188.072,12.8880004 188.060333,12.9416666 188.037,12.965 C188.013667,12.9883334 187.96,13 187.876,13 L187.12,13 C187.036,13 186.982333,12.9883334 186.959,12.965 C186.935667,12.9416666 186.924,12.8880004 186.924,12.804 L186.924,3.592 C186.924,3.50799958 186.935667,3.45433345 186.959,3.431 C186.982333,3.40766655 187.036,3.396 187.12,3.396 L189.262,3.396 C189.710002,3.396 190.064665,3.4193331 190.326,3.466 C190.587335,3.5126669 190.820666,3.58733282 191.026,3.69 C191.362002,3.86733422 191.620999,4.13799818 191.803,4.502 C191.985001,4.86600182 192.076,5.29533086 192.076,5.79 C192.076,6.47133674 191.919668,7.05233093 191.607,7.533 C191.294332,8.01366907 190.844003,8.35199902 190.256,8.548 L192.594,12.72 Z M196.64,4.138 C196.322665,4.138 196.035668,4.21733254 195.779,4.376 C195.522332,4.53466746 195.328667,4.74933198 195.198,5.02 C194.880665,5.71067012 194.722,6.76065962 194.722,8.17 C194.722,8.87933688 194.766333,9.51166389 194.855,10.067 C194.943667,10.6223361 195.081332,11.0819982 195.268,11.446 C195.529335,11.987336 195.981997,12.258 196.626,12.258 C196.952668,12.258 197.241999,12.1810008 197.494,12.027 C197.746001,11.8729992 197.937333,11.6560014 198.068,11.376 C198.226667,11.0399983 198.345666,10.6130026 198.425,10.095 C198.504334,9.57699741 198.544,8.97267012 198.544,8.282 C198.544,6.76999244 198.366668,5.65933688 198.012,4.95 C197.731999,4.40866396 197.27467,4.138 196.64,4.138 Z M196.752,3.2 C197.750672,3.2 198.506664,3.6199958 199.02,4.46 C199.533336,5.3000042 199.79,6.54132512 199.79,8.184 C199.79,9.83600826 199.517003,11.0843291 198.971,11.929 C198.424997,12.7736709 197.620005,13.196 196.556,13.196 C195.538662,13.196 194.771003,12.7806708 194.253,11.95 C193.734997,11.1193292 193.476,9.8873415 193.476,8.254 C193.476,4.88464982 194.567989,3.2 196.752,3.2 Z M202.66,3.396 C202.744,3.396 202.797667,3.40766655 202.821,3.431 C202.844333,3.45433345 202.856,3.50799958 202.856,3.592 L202.856,10.382 C202.856,11.0633367 202.991332,11.5463319 203.262,11.831 C203.532668,12.1156681 203.989997,12.258 204.634,12.258 C205.287337,12.258 205.767998,12.1063348 206.076,11.803 C206.384002,11.4996652 206.538,11.0260032 206.538,10.382 L206.538,3.592 C206.538,3.50799958 206.549667,3.45433345 206.573,3.431 C206.596333,3.40766655 206.65,3.396 206.734,3.396 L207.448,3.396 C207.532,3.396 207.585667,3.40766655 207.609,3.431 C207.632333,3.45433345 207.644,3.50799958 207.644,3.592 L207.644,10.424 C207.644,10.8813356 207.588001,11.2639985 207.476,11.572 C207.363999,11.8800015 207.186668,12.1553321 206.944,12.398 C206.654665,12.6780014 206.325669,12.8809994 205.957,13.007 C205.588331,13.1330006 205.128669,13.196 204.578,13.196 C202.664657,13.196 201.708,12.2720092 201.708,10.424 L201.708,3.592 C201.708,3.50799958 201.719667,3.45433345 201.743,3.431 C201.766333,3.40766655 201.82,3.396 201.904,3.396 L202.66,3.396 Z M212.264,12.804 C212.264,12.8880004 212.252333,12.9416666 212.229,12.965 C212.205667,12.9883334 212.152,13 212.068,13 L211.312,13 C211.228,13 211.174333,12.9883334 211.151,12.965 C211.127667,12.9416666 211.116,12.8880004 211.116,12.804 L211.116,4.376 L209.072,4.376 C208.988,4.376 208.934333,4.36433345 208.911,4.341 C208.887667,4.31766655 208.876,4.26400042 208.876,4.18 L208.876,3.592 C208.876,3.50799958 208.887667,3.45433345 208.911,3.431 C208.934333,3.40766655 208.988,3.396 209.072,3.396 L214.532,3.396 C214.662667,3.396 214.728,3.42866634 214.728,3.494 C214.728,3.53133352 214.723333,3.55933324 214.714,3.578 L214.7,3.62 L214.49,4.222 C214.462,4.32466718 214.392001,4.376 214.28,4.376 L212.264,4.376 L212.264,12.804 Z M217.01,7.54 L219.754,7.54 C219.838,7.54 219.891667,7.55166655 219.915,7.575 C219.938333,7.59833345 219.95,7.65199958 219.95,7.736 L219.95,8.282 C219.95,8.36600042 219.938333,8.41966655 219.915,8.443 C219.891667,8.46633345 219.838,8.478 219.754,8.478 L217.01,8.478 L217.01,12.006 L220.356,12.006 C220.44,12.006 220.493667,12.0176666 220.517,12.041 C220.540333,12.0643334 220.552,12.1179996 220.552,12.202 L220.552,12.804 C220.552,12.8880004 220.540333,12.9416666 220.517,12.965 C220.493667,12.9883334 220.44,13 220.356,13 L216.058,13 C215.964666,13 215.908667,12.9906668 215.89,12.972 C215.871333,12.9533332 215.862,12.8973338 215.862,12.804 L215.862,3.592 C215.862,3.50799958 215.873667,3.45433345 215.897,3.431 C215.920333,3.40766655 215.974,3.396 216.058,3.396 L220.37,3.396 C220.500667,3.396 220.566,3.42866634 220.566,3.494 L220.566,3.536 C220.566,3.54533338 220.556667,3.5733331 220.538,3.62 L220.328,4.236 C220.281333,4.33866718 220.211334,4.39 220.118,4.39 L217.01,4.39 L217.01,7.54 Z" id="FIXED-ROUTE"></path>
                </g>
            </g>
        </g>
    </g>
</svg>