<?xml version="1.0" encoding="UTF-8"?>
<svg width="195px" height="124px" viewBox="0 0 195 124" version="1.1" xmlns="http://www.w3.org/2000/svg" xmlns:xlink="http://www.w3.org/1999/xlink">
    <!-- Generator: Sketch 43.2 (39069) - http://www.bohemiancoding.com/sketch -->
    <title>logo-ku</title>
    <desc>Created with Sketch.</desc>
    <defs></defs>
    <g id="Page-1" stroke="none" stroke-width="1" fill="none" fill-rule="evenodd">
        <g id="logo-ku" fill-rule="nonzero" fill="#FFFFFF">
            <g id="Shape">
                <path d="M191.615071,0 C186.231808,0 177.502192,0.4364808 175.901762,0.4364808 C175.756269,0.4364808 167.026653,0 159.897466,0 C158.00605,0 156.987594,0.2909872 156.987594,1.3094424 C156.987594,2.182404 157.860556,2.4733912 159.460986,2.4733912 C160.915922,2.4733912 163.243819,2.6188848 164.407768,2.909872 C168.91807,3.9283272 170.082018,6.1107312 170.373006,10.7665264 C170.663993,15.276828 170.663993,19.0596616 170.663993,40.1562336 L170.663993,57.469972 C170.663993,71.7283448 170.227512,84.2407944 162.661845,91.8064616 C156.987594,97.3352184 149.567421,99.2266352 143.45669,99.2266352 C138.800894,99.2266352 132.399176,98.6446608 126.142951,93.5523848 C119.450246,88.023628 115.376425,79.5849992 115.376425,59.5068824 L115.376425,40.1562336 C115.376425,19.0596616 115.376425,15.276828 115.667412,10.7665264 C115.958399,5.9652376 117.122348,3.63734 120.759688,2.909872 C122.505611,2.6188848 123.233079,2.4733912 124.833509,2.4733912 C126.142951,2.4733912 127.015913,2.182404 127.015913,1.3094424 C127.015913,0.2909872 125.997458,0 123.960547,0 C119.013765,0 110.284149,0.4364808 106.937796,0.4364808 L80.3124672,0.4364808 C76.5296336,0.4364808 68.9639664,0 66.0540944,0 C64.5991584,0 63.8716904,0.2909872 63.8716904,1.3094424 C63.8716904,2.0369104 64.4536648,2.3278976 65.6176136,2.6188848 C67.0725496,2.909872 67.654524,3.9283272 67.654524,5.3832632 C67.654524,7.8566544 64.5991584,11.2030072 60.6708312,15.8588024 C56.5970104,20.5145976 36.3734,41.1746888 31.5721112,46.4124584 L30.9901368,46.4124584 L30.9901368,40.3017272 C30.9901368,19.2051552 30.9901368,15.276828 31.281124,10.91202 C31.4266176,5.9652376 32.5905664,3.63734 36.3734,2.909872 C37.9738296,2.6188848 38.8467912,2.4733912 40.3017272,2.4733912 C41.3201824,2.4733912 42.193144,2.182404 42.193144,1.3094424 C42.193144,0.2909872 41.1746888,0 39.283272,0 C34.4819832,0 25.7523672,0.4364808 22.4060144,0.4364808 C19.2051552,0.4364808 10.3300456,0 3.0553656,0 C1.0184552,0 0,0.2909872 0,1.3094424 C0,2.182404 0.8729616,2.4733912 2.3278976,2.4733912 C4.2193144,2.4733912 6.6927056,2.6188848 7.7111608,2.909872 C12.366956,3.9283272 13.3854112,6.1107312 13.6763984,10.91202 C13.9673856,15.276828 13.9673856,19.2051552 13.9673856,40.3017272 L13.9673856,64.744652 C13.9673856,77.4025952 13.9673856,88.4601088 13.3854112,94.2798528 C12.8034368,98.20818 12.0759688,101.263546 9.3115904,101.84552 C8.002148,102.136507 6.4017184,102.427494 4.2193144,102.427494 C2.6188848,102.427494 2.0369104,102.863975 2.0369104,103.591443 C2.0369104,104.464405 3.0553656,104.900886 4.8012888,104.900886 C10.3300456,104.900886 19.2051552,104.464405 22.4060144,104.464405 C25.7523672,104.464405 34.4819832,104.900886 42.3386376,104.900886 C43.7935736,104.900886 44.9575224,104.464405 44.9575224,103.591443 C44.9575224,102.863975 44.2300544,102.427494 43.2115992,102.427494 C41.3201824,102.427494 38.2648168,102.136507 36.3734,101.84552 C32.8815536,101.263546 31.5721112,98.20818 31.4266176,94.4253464 C30.9901368,88.4601088 30.9901368,77.4025952 30.9901368,64.744652 L30.9901368,52.0867088 L31.5721112,52.0867088 L33.1725408,54.1236192 L87.7326408,114.35797 C93.6978784,119.595739 97.480712,122.651105 104.900886,123.378573 C107.810758,123.66956 110.284149,123.66956 114.503463,123.66956 L126.579432,123.66956 C129.198317,123.66956 129.925785,123.233079 129.925785,122.360118 C129.925785,121.487156 129.052823,121.196169 128.034368,121.196169 C126.433938,121.196169 123.087586,120.177714 118.868271,118.43179 C111.884578,115.812906 105.337366,110.138655 99.8086096,104.755392 L83.65882,87.29616 L43.7935736,44.375548 C48.5948624,39.4287656 69.4004472,18.4776872 73.7652552,14.4038664 C81.0399352,7.8566544 87.1506664,2.909872 91.5154744,2.909872 C95.7347888,2.909872 97.1897248,6.1107312 97.3352184,10.7665264 C97.6262056,15.276828 97.6262056,19.0596616 97.6262056,40.1562336 L97.6262056,60.379844 C97.6262056,80.4579608 102.863975,90.6425128 109.993162,97.0442312 C120.03222,106.210328 133.417631,106.646809 140.692311,106.646809 C149.712914,106.646809 159.751973,105.046379 169.500044,96.6077504 C181.139532,86.7141856 182.594468,70.2734088 182.594468,54.9965808 L182.594468,40.1562336 C182.594468,19.0596616 182.594468,15.276828 182.885455,10.7665264 C183.176442,5.9652376 184.340391,3.63734 188.123225,2.909872 C189.723654,2.6188848 190.596616,2.4733912 192.051552,2.4733912 C193.797475,2.4733912 194.524943,2.182404 194.524943,1.3094424 C194.524943,0.2909872 193.651982,0 191.615071,0 L191.615071,0 Z"></path>
            </g>
        </g>
    </g>
</svg>