<?xml version="1.0" encoding="UTF-8"?>
<svg width="17px" height="10px" viewBox="0 0 17 10" version="1.1" xmlns="http://www.w3.org/2000/svg" xmlns:xlink="http://www.w3.org/1999/xlink">
    <!-- Generator: Sketch 40.3 (33839) - http://www.bohemiancoding.com/sketch -->
    <title>i-arrow</title>
    <desc>Created with Sketch.</desc>
    <defs></defs>
    <g id="Symbols" stroke="none" stroke-width="1" fill="none" fill-rule="evenodd">
        <g id="bus-schedual-myTRip" transform="translate(-376.000000, -26.000000)" fill="#9B9B9B">
            <g id="Group-2" transform="translate(107.000000, 24.000000)">
                <path d="M269.448229,7.38876438 L284.321381,7.38876438 L280.474077,11.2360675 C280.386523,11.3236217 280.343493,11.4380696 280.343493,11.5525176 C280.343493,11.6666667 280.386523,11.7823099 280.474077,11.8686688 C280.649186,12.0437771 280.933064,12.0437771 281.108173,11.8686688 L285.659196,7.31884058 C285.834304,7.14373226 285.834304,6.85985358 285.659196,6.68504408 L281.106977,2.13133124 C280.931869,1.95622292 280.64799,1.95622292 280.473181,2.13133124 C280.298073,2.30643956 280.298073,2.59001942 280.473181,2.76512775 L284.20006,6.49230539 L269.448229,6.49230539 C269.200807,6.49230539 269,6.69311221 269,6.94053489 C269,7.18795757 269.200807,7.38876438 269.448229,7.38876438 L269.448229,7.38876438 Z" id="i-arrow"></path>
            </g>
        </g>
    </g>
</svg>