<?xml version="1.0" encoding="UTF-8"?>
<svg width="41px" height="24px" viewBox="0 0 41 24" version="1.1" xmlns="http://www.w3.org/2000/svg" xmlns:xlink="http://www.w3.org/1999/xlink">
    <!-- Generator: Sketch 40.3 (33839) - http://www.bohemiancoding.com/sketch -->
    <title>i-arrow-lg</title>
    <desc>Created with Sketch.</desc>
    <defs></defs>
    <g id="Portal---Operations" stroke="none" stroke-width="1" fill="none" fill-rule="evenodd">
        <g id="Artboard" transform="translate(-254.000000, -287.000000)" fill="#D1D1D1">
            <path d="M255.463079,299.926152 L290.895322,299.926152 L281.729908,309.091565 C281.521328,309.300145 281.418818,309.572794 281.418818,309.845443 C281.418818,310.11738 281.521328,310.392876 281.729908,310.598608 C282.147068,311.015768 282.823351,311.015768 283.240511,310.598608 L294.082394,299.759573 C294.499554,299.342413 294.499554,298.66613 294.082394,298.249682 L283.237663,287.401392 C282.820503,286.984232 282.14422,286.984232 281.727772,287.401392 C281.310613,287.818552 281.310613,288.494123 281.727772,288.911282 L290.6063,297.790521 L255.463079,297.790521 C254.873645,297.790521 254.395264,298.268903 254.395264,298.858337 C254.395264,299.44777 254.873645,299.926152 255.463079,299.926152 L255.463079,299.926152 Z" id="i-arrow-lg"></path>
        </g>
    </g>
</svg>