<?xml version="1.0" encoding="UTF-8"?>
<svg width="28px" height="25px" viewBox="0 0 28 25" version="1.1" xmlns="http://www.w3.org/2000/svg" xmlns:xlink="http://www.w3.org/1999/xlink">
    <!-- Generator: Sketch 42 (36781) - http://www.bohemiancoding.com/sketch -->
    <title>i-cal-drt</title>
    <desc>Created with Sketch.</desc>
    <defs></defs>
    <g id="Mobile" stroke="none" stroke-width="1" fill="none" fill-rule="evenodd">
        <g id="Default---Trip-with-scheduling" transform="translate(-326.000000, -134.000000)" fill="#000000">
            <g id="i-cal-drt" transform="translate(326.000000, 134.000000)">
                <path d="M0.303820896,1.98635294 L0.303820896,17.8586471 C0.303820896,18.8785882 1.14925373,19.7115882 2.18441791,19.7115882 L15.5671642,19.7115882 C16.3198209,22.2435294 18.7014925,24.0964706 21.5223881,24.0964706 C24.9392239,24.0964706 27.729194,21.3475294 27.729194,17.9809412 C27.729194,15.5103529 26.2238806,13.3790588 24.0933731,12.4221176 L24.0933731,1.98635294 C24.0933731,0.966823529 23.2479403,0.133411765 22.2127761,0.133411765 L2.18441791,0.133411765 C1.14925373,0.133411765 0.303820896,0.968470588 0.303820896,1.98635294 Z M23.4339104,12.208 C22.8070448,11.9926471 22.1492537,11.8991765 21.4914627,11.8991765 C20.3321791,11.8991765 19.2351642,12.2388824 18.2948657,12.7951765 L18.2948657,10.6638824 L23.4665075,10.6638824 L23.4665075,12.208 L23.4339104,12.208 Z M21.4914627,23.5430588 C18.4189851,23.5430588 15.9115224,21.0724706 15.9115224,18.0451765 C15.9115224,15.0182941 18.4189851,12.5477059 21.4914627,12.5477059 C24.5635224,12.5477059 27.0709851,15.0182941 27.0709851,18.0451765 C27.0709851,21.0708235 24.5618507,23.5430588 21.4914627,23.5430588 Z M0.930686567,17.8907647 L0.930686567,15.2048235 L6.10232836,15.2048235 L6.10232836,19.1260588 L2.18441791,19.1260588 C1.49361194,19.1260588 0.930686567,18.5714118 0.930686567,17.8907647 Z M17.6663284,13.1974706 C17.1652537,13.5993529 16.7260299,14.0625882 16.3507463,14.5567059 L12.4946866,14.5567059 L12.4946866,10.6334118 L17.6663284,10.6334118 L17.6663284,13.1974706 Z M6.6961791,10.6334118 L11.8678209,10.6334118 L11.8678209,14.5550588 L6.6961791,14.5550588 L6.6961791,10.6334118 Z M17.6663284,10.0157647 L12.4946866,10.0157647 L12.4946866,6.09452941 L17.6663284,6.09452941 L17.6663284,10.0157647 Z M11.8678209,10.0157647 L6.6961791,10.0157647 L6.6961791,6.09452941 L11.8678209,6.09452941 L11.8678209,10.0157647 Z M18.293194,6.09452941 L23.4648358,6.09452941 L23.4648358,10.0157647 L18.293194,10.0157647 L18.293194,6.09452941 Z M0.930686567,6.09452941 L6.10232836,6.09452941 L6.10232836,10.0157647 L0.930686567,10.0157647 L0.930686567,6.09452941 Z M0.930686567,10.6334118 L6.10232836,10.6334118 L6.10232836,14.5550588 L0.930686567,14.5550588 L0.930686567,10.6334118 Z M6.6961791,15.2048235 L11.8678209,15.2048235 L11.8678209,19.1260588 L6.6961791,19.1260588 L6.6961791,15.2048235 Z M12.4946866,15.2048235 L15.973791,15.2048235 C15.5345672,16.0378235 15.2520597,16.9964118 15.2520597,18.0147059 C15.2520597,18.3844706 15.2829851,18.7562941 15.3469254,19.1260588 L12.4637612,19.1260588 L12.4637612,15.2048235 L12.4946866,15.2048235 Z M23.4339104,5.47688235 L0.930686567,5.47688235 L0.930686567,1.98635294 C0.930686567,1.30776471 1.49528358,0.751058824 2.18441791,0.751058824 L22.2127761,0.751058824 C22.9019104,0.751058824 23.4665075,1.30776471 23.4665075,1.98635294 L23.4665075,5.47688235 L23.4339104,5.47688235 Z" id="Fill-1"></path>
                <path d="M3.75158209,1.80147059 C2.99892537,1.80147059 2.40298507,2.38864706 2.40298507,3.13023529 C2.40298507,3.87141176 2.99892537,4.45858824 3.75158209,4.45858824 C4.5038209,4.45858824 5.09976119,3.87141176 5.09976119,3.13023529 C5.09808955,2.38864706 4.47122388,1.80147059 3.75158209,1.80147059 Z M3.75158209,3.83929412 C3.34328358,3.83929412 3.02985075,3.53047059 3.02985075,3.12858824 C3.02985075,2.72629412 3.34328358,2.41747059 3.75158209,2.41747059 C4.15946269,2.41747059 4.47289552,2.72629412 4.47289552,3.12858824 C4.47289552,3.52882353 4.12686567,3.83929412 3.75158209,3.83929412 Z" id="Fill-2"></path>
                <path d="M20.6130149,1.80147059 C19.8603582,1.80147059 19.2648358,2.38864706 19.2648358,3.13023529 C19.2648358,3.87141176 19.8603582,4.45858824 20.6130149,4.45858824 C21.3656716,4.45858824 21.9616119,3.87141176 21.9616119,3.13023529 C21.9616119,2.38864706 21.3656716,1.80147059 20.6130149,1.80147059 Z M20.6130149,3.83929412 C20.2051343,3.83929412 19.8917015,3.53047059 19.8917015,3.12858824 C19.8917015,2.72629412 20.2051343,2.41747059 20.6130149,2.41747059 C21.0213134,2.41747059 21.3347463,2.72629412 21.3347463,3.12858824 C21.3347463,3.52882353 21.0213134,3.83929412 20.6130149,3.83929412 Z" id="Fill-3"></path>
                <path d="M21.9925373,13.9065294 C21.9925373,13.7216471 21.8667463,13.5977059 21.6791045,13.5977059 C21.4914627,13.5977059 21.3656716,13.7216471 21.3656716,13.9065294 L21.3656716,18.3235294 L18.0437015,18.3235294 C17.8560597,18.3235294 17.7302687,18.4474706 17.7302687,18.6323529 C17.7302687,18.8172353 17.8560597,18.9411765 18.0437015,18.9411765 L21.6481791,18.9411765 C21.8358209,18.9411765 21.9616119,18.8172353 21.9616119,18.6323529 L21.9616119,13.9065294 L21.9925373,13.9065294 Z" id="Fill-4"></path>
            </g>
        </g>
    </g>
</svg>