<?xml version="1.0" encoding="UTF-8"?>
<svg width="25px" height="22px" viewBox="0 0 25 22" version="1.1" xmlns="http://www.w3.org/2000/svg" xmlns:xlink="http://www.w3.org/1999/xlink">
    <!-- Generator: Sketch 42 (36781) - http://www.bohemiancoding.com/sketch -->
    <title>i-dateicon-white</title>
    <desc>Created with Sketch.</desc>
    <defs></defs>
    <g id="Page-1" stroke="none" stroke-width="1" fill="none" fill-rule="evenodd">
        <path d="M22.0093689,3 C21.4519098,3 21,3.44335318 21,4.0093689 L21,5.9906311 C21,6.54809015 20.5566468,7 19.9906311,7 L18.0093689,7 C17.4519098,7 17,6.55664682 17,5.9906311 L17,4.0093689 C17,3.45190985 16.5536886,3 16.0024554,3 L8.99754465,3 C8.44661595,3 8,3.44335318 8,4.0093689 L8,5.9906311 C8,6.54809015 7.55664682,7 6.9906311,7 L5.0093689,7 C4.45190985,7 4,6.55664682 4,5.9906311 L4,4.0093689 C4,3.45190985 3.55664682,3 2.9906311,3 L1.0093689,3 C0.451909848,3 -1.08129388e-15,3.45092539 -1.48805774e-15,3.99477117 L-1.42108547e-14,21.0052288 C-1.46217705e-14,21.5546258 0.455262884,22 0.995457033,22 L24.004543,22 C24.5543187,22 25,21.5490746 25,21.0052288 L25,3.99477117 C25,3.44537422 24.5566468,3 23.9906311,3 L22.0093689,3 Z M24,20.0014977 C24,20.5529553 23.5610822,21 22.9969294,21 L2.00307055,21 C1.44908998,21 1,20.5525106 1,20.0014977 L1,8.99850233 C1,8.44704472 1.43891776,8 2.00307055,8 L22.9969294,8 C23.55091,8 24,8.44748943 24,8.99850233 L24,20.0014977 Z M5,1 C5,0.432098 5.4285714,0 6,0 C6.5714286,0 7,0.4054298 7,1 L7,5 C7,5.5675416 6.5714286,6 6,6 C5.4285714,6 5,5.5675416 5,5 L5,1 Z M18,1 C18,0.432098 18.4285714,0 19,0 C19.5714286,0 20,0.4054298 20,1 L20,5 C20,5.5675416 19.5714286,6 19,6 C18.4285714,6 18,5.5675416 18,5 L18,1 Z" id="i-dateicon-white" fill="#FFFFFF" fill-rule="nonzero"></path>
    </g>
</svg>