<?xml version="1.0" encoding="UTF-8"?>
<svg width="32px" height="44px" viewBox="0 0 32 44" version="1.1" xmlns="http://www.w3.org/2000/svg" xmlns:xlink="http://www.w3.org/1999/xlink">
    <!-- Generator: Sketch 42 (36781) - http://www.bohemiancoding.com/sketch -->
    <title>i-drt-pin-b</title>
    <desc>Created with Sketch.</desc>
    <defs>
        <linearGradient x1="9.02099616%" y1="100.456099%" x2="9.02099603%" y2="-81.5019087%" id="linearGradient-1">
            <stop stop-color="#818181" offset="0%"></stop>
            <stop stop-color="#D8D8D8" offset="100%"></stop>
        </linearGradient>
    </defs>
    <g id="Symbols" stroke="none" stroke-width="1" fill="none" fill-rule="evenodd">
        <g id="i-drt-pin-b">
            <ellipse id="Oval-9" fill="#4A90E2" cx="19.7291545" cy="41.9514935" rx="1.5" ry="1.7093374"></ellipse>
            <path d="M11.2695607,31.5790477 C7.96987704,31.9169207 4.03478863,30.2547845 2.037075,27.5499529 C-0.184830587,24.5415736 0.831269819,21.3825475 4.30659877,20.4940706 C7.78192773,19.6055937 12.4004489,21.3241142 14.6223544,24.3324936 C16.6200681,27.0373252 16.0002442,29.8639365 13.3289086,31.05257 C14.6543722,33.0060452 20.5292972,41.709747 20.0638029,41.8287518 C19.5983086,41.9477567 12.7923951,33.4820645 11.2695607,31.5790477 Z" id="Oval-9" fill-opacity="0.200000003" fill="#3E3E3E"></path>
            <path d="M18.2291545,20.2421561 L21.7183673,20.2421561 C21.7183673,20.2421561 20.8460641,41.7921554 19.9737609,41.7921554 C19.1014577,41.7921554 18.2291545,20.2421561 18.2291545,20.2421561 Z" id="Rectangle-10" fill="#828282"></path>
            <path d="M20.0299988,20.3553596 L21.7746052,20.3553596 C21.7746052,20.3553596 20.902302,40.8674084 20.0299988,40.8674084 C20.0299988,37.9371157 20.0299988,20.3553596 20.0299988,20.3553596 Z" id="Rectangle-10" fill="url(#linearGradient-1)"></path>
            <path d="M24.5634597,12.8086726 L23.8361681,7.94512904 C23.8361681,7.94512904 23.669942,6.82599165 22.4862615,6.82599165 L16.1724611,6.82599165 C14.9887805,6.82599165 14.8225544,7.94512904 14.8225544,7.94512904 L14.0958212,12.8086726 L14.3864028,14.4159967 L14.199381,14.6398515 L14.199381,15.7792275 L14.9887805,15.7792275 L14.9887805,16.7967618 L16.8997526,16.7967618 L16.8997526,15.7792275 L21.7595282,15.7792275 L21.7595282,16.7967618 L23.6705003,16.7967618 L23.6705003,15.7792275 L24.4593416,15.7792275 L24.4593416,14.6398515 L24.2723198,14.4159967 L24.5634597,12.8086726 Z M17.1592105,7.07008503 L21.5000704,7.07008503 L21.5000704,8.20946097 L17.1592105,8.20946097 L17.1592105,7.07008503 Z M15.0199043,8.77942244 L16.9721887,8.57594291 L19.0281724,8.57594291 L19.0281724,11.6692966 L14.646419,11.6692966 L15.0199043,8.77942244 Z M16.8217338,13.7648075 C16.8217338,14.0121828 16.6172659,14.2125172 16.3649261,14.2125172 C16.1707863,14.2125172 16.0056767,14.0938208 15.9391025,13.927263 C15.8725284,14.0938208 15.7074188,14.2125172 15.513279,14.2125172 C15.2609391,14.2125172 15.0564713,14.0121828 15.0564713,13.7648075 C15.0564713,13.517569 15.2609391,13.3172346 15.513279,13.3172346 C15.7074188,13.3172346 15.8725284,13.4352473 15.9391025,13.6024889 C16.0056767,13.4352473 16.1707863,13.3172346 16.3649261,13.3172346 C16.6172659,13.3172346 16.8217338,13.517569 16.8217338,13.7648075 L16.8217338,13.7648075 Z M23.7118126,14.9892021 L14.9474683,14.9892021 L14.9474683,14.700704 L23.7118126,14.700704 L23.7118126,14.9892021 Z M21.837547,13.7648075 C21.837547,13.517569 22.0420149,13.3172346 22.2943548,13.3172346 C22.4884946,13.3172346 22.6536041,13.4352473 22.7201783,13.6024889 C22.7867525,13.4352473 22.951862,13.3172346 23.1460019,13.3172346 C23.3983417,13.3172346 23.6028096,13.517569 23.6028096,13.7648075 C23.6028096,14.0121828 23.3983417,14.2125172 23.1460019,14.2125172 C22.951862,14.2125172 22.7867525,14.0938208 22.7201783,13.927263 C22.6536041,14.0938208 22.4879363,14.2125172 22.2943548,14.2125172 C22.0420149,14.2125172 21.837547,14.0121828 21.837547,13.7648075 L21.837547,13.7648075 Z M19.6305501,11.6687496 L19.6305501,8.57594291 L21.6870922,8.57594291 L23.6393765,8.77942244 L24.0134202,11.6687496 L19.6305501,11.6687496 Z" id="Page-1" fill="#FFFFFF"></path>
            <circle id="Oval-64" fill="#4A90E2" cx="20.2291545" cy="11.2421561" r="11"></circle>
            <path d="M20.2338192,16.7799997 L15,11.3899999 L15.3489213,11.0306665 L20.2338192,16.0613331 L25.1187172,11.0306665 L25.4676385,11.3899999 L20.2338192,16.7799997 Z M25.4676385,6.35933332 L25.1187172,6 L20.2338192,11.0306665 L15.3489213,6 L15,6.35933332 L20.2338192,11.7493332 L25.4676385,6.35933332 Z" id="Page-1" stroke="#FFFFFF" fill="#FFFFFF"></path>
        </g>
    </g>
</svg>