<?xml version="1.0" encoding="UTF-8"?>
<svg width="28px" height="32px" viewBox="0 0 28 32" version="1.1" xmlns="http://www.w3.org/2000/svg" xmlns:xlink="http://www.w3.org/1999/xlink">
    <!-- Generator: Sketch 42 (36781) - http://www.bohemiancoding.com/sketch -->
    <title>i-estimated</title>
    <desc>Created with Sketch.</desc>
    <defs></defs>
    <g id="Page-1" stroke="none" stroke-width="1" fill="none" fill-rule="evenodd">
        <g id="Desktop-HD---hover-states" transform="translate(-215.000000, -319.000000)" fill="#9B9B9B">
            <g id="Group-10" transform="translate(63.000000, 318.000000)">
                <g id="Group-8" transform="translate(152.000000, 0.000000)">
                    <g id="i-estimated" transform="translate(0.000000, 1.000000)">
                        <g id="Page-1">
                            <path d="M13.6423565,0.63425641 C6.13433314,0.63425641 0.0661818182,6.48352628 0.0661818182,13.7207312 C0.0661818182,22.584699 12.7689231,31.329655 13.2669553,31.6939276 C13.3912548,31.7542377 13.518057,31.8137436 13.6423565,31.8137436 C13.7658218,31.8137436 13.892624,31.7542377 14.0169234,31.6939276 C14.5808594,31.3328715 27.217697,22.8894658 27.217697,13.7207312 C27.217697,6.54624872 21.1503799,0.63425641 13.6423565,0.63425641 Z M13.6422009,30.9743809 C11.5068382,29.4236117 0.905887379,21.4216425 0.905887379,13.729 C0.905887379,6.96681914 6.59731433,1.50976562 13.6422009,1.50976562 C20.6896737,1.50976562 26.3776523,6.97012745 26.3776523,13.729 C26.3776523,21.6697655 15.7732532,29.4889507 13.6422009,30.9743809 Z" id="Fill-1"></path>
                        </g>
                        <g id="Page-1" transform="translate(5.764706, 5.743590)">
                            <path d="M8.23529412,-2.84217094e-14 C3.68672767,-2.84217094e-14 0,3.67322317 0,8.20512821 C0,12.7370332 3.68672767,16.4102564 8.23529412,16.4102564 C12.7838606,16.4102564 16.4705882,12.7370332 16.4705882,8.20512821 C16.4705882,3.67322317 12.7838606,-2.84217094e-14 8.23529412,-2.84217094e-14 Z M8.23529412,15.7720798 C4.04054031,15.7720798 0.640522876,12.3845166 0.640522876,8.20512821 C0.640522876,4.02573979 4.04054031,0.638176638 8.23529412,0.638176638 C12.4300479,0.638176638 15.8300654,4.02573979 15.8300654,8.20512821 C15.8300654,12.3845166 12.4300479,15.7720798 8.23529412,15.7720798 Z" id="Fill-1"></path>
                            <polygon id="Fill-2" points="8.23529412 8.20512821 9.05882353 8.20512821 9.05882353 4.92307692 8.23529412 4.92307692"></polygon>
                            <path d="M9.05882353,8.61538462 C9.05882353,9.16239316 8.23529412,9.16239316 8.23529412,8.61538462 C8.23529412,8.06837607 9.05882353,8.06837607 9.05882353,8.61538462" id="Fill-3"></path>
                            <path d="M9.05882353,4.51282051 C9.05882353,5.05982906 8.23529412,5.05982906 8.23529412,4.51282051 C8.23529412,3.96581197 9.05882353,3.96581197 9.05882353,4.51282051" id="Fill-4"></path>
                            <polygon id="Fill-5" points="8.23529412 9.02564103 11.5294118 9.02564103 11.5294118 8.20512821 8.23529412 8.20512821"></polygon>
                            <path d="M9.05882353,8.61538462 C9.05882353,9.16239316 8.23529412,9.16239316 8.23529412,8.61538462 C8.23529412,8.06837607 9.05882353,8.06837607 9.05882353,8.61538462" id="Fill-6"></path>
                            <path d="M12.3529412,8.61538462 C12.3529412,9.16239316 11.5294118,9.16239316 11.5294118,8.61538462 C11.5294118,8.06837607 12.3529412,8.06837607 12.3529412,8.61538462" id="Fill-7"></path>
                        </g>
                    </g>
                </g>
            </g>
        </g>
    </g>
</svg>