<?xml version="1.0" encoding="UTF-8"?>
<svg width="22px" height="32px" viewBox="0 0 22 32" version="1.1" xmlns="http://www.w3.org/2000/svg" xmlns:xlink="http://www.w3.org/1999/xlink">
    <!-- Generator: Sketch 42 (36781) - http://www.bohemiancoding.com/sketch -->
    <title>i-eta</title>
    <desc>Created with Sketch.</desc>
    <defs></defs>
    <g id="Page-1" stroke="none" stroke-width="1" fill="none" fill-rule="evenodd">
        <g id="Desktop-HD---hover-states" transform="translate(-63.000000, -319.000000)" fill="#9B9B9B">
            <g id="Group-10" transform="translate(63.000000, 318.000000)">
                <g id="Group-7">
                    <g id="i-eta" transform="translate(0.000000, 1.000000)">
                        <g id="Page-1">
                            <path d="M10.665,0 C4.77444398,0 0,4.77519012 0,10.6666667 C0,16.5581432 4.77444398,21.3333333 10.665,21.3333333 C16.5555559,21.3333333 21.3299999,16.5581432 21.3299999,10.6666667 C21.3299999,4.77519012 16.5555559,0 10.665,0 Z M10.665,20.5037037 C5.23264398,20.5037037 0.829499997,16.0998716 0.829499997,10.6666667 C0.829499997,5.23346173 5.23264398,0.82962963 10.665,0.82962963 C16.0973559,0.82962963 20.5004999,5.23346173 20.5004999,10.6666667 C20.5004999,16.0998716 16.0973559,20.5037037 10.665,20.5037037 Z" id="Fill-1"></path>
                            <polygon id="Fill-2" points="10.665 10.6666667 11.7315 10.6666667 11.7315 6.4 10.665 6.4"></polygon>
                            <path d="M11.7315,11.2 C11.7315,11.9111111 10.665,11.9111111 10.665,11.2 C10.665,10.4888889 11.7315,10.4888889 11.7315,11.2" id="Fill-3"></path>
                            <path d="M11.7315,5.86666667 C11.7315,6.57777778 10.665,6.57777778 10.665,5.86666667 C10.665,5.15555556 11.7315,5.15555556 11.7315,5.86666667" id="Fill-4"></path>
                            <polygon id="Fill-5" points="10.665 11.7333333 14.9309999 11.7333333 14.9309999 10.6666667 10.665 10.6666667"></polygon>
                            <path d="M11.7315,11.2 C11.7315,11.9111111 10.665,11.9111111 10.665,11.2 C10.665,10.4888889 11.7315,10.4888889 11.7315,11.2" id="Fill-6"></path>
                            <path d="M15.9974999,11.2 C15.9974999,11.9111111 14.9309999,11.9111111 14.9309999,11.2 C14.9309999,10.4888889 15.9974999,10.4888889 15.9974999,11.2" id="Fill-7"></path>
                        </g>
                        <path d="M6.30790497,30.8737907 L2.47815005,30.8737907 L2.47815005,27.9866944 L6.11511458,27.9866944 L6.11511458,27.3509078 L2.47815005,27.3509078 L2.47815005,24.6462093 L6.30790497,24.6462093 L6.30790497,24 L1.76951513,24 L1.76951513,31.52 L6.30790497,31.52 L6.30790497,30.8737907 Z M10.9584954,31.52 L10.9584954,24.6462093 L13.4751914,24.6462093 L13.4751914,24 L7.72795379,24 L7.72795379,24.6462093 L10.2446499,24.6462093 L10.2446499,31.52 L10.9584954,31.52 Z M19.0272071,31.52 L19.7775265,31.52 L16.9690395,24 L16.2604046,24 L13.4467071,31.52 L14.202237,31.52 L15.0359251,29.2165766 L18.193519,29.2165766 L19.0272071,31.52 Z M16.5990904,24.8807207 L16.6303537,24.8807207 L17.9798864,28.6016355 L15.2495577,28.6016355 L16.5990904,24.8807207 Z" id="ETA"></path>
                    </g>
                </g>
            </g>
        </g>
    </g>
</svg>