<?xml version="1.0" encoding="UTF-8"?>
<svg width="200px" height="200px" viewBox="0 0  489.7 489.7" version="1.1" xmlns="http://www.w3.org/2000/svg" xmlns:xlink="http://www.w3.org/1999/xlink">
    <!-- Generator: Sketch 40.3 (33839) - http://www.bohemiancoding.com/sketch -->
    <title>i-personal-care-assistant</title>
    <desc>Created with Sketch.</desc>
    <defs></defs>
    <g id="Page-1" stroke="none" stroke-width="1" fill="none" fill-rule="evenodd">
        <g id="i-personal-care-assistant" fill="#184D8A">
			<path d="M311.9,234.8l-68.4,118.9l-66.1-118.9c-52.1,14-87.9,48.2-87.9,109.6v104.2c96.4,54.8,214.2,54.8,310.7,0V344.5
				C399.7,283.1,364,248.8,311.9,234.8z M183.2,349.2h-8.9v8.9c0,7.7-6.3,14-14,14l0,0c-7.7,0-14-6.3-14-14v-8.9h-8.9
				c-7.7,0-14-6.3-14-14l0,0c0-7.7,6.3-14,14-14h8.9v-8.9c0-7.7,6.3-14,14-14l0,0c7.7,0,14,6.3,14,14v8.9h8.9c7.7,0,14,6.3,14,14
				l0,0C197.2,342.9,190.9,349.2,183.2,349.2z"/>
			<path d="M143.1,107.3c0-38.1,13.6-72.3,35-95.6c-5.1,2.3-48,13.9-42,86.7c-2.3,28.4-7.8,60.7-33,75.8
				c20.2,13.2,44.3,20.2,68.4,20.6C153.6,172.2,143.1,141.1,143.1,107.3z"/>
			<path d="M328.2,182c19.8-1.6,39.7-5.8,57.9-12.8c-0.8-3.5-3.5-6.6-5.8-9.3c-26.4-32.3-12.4-82-34.6-117.4
				c-7.4-11.7-18.3-20.6-30.3-27.2c19.8,23.3,32.3,56,32.3,92.1C347.6,135.3,340.3,161,328.2,182z"/>
			<path d="M197.2,219.3v14.8l46.3,80.1l48.6-84v-10.1c-14,8.9-29.9,14-47,14C227.9,234.5,211.6,229,197.2,219.3z"/>
			<path d="M327.8,107.3c0-5.8-0.4-12.1-1.2-17.5C304,89.4,282.7,72.3,271,61.4c-25.7,31.9-85.9,42-108.5,44.7c0,0.4,0,0.8,0,1.2
				c0,59.1,36.9,107.3,82.4,107.3C290.9,214.6,327.8,166.8,327.8,107.3z"/>
			<path d="M260.5,41.2c1.6-3.1,8.7-10.2,16.7-2.3c7,8.6,26.8,27.2,45.5,30.7C310.6,28.8,280.7,0,245.3,0c-40,0-73.5,36.9-80.9,85.9
				C194.4,82,247.7,69.2,260.5,41.2z"/>
			</g>
    </g>
</svg>