<?xml version="1.0" encoding="UTF-8"?>
<svg width="200px" height="200px" viewBox="0 0 19 20" version="1.1" xmlns="http://www.w3.org/2000/svg" xmlns:xlink="http://www.w3.org/1999/xlink">
    <!-- Generator: Sketch 40.3 (33839) - http://www.bohemiancoding.com/sketch -->
    <title>i-wheelchair</title>
    <desc>Created with Sketch.</desc>
    <defs></defs>
    <g id="Page-1" stroke="none" stroke-width="1" fill="none" fill-rule="evenodd">
        <g id="i-wheelchair" fill="#184D8A">
            <path d="M18.6186667,16.8093333 C18.5824,16.7594667 18.5469333,16.7 18.5093333,16.6365333 C18.4957333,16.6136 18.4824,16.5906667 18.4688,16.5666667 C18.3376,16.3490667 18.1365333,16.2093333 17.872,16.1530667 C17.7928,16.1365333 17.7114667,16.128 17.6312,16.128 C17.4,16.128 17.1749333,16.1957333 16.9437333,16.3365333 C16.7290667,16.4666667 16.5208,16.5957333 16.3,16.7333333 C16.2666667,16.6749333 16.2333333,16.6165333 16.2010667,16.5584 C16.0853333,16.3552 15.9698667,16.1509333 15.8541333,15.948 C15.548,15.4093333 15.2312,14.852 14.9186667,14.3053333 C14.8405333,14.1688 14.7624,14.0312 14.6842667,13.8938667 C14.4376,13.4584 14.1813333,13.0082667 13.9168,12.572 C13.4874667,11.8645333 12.8530667,11.4354667 12.0312,11.2957333 C11.0957333,11.1365333 10.1605333,10.9834667 9.22506667,10.8272 C9.27093333,10.5490667 9.3176,10.2709333 9.36346667,9.99173333 C9.39786667,9.78026667 9.43333333,9.5688 9.4688,9.35733333 C9.6824,8.06773333 10.3989333,6.0864 9.276,5.03333333 C8.98533333,4.76133333 8.66773333,4.63546667 8.3344,4.6584 C7.80533333,4.69573333 7.36666667,4.7896 6.95413333,4.952 C5.81466667,5.40213333 4.64586667,5.83546667 3.51466667,6.25413333 C3.3312,6.32186667 3.14693333,6.39066667 2.9624,6.4584 C2.53946667,6.61573333 2.20213333,6.88746667 1.9584,7.26773333 L1.84373333,7.44586667 C1.37493333,8.1792 0.8896,8.93653333 0.421866667,9.68853333 C0.302133333,9.88026667 0.211466667,10.0957333 0.160533333,10.3114667 C0.111466667,10.5136 0.0896,10.7250667 0.152,10.9272 C0.285333333,11.3562667 0.736533333,11.652 1.1728,11.6832 C1.69173333,11.7197333 2.11866667,11.3229333 2.3792,10.9125333 L2.64266667,10.4978667 C3.06453333,9.83333333 3.50106667,9.14586667 3.93226667,8.47093333 C4.3928,8.29466667 4.86053333,8.11866667 5.31866667,7.94586667 C5.11973333,9.11146667 4.9376,10.2802667 4.75946667,11.4501333 C4.7376,11.5938667 4.73333333,11.7312 4.72906667,11.8634667 C4.728,11.8874667 4.7272,11.9114667 4.7272,11.9354667 C4.71573333,12.2562667 4.8688,12.5781333 5.01653333,12.772 C5.29466667,13.1386667 5.68746667,13.3834667 6.14986667,13.4792 C6.80426667,13.6146667 7.47093333,13.7290667 8.1168,13.8405333 L8.3344,13.8781333 C9.1168,14.0125333 9.828,14.1301333 10.5104,14.2354667 C10.7824,14.2770667 11.0584,14.3136 11.3250667,14.348 C11.4906667,14.3698667 11.6605333,14.3917333 11.8290667,14.4146667 C12.2165333,15.0906667 12.6082667,15.7792 12.9864,16.4448 C12.9864,16.4448 14.1874667,18.5573333 14.1885333,18.5584 C14.6458667,19.3624 15.1906667,20.2541333 16.2613333,19.5957333 C17.0458667,19.1125333 17.6469333,18.7416 18.2082667,18.3906667 C18.3322667,18.3125333 18.4394667,18.224 18.5250667,18.1261333 C18.8853333,17.7104 18.9229333,17.2176 18.6186667,16.8093333 L18.6186667,16.8093333 Z" id="Fill-1"></path>
            <path d="M6.89573333,19.8989333 C4.03013333,19.8989333 1.69893333,17.5677333 1.69893333,14.7021333 C1.69893333,13.3490667 2.21573333,12.0677333 3.1552,11.0938667 C3.38533333,10.8552 3.7656,10.848 4.00426667,11.0781333 C4.24266667,11.3082667 4.25013333,11.6885333 4.01973333,11.9272 C3.29786667,12.6749333 2.9,13.6605333 2.9,14.7010667 C2.9,16.9042667 4.6928,18.6968 6.89573333,18.6968 C8.72186667,18.6968 10.3136,17.4634667 10.7666667,15.6978667 C10.8490667,15.3770667 11.176,15.1834667 11.4978667,15.2656 C11.8186667,15.348 12.0125333,15.6749333 11.9301333,15.9968 C11.3405333,18.2946667 9.27093333,19.8989333 6.89573333,19.8989333 L6.89573333,19.8989333 Z" id="Fill-2"></path>
            <path d="M11.6562667,2.20613333 C11.6562667,3.3688 10.7136,4.31146667 9.55093333,4.31146667 C8.38853333,4.31146667 7.44586667,3.3688 7.44586667,2.20613333 C7.44586667,1.04266667 8.38853333,0.101066667 9.55093333,0.101066667 C10.7136,0.101066667 11.6562667,1.04266667 11.6562667,2.20613333" id="Fill-3"></path>
        </g>
    </g>
</svg>