<?xml version="1.0" encoding="UTF-8" standalone="no"?>
<svg width="19px" height="30px" viewBox="0 0 19 30" version="1.1" xmlns="http://www.w3.org/2000/svg" xmlns:xlink="http://www.w3.org/1999/xlink">
    <!-- Generator: Sketch 39.1 (31720) - http://www.bohemiancoding.com/sketch -->
    <title>g-arrow</title>
    <desc>Created with Sketch.</desc>
    <defs>
        <linearGradient x1="50%" y1="18.4195964%" x2="50%" y2="100%" id="linearGradient-1">
            <stop stop-color="#EFEFEF" offset="0%"></stop>
            <stop stop-color="#2A2A2A" offset="100%"></stop>
        </linearGradient>
    </defs>
    <g id="-" stroke="none" stroke-width="1" fill="none" fill-rule="evenodd">
        <g id="7---Published-Schedule" transform="translate(-171.000000, -1144.000000)" fill="url(#linearGradient-1)">
            <path d="M180.015387,1173.93207 C180.045098,1173.94416 180.076449,1173.95134 180.107594,1173.95994 C180.131568,1173.96793 180.155541,1173.97756 180.181359,1173.98248 C180.295695,1174.00584 180.414129,1174.00584 180.528465,1173.98248 C180.553463,1173.97674 180.576618,1173.96793 180.601411,1173.96076 C180.632556,1173.95216 180.663906,1173.94498 180.694437,1173.93207 C180.723943,1173.92019 180.749556,1173.904 180.775784,1173.88884 C180.799962,1173.87614 180.824755,1173.86569 180.84709,1173.85114 C180.895857,1173.81835 180.940731,1173.78168 180.982326,1173.74008 L189.449956,1165.27245 C189.796447,1164.92596 189.796447,1164.36411 189.449956,1164.01762 C189.104079,1163.67175 188.542234,1163.67175 188.195743,1164.01824 L181.241734,1170.97225 L181.241939,1144.88703 C181.241734,1144.39711 180.844836,1144.00021 180.354912,1144 C180.109233,1143.99939 179.888347,1144.09856 179.727498,1144.25941 C179.567264,1144.41964 179.467271,1144.64135 179.467886,1144.88703 L179.468091,1170.97225 L172.514082,1164.01824 C172.16759,1163.67175 171.605745,1163.67175 171.259869,1164.01762 C170.913377,1164.36411 170.913377,1164.92596 171.259869,1165.27245 L179.727498,1173.74008 C179.769094,1173.78168 179.813967,1173.81835 179.862734,1173.85114 C179.885069,1173.86569 179.909862,1173.87614 179.932402,1173.88884 C179.960268,1173.904 179.985881,1173.92019 180.015387,1173.93207 Z" id="g-arrow"></path>
        </g>
    </g>
</svg>