<?xml version="1.0" encoding="UTF-8"?>
<svg width="17px" height="20px" viewBox="0 0 17 20" version="1.1" xmlns="http://www.w3.org/2000/svg" xmlns:xlink="http://www.w3.org/1999/xlink">
    <!-- Generator: Sketch 40.3 (33839) - http://www.bohemiancoding.com/sketch -->
    <title>i-alert</title>
    <desc>Created with Sketch.</desc>
    <defs></defs>
    <g id="APP" stroke="none" stroke-width="1" fill="none" fill-rule="evenodd">
        <g id="Dashboard-" transform="translate(-333.000000, -15.000000)" fill="#FFFFFF">
            <path d="M336.269231,20.6818182 C336.269231,25.8272727 335.084171,26.8015152 333.102291,29.2542424 C333.037487,29.3348485 333,29.44 333,29.5454545 L333,31.3636364 C333,31.6015152 333.207778,31.8181818 333.435897,31.8181818 L338.448718,31.8181818 C338.448718,33.5736364 339.816564,35 341.5,35 C343.183436,35 344.551282,33.5736364 344.551282,31.8181818 L349.564103,31.8181818 C349.792222,31.8181818 350,31.6015152 350,31.3636364 L350,29.5454545 C350,29.44 349.962513,29.3348485 349.897709,29.2542424 C347.915829,26.8015152 346.730769,25.8272727 346.730769,20.6818182 C346.730769,17.5924242 344.39465,15 341.5,15 C338.60535,15 336.269231,17.5924242 336.269231,20.6818182 Z M345.858974,20.6818182 C345.858974,25.8854545 347.234667,27.3745455 349.128205,29.7087879 L349.128205,30.9090909 L333.871795,30.9090909 L333.871795,29.7087879 C335.765333,27.3745455 337.141026,25.8854545 337.141026,20.6818182 C337.141026,18.0693939 339.106051,15.9090909 341.5,15.9090909 C343.893949,15.9090909 345.858974,18.0693939 345.858974,20.6818182 Z M343.679487,31.8181818 C343.679487,33.0848485 342.714701,34.0909091 341.5,34.0909091 C340.285299,34.0909091 339.320513,33.0848485 339.320513,31.8181818 L343.679487,31.8181818 Z" id="i-alert"></path>
        </g>
    </g>
</svg>