<?xml version="1.0" encoding="UTF-8"?>
<svg width="24px" height="15px" viewBox="0 0 24 15" version="1.1" xmlns="http://www.w3.org/2000/svg" xmlns:xlink="http://www.w3.org/1999/xlink">
    <!-- Generator: Sketch 40.1 (33804) - http://www.bohemiancoding.com/sketch -->
    <title>i-arrow</title>
    <desc>Created with Sketch.</desc>
    <defs></defs>
    <g id="APP" stroke="none" stroke-width="1" fill="none" fill-rule="evenodd">
        <g id="5---Stop-Details" transform="translate(-167.000000, -443.000000)" fill="#9B9B9B">
            <path d="M178.738078,462.419892 C178.761846,462.429563 178.786926,462.435301 178.811843,462.442186 C178.831022,462.448578 178.850201,462.456283 178.870855,462.460217 C178.962324,462.478904 179.057071,462.478904 179.14854,462.460217 C179.168538,462.455627 179.187062,462.448578 179.206896,462.442841 C179.231813,462.435956 179.256893,462.430219 179.281317,462.419892 C179.304922,462.410385 179.325412,462.397435 179.346394,462.385304 C179.365737,462.375141 179.385572,462.366781 179.40344,462.355143 C179.442453,462.328915 179.478352,462.299573 179.511629,462.266296 L186.285732,455.492193 C186.562925,455.215 186.562925,454.765524 186.285732,454.48833 C186.009031,454.211629 185.559555,454.211629 185.282362,454.488822 L179.719155,460.052029 L179.719319,439.183856 C179.719155,438.791917 179.401636,438.474399 179.009697,438.474235 C178.813154,438.473743 178.636445,438.553081 178.507766,438.681761 C178.379579,438.809948 178.299584,438.987313 178.300076,439.183856 L178.30024,460.052029 L172.737033,454.488822 C172.45984,454.211629 172.010364,454.211629 171.733663,454.48833 C171.456469,454.765524 171.456469,455.215 171.733663,455.492193 L178.507766,462.266296 C178.541042,462.299573 178.576942,462.328915 178.615955,462.355143 C178.633823,462.366781 178.653657,462.375141 178.671689,462.385304 C178.693982,462.397435 178.714473,462.410385 178.738078,462.419892 Z" id="i-arrow" transform="translate(179.009697, 450.474232) scale(-1, 1) rotate(90.000000) translate(-179.009697, -450.474232) "></path>
        </g>
    </g>
</svg>