<?xml version="1.0" encoding="UTF-8"?>
<svg width="16px" height="16px" viewBox="0 0 16 16" version="1.1" xmlns="http://www.w3.org/2000/svg" xmlns:xlink="http://www.w3.org/1999/xlink">
    <!-- Generator: Sketch 44.1 (41455) - http://www.bohemiancoding.com/sketch -->
    <title>i-clock-grey</title>
    <desc>Created with Sketch.</desc>
    <defs></defs>
    <g id="Symbols" stroke="none" stroke-width="1" fill="none" fill-rule="evenodd">
        <g id="list-stop" transform="translate(-272.000000, -37.000000)" fill="#4A4A4A">
            <g id="Time-Until" transform="translate(272.000000, 37.000000)">
                <g id="i-clock">
                    <path d="M8.41619441,8.04087556 L11.442177,5.7028083 C11.6044836,5.57739981 11.6203209,5.59584438 11.4808357,5.741467 L8.70944022,8.63480538 C8.69289169,8.6680503 8.67049826,8.69940684 8.64225771,8.72764739 C8.50058041,8.86932469 8.26563726,8.8832983 8.12703096,8.74932485 C8.12703096,8.74932485 3.44720053,4.23861243 3.57595633,4.10985663 C3.69516677,3.99064619 7.50241568,7.2543522 8.41619441,8.04087556 Z M8,0 C12.4186074,0 16,3.58139259 16,8 C16,12.4186074 12.4186074,16 8,16 C3.58139259,16 0,12.4186074 0,8 C0,3.58139259 3.58139259,0 8,0 Z M8,0.533333333 C3.87596642,0.533333333 0.533333333,3.87596642 0.533333333,8 C0.533333333,12.1240336 3.87596642,15.4666667 8,15.4666667 C12.1240336,15.4666667 15.4666667,12.1240336 15.4666667,8 C15.4666667,3.87596642 12.1240336,0.533333333 8,0.533333333 Z" id="Combined-Shape"></path>
                </g>
            </g>
        </g>
    </g>
</svg>