<?xml version="1.0" encoding="UTF-8" standalone="no"?>
<svg width="15px" height="16px" viewBox="0 0 15 16" version="1.1" xmlns="http://www.w3.org/2000/svg" xmlns:xlink="http://www.w3.org/1999/xlink">
    <!-- Generator: Sketch 39.1 (31720) - http://www.bohemiancoding.com/sketch -->
    <title>i-export</title>
    <desc>Created with Sketch.</desc>
    <defs></defs>
    <g id="Page-2" stroke="none" stroke-width="1" fill="none" fill-rule="evenodd">
        <g id="4b---Bus-Stops-Map---Pop-Over" transform="translate(-41.000000, -407.000000)" fill="#FFFFFF">
            <g id="Group-6" transform="translate(22.000000, 331.000000)">
                <g id="i-export" transform="translate(19.000000, 76.000000)">
                    <path d="M8.81234531,0 L10.9342984,2.12195305 C8.90936773,4.14666367 4.61244031,8.44447111 4.40277507,8.65325633 C3.86574164,9.19050976 3.86574164,10.0610715 4.40277507,10.5972249 C4.9400285,11.1342584 5.81059026,11.1342584 6.34674367,10.5972249 C6.55552889,10.3875597 10.8526763,6.09063227 12.878267,4.06592165 L15,6.18765469 L15,0 L8.81234531,0 Z" id="Fill-1"></path>
                    <path d="M13.3,9 C12.913152,9 12.6,9.313152 12.6,9.7 L12.6,14.6 L1.4,14.6 L1.4,3.4 L6.3,3.4 C6.686848,3.4 7,3.086848 7,2.7 C7,2.313152 6.686848,2 6.3,2 L1.4,2 C0.627424,2 0,2.626528 0,3.4 L0,14.6 C0,15.373472 0.627424,16 1.4,16 L12.6,16 C13.372576,16 14,15.373472 14,14.6 L14,9.7 C14,9.313152 13.686848,9 13.3,9 L13.3,9 Z" id="Fill-2"></path>
                </g>
            </g>
        </g>
    </g>
</svg>