<?xml version="1.0" encoding="UTF-8"?>
<svg width="26px" height="26px" viewBox="0 0 26 26" version="1.1" xmlns="http://www.w3.org/2000/svg" xmlns:xlink="http://www.w3.org/1999/xlink">
    <!-- Generator: Sketch 42 (36781) - http://www.bohemiancoding.com/sketch -->
    <title>i-go-w</title>
    <desc>Created with Sketch.</desc>
    <defs></defs>
    <g id="ONEMV-ASSET-SHEET" stroke="none" stroke-width="1" fill="none" fill-rule="evenodd">
        <g id="icons-white" transform="translate(-113.000000, -19.000000)" fill="#FFFFFF">
            <g id="i-go-w" transform="translate(113.000000, 19.000000)">
                <path d="M13,26 C20.1797017,26 26,20.1797017 26,13 C26,5.82029825 20.1797017,0 13,0 C5.82029825,0 0,5.82029825 0,13 C0,20.1797017 5.82029825,26 13,26 Z M3.42105263,13 C3.42105263,12.8110605 3.57484366,12.6578947 3.76053593,12.6578947 L20.871043,12.6578947 C21.0585345,12.6578947 21.2105263,12.8165861 21.2105263,13 L21.2105263,13 C21.2105263,13.1889395 21.0567353,13.3421053 20.871043,13.3421053 L3.76053593,13.3421053 C3.57304448,13.3421053 3.42105263,13.1834139 3.42105263,13 L3.42105263,13 Z M21.8611918,12.7562624 L15.5699865,6.4650572 C15.4464838,6.34155447 15.2206153,6.33229503 15.0870149,6.46589544 C14.9573217,6.59558862 14.9530392,6.81572963 15.0861766,6.9488671 L21.1383386,13.001029 L15.0861766,19.0531909 C14.9530392,19.1863284 14.9573217,19.4064694 15.0870149,19.5361626 C15.2206153,19.669763 15.4464838,19.6605036 15.5699865,19.5370008 L21.8611918,13.2457956 C21.9282627,13.1787246 21.9604584,13.0895734 21.959314,13.001029 C21.9604584,12.9124847 21.9282627,12.8233334 21.8611918,12.7562624 Z"></path>
            </g>
        </g>
    </g>
</svg>