<?xml version="1.0" encoding="UTF-8"?>
<svg width="15px" height="15px" viewBox="0 0 15 15" version="1.1" xmlns="http://www.w3.org/2000/svg" xmlns:xlink="http://www.w3.org/1999/xlink">
    <!-- Generator: Sketch 40.1 (33804) - http://www.bohemiancoding.com/sketch -->
    <title>i-map-white</title>
    <desc>Created with Sketch.</desc>
    <defs></defs>
    <g id="APP" stroke="none" stroke-width="1" fill="none" fill-rule="evenodd">
        <g id="4b---Bus-Stops-Map---Popover" transform="translate(-202.000000, -117.000000)" fill="#FFFFFF">
            <g id="icon-map" transform="translate(186.000000, 107.000000)">
                <g id="Group-4" transform="translate(16.000000, 10.000000)">
                    <g id="Group">
                        <path d="M10.5,8.2685 C11.9815,8.456 13.125,9.712 13.125,11.25 C13.125,11.73725 13.01275,12.1875 12.80675,12.581 L15,13.5 L15,1.875 L10.5,0 L10.5,8.2685 Z M7.125,11.25 C7.125,9.713 8.2685,8.456 9.75,8.2685 L9.75,0 L5.25,1.875 L5.25,13.5 L7.44325,12.581 C7.23725,12.1875 7.125,11.73725 7.125,11.25 Z M4.5,1.875 L0,0 L0,11.625 L4.5,13.5 L4.5,1.875 Z M10.125,9 C8.88775,9 7.875,10.01275 7.875,11.25 C7.875,11.71875 8.0255,12.1505 8.2685,12.5255 L10.125,15 L11.9815,12.5255 C12.2255,12.169 12.375,11.71875 12.375,11.25 C12.375,10.01275 11.36225,9 10.125,9 Z" id="i-map-white"></path>
                    </g>
                </g>
            </g>
        </g>
    </g>
</svg>