<?xml version="1.0" encoding="UTF-8"?>
<svg width="25px" height="17px" viewBox="0 0 25 17" version="1.1" xmlns="http://www.w3.org/2000/svg" xmlns:xlink="http://www.w3.org/1999/xlink">
    <!-- Generator: Sketch 42 (36781) - http://www.bohemiancoding.com/sketch -->
    <title>i-phone-w</title>
    <desc>Created with Sketch.</desc>
    <defs></defs>
    <g id="ONEMV-ASSET-SHEET" stroke="none" stroke-width="1" fill="none" fill-rule="evenodd">
        <g id="icons-white" transform="translate(-119.000000, -142.000000)" fill="#FFFFFF">
            <path d="M143.777274,146.695649 C143.961556,147.467538 144.173457,149.136076 143.768227,149.926536 C143.663943,150.036534 143.553945,150.160817 143.440614,150.277958 C142.674439,150.757948 141.080186,150.70033 140.07973,150.458431 C139.441647,150.298434 138.744042,149.91368 138.431668,149.392738 C137.933106,148.56704 138.379288,146.794219 137.895964,145.804715 C137.555495,145.116157 136.545515,144.725689 135.63601,144.493313 C133.117489,143.844278 128.202826,143.808565 126.210962,144.915685 C125.790494,145.151871 125.318122,145.603766 125.13384,145.987092 C124.730039,146.833265 125.055747,148.278474 124.704325,149.104648 C124.335761,149.991773 123.340543,150.495573 121.982952,150.594142 C121.032495,150.670807 119.771091,150.67795 119.330148,150.09939 C118.75016,149.347977 119.064439,147.527061 119.293006,146.656602 C119.590619,145.536625 120.039181,144.608548 120.440602,143.814279 C126.188581,141.375756 136.796463,141.414803 142.551585,143.814279 C143.048241,144.731403 143.489185,145.527577 143.777274,146.695649 Z M141.158279,158.172085 L121.876763,158.172085 C121.927238,156.820207 121.748671,155.648326 122.094378,154.656917 C122.302945,154.057882 122.665319,153.527892 123.071025,153.033141 C123.104358,152.995522 123.143404,152.954571 123.175309,152.915524 C123.567682,152.445057 123.988149,152.009828 124.350523,151.572694 C125.185744,150.558905 125.972871,149.591781 126.749998,148.622753 L126.749998,146.494701 C126.749998,146.437083 126.774284,146.401846 126.826664,146.386608 L129.151379,146.386608 C129.187092,146.991358 129.07138,147.744676 129.22233,148.235618 C129.850888,148.421805 130.673253,148.339902 131.484189,148.339902 C132.276554,148.339902 133.115584,148.395615 133.775571,148.267522 C133.956044,147.787532 133.758905,146.931835 133.885569,146.388513 L136.249807,146.388513 C136.372185,147.095641 136.08981,147.832293 136.249807,148.555612 C136.294092,148.764179 136.61599,149.087506 136.822653,149.33512 C137.89406,150.629856 138.807374,151.706501 139.865448,153.027426 C140.263536,153.516464 140.784477,154.059786 140.981616,154.585966 C141.348276,155.583089 141.057805,156.712114 141.158279,158.172085 Z" id="i-phone-w"></path>
        </g>
    </g>
</svg>