<?xml version="1.0" encoding="UTF-8"?>
<svg width="10px" height="21px" viewBox="0 0 10 21" version="1.1" xmlns="http://www.w3.org/2000/svg" xmlns:xlink="http://www.w3.org/1999/xlink">
    <!-- Generator: Sketch 44 (41411) - http://www.bohemiancoding.com/sketch -->
    <title>i-pin</title>
    <desc>Created with Sketch.</desc>
    <defs>
        <path d="M7.5,9 L7.5,1.5 L1.5,1.5 L1.5,9 L0,9 L0,10.5 L9,10.5 L9,9 L7.5,9 Z M0,0 L9,0 L9,1.5 L0,1.5 L0,0 Z" id="path-1"></path>
        <polygon id="path-2" points="3.375 10.5 5.625 10.5 4.5 21"></polygon>
    </defs>
    <g id="Symbols" stroke="none" stroke-width="1" fill="none" fill-rule="evenodd">
        <g id="Artboard" transform="translate(-30.000000, -18.000000)">
            <g id="i-pin" transform="translate(30.106602, 18.106602)">
                <g id="Combined-Shape">
                    <use fill="#989898" fill-rule="evenodd" xlink:href="#path-1"></use>
                    <path stroke="#979797" stroke-width="1" d="M8.5,9.5 L9,9.5 L8.5,9 L8.5,9.5 Z M8.5,10 L8.5,10.5 L9,10 L8.5,10 Z M0.5,10 L0,10 L0.5,10.5 L0.5,10 Z M0.5,9.5 L0.5,9 L0,9.5 L0.5,9.5 Z M2,2 L2,1.5 L1.5,2 L2,2 Z M7,2 L7.5,2 L7,1.5 L7,2 Z M8.5,9.5 L8.5,10 L0.5,10 L0.5,9.5 L2,9.5 L2,2 L7,2 L7,9.5 L8.5,9.5 Z M0.5,0.5 L0.5,1 L8.5,1 L8.5,0.5 L0.5,0.5 Z"></path>
                </g>
                <g id="Rectangle-12">
                    <use fill="#D8D8D8" fill-rule="evenodd" xlink:href="#path-2"></use>
                    <path stroke="#979797" stroke-width="1" d="M3.93143314,11 L4.5,16.3066241 L5.06856686,11 L3.93143314,11 Z"></path>
                </g>
                <rect id="Rectangle-13" fill="#FFFFFF" x="1.875" y="1.5" width="5.25" height="7.5"></rect>
                <rect id="Rectangle-8" fill="#FFFFFF" x="0.375" y="9.375" width="8.25" height="1"></rect>
                <rect id="Rectangle-8" fill="#FFFFFF" x="0.375" y="0.375" width="8.25" height="1"></rect>
            </g>
        </g>
    </g>
</svg>