<?xml version="1.0" encoding="UTF-8"?>
<svg width="20px" height="21px" viewBox="0 0 20 21" version="1.1" xmlns="http://www.w3.org/2000/svg" xmlns:xlink="http://www.w3.org/1999/xlink">
    <!-- Generator: Sketch 44.1 (41455) - http://www.bohemiancoding.com/sketch -->
    <title>i-search</title>
    <desc>Created with Sketch.</desc>
    <defs></defs>
    <g id="Page-1" stroke="none" stroke-width="1" fill="none" fill-rule="evenodd">
        <g id="3a1---Route-Page---Collapsed" transform="translate(-20.000000, -584.000000)" fill="#9B9B9B">
            <g id="Search-Input" transform="translate(10.000000, 576.000000)">
                <g id="i-search" transform="translate(9.466667, 8.000000)">
                    <path d="M7.15031014,12.2767651 C5.06585659,9.29866222 5.30074501,5.078291 7.85497541,2.38016029 C10.6678823,-0.591220189 15.2285054,-0.591220189 18.0414122,2.38016029 C20.8543191,5.35154077 20.8543191,10.1691004 18.0414122,13.1404809 C15.4871818,15.8386116 11.4918971,16.0867332 8.67262638,13.8848456 L3.08599688,20.4074115 C2.70600222,20.8510673 2.07587487,20.8704951 1.67111227,20.442929 L0.941991219,19.6727307 C0.540566682,19.2486907 0.563267542,18.5722283 0.97561438,18.1781343 L7.15031014,12.2767651 Z M8.58257804,12.3718865 C10.9936411,14.9187841 14.9027466,14.9187841 17.3138096,12.3718865 C19.7248726,9.82498899 19.7248726,5.69565217 17.3138096,3.14875462 C14.9027466,0.601857064 10.9936411,0.601857064 8.58257804,3.14875462 C6.17151502,5.69565217 6.17151502,9.82498899 8.58257804,12.3718865 Z" id="Combined-Shape"></path>
                </g>
            </g>
        </g>
    </g>
</svg>