<?xml version="1.0" encoding="UTF-8" standalone="no"?>
<svg width="14px" height="15px" viewBox="0 0 14 15" version="1.1" xmlns="http://www.w3.org/2000/svg" xmlns:xlink="http://www.w3.org/1999/xlink">
    <!-- Generator: Sketch 39.1 (31720) - http://www.bohemiancoding.com/sketch -->
    <title>i-vehicle</title>
    <desc>Created with Sketch.</desc>
    <defs></defs>
    <g id="Symbols" stroke="none" stroke-width="1" fill="none" fill-rule="evenodd">
        <g id="bus-schedual" transform="translate(-10.000000, -10.000000)" fill="#D1D1D1">
            <path d="M11.4933809,25 L12.9865219,25 L12.9865219,23.506859 L20.4867617,23.506859 L20.4867617,25 L21.9799028,25 L21.9799028,23.506859 L23.4732837,23.506859 L23.4732837,12.2483452 C23.4732837,11.0070188 22.466025,10 21.2249384,10 L12.2483452,10 C11.0070188,10 10,11.0070188 10,12.2483452 L10,23.4900713 L11.4933809,23.4900713 L11.4933809,25 Z M21.2417261,21.9966904 C20.8275509,21.9966904 20.4867617,21.6547021 20.4867617,21.2417261 C20.4867617,20.8275509 20.8285102,20.4865219 21.2417261,20.4865219 C21.6559013,20.4865219 21.9966904,20.8285102 21.9966904,21.2417261 C21.9966904,21.6547021 21.6559013,21.9966904 21.2417261,21.9966904 L21.2417261,21.9966904 Z M13.7417261,11.5099287 L19.7315576,11.5099287 L19.7315576,13.0033096 L13.7417261,13.0033096 L13.7417261,11.5099287 Z M11.4933809,14.4966904 L21.9799028,14.4966904 L21.9799028,18.9933809 L11.4933809,18.9933809 L11.4933809,14.4966904 Z M13.0033096,21.2585137 C13.0033096,21.6724491 12.6615611,22.0134781 12.2483452,22.0134781 C11.8341701,22.0134781 11.4933809,21.6717296 11.4933809,21.2585137 C11.4933809,20.8275509 11.8341701,20.5033096 12.2483452,20.5033096 C12.6625204,20.5033096 13.0033096,20.8452979 13.0033096,21.2585137 Z" id="i-vehicle"></path>
        </g>
    </g>
</svg>