<?xml version="1.0" encoding="UTF-8" standalone="no"?>
<svg width="16px" height="15px" viewBox="0 0 16 15" version="1.1" xmlns="http://www.w3.org/2000/svg" xmlns:xlink="http://www.w3.org/1999/xlink">
    <!-- Generator: Sketch 39.1 (31720) - http://www.bohemiancoding.com/sketch -->
    <title>icon-map</title>
    <desc>Created with Sketch.</desc>
    <defs></defs>
    <g id="Symbols" stroke="none" stroke-width="1" fill="none" fill-rule="evenodd">
        <g id="list-item" transform="translate(-325.000000, -18.000000)" fill="#FFFFFF">
            <g id="icon-map">
                <g transform="translate(325.000000, 18.000000)">
                    <path d="M10.5955679,8.2685 C12.072964,8.456 13.2132964,9.712 13.2132964,11.25 C13.2132964,11.73725 13.1013573,12.1875 12.895928,12.581 L15.0831025,13.5 L15.0831025,1.875 L10.5955679,0 L10.5955679,8.2685 Z" id="Fill-1"></path>
                    <path d="M7.2299169,11.25 C7.2299169,9.713 8.37024931,8.456 9.84764543,8.2685 L9.84764543,0 L5.3601108,1.875 L5.3601108,13.5 L7.54728532,12.581 C7.34185596,12.1875 7.2299169,11.73725 7.2299169,11.25 L7.2299169,11.25 Z" id="Fill-2"></path>
                    <polygon id="Fill-3" points="4.61218837 1.875 0.12465374 0 0.12465374 11.625 4.61218837 13.5"></polygon>
                    <path d="M10.2216066,9 C8.98778393,9 7.97783934,10.01275 7.97783934,11.25 C7.97783934,11.71875 8.12792244,12.1505 8.37024931,12.5255 L10.2216066,15 L12.072964,12.5255 C12.3162881,12.169 12.465374,11.71875 12.465374,11.25 C12.465374,10.01275 11.4554294,9 10.2216066,9 L10.2216066,9 Z M10.2216066,12.375 C9.60407202,12.375 9.09972299,11.86925 9.09972299,11.25 C9.09972299,10.63075 9.60407202,10.125 10.2216066,10.125 C10.8391413,10.125 11.3434903,10.63075 11.3434903,11.25 C11.3434903,11.86925 10.8391413,12.375 10.2216066,12.375 L10.2216066,12.375 Z" id="Fill-4"></path>
                </g>
            </g>
        </g>
    </g>
</svg>