<?xml version="1.0" encoding="UTF-8" standalone="no"?>
<svg width="65px" height="50px" viewBox="0 0 65 50" version="1.1" xmlns="http://www.w3.org/2000/svg" xmlns:xlink="http://www.w3.org/1999/xlink">
    <!-- Generator: Sketch 39.1 (31720) - http://www.bohemiancoding.com/sketch -->
    <title>icon-schedules-large</title>
    <desc>Created with Sketch.</desc>
    <defs></defs>
    <g id="Page-2" stroke="none" stroke-width="1" fill="none" fill-rule="evenodd">
        <g id="1---Dashboard-" transform="translate(-148.000000, -268.000000)" fill="#FFFFFF">
            <g id="Group-2-Copy" transform="translate(122.000000, 268.000000)">
                <path d="M37.156,0.00515103053 C36.789,0.0511510305 36.484,0.407151031 36.5,0.778151031 L36.5,7.52815103 L26.75,7.52815103 C26.355,7.52815103 26,7.88315103 26,8.27815103 L26,48.778151 C26,49.173151 26.355,49.528151 26.75,49.528151 L89.75,49.528151 C90.145,49.528151 90.5,49.173151 90.5,48.778151 L90.5,8.27815103 C90.508,7.92615103 90.234,7.59415103 89.891,7.52815103 C89.844,7.52415103 89.797,7.52415103 89.75,7.52815103 L80,7.52815103 L80,0.778151031 C80.016,0.344151031 79.586,-0.0498489695 79.156,0.00515103053 C78.789,0.0511510305 78.484,0.407151031 78.5,0.778151031 L78.5,7.52815103 L66.5,7.52815103 L66.5,0.778151031 C66.516,0.344151031 66.086,-0.0498489695 65.656,0.00515103053 C65.289,0.0511510305 64.984,0.407151031 65,0.778151031 L65,7.52815103 L51.5,7.52815103 L51.5,0.778151031 C51.516,0.344151031 51.086,-0.0498489695 50.656,0.00515103053 C50.289,0.0511510305 49.984,0.407151031 50,0.778151031 L50,7.52815103 L38,7.52815103 L38,0.778151031 C38.016,0.344151031 37.586,-0.0498489695 37.156,0.00515103053 L37.156,0.00515103053 Z M27.5,9.02815103 L89,9.02815103 L89,18.028151 L27.5,18.028151 L27.5,9.02815103 Z M27.5,19.528151 L89,19.528151 L89,48.028151 L27.5,48.028151 L27.5,19.528151 Z" id="icon-schedules-large"></path>
            </g>
        </g>
    </g>
</svg>