<?xml version="1.0" encoding="UTF-8"?>
<svg width="622px" height="288px" viewBox="0 0 622 288" version="1.1" xmlns="http://www.w3.org/2000/svg" xmlns:xlink="http://www.w3.org/1999/xlink">
    <!-- Generator: Sketch 48.2 (47327) - http://www.bohemiancoding.com/sketch -->
    <title>logo-blue</title>
    <desc>Created with Sketch.</desc>
    <defs></defs>
    <g id="Page-1" stroke="none" stroke-width="1" fill="none" fill-rule="evenodd">
        <path d="M227.0695,0 C135.102622,0.280495826 30.4441243,17.9371616 6.77301689,69.5629648 C-37.0538673,165.182899 146.154967,220.622717 146.154967,220.622717 L160.751786,108.686668 L178.736436,220.622717 L236.070933,220.622717 L294.51285,110.868707 L273.154939,219.537162 L324.853978,210.830863 L348.463158,92.3778396 L374.31632,235.827776 L429.399548,234.75315 L504.704124,99.9840121 C504.704124,99.9840121 594.787659,151.471389 560.891129,193.454693 C502.412784,265.884543 317.000037,242.352036 317.000037,242.352036 L324.853978,217.355123 L242.810168,232.585682 L309.12424,288 L313.626777,263.006729 C313.626777,263.006729 609.235122,298.873767 621.5916,191.276296 C629.092187,125.902555 513.680056,73.9088287 513.680056,73.9088287 L466.483554,74.9870984 L411.403969,171.707159 L386.68737,53.2504933 L282.152728,52.1685808 L214.713022,166.286668 L189.978208,51.0866684 L127.033754,52.1685808 L112.42965,153.238148 C112.42965,153.238148 62.8470945,123.068454 66.1620696,86.0466481 C70.6573214,36.0528206 185.544885,20.3086264 242.810168,22.8330888 C317.000037,26.0970402 346.222817,30.4429041 409.1527,47.8409309 C412.402105,48.7152036 395.666945,68.4737668 395.666945,68.4737668 L484.47549,68.4846952 L427.148279,3.27852264 L419.28341,28.2572224 C419.28341,28.2572224 336.124893,0.342423476 230.683188,0 L227.0695,0 Z" id="logo-blue" fill="#0C4281"></path>
    </g>
</svg>