<?xml version="1.0" encoding="UTF-8"?>
<svg width="48px" height="22px" viewBox="0 0 48 22" version="1.1" xmlns="http://www.w3.org/2000/svg" xmlns:xlink="http://www.w3.org/1999/xlink">
    <!-- Generator: Sketch 43.2 (39069) - http://www.bohemiancoding.com/sketch -->
    <title>logo_mv_small</title>
    <desc>Created with Sketch.</desc>
    <defs></defs>
    <g id="Symbols" stroke="none" stroke-width="1" fill="none" fill-rule="evenodd">
        <g id="Status-Bar---Android" transform="translate(-156.000000, -28.000000)" fill="#FFFFFF">
            <path d="M173.345587,28 C166.320339,28.0214268 158.325593,29.3701998 156.517383,33.3138376 C153.169496,40.6181381 167.164616,44.8531242 167.164616,44.8531242 L168.27965,36.3024538 L169.653478,44.8531242 L174.033196,44.8531242 L178.497509,36.4691374 L176.866002,44.7701998 L180.815234,44.1051353 L182.618713,35.0566405 L184.593608,46.0146218 L188.801354,45.9325323 L194.553787,35.6376676 C194.553787,35.6376676 201.435168,39.5707311 198.84585,42.777789 C194.378754,48.3106248 180.215281,46.5130028 180.215281,46.5130028 L180.815234,44.6035163 L174.547999,45.7669618 L179.613657,50 L179.957601,48.0907918 C179.957601,48.0907918 202.538794,50.830635 203.482692,42.6113838 C204.055653,37.6175563 195.239449,33.6458133 195.239449,33.6458133 L191.63416,33.7281811 L187.426692,41.1165191 L185.538619,32.067746 L177.553333,31.9850999 L172.401689,40.7024538 L170.512224,31.9024538 L165.703967,31.9850999 L164.588376,39.7056919 C164.588376,39.7056919 160.80082,37.4010625 161.054047,34.5730078 C161.397434,30.7540349 170.173568,29.5513534 174.547999,29.7441943 C180.215281,29.9935239 182.447576,30.3254996 187.25472,31.6545156 C187.502939,31.7213003 186.224558,33.230635 186.224558,33.230635 L193.008544,33.2314698 L188.629382,28.2504427 L188.028594,30.1585378 C188.028594,30.1585378 181.676207,28.0261573 173.621632,28 L173.345587,28 Z" id="logo_mv_small"></path>
        </g>
    </g>
</svg>