<?xml version="1.0" encoding="UTF-8" standalone="no"?>
<svg width="42px" height="42px" viewBox="0 0 42 42" version="1.1" xmlns="http://www.w3.org/2000/svg" xmlns:xlink="http://www.w3.org/1999/xlink">
    <!-- Generator: Sketch 39.1 (31720) - http://www.bohemiancoding.com/sketch -->
    <title>pin-my-location</title>
    <desc>Created with Sketch.</desc>
    <defs></defs>
    <g id="Symbols" stroke="none" stroke-width="1" fill="none" fill-rule="evenodd">
        <g id="Pointer">
            <g id="pin-my-location">
                <circle id="Oval-31" fill-opacity="0.300000012" fill="#94C5FF" cx="21" cy="21" r="21"></circle>
                <circle id="Oval-27" fill="#4990E2" cx="21" cy="21" r="6"></circle>
                <path d="M21,30 C25.9705627,30 30,25.9705627 30,21 C30,16.0294373 25.9705627,12 21,12 C16.0294373,12 12,16.0294373 12,21 C12,25.9705627 16.0294373,30 21,30 Z M21,28.9411765 C25.3857907,28.9411765 28.9411765,25.3857907 28.9411765,21 C28.9411765,16.6142093 25.3857907,13.0588235 21,13.0588235 C16.6142093,13.0588235 13.0588235,16.6142093 13.0588235,21 C13.0588235,25.3857907 16.6142093,28.9411765 21,28.9411765 Z" id="Combined-Shape" fill="#4990E2"></path>
            </g>
        </g>
    </g>
</svg>