<?xml version="1.0" encoding="UTF-8" standalone="no"?>
<svg width="27px" height="46px" viewBox="0 0 27 46" version="1.1" xmlns="http://www.w3.org/2000/svg" xmlns:xlink="http://www.w3.org/1999/xlink">
    <!-- Generator: Sketch 39.1 (31720) - http://www.bohemiancoding.com/sketch -->
    <title>pin-location</title>
    <desc>Created with Sketch.</desc>
    <defs>
        <linearGradient x1="9.02099616%" y1="100.456099%" x2="9.02099603%" y2="-81.5019087%" id="linearGradient-1">
            <stop stop-color="#818181" offset="0%"></stop>
            <stop stop-color="#D8D8D8" offset="100%"></stop>
        </linearGradient>
    </defs>
    <g id="-" stroke="none" stroke-width="1" fill="none" fill-rule="evenodd">
        <g id="4b---Bus-Stops-Map---Pop-Over" transform="translate(-167.000000, -244.000000)">
            <g id="pin_pickup" transform="translate(162.000000, 239.000000)">
                <g id="Stop-Green-Copy-3" stroke-width="1" transform="translate(14.000000, 5.000000)">
                    <ellipse id="Oval-9" fill="#D0011B" cx="8.7380305" cy="43.853771" rx="2.00197089" ry="2.09763412"></ellipse>
                    <path d="M6.7360596,18.6821615 L10.7400014,18.6821615 C10.7400014,18.6821615 9.73901594,43.853771 8.7380305,43.853771 C7.73704505,43.853771 6.7360596,18.6821615 6.7360596,18.6821615 Z" id="Rectangle-10" fill="#828282"></path>
                    <path d="M8.7380305,18.6821615 L10.7400014,18.6821615 C10.7400014,18.6821615 9.73901594,43.853771 8.7380305,43.853771 C8.7380305,40.2578268 8.7380305,18.6821615 8.7380305,18.6821615 Z" id="Rectangle-10" fill="url(#linearGradient-1)"></path>
                    <path d="M14.7439432,8.19399089 L13.9093616,2.22563448 C13.9093616,2.22563448 13.7186138,0.852271465 12.3603166,0.852271465 L5.11510381,0.852271465 C3.75680659,0.852271465 3.56605881,2.22563448 3.56605881,2.22563448 L2.73211781,8.19399089 L3.06556608,10.1664382 L2.8509548,10.4411444 L2.8509548,11.8393434 L3.75680659,11.8393434 L3.75680659,13.088023 L5.94968543,13.088023 L5.94968543,11.8393434 L11.5263756,11.8393434 L11.5263756,13.088023 L13.7192544,13.088023 L13.7192544,11.8393434 L14.6244656,11.8393434 L14.6244656,10.4411444 L14.4098543,10.1664382 L14.7439432,8.19399089 Z M6.24741855,1.15181362 L11.2286424,1.15181362 L11.2286424,2.55001262 L6.24741855,2.55001262 L6.24741855,1.15181362 Z M3.79252176,3.24944774 L6.03280727,2.99974537 L8.39208993,2.99974537 L8.39208993,6.79579189 L3.36393983,6.79579189 L3.79252176,3.24944774 Z M5.8601573,9.36732351 C5.8601573,9.67089312 5.62552631,9.91673584 5.33596124,9.91673584 C5.11318192,9.91673584 4.92371539,9.77107613 4.84732018,9.56668266 C4.77092497,9.77107613 4.58145845,9.91673584 4.35867912,9.91673584 C4.06911405,9.91673584 3.83448307,9.67089312 3.83448307,9.36732351 C3.83448307,9.06392171 4.06911405,8.818079 4.35867912,8.818079 C4.58145845,8.818079 4.77092497,8.96289965 4.84732018,9.16813218 C4.92371539,8.96289965 5.11318192,8.818079 5.33596124,8.818079 C5.62552631,8.818079 5.8601573,9.06392171 5.8601573,9.36732351 L5.8601573,9.36732351 Z M13.7666611,10.7156827 L3.70939992,10.7156827 L3.70939992,10.5158201 L13.7666611,10.5158201 L13.7666611,10.7156827 Z M11.6159037,9.36732351 C11.6159037,9.06392171 11.8505347,8.818079 12.1400998,8.818079 C12.3628791,8.818079 12.5523456,8.96289965 12.6287408,9.16813218 C12.705136,8.96289965 12.8946025,8.818079 13.1173819,8.818079 C13.4069469,8.818079 13.6415779,9.06392171 13.6415779,9.36732351 C13.6415779,9.67089312 13.4069469,9.91673584 13.1173819,9.91673584 C12.8946025,9.91673584 12.705136,9.77107613 12.6287408,9.56668266 C12.5523456,9.77107613 12.3622384,9.91673584 12.1400998,9.91673584 C11.8505347,9.91673584 11.6159037,9.67089312 11.6159037,9.36732351 L11.6159037,9.36732351 Z M9.08333044,6.79512065 L9.08333044,2.99974537 L11.4432537,2.99974537 L13.6835392,3.24944774 L14.1127618,6.79512065 L9.08333044,6.79512065 Z" id="Page-1" fill="#FFFFFF"></path>
                    <path d="M8.56499958,20.4380762 C13.2953182,20.4380762 17.1299992,16.6033953 17.1299992,11.8730766 C17.1299992,7.14275797 13.2953182,3.30807703 8.56499958,3.30807703 C3.83468093,3.30807703 0,7.14275797 0,11.8730766 C0,16.6033953 3.83468093,20.4380762 8.56499958,20.4380762 Z" id="Oval-64" fill="#D0011B"></path>
                </g>
                <path d="M14.7928221,40.0529285 C11.9115706,40.3533164 8.47548983,38.8755852 6.73110581,36.4708401 C4.79095956,33.7962242 5.67820851,30.9876749 8.71283179,30.1977698 C11.7474551,29.4078646 15.7803026,30.9357246 17.7204488,33.6103405 C19.4648329,36.0150856 18.9236087,38.5280997 16.5910246,39.5848607 C17.7484064,41.3216084 22.8783335,49.0596815 22.4718685,49.1654834 C22.0654034,49.2712853 16.1225463,41.7448159 14.7928221,40.0529285 Z" id="Oval-9" fill-opacity="0.2" fill="#3E3E3E"></path>
            </g>
        </g>
    </g>
</svg>