<?xml version="1.0" encoding="UTF-8"?>
<svg width="31px" height="26px" viewBox="0 0 31 26" version="1.1" xmlns="http://www.w3.org/2000/svg" xmlns:xlink="http://www.w3.org/1999/xlink">
    <!-- Generator: Sketch 40.3 (33839) - http://www.bohemiancoding.com/sketch -->
    <title>twitter</title>
    <desc>Created with Sketch.</desc>
    <defs>
        <path d="M35.5027808,11.77025 C35.1659356,11.504602 34.7577842,11.3715627 34.342196,11.3715627 C34.0158499,11.3715627 33.6895038,11.4555196 33.3955298,11.6273081 C32.8128314,11.963566 32.2030104,12.2343805 31.5673791,12.4242521 C30.3503618,11.5076159 28.8415579,11 27.2916326,11 C23.7372597,11 20.7931453,13.6082586 20.3298738,16.9820311 C17.4964371,16.3848613 14.9145406,14.8495279 13.0553302,12.6042211 C12.7018615,12.1736733 12.1703461,11.9282611 11.6147702,11.9282611 C11.5688368,11.9282611 11.5189662,11.9317054 11.4695331,11.9351498 C10.8610244,11.9820795 10.3159477,12.3200595 10.0084124,12.8380085 C9.38328025,13.8911285 9.05518429,15.0932179 9.05518429,16.3159737 C9.05518429,17.1434865 9.20348366,17.9473193 9.47864681,18.6977641 C9.1816106,19.0288553 9.01056324,19.4594031 9.01056324,19.9136311 C9.01056324,21.7266678 9.70612667,23.3950405 10.8645241,24.6479346 C10.7927805,24.9605123 10.8050294,25.2903119 10.9091452,25.6080562 C11.3107346,26.8441589 12.0439197,27.9071815 12.9923358,28.7196252 C12.3750779,28.8574004 11.7376968,28.9280103 11.092004,28.9280103 C10.7569087,28.9280103 10.4170012,28.9064829 10.075344,28.8694558 C10.0036003,28.8608448 9.93185669,28.8556783 9.8583632,28.8556783 C9.08055704,28.8556783 8.374932,29.3353085 8.10983047,30.0732674 C7.81629395,30.8740863 8.12689146,31.7704868 8.85351464,32.231173 C11.5242157,33.9146149 14.6122549,34.8062794 17.7785996,34.8062794 C28.0519403,34.8062794 34.2245189,26.6693565 34.3356341,18.7261802 C35.1711851,18.0248179 35.9056826,17.2192629 36.5295024,16.3176958 C36.765294,16.0115764 36.9057191,15.6314027 36.9057191,15.2146324 C36.9057191,14.598949 36.5981838,14.0538755 36.1279129,13.7210621 C36.3431439,13.0063527 36.0972907,12.2343805 35.5027808,11.77025 Z M32.4611125,17.8448489 C32.472924,18.061845 32.4781735,18.2822854 32.4781735,18.5022954 C32.4781735,25.2214243 27.281571,32.9695625 17.7785996,32.9695625 C14.8616078,32.9695625 12.1462857,32.1287026 9.8583632,30.6855064 C10.2599527,30.7294223 10.6733536,30.7578384 11.0902542,30.7578384 C13.5116023,30.7578384 15.7382802,29.9441031 17.5069362,28.5801277 C15.2443865,28.5413784 13.3374927,27.0680438 12.679551,25.0500663 C12.995398,25.1086208 13.3186819,25.1422035 13.6502776,25.1422035 C14.1218608,25.1422035 14.5794453,25.0784824 15.0120945,24.9639567 C12.6484912,24.4946596 10.866274,22.4413772 10.866274,19.9756299 L10.866274,19.9119089 C11.5635873,20.2920826 12.3597668,20.5207034 13.2075667,20.5461058 C11.8216894,19.6342055 10.910895,18.0769141 10.910895,16.3129598 C10.910895,15.3808238 11.1654975,14.5081035 11.6095207,13.7580892 C14.1559828,16.8339227 17.9632083,18.8574973 22.2573282,19.0693268 C22.1685236,18.6994863 22.12434,18.3089794 22.12434,17.9102921 C22.12434,15.1052732 24.4363228,12.8281059 27.2881329,12.8281059 C28.7750638,12.8281059 30.1180699,13.4450809 31.0612364,14.4306048 C32.2371323,14.2037062 33.3443468,13.7817693 34.342196,13.1979465 C33.9559177,14.3836751 33.1356778,15.3808238 32.0713345,16.0098542 C33.1155546,15.8888702 34.1099041,15.6146113 35.0377594,15.2094658 C34.3456957,16.2320168 33.4707731,17.1266952 32.4611125,17.8448489 L32.4611125,17.8448489 Z" id="path-1"></path>
        <filter x="-50%" y="-50%" width="200%" height="200%" filterUnits="objectBoundingBox" id="filter-2">
            <feOffset dx="0" dy="1" in="SourceAlpha" result="shadowOffsetOuter1"></feOffset>
            <feGaussianBlur stdDeviation="0.5" in="shadowOffsetOuter1" result="shadowBlurOuter1"></feGaussianBlur>
            <feColorMatrix values="0 0 0 0 0   0 0 0 0 0   0 0 0 0 0  0 0 0 0.5 0" type="matrix" in="shadowBlurOuter1"></feColorMatrix>
        </filter>
    </defs>
    <g id="APP" stroke="none" stroke-width="1" fill="none" fill-rule="evenodd">
        <g id="Login" transform="translate(-79.000000, -574.000000)">
            <g id="Twitter" transform="translate(72.000000, 563.000000)">
                <g id="twitter">
                    <use fill="black" fill-opacity="1" filter="url(#filter-2)" xlink:href="#path-1"></use>
                    <use fill="#FFFFFF" fill-rule="evenodd" xlink:href="#path-1"></use>
                </g>
            </g>
        </g>
    </g>
</svg>