<?xml version="1.0" encoding="UTF-8"?>
<svg width="26px" height="23px" viewBox="0 0 26 23" version="1.1" xmlns="http://www.w3.org/2000/svg" xmlns:xlink="http://www.w3.org/1999/xlink">
    <!-- Generator: Sketch 40.2 (33826) - http://www.bohemiancoding.com/sketch -->
    <title>amazon</title>
    <desc>Created with Sketch.</desc>
    <defs></defs>
    <g id="APP" stroke="none" stroke-width="1" fill="none" fill-rule="evenodd">
        <g id="1b---Dashboard---Notice-Modal" transform="translate(-29.000000, -382.000000)" fill="#000000">
            <g id="Group" transform="translate(10.000000, 221.000000)">
                <g id="Group-4">
                    <g id="Group-3" transform="translate(9.000000, 152.000000)">
                        <g id="amazon" transform="translate(10.000000, 9.000000)">
                            <path d="M15.0414815,5.506 C15.0414815,5.182 15.0385926,4.849 15.0260741,4.504 C15.0145185,4.16 14.9153333,3.853 14.7256296,3.587 C14.5532593,3.331 14.3308148,3.147 14.0534815,3.036 C13.7761481,2.926 13.5026667,2.869 13.2243704,2.869 L13.0182963,2.869 C12.5416296,2.913 12.1073333,3.067 11.7182963,3.327 C11.3302222,3.59 11.0798519,3.982 10.9623704,4.504 C10.9421481,4.616 10.8959259,4.718 10.8217778,4.813 C10.7485926,4.908 10.6522963,4.976 10.5271111,5.022 L7.91459259,4.678 C7.80962963,4.656 7.70948148,4.606 7.6102963,4.531 C7.51111111,4.455 7.48318519,4.329 7.52266667,4.155 C7.67192593,3.436 7.93096296,2.829 8.29977778,2.34 C8.67051852,1.849 9.10866667,1.448 9.61614815,1.138 C10.1245926,0.827 10.6754074,0.599 11.2714815,0.451 C11.8675556,0.304 12.4684444,0.209 13.0702963,0.165 L13.624963,0.165 C14.2903704,0.165 15.002963,0.261 15.7646667,0.451 C16.5244444,0.641 17.1840741,0.982 17.7435556,1.472 C18.070963,1.764 18.3165185,2.085 18.4831111,2.427 C18.6468148,2.77 18.7575556,3.13 18.8220741,3.505 C18.8856296,3.88 18.9174074,4.275 18.9174074,4.688 L18.9174074,5.973 L18.9174074,10.144 C18.9174074,10.779 19.0233333,11.267 19.2332593,11.612 C19.4431852,11.958 19.6800741,12.285 19.9362222,12.595 C20.0180741,12.703 20.0594815,12.817 20.0594815,12.938 C20.0594815,13.057 20.0065185,13.16 19.9044444,13.244 C19.6415556,13.485 19.3025926,13.766 18.8856296,14.087 C18.4686667,14.408 18.121037,14.689 17.8437037,14.93 C17.6511111,15.055 17.4171111,15.066 17.1397778,14.961 C16.7016296,14.595 16.3982963,14.309 16.2259259,14.109 L15.5720741,13.322 C15.1339259,13.753 14.7111852,14.097 14.2961481,14.355 C13.8811111,14.61 13.4554815,14.803 13.0173333,14.93 C12.4357037,15.055 11.7857037,15.119 11.0721481,15.119 C9.94259259,15.119 8.996,14.788 8.23140741,14.129 C7.46874074,13.469 7.08740741,12.48 7.08740741,11.161 C7.08740741,10.072 7.34933333,9.162 7.87511111,8.432 C8.40088889,7.704 9.10096296,7.157 9.98303704,6.789 C10.4356296,6.589 10.9171111,6.436 11.4313333,6.331 C11.9445926,6.225 12.4828889,6.138 13.0365926,6.071 C13.4044444,6.028 13.754963,5.994 14.091037,5.971 C14.4261481,5.949 14.7448889,5.915 15.0395556,5.871 L15.0395556,5.506 L15.0414815,5.506 L15.0414815,5.506 Z M15.0414815,8.024 C14.6938519,8.024 14.3433333,8.035 13.9985926,8.056 C13.6548148,8.079 13.3274074,8.124 13.0182963,8.191 C12.454963,8.368 11.9734815,8.646 11.5671111,9.024 C11.1645926,9.402 10.9623704,9.958 10.9623704,10.694 C10.9623704,11.281 11.1106667,11.755 11.4091852,12.111 C11.7077037,12.467 12.116,12.645 12.636,12.645 C12.7197778,12.645 12.7968148,12.637 12.8574815,12.621 C12.922,12.604 12.974963,12.595 13.0182963,12.595 C13.6894815,12.441 14.1921481,12.046 14.533037,11.411 C14.8402222,10.932 15.002963,10.471 15.0174074,10.026 C15.0347407,9.582 15.0405185,9.098 15.0405185,8.575 L15.0405185,8.024 L15.0414815,8.024 L15.0414815,8.024 Z" id="Shape"></path>
                            <path d="M23.8285185,21.334 C23.7177778,21.443 23.6157037,21.477 23.5242222,21.433 C23.4365926,21.389 23.4105926,21.301 23.4548889,21.17 L23.7582222,20.412 C23.8747407,20.103 23.9797037,19.798 24.0817778,19.496 C24.1838519,19.194 24.2512593,18.92 24.2801481,18.671 C24.3119259,18.424 24.2859259,18.246 24.2011852,18.136 C24.0721481,17.96 23.7861481,17.862 23.3422222,17.839 L23.0706667,17.839 C22.7085926,17.839 22.3474815,17.855 21.9873333,17.889 C21.7947407,17.932 21.6108148,17.954 21.4297778,17.954 C21.2516296,17.954 21.086,17.977 20.9357778,18.021 C20.8105926,18.021 20.7345185,17.981 20.7142963,17.905 C20.6940741,17.828 20.7441481,17.744 20.8722222,17.656 C21.2025185,17.436 21.5732593,17.256 21.9873333,17.112 C22.3580741,17.026 22.7317037,16.966 23.1024444,16.932 C23.3354815,16.911 23.5511852,16.898 23.7562963,16.898 C23.9017037,16.898 24.050963,16.904 24.1973333,16.915 C24.5507407,16.938 24.8396296,16.976 25.0678519,17.03 C25.2951111,17.087 25.4472593,17.147 25.5291111,17.212 C25.5493333,17.256 25.5724444,17.314 25.5955556,17.385 C25.6186667,17.456 25.6311852,17.547 25.6311852,17.656 L25.6311852,17.79 C25.6311852,18.008 25.5878519,18.278 25.5031111,18.597 C25.4212593,18.914 25.3105185,19.236 25.1757037,19.56 C25.0418519,19.886 24.8579259,20.207 24.6306667,20.526 C24.3976296,20.844 24.1318519,21.115 23.8285185,21.334 Z M0.142518519,17.79 C0.0462222222,17.713 0,17.642 0,17.575 C0,17.532 0.0144444444,17.493 0.0462222222,17.46 C0.0991851852,17.395 0.162740741,17.361 0.235925926,17.361 C0.299481481,17.361 0.369777778,17.384 0.442962963,17.429 C2.22155556,18.476 4.18022222,19.295 6.3257037,19.886 C8.46925926,20.478 10.6908148,20.773 12.9855556,20.773 C14.4454074,20.773 15.9312593,20.638 17.4488889,20.368 C18.9645926,20.099 20.4793333,19.684 21.9892593,19.124 C22.0942222,19.081 22.2020741,19.041 22.308,19.009 C22.412963,18.974 22.5275556,18.932 22.6440741,18.878 C22.749037,18.832 22.8568889,18.821 22.9628148,18.843 C23.0677778,18.865 23.1438519,18.913 23.1871852,18.991 C23.2160741,19.047 23.2362963,19.108 23.2478519,19.173 C23.2478519,19.304 23.1871852,19.409 23.0581481,19.486 C22.8857778,19.615 22.7076296,19.736 22.5237037,19.839 C22.3359259,19.945 22.1587407,20.051 21.9892593,20.162 C20.6199259,20.928 19.1167407,21.502 17.4748889,21.882 C15.834,22.263 14.2431852,22.452 12.6995556,22.452 C10.2555556,22.452 7.96659259,22.039 5.84133333,21.216 C3.71318519,20.394 1.81614815,19.251 0.142518519,17.79 Z" id="Combined-Shape"></path>
                        </g>
                    </g>
                </g>
            </g>
        </g>
    </g>
</svg>