<?xml version="1.0" encoding="UTF-8"?>
<svg width="28px" height="24px" viewBox="0 0 28 24" version="1.1" xmlns="http://www.w3.org/2000/svg" xmlns:xlink="http://www.w3.org/1999/xlink">
    <!-- Generator: Sketch 44.1 (41455) - http://www.bohemiancoding.com/sketch -->
    <title>bus-green</title>
    <desc>Created with Sketch.</desc>
    <defs>
        <linearGradient x1="50%" y1="0%" x2="50%" y2="100%" id="linearGradient-1">
            <stop stop-color="#B4ED50" offset="0%"></stop>
            <stop stop-color="#429321" offset="100%"></stop>
        </linearGradient>
        <path d="M21.6657814,20 L24.8091879,20 C26.460078,20 27.80339,18.6594501 27.80339,17.0057979 L27.80339,2.99420208 C27.80339,1.34331197 26.4628401,0 24.8091879,0 L10.7975921,0 C9.14670197,0 7.80339,1.34054993 7.80339,2.99420208 L7.80339,17.0057979 C7.80339,18.656688 9.14393993,20 10.7975921,20 L13.9324491,20 L17.6751477,22.8999996 L21.6657814,20 Z" id="path-2"></path>
    </defs>
    <g id="Symbols" stroke="none" stroke-width="1" fill="none" fill-rule="evenodd">
        <g id="bus-green">
            <path d="M0.781469776,14.8715037 C-0.489423962,13.2193418 -0.176374933,11.88 1.47451518,11.88 L15.486111,11.88 C17.1397632,11.88 19.5136925,13.2233932 20.7814698,14.8715037 L24.2094389,19.3278636 C25.4803327,20.9800255 25.1672837,22.3193673 23.5163935,22.3193673 L9.5047977,22.3193673 C7.85114556,22.3193673 5.47721622,20.9759741 4.20943895,19.3278636 L0.781469776,14.8715037 Z M12.5105956,22.3193673 L20.2796768,22.3193673 L17.3787746,23.76 L12.5105956,22.3193673 Z" id="Combined-Shape" fill-opacity="0.1" fill="#000000"></path>
            <g id="Combined-Shape">
                <use fill="url(#linearGradient-1)" fill-rule="evenodd" xlink:href="#path-2"></use>
                <path stroke="#FFFFFF" stroke-width="1" d="M21.82827,20.5 L17.6655244,23.5250737 L13.7614069,20.5 L10.7975921,20.5 C8.86867956,20.5 7.30339,18.9337131 7.30339,17.0057979 L7.30339,2.99420208 C7.30339,1.06528956 8.86967693,-0.5 10.7975921,-0.5 L24.8091879,-0.5 C26.7381004,-0.5 28.30339,1.06628693 28.30339,2.99420208 L28.30339,17.0057979 C28.30339,18.9347104 26.7371031,20.5 24.8091879,20.5 L21.82827,20.5 Z"></path>
            </g>
            <g id="i-bus" transform="translate(10.000000, 2.000000)" fill="#FFFFFF">
                <path d="M0,0 L0,13.0899217 C0,13.6367269 0.443667457,14.08 1.00653274,14.08 L1.31047619,14.08 L1.31047619,16 L3.2,16 L3.2,14.08 L12.8,14.08 L12.8,16 L14.6895238,16 L14.6895238,14.08 L14.9934673,14.08 C15.5493599,14.08 16,13.6274801 16,13.0899217 L16,0.990078259 C16,0.443273135 15.5553691,0 14.9991283,0 L0,0 Z M15.4139194,7.85557231 C15.4139194,8.12679623 15.1819301,8.34666667 14.9225207,8.34666667 L1.13608738,8.34666667 C0.864695354,8.34666667 0.644688645,8.12790141 0.644688645,7.85557231 L0.644688645,3.07776103 C0.644688645,2.8065371 0.876677992,2.58666667 1.13608738,2.58666667 L14.9225207,2.58666667 C15.1939127,2.58666667 15.4139194,2.80543193 15.4139194,3.07776103 L15.4139194,7.85557231 Z M0.615384615,1.1312207 C0.615384615,0.859927 0.847373962,0.64 1.10678335,0.64 L14.8932166,0.64 C15.1646087,0.64 15.3846154,0.862958984 15.3846154,1.1312207 L15.3846154,1.4287793 C15.3846154,1.700073 15.152626,1.92 14.8932166,1.92 L1.10678335,1.92 C0.835391324,1.92 0.615384615,1.69704102 0.615384615,1.4287793 L0.615384615,1.1312207 Z M0.615384615,10.56 C0.615384615,10.0298066 1.04321759,9.6 1.57207584,9.6 L2.73561646,9.6 C3.26398244,9.6 3.69230769,10.0261102 3.69230769,10.56 C3.69230769,11.0901934 3.26447472,11.52 2.73561646,11.52 L1.57207584,11.52 C1.04370987,11.52 0.615384615,11.0938898 0.615384615,10.56 Z M12.3076923,10.56 C12.3076923,10.0298066 12.7355253,9.6 13.2643835,9.6 L14.4279242,9.6 C14.9562901,9.6 15.3846154,10.0261102 15.3846154,10.56 C15.3846154,11.0901934 14.9567824,11.52 14.4279242,11.52 L13.2643835,11.52 C12.7360176,11.52 12.3076923,11.0938898 12.3076923,10.56 Z M11.423955,11.1999507 C11.6340659,11.3767363 11.5848839,11.5200493 11.3051605,11.5200493 L4.69483948,11.5200493 C4.41912022,11.5200493 4.36801543,11.3749851 4.57604503,11.1999507 L4.19560559,11.5200493 C4.40571649,11.3432637 4.80388725,11.1999507 5.06852983,11.1999507 L10.9314702,11.1999507 C11.203462,11.1999507 11.5963648,11.3450149 11.8043944,11.5200493 L11.423955,11.1999507 Z M11.423955,11.8399507 C11.6340659,12.0167363 11.5848839,12.1600493 11.3051605,12.1600493 L4.69483948,12.1600493 C4.41912022,12.1600493 4.36801543,12.0149851 4.57604503,11.8399507 L4.19560559,12.1600493 C4.40571649,11.9832637 4.80388725,11.8399507 5.06852983,11.8399507 L10.9314702,11.8399507 C11.203462,11.8399507 11.5963648,11.9850149 11.8043944,12.1600493 L11.423955,11.8399507 Z" id="Combined-Shape"></path>
            </g>
        </g>
    </g>
</svg>