<?xml version="1.0" encoding="UTF-8" standalone="no"?>
<svg width="56px" height="13px" viewBox="0 0 56 13" version="1.1" xmlns="http://www.w3.org/2000/svg" xmlns:xlink="http://www.w3.org/1999/xlink">
    <!-- Generator: Sketch 39.1 (31720) - http://www.bohemiancoding.com/sketch -->
    <title>g-dropoff</title>
    <desc>Created with Sketch.</desc>
    <defs></defs>
    <g id="Symbols" stroke="none" stroke-width="1" fill="none" fill-rule="evenodd">
        <g id="Public-Schedule---Dropoff" transform="translate(-7.000000, -6.000000)">
            <g id="Group-9" transform="translate(0.000000, 0.291098)">
                <g id="Group-6">
                    <g id="g-dropoff" transform="translate(8.000000, 6.000000)">
                        <path d="M6.00791473,12.5900002 L0,6.29500008 L0.400527649,5.8753334 L6.00791473,11.7506668 L11.6153018,5.8753334 L12.0158295,6.29500008 L6.00791473,12.5900002 Z M12.0158295,0.419666672 L11.6153018,6.61232496e-14 L6.00791473,5.8753334 L0.400527649,6.61232496e-14 L0,0.419666672 L6.00791473,6.71466675 L12.0158295,0.419666672 Z" id="i-dropoff" stroke="#A7CFFF" fill="#A7CFFF"></path>
                        <path d="M22.34375,6.7987454 C22.34375,7.74145844 22.0878932,8.46215436 21.5761719,8.96085477 C21.0644506,9.45955518 20.3281298,9.70890165 19.3671875,9.70890165 L17.7851562,9.70890165 L17.7851562,3.99796415 L19.5351562,3.99796415 C20.4231815,3.99796415 21.1132788,4.24405543 21.6054688,4.7362454 C22.0976587,5.22843536 22.34375,5.91592848 22.34375,6.7987454 L22.34375,6.7987454 Z M21.640625,6.8221829 C21.640625,6.0773875 21.4537779,5.5161952 21.0800781,5.13858915 C20.7063783,4.76098309 20.1510454,4.5721829 19.4140625,4.5721829 L18.4492188,4.5721829 L18.4492188,9.1346829 L19.2578125,9.1346829 C20.0494831,9.1346829 20.6445293,8.94002338 21.0429688,8.55069852 C21.4414082,8.16137366 21.640625,7.58520754 21.640625,6.8221829 L21.640625,6.8221829 Z M24.53125,7.33390165 L24.53125,9.70890165 L23.8671875,9.70890165 L23.8671875,3.99796415 L25.4335938,3.99796415 C26.1341181,3.99796415 26.651691,4.13207739 26.9863281,4.4003079 C27.3209652,4.6685384 27.4882812,5.0721802 27.4882812,5.6112454 C27.4882812,6.3664575 27.1054726,6.87686907 26.3398438,7.1424954 L27.890625,9.70890165 L27.1054688,9.70890165 L25.7226562,7.33390165 L24.53125,7.33390165 Z M24.53125,6.76358915 L25.4414062,6.76358915 C25.9101586,6.76358915 26.2539052,6.67049112 26.4726562,6.48429227 C26.6914073,6.29809342 26.8007812,6.01879934 26.8007812,5.64640165 C26.8007812,5.26879559 26.6894542,4.9966629 26.4667969,4.8299954 C26.2441395,4.6633279 25.8867212,4.5799954 25.3945312,4.5799954 L24.53125,4.5799954 L24.53125,6.76358915 Z M34.0195312,6.8456204 C34.0195312,7.75968747 33.7884138,8.47843028 33.3261719,9.0018704 C32.86393,9.52531051 32.2213583,9.78702665 31.3984375,9.78702665 C30.5572875,9.78702665 29.9082054,9.52986776 29.4511719,9.01554227 C28.9941383,8.50121678 28.765625,7.77531258 28.765625,6.8378079 C28.765625,5.90811575 28.9947894,5.18741983 29.453125,4.67569852 C29.9114606,4.16397721 30.5624958,3.9081204 31.40625,3.9081204 C32.2265666,3.9081204 32.8671852,4.16853446 33.328125,4.6893704 C33.7890648,5.21020633 34.0195312,5.92894915 34.0195312,6.8456204 L34.0195312,6.8456204 Z M29.46875,6.8456204 C29.46875,7.61906176 29.6334619,8.20564444 29.9628906,8.60538602 C30.2923194,9.0051276 30.7708302,9.2049954 31.3984375,9.2049954 C32.0312532,9.2049954 32.509113,9.00577864 32.8320312,8.60733915 C33.1549495,8.20889965 33.3164062,7.62166594 33.3164062,6.8456204 C33.3164062,6.07738739 33.1556006,5.49471092 32.8339844,5.09757352 C32.5123682,4.70043612 32.0364615,4.5018704 31.40625,4.5018704 C30.7734343,4.5018704 30.2923194,4.70173819 29.9628906,5.10147977 C29.6334619,5.50122135 29.46875,6.08259575 29.46875,6.8456204 L29.46875,6.8456204 Z M39.1640625,5.66202665 C39.1640625,6.24015454 38.9667988,6.68481155 38.5722656,6.99601102 C38.1777324,7.30721049 37.6132849,7.4628079 36.8789062,7.4628079 L36.2070312,7.4628079 L36.2070312,9.70890165 L35.5429688,9.70890165 L35.5429688,3.99796415 L37.0234375,3.99796415 C38.450528,3.99796415 39.1640625,4.5526461 39.1640625,5.66202665 L39.1640625,5.66202665 Z M36.2070312,6.8924954 L36.8046875,6.8924954 C37.3932321,6.8924954 37.8190091,6.79744426 38.0820312,6.60733915 C38.3450534,6.41723403 38.4765625,6.11254958 38.4765625,5.69327665 C38.4765625,5.31567059 38.3528658,5.0344234 38.1054688,4.84952665 C37.8580717,4.66462989 37.4726589,4.5721829 36.9492188,4.5721829 L36.2070312,4.5721829 L36.2070312,6.8924954 Z M45.5664062,6.8456204 C45.5664062,7.75968747 45.3352888,8.47843028 44.8730469,9.0018704 C44.410805,9.52531051 43.7682333,9.78702665 42.9453125,9.78702665 C42.1041625,9.78702665 41.4550804,9.52986776 40.9980469,9.01554227 C40.5410133,8.50121678 40.3125,7.77531258 40.3125,6.8378079 C40.3125,5.90811575 40.5416644,5.18741983 41,4.67569852 C41.4583356,4.16397721 42.1093708,3.9081204 42.953125,3.9081204 C43.7734416,3.9081204 44.4140602,4.16853446 44.875,4.6893704 C45.3359398,5.21020633 45.5664062,5.92894915 45.5664062,6.8456204 L45.5664062,6.8456204 Z M41.015625,6.8456204 C41.015625,7.61906176 41.1803369,8.20564444 41.5097656,8.60538602 C41.8391944,9.0051276 42.3177052,9.2049954 42.9453125,9.2049954 C43.5781282,9.2049954 44.055988,9.00577864 44.3789062,8.60733915 C44.7018245,8.20889965 44.8632812,7.62166594 44.8632812,6.8456204 C44.8632812,6.07738739 44.7024756,5.49471092 44.3808594,5.09757352 C44.0592432,4.70043612 43.5833365,4.5018704 42.953125,4.5018704 C42.3203093,4.5018704 41.8391944,4.70173819 41.5097656,5.10147977 C41.1803369,5.50122135 41.015625,6.08259575 41.015625,6.8456204 L41.015625,6.8456204 Z M47.7539062,9.70890165 L47.0898438,9.70890165 L47.0898438,3.99796415 L50.2734375,3.99796415 L50.2734375,4.5878079 L47.7539062,4.5878079 L47.7539062,6.67765165 L50.1210938,6.67765165 L50.1210938,7.2674954 L47.7539062,7.2674954 L47.7539062,9.70890165 Z M52.1328125,9.70890165 L51.46875,9.70890165 L51.46875,3.99796415 L54.6523438,3.99796415 L54.6523438,4.5878079 L52.1328125,4.5878079 L52.1328125,6.67765165 L54.5,6.67765165 L54.5,7.2674954 L52.1328125,7.2674954 L52.1328125,9.70890165 Z" id="DROPOFF" fill="#A7D0FF"></path>
                    </g>
                </g>
            </g>
        </g>
    </g>
</svg>