<?xml version="1.0" encoding="UTF-8" standalone="no"?>
<svg width="47px" height="13px" viewBox="0 0 47 13" version="1.1" xmlns="http://www.w3.org/2000/svg" xmlns:xlink="http://www.w3.org/1999/xlink">
    <!-- Generator: Sketch 39.1 (31720) - http://www.bohemiancoding.com/sketch -->
    <title>g-pickup</title>
    <desc>Created with Sketch.</desc>
    <defs></defs>
    <g id="Symbols" stroke="none" stroke-width="1" fill="none" fill-rule="evenodd">
        <g id="Published-Schedule" transform="translate(-7.000000, -6.000000)" fill="#6CB21B">
            <g id="Group-8">
                <g id="Group-7">
                    <g id="g-pickup" transform="translate(8.000000, 6.000000)">
                        <path d="M6.00791473,12.5900002 L0,6.29500008 L0.400527649,5.8753334 L6.00791473,11.7506668 L11.6153018,5.8753334 L12.0158295,6.29500008 L6.00791473,12.5900002 Z M12.0158295,0.419666672 L11.6153018,6.61232496e-14 L6.00791473,5.8753334 L0.400527649,6.61232496e-14 L0,0.419666672 L6.00791473,6.71466675 L12.0158295,0.419666672 Z" id="i-pickup" stroke="#6CB21B" transform="translate(6.007915, 6.295000) scale(1, -1) translate(-6.007915, -6.295000) "></path>
                        <path d="M21.40625,5.953125 C21.40625,6.53125289 21.2089863,6.9759099 20.8144531,7.28710938 C20.4199199,7.59830885 19.8554724,7.75390625 19.1210938,7.75390625 L18.4492188,7.75390625 L18.4492188,10 L17.7851562,10 L17.7851562,4.2890625 L19.265625,4.2890625 C20.6927155,4.2890625 21.40625,4.84374445 21.40625,5.953125 L21.40625,5.953125 Z M18.4492188,7.18359375 L19.046875,7.18359375 C19.6354196,7.18359375 20.0611966,7.08854262 20.3242188,6.8984375 C20.5872409,6.70833238 20.71875,6.40364793 20.71875,5.984375 C20.71875,5.60676895 20.5950533,5.32552176 20.3476562,5.140625 C20.1002592,4.95572824 19.7148464,4.86328125 19.1914062,4.86328125 L18.4492188,4.86328125 L18.4492188,7.18359375 Z M22.8515625,10 L22.8515625,4.2890625 L23.515625,4.2890625 L23.515625,10 L22.8515625,10 Z M27.7773438,4.80078125 C27.1497364,4.80078125 26.6542987,5.00976354 26.2910156,5.42773438 C25.9277326,5.84570521 25.7460938,6.41796512 25.7460938,7.14453125 C25.7460938,7.89193082 25.9212222,8.469399 26.2714844,8.87695312 C26.6217465,9.28450725 27.1210905,9.48828125 27.7695312,9.48828125 C28.1679707,9.48828125 28.6223933,9.41666738 29.1328125,9.2734375 L29.1328125,9.85546875 C28.7369772,10.003907 28.2487008,10.078125 27.6679688,10.078125 C26.8268187,10.078125 26.1777367,9.82291922 25.7207031,9.3125 C25.2636696,8.80208078 25.0351562,8.07682762 25.0351562,7.13671875 C25.0351562,6.54817414 25.1451812,6.0325543 25.3652344,5.58984375 C25.5852876,5.1471332 25.9029927,4.80599078 26.3183594,4.56640625 C26.733726,4.32682172 27.2226534,4.20703125 27.7851562,4.20703125 C28.3841176,4.20703125 28.9075498,4.31640516 29.3554688,4.53515625 L29.0742188,5.10546875 C28.6419249,4.90234273 28.2096376,4.80078125 27.7773438,4.80078125 L27.7773438,4.80078125 Z M34.7539062,10 L33.9726562,10 L31.890625,7.23046875 L31.2929688,7.76171875 L31.2929688,10 L30.6289062,10 L30.6289062,4.2890625 L31.2929688,4.2890625 L31.2929688,7.12109375 L33.8828125,4.2890625 L34.6679688,4.2890625 L32.3710938,6.76953125 L34.7539062,10 Z M40.1015625,4.2890625 L40.1015625,7.984375 C40.1015625,8.63541992 39.9049499,9.14713355 39.5117188,9.51953125 C39.1184876,9.89192895 38.5781284,10.078125 37.890625,10.078125 C37.2031216,10.078125 36.6712258,9.89062687 36.2949219,9.515625 C35.9186179,9.14062313 35.7304688,8.62500328 35.7304688,7.96875 L35.7304688,4.2890625 L36.3945312,4.2890625 L36.3945312,8.015625 C36.3945312,8.49218988 36.5247383,8.85807164 36.7851562,9.11328125 C37.0455742,9.36849086 37.4283829,9.49609375 37.9335938,9.49609375 C38.415367,9.49609375 38.786457,9.36783982 39.046875,9.11132812 C39.307293,8.85481643 39.4375,8.48698156 39.4375,8.0078125 L39.4375,4.2890625 L40.1015625,4.2890625 Z M45.484375,5.953125 C45.484375,6.53125289 45.2871113,6.9759099 44.8925781,7.28710938 C44.4980449,7.59830885 43.9335974,7.75390625 43.1992188,7.75390625 L42.5273438,7.75390625 L42.5273438,10 L41.8632812,10 L41.8632812,4.2890625 L43.34375,4.2890625 C44.7708405,4.2890625 45.484375,4.84374445 45.484375,5.953125 L45.484375,5.953125 Z M42.5273438,7.18359375 L43.125,7.18359375 C43.7135446,7.18359375 44.1393216,7.08854262 44.4023438,6.8984375 C44.6653659,6.70833238 44.796875,6.40364793 44.796875,5.984375 C44.796875,5.60676895 44.6731783,5.32552176 44.4257812,5.140625 C44.1783842,4.95572824 43.7929714,4.86328125 43.2695312,4.86328125 L42.5273438,4.86328125 L42.5273438,7.18359375 Z" id="PICKUP"></path>
                    </g>
                </g>
            </g>
        </g>
    </g>
</svg>