<?xml version="1.0" encoding="UTF-8"?>
<svg width="16px" height="15px" viewBox="0 0 16 15" version="1.1" xmlns="http://www.w3.org/2000/svg" xmlns:xlink="http://www.w3.org/1999/xlink">
    <!-- Generator: Sketch 44 (41411) - http://www.bohemiancoding.com/sketch -->
    <title>i-bus</title>
    <desc>Created with Sketch.</desc>
    <defs></defs>
    <g id="Symbols" stroke="none" stroke-width="1" fill="none" fill-rule="evenodd">
        <g id="list-stop" transform="translate(-272.000000, -16.000000)" fill="#4A4A4A">
            <g id="Bus" transform="translate(272.000000, 16.000000)">
                <g id="i-bus-dg">
                    <path d="M0,0 L0,12.2078546 C0,12.7558014 0.443667457,13.2 1.00653274,13.2 L1.31047619,13.2 L1.31047619,15 L3.2,15 L3.2,13.2 L12.8,13.2 L12.8,15 L14.6895238,15 L14.6895238,13.2 L14.9934673,13.2 C15.5493599,13.2 16,12.7608124 16,12.2078546 L16,0.992145395 C16,0.444198624 15.5553691,0 14.9991283,0 L0,0 Z M15.4139194,7.32666016 C15.4139194,7.60188565 15.1819301,7.825 14.9225207,7.825 L1.13608738,7.825 C0.864695354,7.825 0.644688645,7.59296875 0.644688645,7.32666016 L0.644688645,2.92333984 C0.644688645,2.64811435 0.876677992,2.425 1.13608738,2.425 L14.9225207,2.425 C15.1939127,2.425 15.4139194,2.65703125 15.4139194,2.92333984 L15.4139194,7.32666016 Z M0.615384615,1.10195503 C0.615384615,0.824732923 0.847373962,0.6 1.10678335,0.6 L14.8932166,0.6 C15.1646087,0.6 15.3846154,0.83137207 15.3846154,1.10195503 L15.3846154,1.29804497 C15.3846154,1.57526708 15.152626,1.8 14.8932166,1.8 L1.10678335,1.8 C0.835391324,1.8 0.615384615,1.56862793 0.615384615,1.29804497 L0.615384615,1.10195503 Z M0.615384615,9.9 C0.615384615,9.40294373 1.01763857,9 1.52192101,9 L2.7857713,9 C3.28643752,9 3.69230769,9.39947834 3.69230769,9.9 C3.69230769,10.3970563 3.29005373,10.8 2.7857713,10.8 L1.52192101,10.8 C1.02125478,10.8 0.615384615,10.4005217 0.615384615,9.9 Z M12.3076923,9.9 C12.3076923,9.40294373 12.7099463,9 13.2142287,9 L14.478079,9 C14.9787452,9 15.3846154,9.39947834 15.3846154,9.9 C15.3846154,10.3970563 14.9823614,10.8 14.478079,10.8 L13.2142287,10.8 C12.7135625,10.8 12.3076923,10.4005217 12.3076923,9.9 Z M11.423955,10.4999538 C11.6340659,10.6656903 11.5848839,10.8000462 11.3051605,10.8000462 L4.69483948,10.8000462 C4.41912022,10.8000462 4.36801543,10.6640485 4.57604503,10.4999538 L4.19560559,10.8000462 C4.40571649,10.6343097 4.80388725,10.4999538 5.06852983,10.4999538 L10.9314702,10.4999538 C11.203462,10.4999538 11.5963648,10.6359515 11.8043944,10.8000462 L11.423955,10.4999538 Z M11.423955,11.0999538 C11.6340659,11.2656903 11.5848839,11.4000462 11.3051605,11.4000462 L4.69483948,11.4000462 C4.41912022,11.4000462 4.36801543,11.2640485 4.57604503,11.0999538 L4.19560559,11.4000462 C4.40571649,11.2343097 4.80388725,11.0999538 5.06852983,11.0999538 L10.9314702,11.0999538 C11.203462,11.0999538 11.5963648,11.2359515 11.8043944,11.4000462 L11.423955,11.0999538 Z" id="Combined-Shape"></path>
                </g>
            </g>
        </g>
    </g>
</svg>