<?xml version="1.0" encoding="UTF-8"?>
<svg width="20px" height="16px" viewBox="0 0 20 16" version="1.1" xmlns="http://www.w3.org/2000/svg" xmlns:xlink="http://www.w3.org/1999/xlink">
    <!-- Generator: Sketch 40.1 (33804) - http://www.bohemiancoding.com/sketch -->
    <title>i-calender</title>
    <desc>Created with Sketch.</desc>
    <defs></defs>
    <g id="APP" stroke="none" stroke-width="1" fill="none" fill-rule="evenodd">
        <g id="5---Reservation-Modal" transform="translate(-148.000000, -346.000000)" fill="#9B9B9B">
            <path d="M151.111109,346.680621 L151.111109,348.236175 L148.666666,348.236175 C148.317037,348.236175 148,348.553212 148,348.902841 L148,360.902832 C148,361.252461 148.317037,361.569498 148.666666,361.569498 L167.333319,361.569498 C167.682948,361.569498 167.999985,361.252461 167.999985,360.902832 L167.999985,348.902841 C168.002355,348.575434 167.727985,348.269657 167.402652,348.236175 C167.379541,348.23499 167.35643,348.23499 167.333319,348.236175 L164.888876,348.236175 L164.888876,346.680621 C164.895691,346.324177 164.571839,345.996473 164.215395,346.000029 C163.863395,346.003584 163.548729,346.328621 163.555544,346.680621 L163.555544,348.236175 L160.888879,348.236175 L160.888879,346.680621 C160.895694,346.324177 160.571842,345.996473 160.215398,346.000029 C159.863398,346.003584 159.548732,346.328621 159.555547,346.680621 L159.555547,348.236175 L156.444438,348.236175 L156.444438,346.680621 C156.451253,346.324177 156.127401,345.996473 155.770957,346.000029 C155.418957,346.003584 155.104291,346.328621 155.111106,346.680621 L155.111106,348.236175 L152.444441,348.236175 L152.444441,346.680621 C152.451256,346.324177 152.127404,345.996473 151.77096,346.000029 C151.41896,346.003584 151.104294,346.328621 151.111109,346.680621 Z M149.48148,349.555553 L166.8148,349.555553 L166.8148,351.333329 L149.48148,351.333329 L149.48148,349.555553 Z M149.48148,352.81481 L166.8148,352.81481 L166.8148,360.370359 L149.48148,360.370359 L149.48148,352.81481 Z" id="i-calender"></path>
        </g>
    </g>
</svg>