<?xml version="1.0" encoding="UTF-8"?>
<svg width="24px" height="24px" viewBox="0 0 24 24" version="1.1" xmlns="http://www.w3.org/2000/svg" xmlns:xlink="http://www.w3.org/1999/xlink">
    <!-- Generator: Sketch 41.2 (35397) - http://www.bohemiancoding.com/sketch -->
    <title>i-car-green</title>
    <desc>Created with Sketch.</desc>
    <defs></defs>
    <g id="Symbols" stroke="none" stroke-width="1" fill="none" fill-rule="evenodd">
        <g id="i-car-green" fill="#417505">
            <path d="M12,24 C18.62752,24 24,18.62752 24,12 C24,5.37248 18.62752,0 12,0 C5.37248,0 0,5.37248 0,12 C0,18.62752 5.37248,24 12,24 Z M3.5888,11.22112 C3.5888,11.22112 3.83264,11.13984 4.2688,11.01888 L6.35008,5.4688 C6.35008,5.4688 10.6688,4.75008 12.00128,4.75008 C13.33248,4.75008 17.65248,5.4688 17.65248,5.4688 L19.73248,11.01888 C20.16864,11.13984 20.41248,11.22112 20.41248,11.22112 L20.41248,14.51616 L3.5888,14.51616 L3.5888,11.22112 Z M3.5888,15.08512 L20.41248,15.08512 L20.41248,16.7424 L19.76512,16.7424 L19.76512,18.11136 C19.76512,18.4688 19.47488,18.75744 19.11744,18.75744 L17.82368,18.75744 C17.46624,18.75744 17.1776,18.4688 17.1776,18.11136 L17.1776,16.7424 L6.82368,16.7424 L6.82368,18.11136 C6.82368,18.4688 6.53376,18.75744 6.17632,18.75744 L4.88384,18.75744 C4.52512,18.75744 4.23616,18.4688 4.23616,18.11136 L4.23616,16.7424 L3.5888,16.7424 L3.5888,15.08512 Z" id="Fill-1"></path>
            <path d="M16.7024,6.6224 C15.71264,6.46368 12.99872,6.04512 12.00128,6.04512 C11.00128,6.04512 8.28864,6.46496 7.29888,6.62368 L5.81504,10.57248 C5.81504,10.57248 9.74016,9.92736 12,9.92736 C14.25984,9.92736 18.18368,10.57248 18.18368,10.57248 L16.7024,6.6224 Z" id="Fill-2"></path>
            <path d="M7.15744,12.70624 C7.15744,14.16 4.97632,14.16 4.97632,12.70624 C4.97632,11.2512 7.15744,11.2512 7.15744,12.70624" id="Fill-3"></path>
            <path d="M19.02368,12.70624 C19.02368,14.16 16.84256,14.16 16.84256,12.70624 C16.84256,11.2512 19.02368,11.2512 19.02368,12.70624" id="Fill-4"></path>
        </g>
    </g>
</svg>