<?xml version="1.0" encoding="UTF-8"?>
<svg width="24px" height="24px" viewBox="0 0 24 24" version="1.1" xmlns="http://www.w3.org/2000/svg" xmlns:xlink="http://www.w3.org/1999/xlink">
    <!-- Generator: Sketch 41.2 (35397) - http://www.bohemiancoding.com/sketch -->
    <title>i-car-white</title>
    <desc>Created with Sketch.</desc>
    <defs></defs>
    <g id="Symbols" stroke="none" stroke-width="1" fill="none" fill-rule="evenodd">
        <g id="dropdown-4-2-full-unavailable" transform="translate(-303.000000, -31.000000)" fill="#FFFFFF">
            <g id="i-car-white" transform="translate(303.000000, 31.000000)">
                <path d="M12,24 C18.62752,24 24,18.62752 24,12 C24,5.37248 18.62752,0 12,0 C5.37248,0 0,5.37248 0,12 C0,18.62752 5.37248,24 12,24 Z M3.5888,11.22112 C3.5888,11.22112 3.83264,11.13984 4.2688,11.01888 L6.35008,5.4688 C6.35008,5.4688 10.6688,4.75008 12.00128,4.75008 C13.33248,4.75008 17.65248,5.4688 17.65248,5.4688 L19.73248,11.01888 C20.16864,11.13984 20.41248,11.22112 20.41248,11.22112 L20.41248,14.51616 L3.5888,14.51616 L3.5888,11.22112 Z M3.5888,15.08512 L20.41248,15.08512 L20.41248,16.7424 L19.76512,16.7424 L19.76512,18.11136 C19.76512,18.4688 19.47488,18.75744 19.11744,18.75744 L17.82368,18.75744 C17.46624,18.75744 17.1776,18.4688 17.1776,18.11136 L17.1776,16.7424 L6.82368,16.7424 L6.82368,18.11136 C6.82368,18.4688 6.53376,18.75744 6.17632,18.75744 L4.88384,18.75744 C4.52512,18.75744 4.23616,18.4688 4.23616,18.11136 L4.23616,16.7424 L3.5888,16.7424 L3.5888,15.08512 Z" id="Fill-1"></path>
                <path d="M16.88736,6.57728 C15.8976,6.41856 13.18368,6 12.18624,6 C11.18624,6 8.4736,6.41984 7.48384,6.57856 L6,10.52736 C6,10.52736 9.92512,9.88224 12.18496,9.88224 C14.4448,9.88224 18.36864,10.52736 18.36864,10.52736 L16.88736,6.57728 Z" id="Fill-2"></path>
            </g>
        </g>
    </g>
</svg>