<?xml version="1.0" encoding="UTF-8"?>
<svg width="31px" height="28px" viewBox="0 0 31 28" version="1.1" xmlns="http://www.w3.org/2000/svg" xmlns:xlink="http://www.w3.org/1999/xlink">
    <!-- Generator: Sketch 42 (36781) - http://www.bohemiancoding.com/sketch -->
    <title>i-clock</title>
    <desc>Created with Sketch.</desc>
    <defs></defs>
    <g id="Page-1" stroke="none" stroke-width="1" fill="none" fill-rule="evenodd">
        <g id="i-clock">
            <path d="M22.0093689,3 C21.4519098,3 21,3.44335318 21,4.0093689 L21,5.9906311 C21,6.54809015 20.5566468,7 19.9906311,7 L18.0093689,7 C17.4519098,7 17,6.55664682 17,5.9906311 L17,4.0093689 C17,3.45190985 16.5536886,3 16.0024554,3 L8.99754465,3 C8.44661595,3 8,3.44335318 8,4.0093689 L8,5.9906311 C8,6.54809015 7.55664682,7 6.9906311,7 L5.0093689,7 C4.45190985,7 4,6.55664682 4,5.9906311 L4,4.0093689 C4,3.45190985 3.55664682,3 2.9906311,3 L1.0093689,3 C0.451909848,3 -1.08129388e-15,3.45092539 -1.48805774e-15,3.99477117 L-1.42108547e-14,21.0052288 C-1.46217705e-14,21.5546258 0.455262884,22 0.995457033,22 L24.004543,22 C24.5543187,22 25,21.5490746 25,21.0052288 L25,3.99477117 C25,3.44537422 24.5566468,3 23.9906311,3 L22.0093689,3 Z M24,20.0014977 C24,20.5529553 23.5610822,21 22.9969294,21 L2.00307055,21 C1.44908998,21 1,20.5525106 1,20.0014977 L1,8.99850233 C1,8.44704472 1.43891776,8 2.00307055,8 L22.9969294,8 C23.55091,8 24,8.44748943 24,8.99850233 L24,20.0014977 Z M5,1 C5,0.432098 5.4285714,0 6,0 C6.5714286,0 7,0.4054298 7,1 L7,5 C7,5.5675416 6.5714286,6 6,6 C5.4285714,6 5,5.5675416 5,5 L5,1 Z M18,1 C18,0.432098 18.4285714,0 19,0 C19.5714286,0 20,0.4054298 20,1 L20,5 C20,5.5675416 19.5714286,6 19,6 C18.4285714,6 18,5.5675416 18,5 L18,1 Z" id="i-dateicon-grey-copy" fill="#9B9B9B" fill-rule="nonzero"></path>
            <g transform="translate(19.000000, 16.000000)" id="Group-9">
                <g>
                    <path d="M5.5,0 C2.46220741,0 0,2.46220741 0,5.5 C0,8.53779259 2.46220741,11 5.5,11 C8.53779259,11 11,8.53779259 11,5.5 C11,2.46220741 8.53779259,0 5.5,0 Z" id="Fill-1" stroke="#979797" fill="#D8D8D8"></path>
                    <path d="M5.5,0.458333333 C2.71535679,0.458333333 0.458333333,2.71535679 0.458333333,5.5 C0.458333333,8.28464321 2.71535679,10.5416667 5.5,10.5416667 C8.28464321,10.5416667 10.5416667,8.28464321 10.5416667,5.5 C10.5416667,2.71535679 8.28464321,0.458333333 5.5,0.458333333 Z" id="Combined-Shape" fill="#FFFFFF"></path>
                    <path d="M5.52118024,5.32200747 C4.92806727,4.81158316 2.5459965,2.77028016 2.47126498,2.84501168 C2.39013388,2.92614279 5.33897039,5.76841533 5.33897039,5.76841533 C5.42630846,5.85283415 5.57434992,5.84402916 5.66362307,5.75475601 C5.68149517,5.73688391 5.69565083,5.71703129 5.70616048,5.69604113 L7.45912741,3.86594268 C7.54322471,3.77814505 7.53016932,3.76973428 7.43581961,3.84263488 L5.52118024,5.32200747 Z" id="Combined-Shape" fill="#9B9B9B"></path>
                </g>
            </g>
        </g>
    </g>
</svg>