<?xml version="1.0" encoding="UTF-8" standalone="no"?>
<svg width="15px" height="15px" viewBox="0 0 15 15" version="1.1" xmlns="http://www.w3.org/2000/svg" xmlns:xlink="http://www.w3.org/1999/xlink">
    <!-- Generator: Sketch 39.1 (31720) - http://www.bohemiancoding.com/sketch -->
    <title>i-list-white</title>
    <desc>Created with Sketch.</desc>
    <defs></defs>
    <g id="Page-2" stroke="none" stroke-width="1" fill="none" fill-rule="evenodd">
        <g id="2---Bus-Stops---List-View" transform="translate(-285.000000, -117.000000)" fill="#FFFFFF">
            <g id="Group-2" transform="translate(268.000000, 107.000000)">
                <g id="Group-3" transform="translate(17.000000, 8.000000)">
                    <path d="M4.09090909,3.42857143 L14.4886364,3.42857143 C14.7709091,3.42857143 15,3.10857143 15,2.71428571 C15,2.32 14.7709091,2 14.4886364,2 L4.09090909,2 C3.80863636,2 3.57954545,2.32 3.57954545,2.71428571 C3.57954545,3.10857143 3.80863636,3.42857143 4.09090909,3.42857143 L4.09090909,3.42857143 Z M1.70454545,2 L0.511363636,2 C0.229090909,2 0,2.32 0,2.71428571 C0,3.10857143 0.229090909,3.42857143 0.511363636,3.42857143 L1.70454545,3.42857143 C1.98681818,3.42857143 2.21590909,3.10857143 2.21590909,2.71428571 C2.21590909,2.32 1.98681818,2 1.70454545,2 L1.70454545,2 Z M4.09090909,8.9047619 C3.80863636,8.9047619 3.57954545,9.2247619 3.57954545,9.61904762 C3.57954545,10.0133333 3.80863636,10.3333333 4.09090909,10.3333333 L14.4886364,10.3333333 C14.7709091,10.3333333 15,10.0133333 15,9.61904762 C15,9.2247619 14.7709091,8.9047619 14.4886364,8.9047619 L4.09090909,8.9047619 Z M1.70454545,8.9047619 L0.511363636,8.9047619 C0.229090909,8.9047619 0,9.2247619 0,9.61904762 C0,10.0133333 0.229090909,10.3333333 0.511363636,10.3333333 L1.70454545,10.3333333 C1.98681818,10.3333333 2.21590909,10.0133333 2.21590909,9.61904762 C2.21590909,9.2247619 1.98681818,8.9047619 1.70454545,8.9047619 L1.70454545,8.9047619 Z M14.4886364,15.5714286 L4.09090909,15.5714286 C3.80863636,15.5714286 3.57954545,15.8914286 3.57954545,16.2857143 C3.57954545,16.68 3.80863636,17 4.09090909,17 L14.4886364,17 C14.7709091,17 15,16.68 15,16.2857143 C15,15.8914286 14.7709091,15.5714286 14.4886364,15.5714286 L14.4886364,15.5714286 Z M1.70454545,15.5714286 L0.511363636,15.5714286 C0.229090909,15.5714286 0,15.8914286 0,16.2857143 C0,16.68 0.229090909,17 0.511363636,17 L1.70454545,17 C1.98681818,17 2.21590909,16.68 2.21590909,16.2857143 C2.21590909,15.8914286 1.98681818,15.5714286 1.70454545,15.5714286 L1.70454545,15.5714286 Z" id="i-list-white"></path>
                </g>
            </g>
        </g>
    </g>
</svg>