<?xml version="1.0" encoding="UTF-8" standalone="no"?>
<svg width="15px" height="15px" viewBox="0 0 15 15" version="1.1" xmlns="http://www.w3.org/2000/svg" xmlns:xlink="http://www.w3.org/1999/xlink">
    <!-- Generator: Sketch 39.1 (31720) - http://www.bohemiancoding.com/sketch -->
    <title>i-list-blue</title>
    <desc>Created with Sketch.</desc>
    <defs></defs>
    <g id="Page-2" stroke="none" stroke-width="1" fill="none" fill-rule="evenodd">
        <g id="3---Bus-Stops-Map" transform="translate(-285.000000, -117.000000)" fill="#194D8A">
            <g id="Group-2" transform="translate(268.000000, 107.000000)">
                <g id="Group-3" transform="translate(17.000000, 10.000000)">
                    <path d="M4.09090909,1.42857143 L14.4886364,1.42857143 C14.7709091,1.42857143 15,1.10857143 15,0.714285714 C15,0.32 14.7709091,0 14.4886364,0 L4.09090909,0 C3.80863636,0 3.57954545,0.32 3.57954545,0.714285714 C3.57954545,1.10857143 3.80863636,1.42857143 4.09090909,1.42857143 L4.09090909,1.42857143 Z M1.70454545,0 L0.511363636,0 C0.229090909,0 0,0.32 0,0.714285714 C0,1.10857143 0.229090909,1.42857143 0.511363636,1.42857143 L1.70454545,1.42857143 C1.98681818,1.42857143 2.21590909,1.10857143 2.21590909,0.714285714 C2.21590909,0.32 1.98681818,0 1.70454545,0 L1.70454545,0 Z M4.09090909,6.9047619 C3.80863636,6.9047619 3.57954545,7.2247619 3.57954545,7.61904762 C3.57954545,8.01333333 3.80863636,8.33333333 4.09090909,8.33333333 L14.4886364,8.33333333 C14.7709091,8.33333333 15,8.01333333 15,7.61904762 C15,7.2247619 14.7709091,6.9047619 14.4886364,6.9047619 L4.09090909,6.9047619 Z M1.70454545,6.9047619 L0.511363636,6.9047619 C0.229090909,6.9047619 0,7.2247619 0,7.61904762 C0,8.01333333 0.229090909,8.33333333 0.511363636,8.33333333 L1.70454545,8.33333333 C1.98681818,8.33333333 2.21590909,8.01333333 2.21590909,7.61904762 C2.21590909,7.2247619 1.98681818,6.9047619 1.70454545,6.9047619 L1.70454545,6.9047619 Z M14.4886364,13.5714286 L4.09090909,13.5714286 C3.80863636,13.5714286 3.57954545,13.8914286 3.57954545,14.2857143 C3.57954545,14.68 3.80863636,15 4.09090909,15 L14.4886364,15 C14.7709091,15 15,14.68 15,14.2857143 C15,13.8914286 14.7709091,13.5714286 14.4886364,13.5714286 L14.4886364,13.5714286 Z M1.70454545,13.5714286 L0.511363636,13.5714286 C0.229090909,13.5714286 0,13.8914286 0,14.2857143 C0,14.68 0.229090909,15 0.511363636,15 L1.70454545,15 C1.98681818,15 2.21590909,14.68 2.21590909,14.2857143 C2.21590909,13.8914286 1.98681818,13.5714286 1.70454545,13.5714286 L1.70454545,13.5714286 Z" id="i-list-blue"></path>
                </g>
            </g>
        </g>
    </g>
</svg>