<?xml version="1.0" encoding="UTF-8"?>
<svg width="25px" height="17px" viewBox="0 0 25 17" version="1.1" xmlns="http://www.w3.org/2000/svg" xmlns:xlink="http://www.w3.org/1999/xlink">
    <!-- Generator: Sketch 42 (36781) - http://www.bohemiancoding.com/sketch -->
    <title>i-phone</title>
    <desc>Created with Sketch.</desc>
    <defs></defs>
    <g id="ONEMV-ASSET-SHEET" stroke="none" stroke-width="1" fill="none" fill-rule="evenodd">
        <g id="icons-grey" transform="translate(-121.000000, -106.000000)" fill="#9B9B9B">
            <path d="M145.777274,110.695649 C145.961556,111.467538 146.173457,113.136076 145.768227,113.926536 C145.663943,114.036534 145.553945,114.160817 145.440614,114.277958 C144.674439,114.757948 143.080186,114.70033 142.07973,114.458431 C141.441647,114.298434 140.744042,113.91368 140.431668,113.392738 C139.933106,112.56704 140.379288,110.794219 139.895964,109.804715 C139.555495,109.116157 138.545515,108.725689 137.63601,108.493313 C135.117489,107.844278 130.202826,107.808565 128.210962,108.915685 C127.790494,109.151871 127.318122,109.603766 127.13384,109.987092 C126.730039,110.833265 127.055747,112.278474 126.704325,113.104648 C126.335761,113.991773 125.340543,114.495573 123.982952,114.594142 C123.032495,114.670807 121.771091,114.67795 121.330148,114.09939 C120.75016,113.347977 121.064439,111.527061 121.293006,110.656602 C121.590619,109.536625 122.039181,108.608548 122.440602,107.814279 C128.188581,105.375756 138.796463,105.414803 144.551585,107.814279 C145.048241,108.731403 145.489185,109.527577 145.777274,110.695649 Z M143.158279,122.172085 L123.876763,122.172085 C123.927238,120.820207 123.748671,119.648326 124.094378,118.656917 C124.302945,118.057882 124.665319,117.527892 125.071025,117.033141 C125.104358,116.995522 125.143404,116.954571 125.175309,116.915524 C125.567682,116.445057 125.988149,116.009828 126.350523,115.572694 C127.185744,114.558905 127.972871,113.591781 128.749998,112.622753 L128.749998,110.494701 C128.749998,110.437083 128.774284,110.401846 128.826664,110.386608 L131.151379,110.386608 C131.187092,110.991358 131.07138,111.744676 131.22233,112.235618 C131.850888,112.421805 132.673253,112.339902 133.484189,112.339902 C134.276554,112.339902 135.115584,112.395615 135.775571,112.267522 C135.956044,111.787532 135.758905,110.931835 135.885569,110.388513 L138.249807,110.388513 C138.372185,111.095641 138.08981,111.832293 138.249807,112.555612 C138.294092,112.764179 138.61599,113.087506 138.822653,113.33512 C139.89406,114.629856 140.807374,115.706501 141.865448,117.027426 C142.263536,117.516464 142.784477,118.059786 142.981616,118.585966 C143.348276,119.583089 143.057805,120.712114 143.158279,122.172085 Z" id="i-phone"></path>
        </g>
    </g>
</svg>