<?xml version="1.0" encoding="UTF-8"?>
<svg width="9px" height="21px" viewBox="0 0 9 21" version="1.1" xmlns="http://www.w3.org/2000/svg" xmlns:xlink="http://www.w3.org/1999/xlink">
    <!-- Generator: Sketch 44 (41411) - http://www.bohemiancoding.com/sketch -->
    <title>i-pinned</title>
    <desc>Created with Sketch.</desc>
    <defs>
        <path d="M7.5,9 L7.5,1.5 L1.5,1.5 L1.5,9 L0,9 L0,10.5 L9,10.5 L9,9 L7.5,9 Z M0,0 L9,0 L9,1.5 L0,1.5 L0,0 Z" id="path-1"></path>
        <polygon id="path-2" points="3.375 10.5 5.625 10.5 4.5 21"></polygon>
        <rect id="path-3" x="1.875" y="1.5" width="5.25" height="7.5"></rect>
        <rect id="path-4" x="0.375" y="9.375" width="8.25" height="1"></rect>
        <rect id="path-5" x="0.375" y="0.375" width="8.25" height="1"></rect>
    </defs>
    <g id="Symbols" stroke="none" stroke-width="1" fill="none" fill-rule="evenodd">
        <g id="Artboard" transform="translate(-12.000000, -19.000000)">
            <g id="i-pinned" transform="translate(12.000000, 19.000000)">
                <g id="Combined-Shape">
                    <use fill="#F76F1E" fill-rule="evenodd" xlink:href="#path-1"></use>
                    <path stroke="#F76F1E" stroke-width="0.5" d="M8.75,9.25 L9,9.25 L8.75,9 L8.75,9.25 Z M8.75,10.25 L8.75,10.5 L9,10.25 L8.75,10.25 Z M0.25,10.25 L0,10.25 L0.25,10.5 L0.25,10.25 Z M0.25,9.25 L0.25,9 L0,9.25 L0.25,9.25 Z M1.75,1.75 L1.75,1.5 L1.5,1.75 L1.75,1.75 Z M7.25,1.75 L7.5,1.75 L7.25,1.5 L7.25,1.75 Z M8.75,9.25 L8.75,10.25 L0.25,10.25 L0.25,9.25 L1.75,9.25 L1.75,1.75 L7.25,1.75 L7.25,9.25 L8.75,9.25 Z M0.25,0.25 L0.25,1.25 L8.75,1.25 L8.75,0.25 L0.25,0.25 Z"></path>
                </g>
                <g id="Rectangle-12">
                    <use fill="#F76F1E" fill-rule="evenodd" xlink:href="#path-2"></use>
                    <path stroke="#F76F1E" stroke-width="0.5" d="M3.65321657,10.75 L4.5,18.653312 L5.34678343,10.75 L3.65321657,10.75 Z"></path>
                </g>
                <g id="Rectangle-13">
                    <use fill="#F76F1E" fill-rule="evenodd" xlink:href="#path-3"></use>
                    <rect stroke="#F76F1E" stroke-width="0.5" x="2.125" y="1.75" width="4.75" height="7"></rect>
                </g>
                <g id="Rectangle-8">
                    <use fill="#F76F1E" fill-rule="evenodd" xlink:href="#path-4"></use>
                    <rect stroke="#F76F1E" stroke-width="0.5" x="0.625" y="9.625" width="7.75" height="1"></rect>
                </g>
                <g id="Rectangle-8">
                    <use fill="#F76F1E" fill-rule="evenodd" xlink:href="#path-5"></use>
                    <rect stroke="#F76F1E" stroke-width="0.5" x="0.625" y="0.625" width="7.75" height="1"></rect>
                </g>
            </g>
        </g>
    </g>
</svg>