<?xml version="1.0" encoding="UTF-8" standalone="no"?>
<svg width="14px" height="15px" viewBox="0 0 14 15" version="1.1" xmlns="http://www.w3.org/2000/svg" xmlns:xlink="http://www.w3.org/1999/xlink">
    <!-- Generator: Sketch 39.1 (31720) - http://www.bohemiancoding.com/sketch -->
    <title>i-seats</title>
    <desc>Created with Sketch.</desc>
    <defs></defs>
    <g id="Symbols" stroke="none" stroke-width="1" fill="none" fill-rule="evenodd">
        <g id="bus-schedual" transform="translate(-236.000000, -25.000000)" fill="#D1D1D1">
            <g id="i-seats" transform="translate(236.000000, 25.000000)">
                <path d="M13.1530435,8.41543478 C12.8608696,8.13 12.3591304,7.70978261 12.1806522,7.25630435 C12.0023913,6.80282609 11.5319565,2.40326087 11.4352174,1.73152174 C11.3382609,1.05978261 10.8032609,0.354130435 9.78173913,0.286956522 C9.17130435,0.247173913 8.04,0.183478261 6.84782609,0.163043478 C5.65565217,0.183478261 4.52434783,0.247173913 3.91391304,0.286956522 C2.8923913,0.354130435 2.3573913,1.05978261 2.26043478,1.73152174 C2.16369565,2.40326087 1.69326087,6.80282609 1.515,7.25630435 C1.33652174,7.70978261 0.833913043,8.12934783 0.542608696,8.41543478 C0.250434783,8.70065217 -0.0569565217,8.97 0.169782609,10.3804348 C0.396521739,11.7908696 0.686956522,12.0865217 0.931521739,12.1271739 C1.63891304,12.2443478 12.1017391,12.2443478 12.765,12.1271739 C13.0095652,12.083913 13.3,11.7908696 13.5267391,10.3804348 C13.7534783,8.96913043 13.4452174,8.70065217 13.1530435,8.41543478 L13.1530435,8.41543478 Z M10.9104348,9.2876087 C10.2097826,9.42434783 8.54869565,9.42434783 6.90130435,9.42434783 C5.25391304,9.42434783 3.18782609,9.5176087 2.68521739,9.13630435 C2.16456522,8.74152174 3.1776087,7.68086957 3.57673913,6.93282609 C3.57673913,6.93282609 5.21391304,7.8226087 6.90043478,7.8226087 C8.58695652,7.8226087 10.0993478,6.93282609 10.0993478,6.93282609 C10.0993478,6.93282609 11.9845652,9.07956522 10.9104348,9.2876087 L10.9104348,9.2876087 Z" id="Fill-1"></path>
                <polygon id="Fill-2" points="3.11130435 14.8369565 10.5841304 14.8369565 10.5841304 13.0934783 3.11130435 13.0934783"></polygon>
            </g>
        </g>
    </g>
</svg>