<?xml version="1.0" encoding="UTF-8" standalone="no"?>
<svg width="49px" height="50px" viewBox="0 0 49 50" version="1.1" xmlns="http://www.w3.org/2000/svg" xmlns:xlink="http://www.w3.org/1999/xlink">
    <!-- Generator: Sketch 39.1 (31720) - http://www.bohemiancoding.com/sketch -->
    <title>icon-search-large</title>
    <desc>Created with Sketch.</desc>
    <defs></defs>
    <g id="Page-2" stroke="none" stroke-width="1" fill="none" fill-rule="evenodd">
        <g id="1---Dashboard-" transform="translate(-155.000000, -94.000000)" fill="#FFFFFF">
            <g id="Group" transform="translate(62.000000, 94.000000)">
                <path d="M112.65191,0 C107.620222,0 102.588534,1.92972841 98.7422003,5.7704044 C91.0859332,13.4695982 91.0859332,25.9522647 98.7422003,33.6514585 C106.139929,41.0539154 117.978536,41.3102735 125.692671,34.4177156 L141.042539,49.8348839 C141.260943,50.0518023 141.632416,50.0518023 141.833086,49.8536647 C142.052423,49.6555272 142.052423,49.2630082 141.851753,49.0648706 L126.484151,33.6514585 C126.502818,33.6326776 126.502818,33.6326776 126.524285,33.6326776 C134.180552,25.9334839 134.199219,13.4695982 126.542952,5.7704044 C122.714352,1.92972841 117.682664,0 112.65191,0 L112.65191,0 Z M125.751472,6.55825946 C132.992398,13.8254946 132.992398,25.5813437 125.751472,32.8476397 C118.510545,40.1148748 106.788607,40.1148748 99.5486143,32.8476397 C92.3076879,25.5813437 92.3076879,13.8254946 99.5486143,6.55825946 C103.161611,2.9129039 107.918894,1.10431173 112.65191,1.10431173 C117.387726,1.10431173 122.142209,2.91572102 125.751472,6.55825946 Z" id="icon-search-large"></path>
            </g>
        </g>
    </g>
</svg>