<?xml version="1.0" encoding="UTF-8" standalone="no"?>
<svg width="20px" height="21px" viewBox="0 0 20 21" version="1.1" xmlns="http://www.w3.org/2000/svg" xmlns:xlink="http://www.w3.org/1999/xlink">
    <!-- Generator: Sketch 39.1 (31720) - http://www.bohemiancoding.com/sketch -->
    <title>icon-search</title>
    <desc>Created with Sketch.</desc>
    <defs></defs>
    <g id="Page-1" stroke="none" stroke-width="1" fill="none" fill-rule="evenodd">
        <g id="1---Mobile-Portrait" transform="translate(-8.000000, -53.000000)" fill="#000000">
            <path d="M15.9610289,53 C13.9226819,53 11.8843348,53.7766934 10.3261771,55.3225213 C7.22460764,58.421358 7.22460764,63.4454874 10.3261771,66.5443241 C13.3230123,69.5237277 18.1188562,69.6269089 21.2438679,66.8527338 L27.4621309,73.0579663 C27.5506067,73.1452735 27.7010913,73.1452735 27.7823832,73.0655254 C27.8712371,72.9857773 27.8712371,72.8277929 27.7899452,72.7480449 L21.5644983,66.5443241 C21.5720603,66.5367651 21.5720603,66.5367651 21.5807567,66.5367651 C24.6823261,63.4379283 24.6898882,58.421358 21.5883187,55.3225213 C20.0373449,53.7766934 17.9989979,53 15.9610289,53 L15.9610289,53 Z M21.2676883,55.6396238 C24.2010025,58.5646022 24.2010025,63.2961959 21.2676883,66.2207963 C18.3343742,69.1457747 13.5857931,69.1457747 10.6528571,66.2207963 C7.71954296,63.2961959 7.71954296,58.5646022 10.6528571,55.6396238 C12.1164893,54.1724102 14.0436744,53.4444727 15.9610289,53.4444727 C17.8795177,53.4444727 19.8055685,54.1735441 21.2676883,55.6396238 Z" id="icon-search"></path>
        </g>
    </g>
</svg>