<?xml version="1.0" encoding="UTF-8"?>
<svg width="22px" height="20px" viewBox="0 0 22 20" version="1.1" xmlns="http://www.w3.org/2000/svg" xmlns:xlink="http://www.w3.org/1999/xlink">
    <!-- Generator: Sketch 40.1 (33804) - http://www.bohemiancoding.com/sketch -->
    <title>icon-warning</title>
    <desc>Created with Sketch.</desc>
    <defs></defs>
    <g id="Page-1" stroke="none" stroke-width="1" fill="none" fill-rule="evenodd">
        <g id="Icons-sample" transform="translate(-12.000000, -177.000000)" fill="#184D8A">
            <path d="M12.3904871,196.999982 C12.2507139,196.998605 12.121613,196.921833 12.0513821,196.800994 C11.9828726,196.682566 11.9828726,196.538661 12.0513821,196.420233 L22.4992579,177.199006 C22.5718987,177.075413 22.7065078,176.998641 22.8504123,177.000018 C22.9915626,177.004149 23.1206635,177.079544 23.1946813,177.199006 L33.6394586,196.420233 C33.7083124,196.537284 33.7083124,196.683943 33.6394586,196.800994 C33.5668179,196.924587 33.432553,197.001359 33.2886485,196.999982 L12.3904871,196.999982 Z M13.0587133,196.209196 L32.6283406,196.209196 L22.8435269,178.219763 L13.0587133,196.209196 Z M22.2961392,193.773837 C21.8472124,193.335238 22.1591201,192.57165 22.7870668,192.57165 C23.1688611,192.570272 23.4811131,192.875295 23.4876542,193.257433 C23.5010807,193.88538 22.7454102,194.213468 22.2961392,193.773837 Z M22.3794523,190.65235 L22.3794523,183.834447 C22.3794523,183.611016 22.5639805,183.43234 22.7870668,183.440258 C23.0077432,183.437504 23.1905501,183.612393 23.1946813,183.834447 L23.1946813,190.65235 C23.1919271,190.874403 23.0091203,191.053079 22.7870668,191.049292 C22.5639805,191.05721 22.3780752,190.877158 22.3794523,190.65235 Z" id="icon-warning"></path>
        </g>
    </g>
</svg>