<svg xmlns="http://www.w3.org/2000/svg" xmlns:xlink="http://www.w3.org/1999/xlink" width="62" height="62" viewBox="0 0 62 62">
  <defs>
    <polygon id="lawence-transit-a" points=".158 .101 61.931 .101 61.931 61.874 .158 61.874"/>
  </defs>
  <g fill="none" fill-rule="evenodd" transform="matrix(1 0 0 -1 .106 62.139)">
    <mask id="lawence-transit-b" fill="#fff">
      <use xlink:href="#lawence-transit-a"/>
    </mask>
    <g mask="url(#lawence-transit-b)">
      <g transform="translate(.706 .353)">
        <path fill="#009BA0" fill-rule="nonzero" d="M30.3388882,60.6777764 C47.0048156,60.6777764 60.5158514,47.1667406 60.5158514,30.5008132 C60.5158514,13.834533 47.0048156,0.323497215 30.3388882,0.323497215 C13.672608,0.323497215 0.161924996,13.834533 0.161924996,30.5008132 C0.161924996,47.1667406 13.672608,60.6777764 30.3388882,60.6777764" transform="translate(0 .135)"/>
        <path stroke="#FABD14" stroke-width="1.419" d="M30.3388882,60.6777764 C47.0048156,60.6777764 60.5158514,47.1667406 60.5158514,30.5008132 C60.5158514,13.834533 47.0048156,0.323497215 30.3388882,0.323497215 C13.672608,0.323497215 0.161924996,13.834533 0.161924996,30.5008132 C0.161924996,47.1667406 13.672608,60.6777764 30.3388882,60.6777764 Z" transform="translate(0 .135)"/>
        <path fill="#FABD14" fill-rule="nonzero" d="M19.7555551,39.1583325 C30.488466,39.1583325 39.1897297,30.4570688 39.1897297,19.7241579 C39.1897297,8.99124702 30.488466,0.290336105 19.7555551,0.290336105 C9.02264425,0.290336105 0.321733326,8.99124702 0.321733326,19.7241579 C0.321733326,30.4570688 9.02264425,39.1583325 19.7555551,39.1583325" transform="translate(10.602 11.42)"/>
        <path stroke="#FFF" stroke-width="1.448" d="M19.7555551,39.1583325 C30.488466,39.1583325 39.1897297,30.4570688 39.1897297,19.7241579 C39.1897297,8.99124702 30.488466,0.290336105 19.7555551,0.290336105 C9.02264425,0.290336105 0.321733326,8.99124702 0.321733326,19.7241579 C0.321733326,30.4570688 9.02264425,39.1583325 19.7555551,39.1583325 Z" transform="translate(10.602 11.42)"/>
        <polygon fill="#FABD14" points="4.233 1.764 3.828 2.302 2.571 1.355 .884 3.592 .115 3.013 2.207 .237" transform="translate(13.575 47.745)"/>
        <path fill="#FABD14" d="M1.05833331,2.11666662 L0.796924982,3.61314992 L0.809624982,3.62020548 L1.87854163,2.55305272 L1.05833331,2.11666662 Z M1.27670275,0.700969429 L1.15781664,1.40617219 L2.40347495,2.06868884 L2.9262916,1.57762219 L3.88655269,2.0884444 L1.04351664,4.51308601 L0.00634999986,3.96169436 L0.426861102,0.24835555 L1.27670275,0.700969429 Z" transform="translate(17.86 49.648)"/>
        <polygon fill="#FABD14" points="2.822 .353 2.77 3.005 2.779 3.008 4.022 .674 5.138 .973 4.815 4.485 3.973 4.259 4.317 1.75 4.307 1.748 3.164 4.043 2.025 3.738 2.136 1.146 2.127 1.143 1.165 3.507 .239 3.259 1.711 .055" transform="translate(21.012 52.028)"/>
        <path fill="#FABD14" d="M1.41111108,1.41111108 L1.77129718,1.4361583 C2.26095273,1.47073052 2.29234995,1.29928053 2.36008328,0.883708314 C2.4010055,0.64064443 2.44721939,0.392994436 2.51706939,0.15663333 L3.55917492,0.22930555 C3.4579277,0.502355544 3.38596104,0.772230539 3.34186382,1.05868609 C3.24167493,1.59208608 3.10479715,1.89618051 2.48884717,1.86760551 L2.48778883,1.88700829 C2.96862493,1.97873051 3.34821382,2.28000273 3.3118777,2.79893883 C3.26037215,3.53342214 2.49061106,3.6389027 1.90464718,3.59798048 L0.300919438,3.48579715 L0.543277766,0.018344444 L1.50389163,0.0857249981 L1.41111108,1.41111108 Z M1.36383886,2.08350551 L1.30809997,2.88043049 L1.68274996,2.90688882 C1.9900194,2.92840827 2.29093884,2.90583049 2.31563328,2.5502305 C2.3406805,2.19533606 2.04575829,2.13113051 1.73848885,2.10961106 L1.36383886,2.08350551 Z" transform="translate(27.026 53.183)"/>
        <polygon fill="#FABD14" points="2.822 0 2.904 .669 1.232 .875 1.322 1.605 2.86 1.416 2.943 2.086 1.404 2.274 1.491 2.987 3.164 2.781 3.246 3.45 .618 3.773 .194 .323" transform="translate(31.343 53.041)"/>
        <polygon fill="#FABD14" points="0 1.058 .829 .805 1.607 3.351 1.616 3.348 1.966 .458 3.241 .068 4.257 3.392 3.429 3.645 2.674 1.177 2.662 1.171 2.305 3.988 1.016 4.382" transform="translate(35.187 51.846)"/>
        <path fill="#FABD14" d="M3.88055547,1.76388885 C4.30459435,2.5311805 3.70063881,3.17888049 2.95663049,3.57469714 C1.99566384,4.07493602 1.18498053,3.79130269 0.638527764,2.76260272 C0.0913694424,1.73425552 0.300919438,0.886883314 1.25694719,0.378177769 C2.00060273,-0.0172861107 2.8850166,-0.138641664 3.28365548,0.642055541 L2.39112773,1.11654164 C2.21791384,0.832555537 1.93075274,0.783166649 1.57303608,0.973313867 C1.09325831,1.22872497 1.27564442,1.80763329 1.51306386,2.25424995 C1.75718607,2.71286105 2.15123884,3.23955826 2.64018883,2.97956105 C2.98873327,2.79399994 3.11326382,2.52659439 2.98767493,2.23872773 L3.88055547,1.76388885" transform="translate(39.556 50.33)"/>
        <polygon fill="#FABD14" points="2.117 0 2.522 .538 1.177 1.552 1.62 2.141 2.857 1.208 3.264 1.746 2.025 2.679 2.457 3.252 3.803 2.238 4.208 2.776 2.094 4.37 .002 1.593" transform="translate(43.16 47.829)"/>
        <polygon fill="#FFF" points="0 .706 .865 .284 2.093 2.802 3.071 2.325 3.367 2.931 .567 4.296 .272 3.69 1.228 3.224" transform="translate(18.048 6.877)"/>
        <path fill="#FFF" d="M1.41111108,2.11666662 L1.75471663,2.00554162 C2.2217944,1.8534944 2.18616384,1.68274996 2.09338329,1.27211664 C2.04046662,1.03116942 1.99072496,0.78457776 1.96673607,0.539044433 L2.96015827,0.216605551 C2.96862493,0.506941655 3.00319716,0.78457776 3.0691666,1.06679998 C3.17641104,1.59878885 3.16335826,1.93216385 2.58162772,2.1360694 L2.58762494,2.15441384 C3.06810827,2.05916384 3.53271659,2.1963944 3.69358325,2.69098883 C3.92112491,3.39160548 3.24661382,3.77754436 2.68816661,3.95922491 L1.15887497,4.45628879 L0.0846666648,1.15040831 L1.00047776,0.853016648 L1.41111108,2.11666662 Z M1.61960274,2.75731105 L1.8661944,3.51754714 L2.22355828,3.40148326 C2.51636383,3.30623326 2.78694438,3.17288326 2.67687772,2.8342166 C2.56681105,2.49519717 2.26941939,2.54634994 1.97661385,2.64195272 L1.61960274,2.75731105 Z" transform="translate(21.08 5.005)"/>
        <path fill="#FFF" d="M1.76388885,1.76388885 L2.40806106,3.13972215 L2.42252495,3.13795826 L2.68604994,1.65064719 L1.76388885,1.76388885 Z M1.13065275,0.478366656 L1.43792219,1.12500831 L2.83809716,0.952852757 L2.98449993,0.25153055 L4.06435269,0.118180553 L3.1263166,3.73556381 L1.96038607,3.8784388 L0.174977774,0.596194431 L1.13065275,0.478366656 Z" transform="translate(25.244 4.317)"/>
        <polygon fill="#FFF" points=".353 0 1.216 .076 .984 2.728 .993 2.729 2.4 .179 3.729 .296 3.426 3.758 2.563 3.683 2.788 1.112 2.779 1.102 1.393 3.58 .05 3.463" transform="translate(30.616 4.448)"/>
        <path fill="#FFF" d="M3.17499993,3.17499993 C3.01378049,3.99873602 2.23625828,4.05482769 1.54340274,3.86926658 C0.841022204,3.68088325 0.202141662,3.27554159 0.378177769,2.47050272 C0.475544434,2.1074944 0.724958317,1.84573329 1.1045472,1.78752496 C1.9201694,1.66264163 2.58233328,1.94486385 2.70439438,1.48942774 C2.76436661,1.26611942 2.51989161,1.08055831 2.30610828,1.02305553 C1.97132218,0.933449979 1.69227496,1.04351664 1.61254719,1.36101664 L0.682624985,1.11160275 C0.940505535,0.204258329 1.6901583,0.160513885 2.47120828,0.370063881 C3.24767215,0.577849987 3.85550825,1.09996109 3.66606659,1.80657496 C3.4230027,2.71321383 2.58974161,2.54952494 1.98860829,2.54317494 C1.72437774,2.54211661 1.40581941,2.54176383 1.33984997,2.78800272 C1.29469442,2.95521938 1.44321386,3.14501382 1.65734996,3.20216382 C1.81574718,3.24449715 1.94627496,3.23955826 2.04434718,3.19087493 C2.14629995,3.14395549 2.21438606,3.05752493 2.24472495,2.92558605 L3.17499993,3.17499993" transform="translate(35.017 5.032)"/>
        <polygon fill="#FFF" points="2.469 .706 1.056 3.881 .176 3.489 1.59 .314" transform="translate(38.848 6.167)"/>
        <polygon fill="#FFF" points="2.822 0 3.647 .496 2.205 2.898 3.137 3.458 2.79 4.035 .12 2.431 .467 1.853 1.379 2.402" transform="translate(40.603 7.958)"/>
        <path fill="#FABD14" d="M2.46944439,3.5277777 C1.89618051,4.14125824 1.20685275,3.77683881 0.717902762,3.25190548 C0.222249995,2.72026938 -0.104774998,2.0376444 0.471311101,1.44850552 C0.745419428,1.19203608 1.09643331,1.10207775 1.44850552,1.25447775 C2.20733051,1.58044441 2.61902216,2.17064162 2.96403882,1.84890829 C3.1326666,1.69121663 3.02365827,1.40476108 2.87302216,1.24248331 C2.63666105,0.989541645 2.34209162,0.934508313 2.10573051,1.16134442 L1.44921108,0.45719999 C2.14912217,-0.175330552 2.80775827,0.184502774 3.35914993,0.776111094 C3.90736658,1.36419164 4.14654991,2.12866106 3.61138603,2.62748883 C2.92452771,3.26778048 2.30504995,2.68746105 1.79810829,2.36325828 C1.57479997,2.22249995 1.30492497,2.05281384 1.11830553,2.22708606 C0.991658311,2.34491384 1.01741109,2.58480272 1.16839997,2.74672772 C1.27987775,2.86631938 1.39382497,2.93158327 1.50212774,2.9421666 C1.61431108,2.95627771 1.71767496,2.91888327 1.81257218,2.82363327 L2.46944439,3.5277777" transform="translate(46.347 12.048)"/>
        <polygon fill="#FABD14" points="3.881 0 4.391 .816 3.313 1.49 2.165 3.814 1.639 2.973 2.461 1.534 .821 1.662 .229 .715 2.803 .673" transform="translate(48.588 16.457)"/>
        <path fill="#FABD14" d="M1.76388885,3.5277777 C1.00259442,3.88196658 0.500238878,3.28577215 0.243416661,2.61619994 C-0.0172861107,1.93745551 -0.0649111097,1.18215831 0.68968054,0.851252759 C1.04069442,0.716844429 1.39911664,0.764469428 1.66899163,1.03751942 C2.25001662,1.62418885 2.41088328,2.32515828 2.85114994,2.15688329 C3.06740271,2.07362773 3.07304715,1.76706385 2.99402493,1.56033608 C2.86949438,1.23648608 2.6169055,1.0759722 2.31316384,1.19768053 L1.96814718,0.299155549 C2.85432494,-0.0257527772 3.32951659,0.554919432 3.61949992,1.30986386 C3.90736658,2.06022218 3.84280825,2.85855827 3.15947771,3.12102493 C2.28353051,3.45722215 1.92546107,2.68710827 1.57762219,2.19709995 C1.4234583,1.98296385 1.23648608,1.72402496 0.998008311,1.81574718 C0.836083315,1.87783607 0.770819427,2.10961106 0.849841648,2.31633884 C0.908755536,2.46909161 0.989541645,2.57210272 1.08620275,2.62254994 C1.18427497,2.67758327 1.29469442,2.68181661 1.41887219,2.62889994 L1.76388885,3.5277777" transform="translate(51.452 20.07)"/>
        <polygon fill="#FABD14" points="3.881 .706 4.065 1.651 1.314 2.185 1.522 3.253 .86 3.382 .266 .324 .927 .195 1.13 1.24" transform="translate(52.322 24.756)"/>
        <polygon fill="#FABD14" points="3.528 2.822 2.854 2.834 2.824 1.149 2.088 1.162 2.115 2.712 1.441 2.724 1.414 1.174 .697 1.186 .726 2.871 .052 2.883 .006 .236 3.481 .175" transform="translate(53.245 29.088)"/>
        <polygon fill="#FABD14" points="4.233 1.764 1.355 1.204 1.344 1.212 4.086 2.525 3.92 3.375 .901 3.617 .908 3.628 3.763 4.184 3.603 5.01 .19 4.347 .476 2.878 2.892 2.788 2.893 2.778 .691 1.772 .982 .274 4.394 .937" transform="translate(52.243 33.035)"/>
        <polygon fill="#009BA0" points="0 17.286 1.199 16.54 18.899 16.518 18.899 .91 7.194 .863 8.312 .141 19.702 .141 19.702 16.518 27.043 16.518 27.043 26.472 26.138 27.558 26.126 17.333" transform="translate(17.178 14.876)"/>
        <polygon fill="#F14729" points="25.4 16.581 25.4 25.821 .314 25.821 .314 16.581 7.491 16.581 7.491 .18 18.224 .18 18.224 16.581" transform="translate(17.423 16.103)"/>
        <polygon stroke="#FFF" stroke-width="1.069" points="25.4 16.581 25.4 25.821 .314 25.821 .314 16.581 7.491 16.581 7.491 .18 18.224 .18 18.224 16.581" transform="translate(17.423 16.103)"/>
      </g>
    </g>
  </g>
</svg>
