<?xml version="1.0" encoding="UTF-8" standalone="no"?>
<svg width="59px" height="27px" viewBox="0 0 59 27" version="1.1" xmlns="http://www.w3.org/2000/svg" xmlns:xlink="http://www.w3.org/1999/xlink">
    <!-- Generator: Sketch 39.1 (31720) - http://www.bohemiancoding.com/sketch -->
    <title>logo-mv</title>
    <desc>Created with Sketch.</desc>
    <defs></defs>
    <g id="Symbols" stroke="none" stroke-width="1" fill="none" fill-rule="evenodd">
        <g id="Header" transform="translate(-151.000000, -7.000000)" fill="#FFFFFF">
            <g id="logo-mv">
                <path d="M172.287766,7 C163.665871,7.02629648 153.854137,8.6816089 151.63497,13.521528 L151.63497,13.521528 C147.5262,22.4858968 164.702028,27.6833797 164.702028,27.6833797 L164.702028,27.6833797 L166.07048,17.1893752 L167.756541,27.6833797 L173.13165,27.6833797 L178.61058,17.3939413 L176.608276,27.5816089 L181.45506,26.7653934 L183.668421,15.6604225 L186.092155,29.108854 L191.256208,29.0081078 L198.316012,16.3735011 C198.316012,16.3735011 206.761343,21.2004427 203.583543,25.1363774 L203.583543,25.1363774 C198.101198,31.9266759 180.718754,29.7205034 180.718754,29.7205034 L180.718754,29.7205034 L181.45506,27.3770428 L173.763453,28.8049077 L179.980397,34 L180.40251,31.6568808 C180.40251,31.6568808 208.115793,35.0194156 209.274213,24.9321528 L209.274213,24.9321528 C209.977393,18.8033645 199.157505,13.9289527 199.157505,13.9289527 L199.157505,13.9289527 L194.732833,14.0300405 L189.569122,23.0975462 L187.251941,11.9922337 L177.451818,11.8908045 L171.129346,22.5893752 L168.810457,11.7893752 L162.909414,11.8908045 L161.54028,21.3660764 C161.54028,21.3660764 156.891915,18.5376676 157.202694,15.0668733 L157.202694,15.0668733 C157.624124,10.3799519 168.394833,8.90393372 173.763453,9.14060207 L173.763453,9.14060207 C180.718754,9.44659752 183.458389,9.85402226 189.358066,11.4850873 L189.358066,11.4850873 C189.662697,11.5670503 188.093776,13.4194156 188.093776,13.4194156 L188.093776,13.4194156 L196.419577,13.4204402 L191.045151,7.3073615 L190.30782,9.6491146 C190.30782,9.6491146 182.511709,7.0321022 172.626549,7 L172.626549,7 L172.287766,7 Z"></path>
            </g>
        </g>
    </g>
</svg>