<?xml version="1.0" encoding="UTF-8"?>
<svg width="168px" height="54px" viewBox="0 0 168 54" version="1.1" xmlns="http://www.w3.org/2000/svg" xmlns:xlink="http://www.w3.org/1999/xlink">
    <!-- Generator: Sketch 40 (33762) - http://www.bohemiancoding.com/sketch -->
    <title>logo-large-amazon</title>
    <desc>Created with Sketch.</desc>
    <defs></defs>
    <g id="Symbols" stroke="none" stroke-width="1" fill="none" fill-rule="evenodd">
        <g id="logo-large-amazon">
            <rect id="Rectangle-6" fill-opacity="0.286458333" fill="#FFFFFF" opacity="0.5" x="142" y="35" width="26.0499992" height="10" rx="1"></rect>
            <path d="M147.75,42.3 C147.910001,42.3 148.068333,42.2833335 148.225,42.25 C148.381667,42.2166665 148.521666,42.1550005 148.645,42.065 C148.768334,41.9749995 148.866666,41.8500008 148.94,41.69 C149.013334,41.5299992 149.05,41.3266679 149.05,41.08 C149.05,40.8399988 149.011667,40.6400008 148.935,40.48 C148.858333,40.3199992 148.758334,40.1916672 148.635,40.095 C148.511666,39.9983328 148.368334,39.9316668 148.205,39.895 C148.041666,39.8583331 147.873334,39.84 147.7,39.84 L146.78,39.84 L146.78,42.3 L147.75,42.3 Z M147.49,39.17 C147.636667,39.17 147.786666,39.1566668 147.94,39.13 C148.093334,39.1033332 148.234999,39.0450005 148.365,38.955 C148.495001,38.8649996 148.601666,38.7350008 148.685,38.565 C148.768334,38.3949991 148.81,38.1633348 148.81,37.87 C148.81,37.6499989 148.78,37.4716673 148.72,37.335 C148.66,37.1983326 148.578334,37.0950003 148.475,37.025 C148.371666,36.9549996 148.253334,36.9083335 148.12,36.885 C147.986666,36.8616665 147.846667,36.85 147.7,36.85 L146.78,36.85 L146.78,39.17 L147.49,39.17 Z M147.72,36.15 C147.906668,36.15 148.114999,36.1616665 148.345,36.185 C148.575001,36.2083334 148.791666,36.2733328 148.995,36.38 C149.198334,36.4866672 149.368333,36.6499989 149.505,36.87 C149.641667,37.0900011 149.71,37.3933314 149.71,37.78 C149.71,38.0400013 149.673334,38.2633324 149.6,38.45 C149.526666,38.6366676 149.438334,38.7949993 149.335,38.925 C149.231666,39.0550006 149.123334,39.158333 149.01,39.235 C148.896666,39.311667 148.8,39.3699998 148.72,39.41 C148.846667,39.4500002 148.981666,39.503333 149.125,39.57 C149.268334,39.636667 149.401666,39.7333327 149.525,39.86 C149.648334,39.9866673 149.75,40.149999 149.83,40.35 C149.91,40.550001 149.95,40.8033318 149.95,41.11 C149.95,41.3166677 149.926667,41.5016659 149.88,41.665 C149.833333,41.8283342 149.776667,41.971666 149.71,42.095 C149.643333,42.218334 149.571667,42.3233329 149.495,42.41 C149.418333,42.4966671 149.35,42.5666664 149.29,42.62 C149.096666,42.7866675 148.856668,42.8916665 148.57,42.935 C148.283332,42.9783336 147.940002,43 147.54,43 L146.08,43 C146,43 145.96,42.9600004 145.96,42.88 L145.96,36.27 C145.96,36.1899996 146,36.15 146.08,36.15 L147.72,36.15 Z M154.85,42.86 C154.85,42.9200003 154.84,42.9583333 154.82,42.975 C154.8,42.9916668 154.763334,43 154.71,43 L151.63,43 C151.55,43 151.51,42.9600004 151.51,42.88 L151.51,36.27 C151.51,36.1899996 151.55,36.15 151.63,36.15 L154.74,36.15 C154.793334,36.15 154.828333,36.1566666 154.845,36.17 C154.861667,36.1833334 154.87,36.1966666 154.87,36.21 C154.87,36.2233334 154.866667,36.2433332 154.86,36.27 C154.853333,36.2966668 154.846667,36.3199999 154.84,36.34 L154.7,36.76 C154.686667,36.8066669 154.67,36.8333333 154.65,36.84 C154.63,36.8466667 154.596667,36.85 154.55,36.85 L152.33,36.85 L152.33,39.07 L154.29,39.07 C154.343334,39.07 154.378333,39.0783333 154.395,39.095 C154.411667,39.1116667 154.42,39.1466664 154.42,39.2 L154.42,39.64 C154.42,39.6933336 154.411667,39.7283332 154.395,39.745 C154.378333,39.7616668 154.343334,39.77 154.29,39.77 L152.33,39.77 L152.33,42.3 L154.73,42.3 C154.81,42.3 154.85,42.3366663 154.85,42.41 L154.85,42.86 Z M157.85,36.85 L157.85,42.88 C157.85,42.9600004 157.81,43 157.73,43 L157.15,43 C157.07,43 157.03,42.9600004 157.03,42.88 L157.03,36.85 L155.54,36.85 C155.46,36.85 155.42,36.8100004 155.42,36.73 L155.42,36.28 C155.42,36.1933329 155.466666,36.15 155.56,36.15 L159.48,36.15 C159.56,36.15 159.6,36.1766664 159.6,36.23 C159.6,36.2500001 159.595,36.2699999 159.585,36.29 C159.575,36.3100001 159.566667,36.3333332 159.56,36.36 L159.42,36.74 C159.393333,36.8133337 159.34,36.85 159.26,36.85 L157.85,36.85 Z M164.13,42.77 C164.143333,42.8033335 164.153333,42.8333332 164.16,42.86 C164.166667,42.8866668 164.173333,42.9133332 164.18,42.94 C164.18,42.9800002 164.133334,43 164.04,43 L163.42,43 C163.36,43 163.318333,42.9900001 163.295,42.97 C163.271667,42.9499999 163.253333,42.9233335 163.24,42.89 L162.68,40.96 L160.63,40.96 L160.12,42.89 C160.106667,42.9233335 160.088333,42.9499999 160.065,42.97 C160.041667,42.9900001 160,43 159.94,43 L159.32,43 C159.226666,43 159.18,42.9800002 159.18,42.94 C159.186667,42.9133332 159.193333,42.8866668 159.2,42.86 C159.206667,42.8333332 159.216667,42.8033335 159.23,42.77 L161.23,36.26 C161.243333,36.2066664 161.258333,36.1750001 161.275,36.165 C161.291667,36.155 161.326666,36.15 161.38,36.15 L161.97,36.15 C162.01,36.15 162.04,36.155 162.06,36.165 C162.08,36.1750001 162.1,36.2066664 162.12,36.26 L164.13,42.77 Z M161.89,38.05 C161.85,37.8966659 161.808334,37.7350008 161.765,37.565 C161.721666,37.3949991 161.686667,37.2400007 161.66,37.1 L161.64,37.1 C161.626667,37.1600003 161.613333,37.2299996 161.6,37.31 C161.586667,37.3900004 161.57,37.4733329 161.55,37.56 C161.53,37.6466671 161.51,37.7333329 161.49,37.82 C161.47,37.9066671 161.45,37.983333 161.43,38.05 L160.82,40.26 L162.49,40.26 L161.89,38.05 Z" id="BETA" fill="#9B9B9B"></path>
            <g id="Amazon.com-Logo" fill="#FFFFFF">
                <g id="svg1936">
                    <g id="layer1" transform="translate(0.171055, 0.056620)">
                        <g id="g1967" transform="translate(0.022684, 0.022533)">
                            <path d="M96.7783966,5.724768 L96.7783966,1.92458301 C96.7783966,1.34945931 97.2151993,0.963617455 97.7393621,0.963617455 L114.752833,0.963617455 C115.298842,0.963617455 115.735644,1.35674023 115.735644,1.92458301 L115.735644,5.17876522 C115.728369,5.724768 115.269721,6.43821263 114.454351,7.56662003 L105.638214,20.153827 C108.914239,20.0737507 112.372262,20.5615089 115.342522,22.2359219 C116.012286,22.6144828 116.194287,23.1677665 116.245248,23.7137748 L116.245248,27.7687617 C116.245248,28.3220454 115.633722,28.9699644 114.993079,28.6350863 C109.758721,25.890505 102.806275,25.5920231 97.0186366,28.6642072 C96.4289538,28.9845291 95.8101501,28.3438854 95.8101501,27.7906017 L95.8101501,23.9394557 C95.8101501,23.320652 95.8174255,22.26504 96.4362292,21.3259144 L106.65014,6.6784554 L97.7612021,6.6784554 C97.2151993,6.6784554 96.7783966,6.29261633 96.7783966,5.724768" id="path12"></path>
                            <path d="M34.7159729,29.4358881 L29.5398596,29.4358881 C29.0448205,29.3994918 28.651695,29.0282091 28.6152931,28.5550017 L28.6152931,1.99010856 C28.6152931,1.45866486 29.0593768,1.03641838 29.6126605,1.03641838 L34.4393311,1.03641838 C34.9416594,1.0582445 35.3420575,1.44410023 35.3784622,1.92458301 L35.3784622,5.39717078 L35.4731031,5.39717078 C36.7325505,2.04106393 39.0985625,0.475853752 42.2872276,0.475853752 C45.5268479,0.475853752 47.5507008,2.04106393 49.006711,5.39717078 C50.2588803,2.04106393 53.1053779,0.475853752 56.1557219,0.475853752 C58.3251767,0.475853752 60.6984725,1.37129931 62.1472017,3.38059319 C63.7852128,5.615568 63.4503291,8.86246929 63.4503291,11.7089724 L63.443051,28.4749254 C63.443051,29.0063691 62.9989673,29.4358881 62.4456836,29.4358881 L57.2768456,29.4358881 C56.7599666,29.3994918 56.3450038,28.9845291 56.3450038,28.4749254 L56.3450038,14.3953091 C56.3450038,13.2741826 56.4469201,10.4786432 56.1994019,9.41575299 C55.8135601,7.63214559 54.6560317,7.12981726 53.1563388,7.12981726 C51.9041695,7.12981726 50.5937612,7.96702374 50.0623175,9.30655577 C49.5308738,10.646085 49.5818347,12.8883352 49.5818347,14.3953091 L49.5818347,28.4749254 C49.5818347,29.0063691 49.137751,29.4358881 48.5844673,29.4358881 L43.415635,29.4358881 C42.8914723,29.3994918 42.4837876,28.9845291 42.4837876,28.4749254 L42.4765095,14.3953091 C42.4765095,11.4323306 42.9642676,7.07157818 39.2878472,7.07157818 C35.5677385,7.07157818 35.7133403,11.323125 35.7133403,14.3953091 L35.7133403,28.4749254 C35.7133403,29.0063691 35.2692566,29.4358881 34.7159729,29.4358881" id="path14"></path>
                            <path d="M130.383103,0.475853752 C138.063555,0.475853752 142.220461,7.07157818 142.220461,15.4581965 C142.220461,23.5608893 137.626747,29.9891718 130.383103,29.9891718 C122.84097,29.9891718 118.735019,23.3934474 118.735019,15.1742737 C118.735019,6.90413633 122.891931,0.475853752 130.383103,0.475853752 M130.426781,5.89949355 C126.612039,5.89949355 126.371794,11.0974441 126.371794,14.33707 C126.371794,17.5839713 126.320833,24.5145767 130.383103,24.5145767 C134.39441,24.5145767 134.583692,18.9235033 134.583692,15.5164328 C134.583692,13.2741826 134.489051,10.5951241 133.812003,8.46934651 C133.229598,6.62021911 132.072075,5.89949355 130.426781,5.89949355" id="path16"></path>
                            <path d="M152.179571,29.4358881 L147.025297,29.4358881 C146.50841,29.3994918 146.093447,28.9845291 146.093447,28.4749254 L146.086172,1.90274301 C146.129852,1.41497931 146.559376,1.03641838 147.083539,1.03641838 L151.881094,1.03641838 C152.332453,1.0582445 152.703736,1.36402116 152.805661,1.77898393 L152.805661,5.84124893 L152.900296,5.84124893 C154.349031,2.20850579 156.380159,0.475853752 159.954663,0.475853752 C162.276998,0.475853752 164.541097,1.31306023 165.997107,3.60627412 C167.351195,5.73204893 167.351195,9.30655577 167.351195,11.8764087 L167.351195,28.5986872 C167.292956,29.0646054 166.863431,29.4358881 166.353833,29.4358881 L161.163155,29.4358881 C160.689948,29.3994918 160.296825,29.0500491 160.24587,28.5986872 L160.24587,14.1696282 C160.24587,11.2648887 160.580751,7.01333633 157.006244,7.01333633 C155.746799,7.01333633 154.589268,7.85782651 154.014144,9.13911114 C153.286143,10.762566 153.191503,12.3787371 153.191503,14.1696282 L153.191503,28.4749254 C153.184227,29.0063691 152.73286,29.4358881 152.179576,29.4358881" id="path18"></path>
                            <path d="M83.2156621,16.7467648 C83.2156621,18.7633369 83.2666231,20.445028 82.2474157,22.2359219 C81.424771,23.6919348 80.1143627,24.5873804 78.6656335,24.5873804 C76.6781796,24.5873804 75.5133731,23.0731256 75.5133731,20.8381507 C75.5133731,16.426443 79.4664381,15.6256383 83.2156621,15.6256383 L83.2156621,16.7467648 M88.4354582,29.3630872 C88.0932992,29.66885 87.5982518,29.69069 87.2124099,29.4868518 C85.494317,28.0599626 85.181276,27.3974789 84.2421505,26.0361096 C81.402931,28.9335681 79.3863535,29.79989 75.7099303,29.79989 C71.3491807,29.79989 67.9639588,27.1135533 67.9639588,21.7336019 C67.9639588,17.5330104 70.2353379,14.6719509 73.4822392,13.2741826 C76.2923377,12.0365697 80.216279,11.8181724 83.2156621,11.4760106 L83.2156621,10.806246 C83.2156621,9.57591392 83.3103031,8.11990374 82.5822994,7.05702188 C81.9562147,6.1033317 80.7477227,5.71020893 79.6775599,5.71020893 C77.7046623,5.71020893 75.9501759,6.7221354 75.5206485,8.81878929 C75.4332885,9.28471577 75.0911294,9.74335855 74.617922,9.76519855 L69.6019699,9.22647114 C69.1797262,9.13183577 68.7065243,8.78966836 68.8302862,8.14174929 C69.9805333,2.05562856 75.4842522,0.221051901 80.4055609,0.221051901 C82.9244612,0.221051901 86.2150425,0.890816529 88.2024964,2.79818856 C90.7213912,5.1496443 90.4811512,8.28734559 90.4811512,11.7016915 L90.4811512,19.7679852 C90.4811512,22.1922446 91.4857968,23.2551265 92.4322032,24.5655404 C92.7598088,25.0314585 92.8326097,25.5920231 92.4103494,25.9414659 C91.3547429,26.8223552 89.476489,28.4603663 88.4427225,29.3776518 L88.4354471,29.3630733" id="path28"></path>
                            <path d="M15.358327,16.7467648 C15.358327,18.7633369 15.4092824,20.445028 14.3900803,22.2359219 C13.5674301,23.6919348 12.2643027,24.5873804 10.8082925,24.5873804 C8.82083861,24.5873804 7.66331306,23.0731256 7.66331306,20.8381507 C7.66331306,16.426443 11.616378,15.6256383 15.358327,15.6256383 L15.358327,16.7467648 M20.5781203,29.3630872 C20.2359585,29.66885 19.7409111,29.69069 19.3550692,29.4868518 C17.6369818,28.0599626 17.3312163,27.3974789 16.3848098,26.0361096 C13.5455901,28.9335681 11.5363018,29.79989 7.85259213,29.79989 C3.49912066,29.79989 0.106623074,27.1135533 0.106623074,21.7336019 C0.106623074,17.5330104 2.38527788,14.6719509 5.62489825,13.2741826 C8.43499676,12.0365697 12.3589436,11.8181724 15.358327,11.4760106 L15.358327,10.806246 C15.358327,9.57591392 15.4529679,8.11990374 14.7322424,7.05702188 C14.0988738,6.1033317 12.8903901,5.71020893 11.8274999,5.71020893 C9.85461064,5.71020893 8.09283491,6.7221354 7.66331306,8.81878929 C7.57595028,9.28471577 7.23378843,9.74335855 6.7678675,9.76519855 L1.74463418,9.22647114 C1.32239048,9.13183577 0.856466777,8.78966836 0.972947702,8.14174929 C2.13047603,2.05562856 7.62691121,0.221051901 12.5482282,0.221051901 C15.0671205,0.221051901 18.3577018,0.890816529 20.3451557,2.79818856 C22.8640561,5.1496443 22.6238105,8.28734559 22.6238105,11.7016915 L22.6238105,19.7679852 C22.6238105,22.1922446 23.6284616,23.2551265 24.5748681,24.5655404 C24.909749,25.0314585 24.98255,25.5920231 24.5603063,25.9414659 C23.5046998,26.8223552 21.6264487,28.4603663 20.5926766,29.3776518 L20.5781203,29.3630733" id="path30"></path>
                        </g>
                    </g>
                </g>
            </g>
            <path d="M68.4375178,52.5957905 C68.519614,52.759983 68.5606615,52.8728637 68.5606615,52.9344358 C68.5606615,53.0370561 68.4477809,53.1088893 68.2220162,53.1499374 L66.2825023,53.5193686 C66.0567377,53.5604167 65.9028095,53.4783217 65.8207133,53.2730811 L60.741034,43.4831538 L58.5244467,43.4831538 L58.5244467,52.7189343 C58.5244467,52.965223 58.4013042,53.0883655 58.1550155,53.0883655 L56.3694312,53.0883655 C56.1231425,53.0883655 56,52.965223 56,52.7189343 L56,32.3694312 C56,32.1231425 56.1231425,32 56.3694312,32 L61.1412512,32 C61.7364489,32 62.3983399,32.0359166 63.126944,32.1077508 C63.8555481,32.179585 64.5328319,32.3950844 65.1588157,32.7542554 C65.7847995,33.1134264 66.3132861,33.6726987 66.7442913,34.4320889 C67.1752966,35.1914791 67.390796,36.2484523 67.390796,37.6030402 C67.390796,38.4445266 67.2573916,39.1885126 66.9905788,39.8350205 C66.723766,40.4815283 66.3902551,41.0356696 65.9900359,41.497461 C65.5898168,41.9592523 65.153687,42.3338108 64.6816337,42.6211476 C64.2095803,42.9084844 63.7580578,43.1239838 63.3270525,43.2676522 L68.4375178,52.5957905 Z M60.5255325,41.482068 C61.1002061,41.482068 61.6492165,41.4358896 62.17258,41.3435313 C62.6959435,41.251173 63.1577279,41.0715902 63.5579471,40.8047774 C63.9581662,40.5379647 64.2762844,40.1531443 64.512311,39.6503049 C64.7483377,39.1474654 64.8663493,38.4855744 64.8663493,37.664612 C64.8663493,36.8026016 64.7432068,36.1355796 64.4969181,35.6635263 C64.2506294,35.1914729 63.9325112,34.8425691 63.5425541,34.6168045 C63.152597,34.3910398 62.7215982,34.2576354 62.2495448,34.2165873 C61.7774915,34.1755392 61.3259689,34.1550155 60.8949637,34.1550155 L58.5244467,34.1550155 L58.5244467,41.482068 L60.5255325,41.482068 Z M80.390157,52.7189343 C80.390157,52.965223 80.2670145,53.0883655 80.0207258,53.0883655 L71.893239,53.0883655 C71.6469503,53.0883655 71.5238077,52.965223 71.5238077,52.7189343 L71.5238077,51.456711 C71.5238077,51.2104222 71.6469503,51.0872797 71.893239,51.0872797 L74.6947591,51.0872797 L74.6947591,34.0010858 L71.893239,34.0010858 C71.6469503,34.0010858 71.5238077,33.8779433 71.5238077,33.6316546 L71.5238077,32.3694312 C71.5238077,32.1231425 71.6469503,32 71.893239,32 L80.0207258,32 C80.2670145,32 80.390157,32.1231425 80.390157,32.3694312 L80.390157,33.6316546 C80.390157,33.8779433 80.2670145,34.0010858 80.0207258,34.0010858 L77.2192057,34.0010858 L77.2192057,51.0872797 L80.0207258,51.0872797 C80.2670145,51.0872797 80.390157,51.2104222 80.390157,51.456711 L80.390157,52.7189343 Z M89.8491356,32 C90.9163867,32 91.9477052,32.1026188 92.9431221,32.3078594 C93.9385389,32.5130999 94.8210603,32.9697534 95.5907125,33.6778335 C96.3603647,34.3859135 96.9760772,35.422363 97.4378686,36.7872129 C97.8996599,38.1520628 98.1305521,40.0043314 98.1305521,42.3440742 C98.1305521,44.1707155 97.976624,45.7613062 97.6687631,47.1158941 C97.3609022,48.470482 96.8632012,49.5890265 96.1756452,50.471561 C95.4880893,51.3540956 94.5953061,52.0108556 93.4972689,52.4418609 C92.3992317,52.8728661 91.0703188,53.0883655 89.5104903,53.0883655 L85.9701078,53.0883655 C85.7238191,53.0883655 85.6006766,52.965223 85.6006766,52.7189343 L85.6006766,32.3694312 C85.6006766,32.1231425 85.7238191,32 85.9701078,32 L89.8491356,32 Z M90.0338512,50.9333501 C91.1421504,50.9333501 92.0400645,50.7281125 92.7276205,50.3176314 C93.4151765,49.9071502 93.953925,49.3222233 94.3438821,48.5628331 C94.7338392,47.8034429 95.000648,46.885005 95.1443164,45.8074919 C95.2879848,44.7299788 95.359818,43.5344702 95.359818,42.2209304 C95.359818,40.5379576 95.2418064,39.1679972 95.0057797,38.1110081 C94.769753,37.0540191 94.4157183,36.233069 93.943665,35.6481333 C93.4716116,35.0631976 92.8918156,34.6681154 92.2042596,34.4628748 C91.5167036,34.2576342 90.7214083,34.1550155 89.8183497,34.1550155 L88.1251232,34.1550155 L88.1251232,50.9333501 L90.0338512,50.9333501 Z M113.900647,52.6573624 C113.900647,52.842079 113.869862,52.9600905 113.80829,53.0114007 C113.746717,53.0627108 113.633837,53.0883655 113.469644,53.0883655 L103.987576,53.0883655 C103.741288,53.0883655 103.618145,52.965223 103.618145,52.7189343 L103.618145,32.3694312 C103.618145,32.1231425 103.741288,32 103.987576,32 L113.562002,32 C113.726195,32 113.833944,32.0205238 113.885254,32.0615719 C113.936565,32.10262 113.962219,32.1436675 113.962219,32.1847156 C113.962219,32.2257637 113.951957,32.287335 113.931433,32.3694312 C113.910909,32.4515275 113.890385,32.5233606 113.869861,32.5849328 L113.438858,33.877942 C113.39781,34.0216105 113.346501,34.1037055 113.284929,34.1242295 C113.223356,34.1447536 113.120738,34.1550155 112.977069,34.1550155 L106.142592,34.1550155 L106.142592,40.989493 L112.176635,40.989493 C112.340827,40.989493 112.448577,41.0151477 112.499887,41.0664579 C112.551197,41.117768 112.576852,41.2255177 112.576852,41.3897102 L112.576852,42.7442913 C112.576852,42.9084838 112.551197,43.0162335 112.499887,43.0675437 C112.448577,43.1188538 112.340827,43.1445085 112.176635,43.1445085 L106.142592,43.1445085 L106.142592,50.9333501 L113.531216,50.9333501 C113.777505,50.9333501 113.900647,51.0462307 113.900647,51.2719953 L113.900647,52.6573624 Z" id="RIDE" fill="#FFFFFF"></path>
        </g>
    </g>
</svg>