<?xml version="1.0" encoding="UTF-8" standalone="no"?>
<svg width="32px" height="32px" viewBox="0 0 32 32" version="1.1" xmlns="http://www.w3.org/2000/svg" xmlns:xlink="http://www.w3.org/1999/xlink">
    <!-- Generator: Sketch 39.1 (31720) - http://www.bohemiancoding.com/sketch -->
    <title>pin-vehicle-grey</title>
    <desc>Created with Sketch.</desc>
    <defs></defs>
    <g id="-" stroke="none" stroke-width="1" fill="none" fill-rule="evenodd">
        <g id="3---ETA-MAP" transform="translate(-109.000000, -370.000000)">
            <g id="pin-vehicle-grey" transform="translate(109.000000, 370.000000)">
                <circle id="Oval-4" fill="#4A4A4A" cx="16" cy="16" r="16"></circle>
                <path d="M10.4933809,24 L11.9865219,24 L11.9865219,22.506859 L19.4867617,22.506859 L19.4867617,24 L20.9799028,24 L20.9799028,22.506859 L22.4732837,22.506859 L22.4732837,11.2483452 C22.4732837,10.0070188 21.466025,9 20.2249384,9 L11.2483452,9 C10.0070188,9 9,10.0070188 9,11.2483452 L9,22.4900713 L10.4933809,22.4900713 L10.4933809,24 Z M20.2417261,20.9966904 C19.8275509,20.9966904 19.4867617,20.6547021 19.4867617,20.2417261 C19.4867617,19.8275509 19.8285102,19.4865219 20.2417261,19.4865219 C20.6559013,19.4865219 20.9966904,19.8285102 20.9966904,20.2417261 C20.9966904,20.6547021 20.6559013,20.9966904 20.2417261,20.9966904 L20.2417261,20.9966904 Z M12.7417261,10.5099287 L18.7315576,10.5099287 L18.7315576,12.0033096 L12.7417261,12.0033096 L12.7417261,10.5099287 Z M10.4933809,13.4966904 L20.9799028,13.4966904 L20.9799028,17.9933809 L10.4933809,17.9933809 L10.4933809,13.4966904 Z M12.0033096,20.2585137 C12.0033096,20.6724491 11.6615611,21.0134781 11.2483452,21.0134781 C10.8341701,21.0134781 10.4933809,20.6717296 10.4933809,20.2585137 C10.4933809,19.8275509 10.8341701,19.5033096 11.2483452,19.5033096 C11.6625204,19.5033096 12.0033096,19.8452979 12.0033096,20.2585137 Z" id="Page-1" fill="#FFFFFF"></path>
            </g>
        </g>
    </g>
</svg>