<?xml version="1.0" encoding="UTF-8"?>
<svg width="34px" height="60px" viewBox="0 0 34 60" version="1.1" xmlns="http://www.w3.org/2000/svg" xmlns:xlink="http://www.w3.org/1999/xlink">
    <!-- Generator: Sketch 40.1 (33804) - http://www.bohemiancoding.com/sketch -->
    <title>pin-busstop-green</title>
    <desc>Created with Sketch.</desc>
    <defs>
        <rect id="path-1" x="15" y="0" width="19" height="31" rx="2"></rect>
        <mask id="mask-2" maskContentUnits="userSpaceOnUse" maskUnits="objectBoundingBox" x="0" y="0" width="19" height="31" fill="white">
            <use xlink:href="#path-1"></use>
        </mask>
        <path d="M24.5,60 C25.8807119,60 27,58.8807119 27,57.5 C27,56.1192881 25.8807119,55 24.5,55 C23.1192881,55 22,56.1192881 22,57.5 C22,58.8807119 23.1192881,60 24.5,60 Z" id="path-3"></path>
        <mask id="mask-4" maskContentUnits="userSpaceOnUse" maskUnits="objectBoundingBox" x="0" y="0" width="5" height="5" fill="white">
            <use xlink:href="#path-3"></use>
        </mask>
        <filter x="-50%" y="-50%" width="200%" height="200%" filterUnits="objectBoundingBox" id="filter-5">
            <feGaussianBlur stdDeviation="0" in="SourceGraphic"></feGaussianBlur>
        </filter>
        <linearGradient x1="9.02099616%" y1="100.456099%" x2="9.02099603%" y2="-81.5019087%" id="linearGradient-6">
            <stop stop-color="#818181" offset="0%"></stop>
            <stop stop-color="#D8D8D8" offset="100%"></stop>
        </linearGradient>
    </defs>
    <g id="ARCHIVE" stroke="none" stroke-width="1" fill="none" fill-rule="evenodd">
        <g id="-5---Stop-Details---Reserved" transform="translate(-157.000000, -92.000000)">
            <g id="pin-busstop-green" transform="translate(157.000000, 92.000000)">
                <use id="Rectangle-9" stroke="#305603" mask="url(#mask-2)" fill="#417505" xlink:href="#path-1"></use>
                <use id="Oval-9" stroke="#305603" mask="url(#mask-4)" fill="#417505" xlink:href="#path-3"></use>
                <path d="M10.2570338,28 C11.1089757,28 12.1361974,28.5507562 12.5506504,29.2289259 L20.8267273,42.7710741 C21.2415148,43.4497911 20.8857832,44 20.0351893,44 L10.7429662,44 C9.89102427,44 8.86380263,43.4492438 8.44934957,42.7710741 L0.173272721,29.2289259 C-0.241514835,28.5502089 0.114216828,28 0.964810741,28 L10.2570338,28 L10.2570338,28 Z M23.9433261,57 C23.1601042,57 14,44 14,44 L17.1328875,44 C17.1328875,44 24.726548,57 23.9433261,57 L23.9433261,57 Z" id="Rectangle-9" fill-opacity="0.300000012" fill="#000000" filter="url(#filter-5)"></path>
                <g id="Rectangle-10-+-Rectangle-10" transform="translate(22.000000, 31.000000)">
                    <path d="M0,0 L5,0 C5,0 3.75,26 2.5,26 C1.25,26 0,0 0,0 Z" id="Rectangle-10" fill="#828282"></path>
                    <path d="M2.70001221,0 L4.95001221,0 C4.95001221,0 3.82501221,26 2.70001221,26 C2.70001221,22.2857143 2.70001221,0 2.70001221,0 Z" id="Rectangle-10" fill="url(#linearGradient-6)"></path>
                </g>
                <path d="M32,16.75 L30.9578,9.6368 C30.9578,9.6368 30.7196,8 29.0234,8 L19.9758,8 C18.2796,8 18.0414,9.6368 18.0414,9.6368 L17,16.75 L17.4164,19.1008 L17.1484,19.4282 L17.1484,21.0946 L18.2796,21.0946 L18.2796,22.5828 L21.018,22.5828 L21.018,21.0946 L27.982,21.0946 L27.982,22.5828 L30.7204,22.5828 L30.7204,21.0946 L31.8508,21.0946 L31.8508,19.4282 L31.5828,19.1008 L32,16.75 Z M21.3898,8.357 L27.6102,8.357 L27.6102,10.0234 L21.3898,10.0234 L21.3898,8.357 Z M18.3242,10.857 L21.1218,10.5594 L24.068,10.5594 L24.068,15.0836 L17.789,15.0836 L18.3242,10.857 Z M20.9062,18.1484 C20.9062,18.5102 20.6132,18.8032 20.2516,18.8032 C19.9734,18.8032 19.7368,18.6296 19.6414,18.386 C19.546,18.6296 19.3094,18.8032 19.0312,18.8032 C18.6696,18.8032 18.3766,18.5102 18.3766,18.1484 C18.3766,17.7868 18.6696,17.4938 19.0312,17.4938 C19.3094,17.4938 19.546,17.6664 19.6414,17.911 C19.7368,17.6664 19.9734,17.4938 20.2516,17.4938 C20.6132,17.4938 20.9062,17.7868 20.9062,18.1484 L20.9062,18.1484 Z M30.7796,19.7554 L18.2204,19.7554 L18.2204,19.5172 L30.7796,19.5172 L30.7796,19.7554 Z M28.0938,18.1484 C28.0938,17.7868 28.3868,17.4938 28.7484,17.4938 C29.0266,17.4938 29.2632,17.6664 29.3586,17.911 C29.454,17.6664 29.6906,17.4938 29.9688,17.4938 C30.3304,17.4938 30.6234,17.7868 30.6234,18.1484 C30.6234,18.5102 30.3304,18.8032 29.9688,18.8032 C29.6906,18.8032 29.454,18.6296 29.3586,18.386 C29.2632,18.6296 29.0258,18.8032 28.7484,18.8032 C28.3868,18.8032 28.0938,18.5102 28.0938,18.1484 L28.0938,18.1484 Z M24.9312,15.0828 L24.9312,10.5594 L27.8782,10.5594 L30.6758,10.857 L31.2118,15.0828 L24.9312,15.0828 Z" id="Page-1" fill="#FFFFFF"></path>
            </g>
        </g>
    </g>
</svg>