<?xml version="1.0" encoding="UTF-8" standalone="no"?>
<svg width="36px" height="53px" viewBox="0 0 36 53" version="1.1" xmlns="http://www.w3.org/2000/svg" xmlns:xlink="http://www.w3.org/1999/xlink">
    <!-- Generator: Sketch 39.1 (31720) - http://www.bohemiancoding.com/sketch -->
    <title>pin_pickup</title>
    <desc>Created with Sketch.</desc>
    <defs>
        <linearGradient x1="9.02099616%" y1="100.456099%" x2="9.02099603%" y2="-81.5019087%" id="linearGradient-1">
            <stop stop-color="#818181" offset="0%"></stop>
            <stop stop-color="#D8D8D8" offset="100%"></stop>
        </linearGradient>
    </defs>
    <g id="Page-1" stroke="none" stroke-width="1" fill="none" fill-rule="evenodd">
        <g id="3---Stop-Details-" transform="translate(-162.000000, -96.000000)">
            <g id="pin_pickup" transform="translate(162.000000, 96.000000)">
                <g id="Stop-Green-Copy-3" stroke-width="1" transform="translate(10.443120, 0.297165)">
                    <ellipse id="Oval-9" fill="#3F760B" cx="11.7380305" cy="49.853771" rx="2.00197089" ry="2.09763412"></ellipse>
                    <path d="M9.7360596,24.6821615 L13.7400014,24.6821615 C13.7400014,24.6821615 12.7390159,49.853771 11.7380305,49.853771 C10.737045,49.853771 9.7360596,24.6821615 9.7360596,24.6821615 Z" id="Rectangle-10" fill="#828282"></path>
                    <path d="M11.7380305,24.6821615 L13.7400014,24.6821615 C13.7400014,24.6821615 12.7390159,49.853771 11.7380305,49.853771 C11.7380305,46.2578268 11.7380305,24.6821615 11.7380305,24.6821615 Z" id="Rectangle-10" fill="url(#linearGradient-1)"></path>
                    <path d="M17.7439432,14.1939909 L16.9093616,8.22563448 C16.9093616,8.22563448 16.7186138,6.85227146 15.3603166,6.85227146 L8.11510381,6.85227146 C6.75680659,6.85227146 6.56605881,8.22563448 6.56605881,8.22563448 L5.73211781,14.1939909 L6.06556608,16.1664382 L5.8509548,16.4411444 L5.8509548,17.8393434 L6.75680659,17.8393434 L6.75680659,19.088023 L8.94968543,19.088023 L8.94968543,17.8393434 L14.5263756,17.8393434 L14.5263756,19.088023 L16.7192544,19.088023 L16.7192544,17.8393434 L17.6244656,17.8393434 L17.6244656,16.4411444 L17.4098543,16.1664382 L17.7439432,14.1939909 Z M9.24741855,7.15181362 L14.2286424,7.15181362 L14.2286424,8.55001262 L9.24741855,8.55001262 L9.24741855,7.15181362 Z M6.79252176,9.24944774 L9.03280727,8.99974537 L11.3920899,8.99974537 L11.3920899,12.7957919 L6.36393983,12.7957919 L6.79252176,9.24944774 Z M8.8601573,15.3673235 C8.8601573,15.6708931 8.62552631,15.9167358 8.33596124,15.9167358 C8.11318192,15.9167358 7.92371539,15.7710761 7.84732018,15.5666827 C7.77092497,15.7710761 7.58145845,15.9167358 7.35867912,15.9167358 C7.06911405,15.9167358 6.83448307,15.6708931 6.83448307,15.3673235 C6.83448307,15.0639217 7.06911405,14.818079 7.35867912,14.818079 C7.58145845,14.818079 7.77092497,14.9628997 7.84732018,15.1681322 C7.92371539,14.9628997 8.11318192,14.818079 8.33596124,14.818079 C8.62552631,14.818079 8.8601573,15.0639217 8.8601573,15.3673235 L8.8601573,15.3673235 Z M16.7666611,16.7156827 L6.70939992,16.7156827 L6.70939992,16.5158201 L16.7666611,16.5158201 L16.7666611,16.7156827 Z M14.6159037,15.3673235 C14.6159037,15.0639217 14.8505347,14.818079 15.1400998,14.818079 C15.3628791,14.818079 15.5523456,14.9628997 15.6287408,15.1681322 C15.705136,14.9628997 15.8946025,14.818079 16.1173819,14.818079 C16.4069469,14.818079 16.6415779,15.0639217 16.6415779,15.3673235 C16.6415779,15.6708931 16.4069469,15.9167358 16.1173819,15.9167358 C15.8946025,15.9167358 15.705136,15.7710761 15.6287408,15.5666827 C15.5523456,15.7710761 15.3622384,15.9167358 15.1400998,15.9167358 C14.8505347,15.9167358 14.6159037,15.6708931 14.6159037,15.3673235 L14.6159037,15.3673235 Z M12.0833304,12.7951206 L12.0833304,8.99974537 L14.4432537,8.99974537 L16.6835392,9.24944774 L17.1127618,12.7951206 L12.0833304,12.7951206 Z" id="Page-1" fill="#FFFFFF"></path>
                    <path d="M12.5649996,25.1299992 C19.5044572,25.1299992 25.1299992,19.5044572 25.1299992,12.5649996 C25.1299992,5.62554193 19.5044572,2.84217094e-14 12.5649996,2.84217094e-14 C5.62554193,2.84217094e-14 0,5.62554193 0,12.5649996 C0,19.5044572 5.62554193,25.1299992 12.5649996,25.1299992 Z" id="Oval-64" fill="#417505"></path>
                </g>
                <path d="M12.0106441,38.2019949 C8.22481198,38.5966907 3.70995969,36.6550198 1.41791919,33.4952951 C-1.13134388,29.9809727 0.0344604901,26.290668 4.02181612,25.2527689 C8.00917175,24.2148698 13.3081482,26.2224076 15.8574112,29.73673 C18.1494517,32.8964547 17.4383081,36.1984398 14.3733997,37.5869753 C15.8941462,39.8689819 22.6346348,50.0364546 22.1005584,50.1754734 C21.566482,50.3144922 13.7578406,40.4250571 12.0106441,38.2019949 Z" id="Oval-9" fill-opacity="0.2" fill="#3E3E3E"></path>
                <path d="M23.0079147,18.5900002 L17,12.2950001 L17.4005276,11.8753334 L23.0079147,17.7506668 L28.6153018,11.8753334 L29.0158295,12.2950001 L23.0079147,18.5900002 Z M29.0158295,6.41966667 L28.6153018,6 L23.0079147,11.8753334 L17.4005276,6 L17,6.41966667 L23.0079147,12.7146667 L29.0158295,6.41966667 Z" id="Page-1" stroke="#FFFFFF" stroke-width="1" fill="#FFFFFF" transform="translate(23.007915, 12.295000) scale(1, -1) translate(-23.007915, -12.295000) "></path>
            </g>
        </g>
    </g>
</svg>