<?xml version="1.0" encoding="UTF-8"?>
<svg width="12px" height="12px" viewBox="0 0 12 12" version="1.1" xmlns="http://www.w3.org/2000/svg" xmlns:xlink="http://www.w3.org/1999/xlink">
    <!-- Generator: Sketch 40.1 (33804) - http://www.bohemiancoding.com/sketch -->
    <title>spinner-sm</title>
    <desc>Created with Sketch.</desc>
    <defs></defs>
    <g id="APP" stroke="none" stroke-width="1" fill="none" fill-rule="evenodd">
        <g id="5---Stop-Details-Tooltip---Logged-Out" transform="translate(-169.000000, -549.000000)">
            <g id="spinner-sm" transform="translate(175.000000, 555.000000) rotate(180.000000) translate(-175.000000, -555.000000) translate(169.000000, 549.000000)">
                <path d="M6,0 C2.6862915,0 0,2.6862915 0,6 C0,9.3137085 2.6862915,12 6,12 L6,11.0769231 C3.19609281,11.0769231 0.923076923,8.80390719 0.923076923,6 C0.923076923,3.19609281 3.19609281,0.923076923 6,0.923076923 L6,-2.22044605e-16 Z" id="Combined-Shape" fill="#EFEFEF"></path>
                <path d="M12,0 C8.6862915,0 6,2.6862915 6,6 C6,9.3137085 8.6862915,12 12,12 L12,11.0769231 C9.19609281,11.0769231 6.92307692,8.80390719 6.92307692,6 C6.92307692,3.19609281 9.19609281,0.923076923 12,0.923076923 L12,-2.22044605e-16 Z" id="Combined-Shape" fill="#184D8A" transform="translate(9.000000, 6.000000) scale(-1, 1) translate(-9.000000, -6.000000) "></path>
            </g>
        </g>
    </g>
</svg>