<?xml version="1.0" standalone="no"?>
<!DOCTYPE svg PUBLIC "-//W3C//DTD SVG 20010904//EN"
 "http://www.w3.org/TR/2001/REC-SVG-20010904/DTD/svg10.dtd">
<svg version="1.0" xmlns="http://www.w3.org/2000/svg"
 width="260.000000pt" height="260.000000pt" viewBox="0 0 260.000000 260.000000"
 preserveAspectRatio="xMidYMid meet">
<metadata>
Created by potrace 1.11, written by Peter Selinger 2001-2013
</metadata>
<g transform="translate(0.000000,260.000000) scale(0.100000,-0.100000)"
fill="#000000" stroke="none">
<path d="M703 2014 c-2 -7 -3 -25 -1 -41 3 -27 6 -28 71 -35 37 -5 79 -15 92
-24 48 -32 50 -51 50 -609 0 -577 1 -565 -65 -597 -33 -16 -88 -27 -137 -28
-20 0 -23 -5 -23 -40 l0 -40 568 2 567 3 32 150 c18 83 35 169 39 191 l6 42
-45 3 c-43 4 -46 2 -51 -23 -10 -49 -68 -157 -104 -193 -54 -53 -119 -70 -282
-70 -158 0 -202 11 -228 58 -15 29 -17 78 -17 562 0 495 1 533 18 558 22 34
53 47 137 55 l65 7 0 40 0 40 -343 1 c-267 0 -345 -2 -349 -12z"/>
</g>
</svg>
