<?xml version="1.0" encoding="UTF-8"?>
<svg width="50px" height="74px" viewBox="0 0 50 74" version="1.1" xmlns="http://www.w3.org/2000/svg" xmlns:xlink="http://www.w3.org/1999/xlink">
    <!-- Generator: Sketch 51.1 (57501) - http://www.bohemiancoding.com/sketch -->
    <title>logo-stanford-block-s-white</title>
    <desc>Created with Sketch.</desc>
    <defs></defs>
    <g id="Page-1" stroke="none" stroke-width="1" fill="none" fill-rule="evenodd">
        <g id="Desktop" transform="translate(-662.000000, -766.000000)" fill="#93072E" fill-rule="nonzero">
            <g id="logo-stanford-block-s-white" transform="translate(662.000000, 766.000000)">
                <g id="Page-1">
                    <path d="M30.6079263,27.447495 C30.8057227,27.6116646 31.0516353,27.7173538 31.2559627,27.874893 C31.7709796,28.2719237 32.3438426,28.3666063 32.9886801,28.3573237 C35.1409817,28.3266911 37.2939497,28.3500302 39.4466512,28.3403498 C39.7272182,28.3391563 39.9302127,28.4146107 40.1314745,28.6159108 C43.0095181,31.4968361 45.8982246,34.3672853 48.7722697,37.2523215 C48.9170182,37.3976607 49.0253797,37.6524021 49.0256463,37.8563544 C49.0381752,46.3248825 49.0351096,54.7934105 49.042307,63.2619385 C49.0425736,63.5352452 48.9508729,63.720367 48.7598741,63.9028367 C46.5036094,66.0587899 44.2530761,68.2205779 42.0009433,70.3807746 C40.8882721,71.4480099 39.781199,72.5213452 38.6545328,73.5737284 C38.5231128,73.6966567 38.2822651,73.756198 38.0919328,73.7565958 C32.1535103,73.7658785 26.2150878,73.7640219 20.2766653,73.7640219 C17.1713691,73.7640219 14.0659397,73.7604415 10.9606435,73.7699893 C10.6770109,73.7709176 10.4809473,73.6835284 10.2791524,73.489124 C6.93020943,70.2626202 3.57180321,67.0459295 0.226459,63.8158453 C0.0973049087,63.6911931 0.0173333352,63.4536908 0.0168001914,63.268569 C0.00533759919,58.8743125 0.0121351829,54.4799234 6.16095964e-06,50.0856669 C-0.00106012669,49.7227167 0.136224408,49.6625123 0.45651056,49.6631754 C4.76191351,49.6713971 9.06731645,49.6658276 13.3727194,49.6739167 C13.7397889,49.6747124 14.0116923,49.651771 14.1885627,49.2432034 C14.3795615,48.8021467 14.8489946,48.6406292 15.2755097,48.4655857 C15.4149268,48.4082987 15.5442142,48.3266117 15.6585735,48.1693377 C15.5839334,48.1552812 15.5086268,48.1267703 15.4345198,48.1295551 C15.1015715,48.1418877 14.7688898,48.1774268 14.4360748,48.1780899 C13.6642158,48.1798138 13.2550279,47.7224462 13.3251363,46.956498 C13.3328669,46.8729545 13.3404642,46.7894109 13.3523266,46.6598522 C13.1899844,46.6484478 13.0487012,46.6301478 12.9074181,46.6298826 C11.7815517,46.6274957 10.6555519,46.6387674 9.53008529,46.6186109 C9.3440181,46.6152956 9.11276696,46.526713 8.9824133,46.3975521 C6.06291772,43.5056202 3.1523523,40.6048036 0.251783332,37.6939087 C0.114765369,37.5563934 0.017999765,37.311465 0.0177331931,37.1163975 C0.00640388684,28.2540215 0.00627060088,19.3915128 0.0183996229,10.5291367 C0.0186661948,10.3231953 0.117964232,10.061293 0.263779068,9.92032992 C2.57762326,7.68202665 4.9071952,5.45990165 7.23183555,3.23260491 C8.23841109,2.26840662 9.24698592,1.30606484 10.2432984,0.331390454 C10.4786814,0.101314255 10.7195292,-0.000396663996 11.0579422,1.16228533e-06 C20.0522118,0.00901855799 29.0464814,0.00795768791 38.040751,0.00305116377 C38.2895958,0.00291855501 38.4804613,0.0527794489 38.668128,0.233790407 C40.5323986,2.0319652 42.4075987,3.81913346 44.276801,5.61226912 C45.7901297,7.06393722 47.3035917,8.5153401 48.8034586,9.9806669 C48.9331458,10.1073083 49.0263127,10.3367214 49.0268459,10.5186606 C49.0388416,15.355963 49.0364425,20.193398 49.0356427,25.0308329 C49.0356427,25.1505787 49.0252464,25.270457 49.018049,25.422957 C48.4186621,25.422957 47.8517969,25.4240179 47.2847984,25.4226918 C43.3509967,25.4140723 39.4170617,25.407044 35.48326,25.3911309 C35.2102904,25.3899375 35.126187,25.4695027 35.1183231,25.7467876 C35.0924656,26.6639098 34.2756893,27.1532361 33.391337,26.8693208 C32.919638,26.7178816 32.4044877,26.6979903 31.9078643,26.6259837 C31.2117117,26.5252011 30.5147595,26.4307836 29.8178072,26.3349075 C29.715177,26.3207184 29.6114805,26.3136901 29.5083172,26.3033466 C29.8267374,26.7589903 30.207402,27.1151774 30.6079263,27.447495 Z M34.3507293,24.148189 C38.6438699,24.148189 42.9370105,24.1483216 47.2301512,24.1483216 C47.781022,24.1483216 47.7811553,24.1483216 47.7811553,23.5816844 C47.7811553,19.4827476 47.7747576,15.3836782 47.7912851,11.2847415 C47.7928845,10.8878434 47.6654631,10.623289 47.3883616,10.3588671 C44.3445102,7.45592871 41.30679,4.54662512 38.2777334,1.62843674 C38.0282221,1.38788445 37.7884406,1.27437135 37.4353661,1.27503439 C31.5586551,1.28524527 25.6818107,1.28232787 19.8049663,1.28232787 C17.0336847,1.28232787 14.2622699,1.27861483 11.4909883,1.29041701 C11.3011891,1.29121266 11.0612744,1.35566052 10.930121,1.47978232 C9.2281926,3.09111137 7.54225854,4.71901651 5.85112634,6.3416173 C4.45362309,7.68229187 3.06491672,9.03224905 1.648087,10.3525019 C1.35632405,10.6243498 1.24769599,10.8859869 1.24822914,11.2742654 C1.25822558,19.5828672 1.26009159,27.8916017 1.24489699,36.2002036 C1.24396399,36.684756 1.38404753,37.0304671 1.72259385,37.3655694 C4.31847113,39.9353946 6.89848738,42.5211328 9.49623066,45.0889688 C9.64204549,45.2331145 9.9000871,45.3327037 10.1078799,45.3361515 C11.443805,45.358032 12.78013,45.3466276 14.1163217,45.3480863 C14.2429434,45.3482189 14.3695651,45.3618776 14.5521668,45.3724863 C14.3824938,45.6510973 14.2341465,45.8612822 14.1215199,46.0888389 C14.0019624,46.3303194 13.8985325,46.5830717 13.8190941,46.8404653 C13.6386249,47.4258004 13.879206,47.7874245 14.4927213,47.7517527 C15.1796771,47.7119701 15.8762295,47.6375766 16.5405267,47.4688982 C17.119121,47.3219677 17.6629277,47.0326154 18.213532,46.7871566 C18.4799707,46.6684718 18.7492083,46.6460609 18.9218136,46.8673849 C18.9904559,46.9553045 18.9007544,47.2331199 18.804522,47.3697069 C18.2272605,48.1893616 17.3846267,48.5430292 16.4192365,48.7026901 C15.9367413,48.782388 15.4422504,48.8943098 15.0017403,49.0965382 C14.3077204,49.4150644 14.2354794,50.1530322 14.8000787,50.6671563 C14.8765848,50.7369085 14.9920105,50.7643585 15.0894425,50.8114346 C15.0541217,50.8606325 15.018801,50.9098303 14.9834802,50.9590282 C14.6437343,50.9432478 14.3039884,50.9142064 13.9642425,50.9139412 C9.89382266,50.9107586 5.82340286,50.9118195 1.75298305,50.9119521 C1.25662615,50.9119521 1.25595972,50.9124825 1.25582644,51.3991567 C1.25569315,55.1412433 1.25822558,58.8831973 1.25062828,62.6252839 C1.24996185,62.9053536 1.32553499,63.1118254 1.53079536,63.3072907 C3.03159523,64.7360175 4.52439793,66.1729661 6.01800035,67.6089863 C7.60077108,69.1309371 9.18394166,70.65249 10.7608478,72.1804081 C10.9865009,72.39908 11.2216174,72.4944257 11.5459021,72.4940278 C20.0456808,72.485143 28.5453262,72.4786452 37.0449716,72.5033104 C37.6959402,72.505167 38.148446,72.3136799 38.6004187,71.8748775 C41.5652315,68.9963392 44.5527029,66.1408747 47.5219141,63.2667125 C47.6607981,63.1322472 47.7703592,62.893021 47.7706257,62.7024622 C47.7830213,54.6028517 47.7830213,46.5033739 47.7711589,38.4037634 C47.770759,38.2109502 47.6663961,37.9705306 47.5289783,37.8327501 C44.8731223,35.1659879 42.2030048,32.5132822 39.5432835,29.8502331 C39.3512185,29.6578178 39.1558213,29.5870047 38.8896492,29.5883308 C37.0833579,29.5972156 35.2770667,29.5949613 33.4707754,29.5895243 C33.3292257,29.5889939 33.1663503,29.5714895 33.0498583,29.5017373 C32.2661369,29.0332305 31.4929451,28.5472194 30.714955,28.0691649 C29.8467303,27.5355472 29.1567089,26.8233056 28.6027724,25.9773943 C28.508406,25.8331159 28.4504266,25.6653659 28.3725876,25.5021245 C29.6835882,25.9817704 30.9410079,26.1345357 32.2174875,26.22219 C32.678657,26.2538835 33.1408927,26.3597053 33.588067,26.4839597 C34.1691938,26.6456098 34.749121,26.2571988 34.6938073,25.6644376 C34.6698159,25.4085027 34.5394622,25.1507113 34.4111078,24.919309 C34.276489,24.6763697 34.0864232,24.4639305 33.8543724,24.148189 L34.3507293,24.148189 Z" id="Combined-Shape"></path>
                    <path d="M28.0609189,20.3841671 C28.3991986,20.3841671 28.737745,20.3741063 29.0754916,20.3865499 C29.5782462,20.405083 30.0897977,20.5127073 30.5808232,20.4508862 C31.4409174,20.3424676 31.7304145,19.5508397 31.1069028,18.9531474 C30.6647933,18.5291367 30.0864655,18.2352547 29.5425256,17.9294587 C29.1470661,17.7070615 28.6922944,17.5889792 28.2955022,17.3685678 C28.0634513,17.2397628 27.8632558,17.0227932 27.7041124,16.8054265 C27.5625627,16.6120204 27.670391,16.4881134 27.9159037,16.4968504 C28.2237943,16.5078379 28.5343506,16.5373585 28.8394421,16.5104855 C29.3693871,16.4636233 29.6492876,16.0095624 29.3651219,15.5655624 C29.0924189,15.1394336 28.7117542,14.7739345 28.342019,14.4194229 C28.0889089,14.1766394 27.7730212,13.9984569 27.4422055,13.7605714 C27.5596304,13.6934551 27.6482656,13.6416948 27.7378337,13.5916555 C28.2965684,13.2801671 28.4093284,12.7581957 27.9922766,12.2715696 C27.8024774,12.0502315 27.5557651,11.8762852 27.3302453,11.6863209 C27.0292856,11.4326823 26.7165967,11.192414 26.4232343,10.9307002 C26.2463639,10.7729041 26.2362341,10.6116662 26.4553562,10.4477807 C26.6512866,10.3012369 26.8336218,10.1282172 26.9911658,9.94129767 C27.4208797,9.43097567 27.2081553,8.89086834 26.5481233,8.78165546 C26.3122071,8.74260358 26.0776238,8.69640322 25.8423741,8.65337996 C25.8094525,8.59407406 25.7763976,8.53476816 25.743476,8.47546225 C25.9016864,8.36783792 26.0708263,8.272922 26.2157081,8.14967692 C26.4709507,7.93270733 26.6702132,7.66741932 26.5469237,7.31436386 C26.4334973,6.98937281 26.139202,6.9211975 25.824114,6.90623864 C25.5210217,6.89194168 25.3998648,6.6596161 25.3377535,6.42000966 C25.1900727,5.84971986 25.0829108,5.26897209 24.9316312,4.69974132 C24.88818,4.53612057 24.7786189,4.30578068 24.6495981,4.26633166 C24.401553,4.19047835 24.116321,4.25428515 23.9857008,4.53201682 C23.8928005,4.72939428 23.8428182,4.94782004 23.7833727,5.15936208 C23.6242293,5.72647478 23.474016,6.2959703 23.31274,6.86242111 C23.2345011,7.13750519 23.0576307,7.29424222 22.752939,7.3122458 C22.4675737,7.32905796 22.2120646,7.4283424 22.1195641,7.73360894 C22.0303958,8.02788801 22.1584836,8.26458211 22.369342,8.45904723 C22.5937955,8.66595599 22.8297117,8.86095063 23.1160099,9.10916172 C22.8295784,9.35115098 22.5692709,9.58612415 22.2931024,9.80084329 C21.8847142,10.118024 21.4579326,10.4117735 21.0530099,10.7329256 C20.8137616,10.9224927 20.6560843,11.2176984 20.820959,11.4788826 C20.9530454,11.6883066 21.2325461,11.8296877 21.4749932,11.9386358 C21.6489314,12.0168719 21.8697862,11.9915875 22.0697152,12.0125034 C22.0753132,12.044142 22.0807779,12.0759131 22.0863759,12.1075517 C21.9354962,12.1734766 21.7835502,12.2372834 21.6340034,12.3058558 C20.8788051,12.6524247 20.252761,13.1626143 19.7441418,13.8115374 C19.5311508,14.083312 19.3959989,14.394668 19.5811331,14.7347503 C19.754938,15.0541814 20.0760238,15.0668898 20.3921781,15.0594766 C20.5895746,15.0548433 20.7867045,15.0367073 20.984101,15.0279703 C21.2959902,15.0139381 21.3922226,15.1293728 21.2316131,15.3969113 C21.1187199,15.5847574 20.934652,15.7614837 20.7400545,15.8635481 C20.2932799,16.097727 19.7945239,16.2409614 19.3656097,16.5005571 C18.9286983,16.7650508 18.5069816,17.0840848 18.1563062,17.4522315 C17.6646143,17.9683782 17.874673,18.5108683 18.5900187,18.5940025 C19.4235891,18.6910365 20.267689,18.7592118 21.0746022,18.4121134 C21.1761661,18.3684283 21.2866602,18.3105785 21.3904899,18.3153442 C21.5135129,18.3210365 21.6337368,18.3872261 21.7552936,18.4272047 C21.7123755,18.5342995 21.7010462,18.6869327 21.6216078,18.7409435 C21.1364469,19.0708326 20.655951,19.4167395 20.1366689,19.6863961 C18.2470739,20.6675911 16.4017299,21.7127252 14.8529471,23.1924605 C14.6062348,23.4280955 14.4284313,23.7642064 14.3016764,24.0860204 C14.1785201,24.3984354 14.278218,24.7215732 14.5526538,24.9521778 C14.8248237,25.1810615 15.1312482,25.2141564 15.4518009,25.0607288 C15.9709497,24.8125177 16.5023608,24.8114587 17.0737577,24.8481277 C17.6546179,24.8854587 18.2481402,24.7432834 18.834865,24.6706072 C19.4415827,24.5954157 19.9547336,24.322185 20.3741845,23.8621671 C20.4179023,23.8894372 20.4616201,23.9167073 20.5053379,23.9438451 C20.4157697,24.2037055 20.3679201,24.4881886 20.2291694,24.7189256 C19.6981581,25.6021599 18.9410939,26.2641886 18.0608735,26.7935732 C17.4897431,27.1370973 16.9227447,27.4875052 16.3465495,27.8221599 C14.95731,28.6291438 14.3603222,29.9240776 14.099215,31.4200955 C14.0043154,31.96338 13.9306083,32.5127538 13.8920886,33.0623925 C13.8662311,33.4305392 13.8938213,33.8415767 14.3116728,34.002947 C14.7381879,34.1676268 15.0805995,33.9120025 15.3025206,33.5974694 C15.9148363,32.7301206 16.7823946,32.452786 17.7825724,32.4559631 C18.6459988,32.4586107 19.4533118,32.2972404 20.1574615,31.768253 C20.1903832,31.743498 20.2412984,31.7421742 20.3512593,31.7105356 C20.2022456,32.1702887 19.9843231,32.529566 19.6361802,32.758185 C19.1859402,33.0539202 18.7014458,33.3046465 18.2125529,33.5345893 C17.5695814,33.8370758 16.9522009,34.1670973 16.4930308,34.7228254 C16.3616108,34.8819453 16.2309906,35.0564211 16.1588829,35.2459882 C16.008403,35.6419345 16.2433862,36.0054479 16.6540402,36.0548254 C17.0209764,36.0989077 17.3881792,36.1431224 17.7564483,36.173702 C18.7154408,36.2531295 19.5909962,35.9951224 20.4060399,35.5066429 C20.5289295,35.4330401 20.6482204,35.3536125 20.7691108,35.2769649 C20.8028321,35.2915267 20.8365535,35.3060884 20.8702748,35.3206501 C20.8362869,35.4987002 20.8554801,35.7150079 20.7584479,35.8473871 C20.4786807,36.2291689 20.2094431,36.6578129 19.8323771,36.9220419 C18.9666848,37.5288683 18.0458121,38.0597091 17.1356024,38.6018021 C16.1791423,39.1711653 15.2981222,39.8098952 14.8172264,40.8558236 C14.7463183,41.0100454 14.6894052,41.1777699 14.6654137,41.3449649 C14.6033025,41.7759918 14.8904004,42.0582243 15.3234465,42.0076555 C15.4082164,41.997727 15.4988508,41.9830329 15.5729578,41.9442458 C16.256848,41.5857628 16.9580655,41.6952404 17.670079,41.8370186 C18.0439461,41.9114157 18.4284761,41.9397449 18.809674,41.9675445 C18.9936086,41.9809148 19.0658496,42.0289685 19.0673157,42.2281993 C19.0715809,42.8487932 18.8808487,43.1557807 18.3062529,43.3967109 C17.8169602,43.6018987 17.3331321,43.8205893 16.8387745,44.0124068 C16.6484422,44.0862744 16.4355845,44.1380347 16.2327233,44.1389614 C14.3520585,44.1483603 12.4712603,44.1523317 10.5908621,44.1336662 C10.3841355,44.1315481 10.1263605,44.0306751 9.98067896,43.8870436 C7.61858525,41.5583603 5.27261914,39.2135267 2.91718973,36.8780919 C2.64022151,36.6035374 2.5093347,36.3170687 2.51000113,35.908414 C2.52346302,27.8841134 2.52186358,19.8596805 2.51346657,11.8352476 C2.51306671,11.5033728 2.59583729,11.2611188 2.84174988,11.0276018 C5.45215532,8.54999177 8.08441967,6.09369481 10.6355129,3.55704365 C11.3357973,2.86059642 12.03155,2.6559381 12.9764141,2.65964472 C20.9814353,2.69075385 28.9865898,2.67910447 36.9917443,2.67089696 C37.3148295,2.6706322 37.539283,2.76726905 37.7705342,2.98993095 C40.6017945,5.71813488 43.445317,8.43376279 46.2760442,11.1623639 C46.3990671,11.2808433 46.4937001,11.4934444 46.4942333,11.662625 C46.5064956,15.3123209 46.4999646,18.9620168 46.509961,22.6117127 C46.5107607,22.9078451 46.4267906,23.0171903 46.1327618,22.9778737 C45.999076,22.9600025 45.8609917,22.9745642 45.7249067,22.9746966 C41.4566906,22.9818451 37.1884744,22.9927002 32.9202582,22.9860812 C32.6843421,22.9856841 32.4120389,22.8902386 32.2187743,22.752829 C31.1079691,21.9638487 29.9681076,21.2381456 28.6481768,20.8333299 C28.4322535,20.7671403 28.2332576,20.6468075 28.0265311,20.5516268 C28.0379937,20.4957628 28.0494563,20.4400311 28.0609189,20.3841671" id="Fill-6"></path>
                    <path d="M26.8827243,56.9399685 C27.0138777,56.9949059 27.0897174,57.0080114 27.1402328,57.0505052 C27.9342172,57.7186233 28.8710842,57.8720508 29.8599327,57.7492029 C30.8430499,57.6270168 31.7919127,57.6803657 32.6630697,58.1790383 C33.4547882,58.6321725 34.2185168,59.1334927 35.0002389,59.6042333 C35.369441,59.8266304 35.7374435,60.0606769 36.1318367,60.2302547 C36.9636743,60.5879435 37.5766564,60.1330884 37.4909536,59.2318504 C37.3719292,57.9812637 36.945814,56.8127521 36.404673,55.6942798 C36.0166776,54.8920615 35.2762741,54.4087449 34.5201429,53.9718934 C34.402718,53.9039828 34.2772959,53.8483835 34.1646692,53.7735893 C33.6980351,53.4638218 33.6684456,53.2244801 34.0161887,52.7967628 C34.1705338,52.6069309 34.3251455,52.4095535 34.4352397,52.1931134 C34.7848488,51.5058004 34.5683924,50.8409918 33.8502477,50.5531993 C33.3981417,50.3719721 32.9027178,50.2844694 32.4190231,50.1969667 C31.5364035,50.0374497 30.7632117,49.6939256 30.2110079,48.9687521 C30.0863856,48.8052637 29.8035528,48.6213889 30.029739,48.375693 C30.2359324,48.151575 30.5055699,48.204659 30.7816051,48.3240651 C31.3795259,48.5828665 31.9746477,48.8788665 32.6025578,49.0300436 C33.2552592,49.1873102 33.9438144,49.221464 34.6193076,49.2527055 C35.0771449,49.2738862 35.2975999,48.9032243 35.1667131,48.4279828 C34.8825474,47.3958218 34.3039531,46.5709667 33.334431,46.0842082 C32.4314187,45.6308093 31.4973507,45.2380401 30.5732792,44.826473 C30.0551967,44.595736 29.8601993,44.265185 29.9624296,43.7107807 C30.0197426,43.7465231 30.072124,43.7719399 30.1158418,43.8078147 C30.6716442,44.2643907 31.3044859,44.5034676 32.0304945,44.4686519 C32.6118879,44.4407199 33.1698229,44.4817574 33.6251277,44.9070919 C33.6769759,44.9555428 33.7528156,44.9825481 33.8215912,45.0088916 C34.1132209,45.1202225 34.4169796,45.2401581 34.7051438,45.0329846 C34.9918419,44.8268701 34.9565211,44.5041295 34.89401,44.2187199 C34.492686,42.3853996 33.5431568,40.9690741 31.8276333,40.0629381 C30.8061297,39.5234927 29.8527353,38.8540508 28.8854791,38.2179685 C28.6655573,38.0734104 28.5145443,37.8253317 28.3318092,37.6247771 L28.4060495,37.5351564 C28.5842528,37.6046555 28.766588,37.6654175 28.9401263,37.7449775 C29.6934586,38.0904873 30.464118,38.0817503 31.2615678,37.918659 C31.5490656,37.8598826 31.8636205,37.9244837 32.1651133,37.9440758 C32.2618789,37.9502977 32.354646,38.0028522 32.4518114,38.0168844 C32.7934233,38.0663943 33.1025135,37.9937181 33.3033754,37.6973209 C33.4906422,37.4210454 33.4353285,37.1257073 33.2613903,36.865185 C32.773697,36.134981 32.046089,35.6870097 31.2943562,35.280473 C30.8502474,35.0404694 30.3809475,34.8464014 29.9251096,34.6275785 C29.3215908,34.3379327 28.8786815,33.8920794 28.6287704,33.2712208 C28.5879849,33.1696859 28.5526641,32.9791921 28.597848,32.948083 C28.6942138,32.8812315 28.8532239,32.8536966 28.9715818,32.878981 C29.1745763,32.9224014 29.3649087,33.0215535 29.5624385,33.0921116 C30.4795791,33.4193531 31.3987191,33.7409023 32.3138605,34.0738361 C32.5329826,34.1535284 32.7331781,34.284981 32.9525668,34.3638791 C33.2976441,34.4879184 33.6452539,34.6477002 34.0031267,34.6851635 C34.7096755,34.7590311 35.1075341,34.3577896 34.9823786,33.6597538 C34.8400292,32.8661403 34.6001145,32.089736 34.3997857,31.3067127 C34.3732618,31.2030597 34.3299438,31.1036429 34.2795617,30.9601438 C34.4177793,30.9482297 34.5220089,30.9318147 34.6263718,30.9316823 C35.9008521,30.929829 37.1754657,30.9202977 38.4495462,30.9412136 C38.6460097,30.9445231 38.8896564,31.0411599 39.0281405,31.1777753 C41.4506127,33.5684122 43.8630885,35.9692422 46.2647682,38.3803979 C46.4008531,38.5168809 46.4933536,38.7619148 46.4936202,38.9565123 C46.5050828,46.7232029 46.5050828,54.4898934 46.4941533,62.2567163 C46.4938867,62.4393996 46.3999201,62.6710633 46.2690333,62.7970884 C43.8984093,65.0797038 41.5148566,67.3488165 39.1357023,69.6226948 C38.6634701,70.0741081 38.2140299,70.5508057 37.721405,70.9787878 C37.5452009,71.1318182 37.2743639,71.2504301 37.0439125,71.2554605 C36.1668909,71.2745231 35.2814723,71.3062941 34.4127144,71.2111134 C33.1201072,71.0693352 31.9801124,70.5725159 31.040713,69.6144873 C30.5046369,69.067761 29.8807253,68.5743835 29.2189606,68.1873066 C27.8978302,67.4147413 27.1807517,66.2907091 26.9793567,64.8160043 C26.9131135,64.3312315 26.8895219,63.8374569 26.8869895,63.3476537 C26.876993,61.3569345 26.8827243,59.3659506 26.8827243,57.3752315 L26.8827243,56.9399685 Z" id="Fill-10"></path>
                    <path d="M14.8115618,52.2319403 C14.7186615,52.3201048 14.677876,52.3837792 14.6197633,52.4103875 C13.1501523,53.0828741 12.3309769,54.2651531 11.9276536,55.7785127 C11.8264895,56.1577792 11.6680125,56.5265878 11.6108328,56.9112819 C11.555919,57.2796934 11.5247301,57.6805377 11.613232,58.0351818 C11.8147604,58.8432247 12.6291375,59.0076397 13.209198,58.4066379 C14.3337316,57.2415682 15.732701,56.5226165 17.2673555,56.0747775 C17.7902363,55.9221442 18.3688307,55.9586809 18.9217008,55.9067882 C19.9857226,55.8068419 20.9011305,55.409307 21.6140771,54.5941156 C21.7235049,54.4690172 21.8714523,54.377146 22.0687155,54.2147166 C22.0793784,54.411697 22.0909743,54.527264 22.0909743,54.6428311 C22.0920406,56.6699546 22.1289608,58.6978723 22.077779,60.7236719 C22.0471232,61.9326916 21.8950439,63.1402551 21.7632241,64.3446415 C21.7015127,64.9084447 21.3455059,65.3294107 20.9181911,65.6874966 C19.8436398,66.588205 18.9010415,67.5944197 18.1911605,68.8173392 C17.6998684,69.6637721 17.0796889,70.4383231 16.1502859,70.8432712 C15.6759212,71.0499152 15.1401117,71.1813678 14.6234953,71.214595 C13.7119527,71.2735038 12.7937457,71.2405413 11.8787376,71.2225377 C11.7133297,71.2192283 11.5111349,71.1448311 11.391844,71.0335002 C10.4007296,70.1090959 9.42427674,69.1693356 8.44502482,68.2323553 C6.54876553,66.4177005 4.65050694,64.6052962 2.76491053,62.7799188 C2.63335729,62.6525699 2.5307271,62.4263338 2.52992739,62.2455038 C2.51593236,59.039146 2.52233009,55.8327882 2.5155325,52.626298 C2.51499936,52.3476397 2.55698443,52.2057292 2.89393133,52.2066558 C6.7777508,52.2167166 10.6617036,52.2123481 14.5456563,52.2126129 C14.614965,52.2126129 14.6842737,52.2224089 14.8115618,52.2319403" id="Fill-12"></path>
                </g>
            </g>
        </g>
    </g>
</svg>