<?xml version="1.0" encoding="UTF-8"?>
<svg width="178px" height="79px" viewBox="0 0 178 79" version="1.1" xmlns="http://www.w3.org/2000/svg" xmlns:xlink="http://www.w3.org/1999/xlink">
    <!-- Generator: Sketch 44.1 (41455) - http://www.bohemiancoding.com/sketch -->
    <title>logo-stanford-white</title>
    <desc>Created with Sketch.</desc>
    <defs></defs>
    <g id="Page-1" stroke="none" stroke-width="1" fill="none" fill-rule="evenodd">
        <g id="logo-stanford-white" fill="#FFFFFF">
            <g id="Page-1">
                <path d="M106.56,0.24 C107.893,0.738 109.241,1.2 110.553,1.747 C111.415,2.107 111.513,2.69 110.883,3.432 C110.367,4.04 109.915,4.705 109.472,5.369 C108.935,6.174 108.557,6.211 108.063,5.288 C107.085,3.464 105.625,2.718 103.864,3.013 C102.138,3.301 101.155,4.276 101.058,6.218 C100.937,8.646 101.029,11.084 101.029,13.627 L105.966,13.627 L105.966,16.549 L101.112,16.549 C101.032,16.85 100.94,17.032 100.941,17.213 C100.944,22.249 100.897,27.285 100.992,32.319 C101.043,35.036 101.653,35.538 104.349,35.728 C104.547,35.742 104.746,35.756 105.029,35.775 C105.057,36.122 105.085,36.464 105.117,36.853 L92.479,36.853 L92.479,35.916 C92.615,35.88 92.758,35.831 92.904,35.804 C94.59,35.495 95.446,34.854 95.47,33.293 C95.557,27.787 95.504,22.278 95.504,16.642 L92.812,16.642 C92.503,15.74 92.595,15.168 93.517,14.912 C95.272,14.424 95.911,13.332 95.787,11.454 C95.681,9.849 95.915,8.173 96.288,6.597 C97.122,3.081 99.47,1.092 103.02,0.495 C103.325,0.443 103.62,0.326 103.92,0.24 L106.56,0.24 Z" id="Fill-4"></path>
                <path d="M169.0732,25.3382 C169.0732,23.0232 169.1032,20.7072 169.0472,18.3932 C169.0362,17.9472 168.8122,17.3462 168.4772,17.0942 C165.1122,14.5552 159.9752,16.0562 158.5632,20.0112 C157.5922,22.7332 157.4542,25.5442 158.1052,28.3732 C159.3742,33.8872 164.1842,34.5722 167.8462,33.6182 C168.7412,33.3852 169.1342,32.9222 169.0982,31.9242 C169.0182,29.7312 169.0732,27.5342 169.0732,25.3382 M177.3322,35.0352 L177.3322,35.9972 C174.8302,36.4352 172.4052,36.8812 169.9682,37.2482 C169.7412,37.2822 169.3422,36.8542 169.1972,36.5562 C169.0562,36.2672 169.1392,35.8692 169.1262,35.5652 C167.6432,36.1112 166.2412,36.8442 164.7512,37.1382 C158.0572,38.4602 152.7072,34.2522 152.2102,27.3742 C152.0412,25.0392 152.2872,22.7502 153.1062,20.5392 C154.7462,16.1162 158.8262,13.2812 163.7522,13.1762 C165.4592,13.1392 167.1682,13.1702 169.0672,13.1702 C169.0672,11.4302 169.0752,9.4482 169.0632,7.4672 C169.0582,6.7092 169.0212,5.9502 168.9752,5.1932 C168.8752,3.5112 168.5202,3.0742 166.8642,2.8722 C166.0802,2.7762 165.9182,2.4632 166.1382,1.8212 C168.8792,1.3872 171.5822,0.9592 174.3592,0.5192 C174.3592,1.9332 174.3582,3.3142 174.3592,4.6942 C174.3602,13.7232 174.3222,22.7522 174.3872,31.7802 C174.4062,34.4312 174.6292,34.5312 177.3322,35.0352" id="Fill-6"></path>
                <path d="M89.6276,36.8529 L77.7416,36.8529 C78.1986,36.3659 78.4196,35.9239 78.7506,35.8139 C80.5446,35.2179 81.0686,34.7459 81.1066,32.8339 C81.1846,28.8829 81.2346,24.9259 81.1036,20.9779 C81.0066,18.0289 79.3626,16.5819 76.4296,16.4559 C76.1896,16.4459 75.9496,16.4509 75.7106,16.4649 C72.0706,16.6929 71.8766,16.8879 71.8886,20.4869 C71.9026,24.5649 71.9166,28.6429 71.9686,32.7209 C71.9896,34.3519 72.4216,35.6089 74.4026,35.8389 C74.6666,35.8699 74.8746,36.3829 75.1736,36.7519 L69.1566,36.7519 L63.4206,36.7519 C63.2616,36.2339 63.3646,35.8949 64.2066,35.7469 C65.6916,35.4849 66.4396,34.7219 66.4626,33.2209 C66.5406,28.1489 66.5236,23.0759 66.5126,18.0029 C66.5096,16.7469 65.7536,16.1079 64.5376,16.0499 C63.6766,16.0089 63.2436,15.7159 63.5736,14.7609 C65.2066,14.5709 66.8616,14.4099 68.5056,14.1739 C69.1696,14.0789 69.8276,13.8669 70.4576,13.6279 C71.7166,13.1489 71.7066,13.1259 71.7466,14.4329 C71.7526,14.6309 71.7656,14.8279 71.7766,15.0349 C73.1936,14.4909 74.5406,13.7689 75.9746,13.4819 C77.4356,13.1879 79.0116,13.1099 80.4876,13.3089 C83.9916,13.7819 86.2216,16.2669 86.3696,19.8199 C86.5326,23.7309 86.5226,27.6499 86.5966,31.5659 C86.6096,32.2439 86.6416,32.9239 86.7136,33.5979 C86.8506,34.8819 87.5726,35.6489 88.8656,35.7689 C89.6096,35.8379 89.8696,36.1369 89.6276,36.8529" id="Fill-8"></path>
                <path d="M0.5939,29.3144 L1.7409,29.3144 C2.6409,33.2024 5.1259,34.7644 9.5239,34.2564 C9.7619,34.2284 9.9959,34.1724 10.2339,34.1404 C12.2249,33.8744 13.8909,33.1024 14.4839,31.0104 C15.1259,28.7444 14.8649,26.5814 12.9709,24.9854 C11.5099,23.7544 9.8789,22.7254 8.3169,21.6164 C7.1449,20.7834 5.9359,20.0014 4.7909,19.1344 C1.7009,16.7924 0.5959,13.6804 1.4629,9.9274 C2.3019,6.3014 4.8399,4.4674 8.3349,3.7744 C12.0049,3.0464 15.6379,3.6014 19.3299,4.0244 L19.3299,10.7494 C18.5909,11.1114 18.1619,10.9564 18.0739,10.0504 C17.8869,8.1184 16.7679,6.9204 14.9049,6.6824 C13.1459,6.4574 11.3319,6.3794 9.5699,6.5394 C8.0339,6.6784 6.7569,7.5754 6.3259,9.1794 C5.8519,10.9444 5.8499,12.7524 7.3079,14.0864 C8.5079,15.1834 9.8919,16.0864 11.2299,17.0244 C12.7659,18.1014 14.3559,19.1014 15.8989,20.1704 C19.5879,22.7254 20.5849,26.3224 19.5929,30.4964 C18.6339,34.5334 15.5639,36.2594 11.7729,36.9094 C8.3369,37.4984 4.9349,37.1674 1.5679,36.2744 C0.7899,36.0684 0.5599,35.7204 0.5789,34.9554 C0.6249,33.0884 0.5939,31.2184 0.5939,29.3144" id="Fill-10"></path>
                <path d="M114.6819,31.4601 C115.663788,33.4202 117.1179,34.6551 119.4189,34.6731 C121.7839,34.6921 123.4229,33.5011 124.2759,31.4211 C125.9899,27.2421 125.9549,23.0031 124.0999,18.8651 C123.2109,16.8831 121.6079,15.8111 119.3569,15.8211 C117.1039,15.8311 115.4419,16.9041 114.6729,18.9221 C113.9319,20.8641 113.700012,22.5 113.700012,25 C113.700012,25 113.59434,26.2806623 113.700012,27.5 C113.805684,28.7193377 114.16706,30.4323471 114.6819,31.4601 Z M130.4119,29.2211 C128.8089,35.0351 123.6169,38.2341 117.3749,37.3351 C111.4569,36.4831 107.9429,32.5621 107.8419,26.4871 C107.8139,24.7531 107.9789,22.9521 108.4349,21.2861 C109.9759,15.6611 114.6959,12.5671 120.6169,13.1031 C127.3629,13.7141 131.0099,17.8311 131.1769,24.8781 C130.9289,26.3271 130.8009,27.8101 130.4119,29.2211 Z" id="Fill-12"></path>
                <path d="M52.7623,25.0647 C50.5903,25.6357 48.5743,26.1797 46.9363,27.4817 C45.6793,28.4797 45.4413,29.9597 45.7663,31.5197 C46.0233,32.7477 46.7683,33.5357 47.9663,33.7777 C49.4103,34.0697 50.8403,33.9167 52.1393,33.1597 C52.4063,33.0037 52.7303,32.6527 52.7353,32.3867 C52.7813,30.0027 52.7623,27.6177 52.7623,25.0647 M43.5143,18.9127 C42.3273,18.6647 42.2693,18.0247 42.7813,17.0947 C43.7783,15.2857 45.2743,14.0927 47.2193,13.4867 C49.4143,12.8017 51.6473,12.8247 53.8223,13.5337 C56.7863,14.4997 57.9343,16.8417 58.0013,19.7287 C58.0793,23.0797 57.9503,26.4357 57.9203,29.7887 C57.9143,30.5047 57.8863,31.2297 57.9783,31.9357 C58.2273,33.8587 58.9773,34.2617 60.7413,33.4557 C60.9463,33.6797 61.1593,33.9117 61.4133,34.1887 C60.6223,35.4437 59.6173,36.4257 58.2143,36.9197 C56.0623,37.6767 54.2933,37.0407 52.9033,35.0017 C51.1053,36.6357 48.9903,37.3217 46.5573,37.2017 C43.2093,37.0347 41.1093,35.3957 40.5003,32.3257 C39.8493,29.0437 41.2113,26.2237 44.1973,24.9577 C45.9193,24.2277 47.7213,23.6837 49.4923,23.0717 C50.0943,22.8637 50.7023,22.6297 51.3263,22.5367 C52.5783,22.3507 52.9133,21.6707 52.7823,20.4727 C52.5753,18.5807 51.9023,17.0787 49.9823,16.4037 C47.9763,15.6987 45.6613,16.3017 44.3023,17.8857 C44.0193,18.2147 43.7713,18.5757 43.5143,18.9127" id="Fill-14"></path>
                <path d="M30.208,13.7291 L38.071,13.7291 L38.071,16.6451 L30.338,16.6451 C30.293,17.0481 30.231,17.3481 30.23,17.6491 C30.224,21.6071 30.226,25.5661 30.227,29.5241 C30.227,29.7241 30.23,29.9241 30.243,30.1231 C30.486,33.9071 32.751,35.4341 36.373,34.2511 C36.782,34.1181 37.179,33.9471 37.94,33.9471 C37.815,34.3771 37.818,34.9251 37.545,35.2191 C35.317,37.6211 29.978,38.1351 27.303,36.2231 C25.719,35.0911 25.023,33.4331 24.998,31.5611 C24.937,27.0851 24.976,22.6081 24.974,18.1311 C24.974,17.6991 24.974,17.2681 24.974,16.6801 C24.08,16.6801 23.292,16.7091 22.509,16.6611 C22.299,16.6481 21.967,16.4231 21.937,16.2531 C21.902,16.0551 22.083,15.6781 22.263,15.6031 C25.36,14.3211 27.258,11.8581 28.866,9.0691 C29.054,8.7441 29.61,8.6321 30.208,8.3041 L30.208,13.7291 Z" id="Fill-16"></path>
                <path d="M141.5441,13.5129 C141.5881,14.0109 141.6371,14.5529 141.7021,15.2879 C142.1201,15.0219 142.4581,14.7939 142.8091,14.5869 C145.2091,13.1689 147.6741,12.9099 150.2211,14.1819 C151.1171,14.6299 151.3031,15.2599 150.7731,16.1359 C150.3191,16.8869 149.9341,17.6779 149.5051,18.4439 C148.9591,19.4219 148.4781,19.4689 147.7241,18.6369 C146.4291,17.2079 144.5211,16.7299 142.7101,17.3209 C141.9331,17.5739 141.7001,18.0339 141.7101,18.8339 C141.7671,23.3079 141.7551,27.7829 141.8011,32.2569 C141.8271,34.8589 142.4421,35.4659 145.0501,35.6329 C145.2851,35.6479 145.5201,35.6679 145.8271,35.6909 L145.8271,36.8519 L133.2891,36.8519 C133.2701,36.5879 133.2461,36.2579 133.2241,35.9429 C135.8831,35.2399 136.3451,34.8219 136.3981,32.1889 C136.4891,27.5989 136.4751,23.0059 136.4061,18.4149 C136.3801,16.6469 135.9401,16.2489 134.2011,16.0549 C133.1271,15.9349 133.2541,15.3589 133.3961,14.7479 C136.1361,14.3329 138.7931,13.9299 141.5441,13.5129" id="Fill-18"></path>
                <path d="M19.0148,49.6545 C21.5718,49.6545 23.8058,49.6465 26.0388,49.6665 C26.2678,49.6685 26.4958,49.8425 26.7238,49.9365 C26.5318,50.1385 26.3678,50.4715 26.1418,50.5225 C25.0738,50.7605 24.7178,51.5095 24.7138,52.4605 C24.6968,56.4575 24.6548,60.4555 24.7468,64.4505 C24.7848,66.1305 25.2798,67.7855 27.0878,68.4315 C29.1908,69.1835 31.3418,69.2915 33.2668,67.9085 C34.4778,67.0375 34.7328,65.6095 34.7608,64.2565 C34.8418,60.2615 34.8098,56.2635 34.8028,52.2675 C34.8008,51.3755 34.4078,50.7565 33.4628,50.5355 C33.2088,50.4765 33.0098,50.1795 32.9158,49.7425 L39.9718,49.7425 C39.5678,50.1305 39.3868,50.4585 39.1438,50.5125 C37.9488,50.7775 37.6768,51.6405 37.6688,52.6695 C37.6458,55.7865 37.6628,58.9045 37.6228,62.0225 C37.6088,63.0985 37.5508,64.1845 37.3818,65.2455 C36.9438,68.0015 35.4128,69.9205 32.6268,70.4305 C30.8838,70.7495 29.0298,70.8645 27.2758,70.6525 C23.1178,70.1505 21.3458,68.0255 21.2468,63.7045 C21.1668,60.1895 21.1688,56.6725 21.1778,53.1555 C21.1808,51.8795 21.1398,50.7175 19.5258,50.4355 C19.3688,50.4075 19.2688,50.0575 19.0148,49.6545" id="Fill-20"></path>
                <path d="M45.2584,55.6492 C45.3004,55.8652 45.3664,56.2062 45.4474,56.6272 C47.0084,55.6592 48.6694,55.2242 50.4874,55.4122 C53.0024,55.6712 54.5834,57.2482 54.6814,59.8032 C54.7674,62.0392 54.7274,64.2802 54.7554,66.5192 C54.7614,67.0362 54.8254,67.5532 54.8444,68.0712 C54.8804,69.0252 55.2784,69.6602 56.2764,69.8532 C56.4694,69.8902 56.6294,70.1042 56.6974,70.4732 L49.4024,70.4732 C49.3624,70.3972 49.3214,70.3222 49.2804,70.2472 C49.4844,70.0992 49.6694,69.8782 49.8974,69.8172 C50.8074,69.5742 51.2524,68.9512 51.2654,68.0752 C51.3064,65.4792 51.4554,62.8712 51.2564,60.2912 C51.0594,57.7482 47.8624,56.4942 45.7554,57.9972 C45.5504,58.1442 45.4104,58.5192 45.4084,58.7902 C45.3854,61.6692 45.3684,64.5482 45.4114,67.4262 C45.4294,68.5752 45.5964,69.7212 47.1164,69.8812 C47.2044,69.8912 47.2954,70.0172 47.3514,70.1092 C47.3864,70.1672 47.3574,70.2632 47.3574,70.4512 L39.7064,70.4512 C40.1054,70.1322 40.2724,69.8982 40.4854,69.8442 C41.4964,69.5902 41.9684,68.9012 41.9784,67.9312 C42.0124,64.8142 42.0074,61.6952 41.9964,58.5782 C41.9934,57.7022 41.4454,57.3292 40.6284,57.2012 C40.4214,57.1682 40.2524,56.9002 40.0654,56.7392 C40.2494,56.5862 40.4174,56.3282 40.6204,56.2972 C42.1384,56.0592 43.6644,55.8662 45.2584,55.6492" id="Fill-22"></path>
                <path d="M151.9662,55.7453 L157.9792,55.7453 C157.8482,56.0773 157.7932,56.3813 157.6282,56.6033 C157.0832,57.3383 156.2802,57.9583 155.9632,58.7733 C153.9072,64.0513 151.9812,69.3803 149.9582,74.6713 C148.6172,78.1783 146.1562,79.5123 142.7232,78.7093 C142.4912,78.6543 142.2242,78.6213 142.0482,78.4833 C141.6122,78.1403 140.8082,77.5503 140.8792,77.3983 C141.1862,76.7403 141.7402,76.1903 142.2502,75.6443 C142.2952,75.5963 142.7142,75.8163 142.8902,75.9833 C144.2362,77.2643 146.0012,77.1803 146.9682,75.5863 C147.7462,74.3023 148.2752,72.8603 148.8372,71.4573 C148.9602,71.1503 148.8212,70.6843 148.6872,70.3353 C147.1202,66.2803 145.5622,62.2203 143.9152,58.1973 C143.6612,57.5763 142.9642,57.1413 142.4922,56.6033 C142.3152,56.4023 142.1952,56.1503 141.9492,55.7653 L149.1072,55.7653 C148.7962,56.1553 148.6552,56.5213 148.4262,56.5873 C147.2812,56.9213 147.3012,57.6683 147.6352,58.5593 C148.6122,61.1723 149.5952,63.7843 150.6372,66.5613 C150.8172,66.2093 150.9622,65.9943 151.0432,65.7573 C151.8652,63.3423 152.6792,60.9233 153.4912,58.5043 C153.7832,57.6323 153.7032,56.9453 152.6662,56.6123 C152.4252,56.5353 152.2822,56.1523 151.9662,55.7453" id="Fill-24"></path>
                <path d="M90.9122,60.7016 C90.8862,58.1906 89.9712,57.0776 88.0272,57.1066 C86.2512,57.1326 85.1812,58.4956 85.2602,60.7016 L90.9122,60.7016 Z M85.2182,62.5136 C84.9582,67.7056 88.5252,69.8476 93.6102,67.7776 C94.2422,68.2266 94.1142,68.6546 93.5762,69.0886 C91.1272,71.0616 88.3782,71.2616 85.5612,70.2076 C83.0282,69.2596 82.0392,67.1246 81.8432,64.5546 C81.6862,62.4836 81.9692,60.4956 82.9822,58.6486 C84.6882,55.5416 89.0082,54.3916 92.0342,56.2396 C93.8252,57.3346 94.7632,59.8536 94.2852,62.5136 L85.2182,62.5136 Z" id="Fill-26"></path>
                <path d="M81.9502,55.7459 C81.7312,56.1149 81.6092,56.3989 81.4182,56.6259 C80.8532,57.2999 80.0702,57.8609 79.7122,58.6249 C78.0182,62.2349 76.4292,65.8939 74.8242,69.5439 C74.5202,70.2369 74.1892,70.9789 73.3282,70.7369 C72.9052,70.6179 72.5002,70.0259 72.3082,69.5579 C70.8262,65.9429 69.4022,62.3039 67.9512,58.6769 C67.6012,57.8029 67.3932,56.8119 66.2402,56.5479 C66.1052,56.5169 66.0582,56.1039 65.9322,55.7649 L73.0182,55.7649 C72.5972,56.1899 72.4142,56.5129 72.1452,56.6209 C71.3532,56.9389 71.1192,57.4599 71.4062,58.2319 C72.3332,60.7309 73.2702,63.2269 74.3012,65.9849 C75.4062,63.1949 76.4582,60.6589 77.3772,58.0759 C77.4992,57.7319 76.9832,57.1219 76.6912,56.6819 C76.5122,56.4119 76.1972,56.2319 75.9442,56.0119 C76.0092,55.9229 76.0752,55.8349 76.1412,55.7459 L81.9502,55.7459 Z" id="Fill-28"></path>
                <path d="M118.242,55.7478 L118.242,59.7928 C117.74,59.3988 117.32,59.2378 117.204,58.9518 C116.541,57.3128 114.869,56.5538 113.224,57.2158 C111.866,57.7628 111.709,59.4788 113.005,60.3918 C114.111,61.1708 115.326,61.7928 116.47,62.5208 C118.37,63.7298 119.016,65.2418 118.605,67.2888 C118.257,69.0218 117.129,69.9738 115.515,70.4258 C113.58,70.9688 111.635,70.8678 109.735,70.2788 C109.414,70.1788 109.044,69.6718 109.009,69.3228 C108.911,68.3378 108.975,67.3368 108.975,65.9688 C109.352,66.3018 109.781,66.4958 109.875,66.7948 C110.502,68.7848 113.062,69.7708 114.831,68.6548 C115.951,67.9488 116.037,66.4058 114.889,65.5168 C113.82,64.6908 112.628,64.0238 111.483,63.2978 C110.237,62.5068 109.394,61.4488 109.254,59.9358 C109.036,57.5668 110.505,55.7718 112.955,55.5018 C113.941,55.3938 114.949,55.4318 115.943,55.4728 C116.692,55.5038 117.436,55.6468 118.242,55.7478" id="Fill-30"></path>
                <path d="M132.015,57.6349 C131.304,57.5949 130.725,57.5629 130.145,57.5309 C131.857,55.7899 133.524,54.0959 135.346,52.2429 L135.346,55.6419 L140.356,55.6419 L140.356,57.5639 L135.573,57.5639 C135.573,60.8479 135.515,63.9879 135.603,67.1229 C135.637,68.3209 136.518,68.9789 137.715,68.9639 C138.533,68.9539 139.348,68.7559 140.42,68.6059 C140.224,69.0109 140.157,69.3939 139.93,69.5819 C138.19,71.0199 136.186,71.1529 134.179,70.3989 C132.381,69.7239 132.024,68.0809 132.018,66.3549 C132.008,63.4859 132.015,60.6169 132.015,57.6349" id="Fill-32"></path>
                <path d="M103.8776,70.4842 L96.0466,70.4842 C96.0026,70.4082 95.9596,70.3312 95.9156,70.2552 C96.1376,70.0782 96.3336,69.8102 96.5846,69.7392 C97.5496,69.4642 97.9376,68.7922 97.9456,67.8672 C97.9716,64.9152 97.9626,61.9622 97.9916,59.0102 C98.0016,57.9952 97.6996,57.3152 96.5676,57.1752 C96.3236,57.1452 96.1246,56.7652 95.7786,56.4222 C97.7526,56.1222 99.4256,55.8672 101.1886,55.5982 C101.2426,55.8382 101.3166,56.1712 101.4076,56.5802 C101.5786,56.5112 101.7606,56.4682 101.9076,56.3722 C103.2586,55.4892 104.7046,55.2302 106.2456,55.7462 C107.3836,56.1272 107.5286,56.5462 106.9706,57.6262 C106.8426,57.8742 106.6886,58.1092 106.5756,58.3632 C106.1756,59.2622 105.7766,59.5392 104.9456,58.6672 C104.5266,58.2272 103.7666,57.9902 103.1286,57.9062 C101.8486,57.7372 101.4036,58.2042 101.4086,59.4942 C101.4206,62.2482 101.4676,65.0022 101.4526,67.7552 C101.4456,68.9882 101.9876,69.5962 103.2076,69.7022 C103.5166,69.7292 103.8056,69.9802 104.1046,70.1292 C104.0286,70.2472 103.9536,70.3662 103.8776,70.4842" id="Fill-34"></path>
                <path d="M121.1491,56.3785 C123.1231,56.0595 124.7651,55.7935 126.6621,55.4865 C126.6621,56.4375 126.6621,57.4395 126.6621,58.4405 C126.6621,61.4775 126.6861,64.5145 126.6491,67.5505 C126.6341,68.7975 126.9951,69.6605 128.3581,69.8345 C128.5821,69.8635 128.7971,69.9585 129.0171,70.0225 C128.9141,70.1625 128.8121,70.3015 128.7091,70.4415 L120.8231,70.4415 C121.2641,70.1105 121.4631,69.8525 121.7081,69.7965 C122.6661,69.5765 123.1661,69.0085 123.1751,68.0335 C123.2021,64.9595 123.2191,61.8865 123.2391,58.8125 C123.2441,57.8585 122.9191,57.1995 121.8411,57.0775 C121.6221,57.0525 121.4411,56.6855 121.1491,56.3785" id="Fill-36"></path>
                <path d="M65.7124,70.4952 L57.5914,70.4952 C58.0074,70.1412 58.1874,69.8622 58.4164,69.8142 C59.4894,69.5862 59.9954,68.9142 60.0024,67.8682 C60.0224,64.7922 60.0164,61.7152 60.0154,58.6392 C60.0144,57.7552 59.6154,57.2322 58.6934,57.0852 C58.4314,57.0442 58.2164,56.7112 57.8324,56.3872 C59.8224,56.0702 61.4984,55.8032 63.3464,55.5092 C63.3814,55.8032 63.4654,56.1672 63.4634,56.5312 C63.4474,60.1252 63.4174,63.7182 63.3894,67.3122 C63.3794,68.5592 63.5794,69.6452 65.1254,69.8432 C65.2914,69.8642 65.4224,70.1612 65.7124,70.4952" id="Fill-38"></path>
                <path d="M124.7719,52.8233 C123.5529,52.8103 122.8169,52.0693 122.8539,50.8913 C122.8889,49.7623 123.7219,48.9893 124.8809,49.0103 C126.0349,49.0303 126.8679,49.8723 126.8269,50.9743 C126.7839,52.1053 125.9719,52.8353 124.7719,52.8233" id="Fill-40"></path>
                <path d="M61.6047,52.8223 C60.4207,52.8383 59.5767,52.0583 59.5797,50.9493 C59.5827,49.8733 60.4607,49.0263 61.5907,49.0103 C62.7627,48.9933 63.5817,49.7743 63.5827,50.9103 C63.5847,52.0473 62.7997,52.8063 61.6047,52.8223" id="Fill-42"></path>
            </g>
        </g>
    </g>
</svg>