<?xml version="1.0" encoding="UTF-8"?>
<svg width="10px" height="17px" viewBox="0 0 10 17" version="1.1" xmlns="http://www.w3.org/2000/svg" xmlns:xlink="http://www.w3.org/1999/xlink">
    <!-- Generator: Sketch 40.3 (33839) - http://www.bohemiancoding.com/sketch -->
    <title>i-arrow-down</title>
    <desc>Created with Sketch.</desc>
    <defs></defs>
    <g id="Symbols" stroke="none" stroke-width="1" fill="none" fill-rule="evenodd">
        <g id="bus-schedual-myTRip" transform="translate(-384.000000, -60.000000)" fill="#9B9B9B">
            <path d="M388.611236,60.4482295 L388.611236,75.3213805 L384.763932,71.4740774 C384.676378,71.3865232 384.56193,71.3434932 384.447482,71.3434932 C384.333333,71.3434932 384.21769,71.3865232 384.131331,71.4740774 C383.956223,71.6491857 383.956223,71.9330644 384.131331,72.1081727 L388.681159,76.6591962 C388.856268,76.8343045 389.140146,76.8343045 389.314956,76.6591962 L393.868669,72.1069774 C394.043777,71.9318691 394.043777,71.6479904 393.868669,71.4731809 C393.69356,71.2980726 393.409981,71.2980726 393.234872,71.4731809 L389.507695,75.2000598 L389.507695,60.4482295 C389.507695,60.2008068 389.306888,60 389.059465,60 C388.812042,60 388.611236,60.2008068 388.611236,60.4482295 L388.611236,60.4482295 L388.611236,60.4482295 Z" id="i-arrow-down"></path>
        </g>
    </g>
</svg>