<?xml version="1.0" encoding="UTF-8"?>
<svg width="14px" height="15px" viewBox="0 0 14 15" version="1.1" xmlns="http://www.w3.org/2000/svg" xmlns:xlink="http://www.w3.org/1999/xlink">
    <!-- Generator: Sketch 40.3 (33839) - http://www.bohemiancoding.com/sketch -->
    <title>i-bus</title>
    <desc>Created with Sketch.</desc>
    <defs></defs>
    <g id="Symbols" stroke="none" stroke-width="1" fill="none" fill-rule="evenodd">
        <g id="bus-schedual-myTRip" transform="translate(-107.000000, -47.000000)" fill="#D1D1D1">
            <g id="Group-2" transform="translate(107.000000, 24.000000)">
                <path d="M1.49338087,38 L2.98652192,38 L2.98652192,36.506859 L10.4867617,36.506859 L10.4867617,38 L11.9799028,38 L11.9799028,36.506859 L13.4732837,36.506859 L13.4732837,25.2483452 C13.4732837,24.0070188 12.466025,23 11.2249384,23 L2.24834522,23 C1.00701883,23 0,24.0070188 0,25.2483452 L0,36.4900713 L1.49338087,36.4900713 L1.49338087,38 Z M11.2417261,34.9966904 C10.8275509,34.9966904 10.4867617,34.6547021 10.4867617,34.2417261 C10.4867617,33.8275509 10.8285102,33.4865219 11.2417261,33.4865219 C11.6559013,33.4865219 11.9966904,33.8285102 11.9966904,34.2417261 C11.9966904,34.6547021 11.6559013,34.9966904 11.2417261,34.9966904 L11.2417261,34.9966904 Z M3.74172609,24.5099287 L9.73155757,24.5099287 L9.73155757,26.0033096 L3.74172609,26.0033096 L3.74172609,24.5099287 Z M1.49338087,27.4966904 L11.9799028,27.4966904 L11.9799028,31.9933809 L1.49338087,31.9933809 L1.49338087,27.4966904 Z M3.00330956,34.2585137 C3.00330956,34.6724491 2.66156109,35.0134781 2.24834522,35.0134781 C1.83417005,35.0134781 1.49338087,34.6717296 1.49338087,34.2585137 C1.49338087,33.8275509 1.83417005,33.5033096 2.24834522,33.5033096 C2.66252038,33.5033096 3.00330956,33.8452979 3.00330956,34.2585137 Z" id="i-bus"></path>
            </g>
        </g>
    </g>
</svg>