<?xml version="1.0" encoding="UTF-8"?>
<svg width="19px" height="19px" viewBox="0 0 19 19" version="1.1" xmlns="http://www.w3.org/2000/svg" xmlns:xlink="http://www.w3.org/1999/xlink">
    <!-- Generator: Sketch 42 (36781) - http://www.bohemiancoding.com/sketch -->
    <title>i-go-arrow</title>
    <desc>Created with Sketch.</desc>
    <defs></defs>
    <g id="Page-1" stroke="none" stroke-width="1" fill="none" fill-rule="evenodd">
        <g id="i-go-arrow">
            <circle id="Oval-7" fill="#D1D1D1" cx="9.5" cy="9.5" r="9.5"></circle>
            <g id="Group-11" transform="translate(2.500000, 3.250000)" fill="#FFFFFF">
                <g id="Group-10" transform="translate(7.500000, 0.699951)">
                    <path d="M5.9754863,5.37193291 L1.37806709,0.774513704 C1.2878151,0.684261707 1.12275734,0.677495193 1.02512627,0.775126266 C0.930350479,0.869902053 0.927220939,1.03077433 1.0245137,1.12806709 L5.44724741,5.5508008 L1.0245137,9.97353451 C0.927220939,10.0708273 0.930350479,10.2316995 1.02512627,10.3264753 C1.12275734,10.4241064 1.2878151,10.4173399 1.37806709,10.3270879 L5.9754863,5.7296687 C6.02449969,5.6806553 6.04802726,5.61550628 6.04719104,5.5508008 C6.04802726,5.48609532 6.02449969,5.4209463 5.9754863,5.37193291 Z" id="Combined-Shape"></path>
                </g>
                <rect id="Rectangle-13" x="0" y="6" width="13" height="0.5" rx="0.25"></rect>
            </g>
        </g>
    </g>
</svg>