<?xml version="1.0" encoding="UTF-8"?>
<svg width="320px" height="79px" viewBox="0 0 320 79" version="1.1" xmlns="http://www.w3.org/2000/svg" xmlns:xlink="http://www.w3.org/1999/xlink">
    <!-- Generator: Sketch 44.1 (41455) - http://www.bohemiancoding.com/sketch -->
    <title>logo-stanford-red</title>
    <desc>Created with Sketch.</desc>
    <defs></defs>
    <g id="Page-1" stroke="none" stroke-width="1" fill="none" fill-rule="evenodd">
        <g id="logo-stanford-red">
            <g id="Page-1" transform="translate(66.000000, 0.000000)" fill="#FFFFFF">
                <path d="M106.56,0.24 C107.893,0.738 109.241,1.2 110.553,1.747 C111.415,2.107 111.513,2.69 110.883,3.432 C110.367,4.04 109.915,4.705 109.472,5.369 C108.935,6.174 108.557,6.211 108.063,5.288 C107.085,3.464 105.625,2.718 103.864,3.013 C102.138,3.301 101.155,4.276 101.058,6.218 C100.937,8.646 101.029,11.084 101.029,13.627 L105.966,13.627 L105.966,16.549 L101.112,16.549 C101.032,16.85 100.94,17.032 100.941,17.213 C100.944,22.249 100.897,27.285 100.992,32.319 C101.043,35.036 101.653,35.538 104.349,35.728 C104.547,35.742 104.746,35.756 105.029,35.775 C105.057,36.122 105.085,36.464 105.117,36.853 L92.479,36.853 L92.479,35.916 C92.615,35.88 92.758,35.831 92.904,35.804 C94.59,35.495 95.446,34.854 95.47,33.293 C95.557,27.787 95.504,22.278 95.504,16.642 L92.812,16.642 C92.503,15.74 92.595,15.168 93.517,14.912 C95.272,14.424 95.911,13.332 95.787,11.454 C95.681,9.849 95.915,8.173 96.288,6.597 C97.122,3.081 99.47,1.092 103.02,0.495 C103.325,0.443 103.62,0.326 103.92,0.24 L106.56,0.24 Z" id="Fill-4"></path>
                <path d="M169.0732,25.3382 C169.0732,23.0232 169.1032,20.7072 169.0472,18.3932 C169.0362,17.9472 168.8122,17.3462 168.4772,17.0942 C165.1122,14.5552 159.9752,16.0562 158.5632,20.0112 C157.5922,22.7332 157.4542,25.5442 158.1052,28.3732 C159.3742,33.8872 164.1842,34.5722 167.8462,33.6182 C168.7412,33.3852 169.1342,32.9222 169.0982,31.9242 C169.0182,29.7312 169.0732,27.5342 169.0732,25.3382 M177.3322,35.0352 L177.3322,35.9972 C174.8302,36.4352 172.4052,36.8812 169.9682,37.2482 C169.7412,37.2822 169.3422,36.8542 169.1972,36.5562 C169.0562,36.2672 169.1392,35.8692 169.1262,35.5652 C167.6432,36.1112 166.2412,36.8442 164.7512,37.1382 C158.0572,38.4602 152.7072,34.2522 152.2102,27.3742 C152.0412,25.0392 152.2872,22.7502 153.1062,20.5392 C154.7462,16.1162 158.8262,13.2812 163.7522,13.1762 C165.4592,13.1392 167.1682,13.1702 169.0672,13.1702 C169.0672,11.4302 169.0752,9.4482 169.0632,7.4672 C169.0582,6.7092 169.0212,5.9502 168.9752,5.1932 C168.8752,3.5112 168.5202,3.0742 166.8642,2.8722 C166.0802,2.7762 165.9182,2.4632 166.1382,1.8212 C168.8792,1.3872 171.5822,0.9592 174.3592,0.5192 C174.3592,1.9332 174.3582,3.3142 174.3592,4.6942 C174.3602,13.7232 174.3222,22.7522 174.3872,31.7802 C174.4062,34.4312 174.6292,34.5312 177.3322,35.0352" id="Fill-6"></path>
                <path d="M89.6276,36.8529 L77.7416,36.8529 C78.1986,36.3659 78.4196,35.9239 78.7506,35.8139 C80.5446,35.2179 81.0686,34.7459 81.1066,32.8339 C81.1846,28.8829 81.2346,24.9259 81.1036,20.9779 C81.0066,18.0289 79.3626,16.5819 76.4296,16.4559 C76.1896,16.4459 75.9496,16.4509 75.7106,16.4649 C72.0706,16.6929 71.8766,16.8879 71.8886,20.4869 C71.9026,24.5649 71.9166,28.6429 71.9686,32.7209 C71.9896,34.3519 72.4216,35.6089 74.4026,35.8389 C74.6666,35.8699 74.8746,36.3829 75.1736,36.7519 L69.1566,36.7519 L63.4206,36.7519 C63.2616,36.2339 63.3646,35.8949 64.2066,35.7469 C65.6916,35.4849 66.4396,34.7219 66.4626,33.2209 C66.5406,28.1489 66.5236,23.0759 66.5126,18.0029 C66.5096,16.7469 65.7536,16.1079 64.5376,16.0499 C63.6766,16.0089 63.2436,15.7159 63.5736,14.7609 C65.2066,14.5709 66.8616,14.4099 68.5056,14.1739 C69.1696,14.0789 69.8276,13.8669 70.4576,13.6279 C71.7166,13.1489 71.7066,13.1259 71.7466,14.4329 C71.7526,14.6309 71.7656,14.8279 71.7766,15.0349 C73.1936,14.4909 74.5406,13.7689 75.9746,13.4819 C77.4356,13.1879 79.0116,13.1099 80.4876,13.3089 C83.9916,13.7819 86.2216,16.2669 86.3696,19.8199 C86.5326,23.7309 86.5226,27.6499 86.5966,31.5659 C86.6096,32.2439 86.6416,32.9239 86.7136,33.5979 C86.8506,34.8819 87.5726,35.6489 88.8656,35.7689 C89.6096,35.8379 89.8696,36.1369 89.6276,36.8529" id="Fill-8"></path>
                <path d="M0.5939,29.3144 L1.7409,29.3144 C2.6409,33.2024 5.1259,34.7644 9.5239,34.2564 C9.7619,34.2284 9.9959,34.1724 10.2339,34.1404 C12.2249,33.8744 13.8909,33.1024 14.4839,31.0104 C15.1259,28.7444 14.8649,26.5814 12.9709,24.9854 C11.5099,23.7544 9.8789,22.7254 8.3169,21.6164 C7.1449,20.7834 5.9359,20.0014 4.7909,19.1344 C1.7009,16.7924 0.5959,13.6804 1.4629,9.9274 C2.3019,6.3014 4.8399,4.4674 8.3349,3.7744 C12.0049,3.0464 15.6379,3.6014 19.3299,4.0244 L19.3299,10.7494 C18.5909,11.1114 18.1619,10.9564 18.0739,10.0504 C17.8869,8.1184 16.7679,6.9204 14.9049,6.6824 C13.1459,6.4574 11.3319,6.3794 9.5699,6.5394 C8.0339,6.6784 6.7569,7.5754 6.3259,9.1794 C5.8519,10.9444 5.8499,12.7524 7.3079,14.0864 C8.5079,15.1834 9.8919,16.0864 11.2299,17.0244 C12.7659,18.1014 14.3559,19.1014 15.8989,20.1704 C19.5879,22.7254 20.5849,26.3224 19.5929,30.4964 C18.6339,34.5334 15.5639,36.2594 11.7729,36.9094 C8.3369,37.4984 4.9349,37.1674 1.5679,36.2744 C0.7899,36.0684 0.5599,35.7204 0.5789,34.9554 C0.6249,33.0884 0.5939,31.2184 0.5939,29.3144" id="Fill-10"></path>
                <path d="M114.6819,31.4601 C115.663788,33.4202 117.1179,34.6551 119.4189,34.6731 C121.7839,34.6921 123.4229,33.5011 124.2759,31.4211 C125.9899,27.2421 125.9549,23.0031 124.0999,18.8651 C123.2109,16.8831 121.6079,15.8111 119.3569,15.8211 C117.1039,15.8311 115.4419,16.9041 114.6729,18.9221 C113.9319,20.8641 113.700012,22.5 113.700012,25 C113.700012,25 113.59434,26.2806623 113.700012,27.5 C113.805684,28.7193377 114.16706,30.4323471 114.6819,31.4601 Z M130.4119,29.2211 C128.8089,35.0351 123.6169,38.2341 117.3749,37.3351 C111.4569,36.4831 107.9429,32.5621 107.8419,26.4871 C107.8139,24.7531 107.9789,22.9521 108.4349,21.2861 C109.9759,15.6611 114.6959,12.5671 120.6169,13.1031 C127.3629,13.7141 131.0099,17.8311 131.1769,24.8781 C130.9289,26.3271 130.8009,27.8101 130.4119,29.2211 Z" id="Fill-12"></path>
                <path d="M52.7623,25.0647 C50.5903,25.6357 48.5743,26.1797 46.9363,27.4817 C45.6793,28.4797 45.4413,29.9597 45.7663,31.5197 C46.0233,32.7477 46.7683,33.5357 47.9663,33.7777 C49.4103,34.0697 50.8403,33.9167 52.1393,33.1597 C52.4063,33.0037 52.7303,32.6527 52.7353,32.3867 C52.7813,30.0027 52.7623,27.6177 52.7623,25.0647 M43.5143,18.9127 C42.3273,18.6647 42.2693,18.0247 42.7813,17.0947 C43.7783,15.2857 45.2743,14.0927 47.2193,13.4867 C49.4143,12.8017 51.6473,12.8247 53.8223,13.5337 C56.7863,14.4997 57.9343,16.8417 58.0013,19.7287 C58.0793,23.0797 57.9503,26.4357 57.9203,29.7887 C57.9143,30.5047 57.8863,31.2297 57.9783,31.9357 C58.2273,33.8587 58.9773,34.2617 60.7413,33.4557 C60.9463,33.6797 61.1593,33.9117 61.4133,34.1887 C60.6223,35.4437 59.6173,36.4257 58.2143,36.9197 C56.0623,37.6767 54.2933,37.0407 52.9033,35.0017 C51.1053,36.6357 48.9903,37.3217 46.5573,37.2017 C43.2093,37.0347 41.1093,35.3957 40.5003,32.3257 C39.8493,29.0437 41.2113,26.2237 44.1973,24.9577 C45.9193,24.2277 47.7213,23.6837 49.4923,23.0717 C50.0943,22.8637 50.7023,22.6297 51.3263,22.5367 C52.5783,22.3507 52.9133,21.6707 52.7823,20.4727 C52.5753,18.5807 51.9023,17.0787 49.9823,16.4037 C47.9763,15.6987 45.6613,16.3017 44.3023,17.8857 C44.0193,18.2147 43.7713,18.5757 43.5143,18.9127" id="Fill-14"></path>
                <path d="M30.208,13.7291 L38.071,13.7291 L38.071,16.6451 L30.338,16.6451 C30.293,17.0481 30.231,17.3481 30.23,17.6491 C30.224,21.6071 30.226,25.5661 30.227,29.5241 C30.227,29.7241 30.23,29.9241 30.243,30.1231 C30.486,33.9071 32.751,35.4341 36.373,34.2511 C36.782,34.1181 37.179,33.9471 37.94,33.9471 C37.815,34.3771 37.818,34.9251 37.545,35.2191 C35.317,37.6211 29.978,38.1351 27.303,36.2231 C25.719,35.0911 25.023,33.4331 24.998,31.5611 C24.937,27.0851 24.976,22.6081 24.974,18.1311 C24.974,17.6991 24.974,17.2681 24.974,16.6801 C24.08,16.6801 23.292,16.7091 22.509,16.6611 C22.299,16.6481 21.967,16.4231 21.937,16.2531 C21.902,16.0551 22.083,15.6781 22.263,15.6031 C25.36,14.3211 27.258,11.8581 28.866,9.0691 C29.054,8.7441 29.61,8.6321 30.208,8.3041 L30.208,13.7291 Z" id="Fill-16"></path>
                <path d="M141.5441,13.5129 C141.5881,14.0109 141.6371,14.5529 141.7021,15.2879 C142.1201,15.0219 142.4581,14.7939 142.8091,14.5869 C145.2091,13.1689 147.6741,12.9099 150.2211,14.1819 C151.1171,14.6299 151.3031,15.2599 150.7731,16.1359 C150.3191,16.8869 149.9341,17.6779 149.5051,18.4439 C148.9591,19.4219 148.4781,19.4689 147.7241,18.6369 C146.4291,17.2079 144.5211,16.7299 142.7101,17.3209 C141.9331,17.5739 141.7001,18.0339 141.7101,18.8339 C141.7671,23.3079 141.7551,27.7829 141.8011,32.2569 C141.8271,34.8589 142.4421,35.4659 145.0501,35.6329 C145.2851,35.6479 145.5201,35.6679 145.8271,35.6909 L145.8271,36.8519 L133.2891,36.8519 C133.2701,36.5879 133.2461,36.2579 133.2241,35.9429 C135.8831,35.2399 136.3451,34.8219 136.3981,32.1889 C136.4891,27.5989 136.4751,23.0059 136.4061,18.4149 C136.3801,16.6469 135.9401,16.2489 134.2011,16.0549 C133.1271,15.9349 133.2541,15.3589 133.3961,14.7479 C136.1361,14.3329 138.7931,13.9299 141.5441,13.5129" id="Fill-18"></path>
                <path d="M19.0148,49.6545 C21.5718,49.6545 23.8058,49.6465 26.0388,49.6665 C26.2678,49.6685 26.4958,49.8425 26.7238,49.9365 C26.5318,50.1385 26.3678,50.4715 26.1418,50.5225 C25.0738,50.7605 24.7178,51.5095 24.7138,52.4605 C24.6968,56.4575 24.6548,60.4555 24.7468,64.4505 C24.7848,66.1305 25.2798,67.7855 27.0878,68.4315 C29.1908,69.1835 31.3418,69.2915 33.2668,67.9085 C34.4778,67.0375 34.7328,65.6095 34.7608,64.2565 C34.8418,60.2615 34.8098,56.2635 34.8028,52.2675 C34.8008,51.3755 34.4078,50.7565 33.4628,50.5355 C33.2088,50.4765 33.0098,50.1795 32.9158,49.7425 L39.9718,49.7425 C39.5678,50.1305 39.3868,50.4585 39.1438,50.5125 C37.9488,50.7775 37.6768,51.6405 37.6688,52.6695 C37.6458,55.7865 37.6628,58.9045 37.6228,62.0225 C37.6088,63.0985 37.5508,64.1845 37.3818,65.2455 C36.9438,68.0015 35.4128,69.9205 32.6268,70.4305 C30.8838,70.7495 29.0298,70.8645 27.2758,70.6525 C23.1178,70.1505 21.3458,68.0255 21.2468,63.7045 C21.1668,60.1895 21.1688,56.6725 21.1778,53.1555 C21.1808,51.8795 21.1398,50.7175 19.5258,50.4355 C19.3688,50.4075 19.2688,50.0575 19.0148,49.6545" id="Fill-20"></path>
                <path d="M45.2584,55.6492 C45.3004,55.8652 45.3664,56.2062 45.4474,56.6272 C47.0084,55.6592 48.6694,55.2242 50.4874,55.4122 C53.0024,55.6712 54.5834,57.2482 54.6814,59.8032 C54.7674,62.0392 54.7274,64.2802 54.7554,66.5192 C54.7614,67.0362 54.8254,67.5532 54.8444,68.0712 C54.8804,69.0252 55.2784,69.6602 56.2764,69.8532 C56.4694,69.8902 56.6294,70.1042 56.6974,70.4732 L49.4024,70.4732 C49.3624,70.3972 49.3214,70.3222 49.2804,70.2472 C49.4844,70.0992 49.6694,69.8782 49.8974,69.8172 C50.8074,69.5742 51.2524,68.9512 51.2654,68.0752 C51.3064,65.4792 51.4554,62.8712 51.2564,60.2912 C51.0594,57.7482 47.8624,56.4942 45.7554,57.9972 C45.5504,58.1442 45.4104,58.5192 45.4084,58.7902 C45.3854,61.6692 45.3684,64.5482 45.4114,67.4262 C45.4294,68.5752 45.5964,69.7212 47.1164,69.8812 C47.2044,69.8912 47.2954,70.0172 47.3514,70.1092 C47.3864,70.1672 47.3574,70.2632 47.3574,70.4512 L39.7064,70.4512 C40.1054,70.1322 40.2724,69.8982 40.4854,69.8442 C41.4964,69.5902 41.9684,68.9012 41.9784,67.9312 C42.0124,64.8142 42.0074,61.6952 41.9964,58.5782 C41.9934,57.7022 41.4454,57.3292 40.6284,57.2012 C40.4214,57.1682 40.2524,56.9002 40.0654,56.7392 C40.2494,56.5862 40.4174,56.3282 40.6204,56.2972 C42.1384,56.0592 43.6644,55.8662 45.2584,55.6492" id="Fill-22"></path>
                <path d="M151.9662,55.7453 L157.9792,55.7453 C157.8482,56.0773 157.7932,56.3813 157.6282,56.6033 C157.0832,57.3383 156.2802,57.9583 155.9632,58.7733 C153.9072,64.0513 151.9812,69.3803 149.9582,74.6713 C148.6172,78.1783 146.1562,79.5123 142.7232,78.7093 C142.4912,78.6543 142.2242,78.6213 142.0482,78.4833 C141.6122,78.1403 140.8082,77.5503 140.8792,77.3983 C141.1862,76.7403 141.7402,76.1903 142.2502,75.6443 C142.2952,75.5963 142.7142,75.8163 142.8902,75.9833 C144.2362,77.2643 146.0012,77.1803 146.9682,75.5863 C147.7462,74.3023 148.2752,72.8603 148.8372,71.4573 C148.9602,71.1503 148.8212,70.6843 148.6872,70.3353 C147.1202,66.2803 145.5622,62.2203 143.9152,58.1973 C143.6612,57.5763 142.9642,57.1413 142.4922,56.6033 C142.3152,56.4023 142.1952,56.1503 141.9492,55.7653 L149.1072,55.7653 C148.7962,56.1553 148.6552,56.5213 148.4262,56.5873 C147.2812,56.9213 147.3012,57.6683 147.6352,58.5593 C148.6122,61.1723 149.5952,63.7843 150.6372,66.5613 C150.8172,66.2093 150.9622,65.9943 151.0432,65.7573 C151.8652,63.3423 152.6792,60.9233 153.4912,58.5043 C153.7832,57.6323 153.7032,56.9453 152.6662,56.6123 C152.4252,56.5353 152.2822,56.1523 151.9662,55.7453" id="Fill-24"></path>
                <path d="M90.9122,60.7016 C90.8862,58.1906 89.9712,57.0776 88.0272,57.1066 C86.2512,57.1326 85.1812,58.4956 85.2602,60.7016 L90.9122,60.7016 Z M85.2182,62.5136 C84.9582,67.7056 88.5252,69.8476 93.6102,67.7776 C94.2422,68.2266 94.1142,68.6546 93.5762,69.0886 C91.1272,71.0616 88.3782,71.2616 85.5612,70.2076 C83.0282,69.2596 82.0392,67.1246 81.8432,64.5546 C81.6862,62.4836 81.9692,60.4956 82.9822,58.6486 C84.6882,55.5416 89.0082,54.3916 92.0342,56.2396 C93.8252,57.3346 94.7632,59.8536 94.2852,62.5136 L85.2182,62.5136 Z" id="Fill-26"></path>
                <path d="M81.9502,55.7459 C81.7312,56.1149 81.6092,56.3989 81.4182,56.6259 C80.8532,57.2999 80.0702,57.8609 79.7122,58.6249 C78.0182,62.2349 76.4292,65.8939 74.8242,69.5439 C74.5202,70.2369 74.1892,70.9789 73.3282,70.7369 C72.9052,70.6179 72.5002,70.0259 72.3082,69.5579 C70.8262,65.9429 69.4022,62.3039 67.9512,58.6769 C67.6012,57.8029 67.3932,56.8119 66.2402,56.5479 C66.1052,56.5169 66.0582,56.1039 65.9322,55.7649 L73.0182,55.7649 C72.5972,56.1899 72.4142,56.5129 72.1452,56.6209 C71.3532,56.9389 71.1192,57.4599 71.4062,58.2319 C72.3332,60.7309 73.2702,63.2269 74.3012,65.9849 C75.4062,63.1949 76.4582,60.6589 77.3772,58.0759 C77.4992,57.7319 76.9832,57.1219 76.6912,56.6819 C76.5122,56.4119 76.1972,56.2319 75.9442,56.0119 C76.0092,55.9229 76.0752,55.8349 76.1412,55.7459 L81.9502,55.7459 Z" id="Fill-28"></path>
                <path d="M118.242,55.7478 L118.242,59.7928 C117.74,59.3988 117.32,59.2378 117.204,58.9518 C116.541,57.3128 114.869,56.5538 113.224,57.2158 C111.866,57.7628 111.709,59.4788 113.005,60.3918 C114.111,61.1708 115.326,61.7928 116.47,62.5208 C118.37,63.7298 119.016,65.2418 118.605,67.2888 C118.257,69.0218 117.129,69.9738 115.515,70.4258 C113.58,70.9688 111.635,70.8678 109.735,70.2788 C109.414,70.1788 109.044,69.6718 109.009,69.3228 C108.911,68.3378 108.975,67.3368 108.975,65.9688 C109.352,66.3018 109.781,66.4958 109.875,66.7948 C110.502,68.7848 113.062,69.7708 114.831,68.6548 C115.951,67.9488 116.037,66.4058 114.889,65.5168 C113.82,64.6908 112.628,64.0238 111.483,63.2978 C110.237,62.5068 109.394,61.4488 109.254,59.9358 C109.036,57.5668 110.505,55.7718 112.955,55.5018 C113.941,55.3938 114.949,55.4318 115.943,55.4728 C116.692,55.5038 117.436,55.6468 118.242,55.7478" id="Fill-30"></path>
                <path d="M132.015,57.6349 C131.304,57.5949 130.725,57.5629 130.145,57.5309 C131.857,55.7899 133.524,54.0959 135.346,52.2429 L135.346,55.6419 L140.356,55.6419 L140.356,57.5639 L135.573,57.5639 C135.573,60.8479 135.515,63.9879 135.603,67.1229 C135.637,68.3209 136.518,68.9789 137.715,68.9639 C138.533,68.9539 139.348,68.7559 140.42,68.6059 C140.224,69.0109 140.157,69.3939 139.93,69.5819 C138.19,71.0199 136.186,71.1529 134.179,70.3989 C132.381,69.7239 132.024,68.0809 132.018,66.3549 C132.008,63.4859 132.015,60.6169 132.015,57.6349" id="Fill-32"></path>
                <path d="M103.8776,70.4842 L96.0466,70.4842 C96.0026,70.4082 95.9596,70.3312 95.9156,70.2552 C96.1376,70.0782 96.3336,69.8102 96.5846,69.7392 C97.5496,69.4642 97.9376,68.7922 97.9456,67.8672 C97.9716,64.9152 97.9626,61.9622 97.9916,59.0102 C98.0016,57.9952 97.6996,57.3152 96.5676,57.1752 C96.3236,57.1452 96.1246,56.7652 95.7786,56.4222 C97.7526,56.1222 99.4256,55.8672 101.1886,55.5982 C101.2426,55.8382 101.3166,56.1712 101.4076,56.5802 C101.5786,56.5112 101.7606,56.4682 101.9076,56.3722 C103.2586,55.4892 104.7046,55.2302 106.2456,55.7462 C107.3836,56.1272 107.5286,56.5462 106.9706,57.6262 C106.8426,57.8742 106.6886,58.1092 106.5756,58.3632 C106.1756,59.2622 105.7766,59.5392 104.9456,58.6672 C104.5266,58.2272 103.7666,57.9902 103.1286,57.9062 C101.8486,57.7372 101.4036,58.2042 101.4086,59.4942 C101.4206,62.2482 101.4676,65.0022 101.4526,67.7552 C101.4456,68.9882 101.9876,69.5962 103.2076,69.7022 C103.5166,69.7292 103.8056,69.9802 104.1046,70.1292 C104.0286,70.2472 103.9536,70.3662 103.8776,70.4842" id="Fill-34"></path>
                <path d="M121.1491,56.3785 C123.1231,56.0595 124.7651,55.7935 126.6621,55.4865 C126.6621,56.4375 126.6621,57.4395 126.6621,58.4405 C126.6621,61.4775 126.6861,64.5145 126.6491,67.5505 C126.6341,68.7975 126.9951,69.6605 128.3581,69.8345 C128.5821,69.8635 128.7971,69.9585 129.0171,70.0225 C128.9141,70.1625 128.8121,70.3015 128.7091,70.4415 L120.8231,70.4415 C121.2641,70.1105 121.4631,69.8525 121.7081,69.7965 C122.6661,69.5765 123.1661,69.0085 123.1751,68.0335 C123.2021,64.9595 123.2191,61.8865 123.2391,58.8125 C123.2441,57.8585 122.9191,57.1995 121.8411,57.0775 C121.6221,57.0525 121.4411,56.6855 121.1491,56.3785" id="Fill-36"></path>
                <path d="M65.7124,70.4952 L57.5914,70.4952 C58.0074,70.1412 58.1874,69.8622 58.4164,69.8142 C59.4894,69.5862 59.9954,68.9142 60.0024,67.8682 C60.0224,64.7922 60.0164,61.7152 60.0154,58.6392 C60.0144,57.7552 59.6154,57.2322 58.6934,57.0852 C58.4314,57.0442 58.2164,56.7112 57.8324,56.3872 C59.8224,56.0702 61.4984,55.8032 63.3464,55.5092 C63.3814,55.8032 63.4654,56.1672 63.4634,56.5312 C63.4474,60.1252 63.4174,63.7182 63.3894,67.3122 C63.3794,68.5592 63.5794,69.6452 65.1254,69.8432 C65.2914,69.8642 65.4224,70.1612 65.7124,70.4952" id="Fill-38"></path>
                <path d="M121.7719,51.8233 C120.5529,51.8103 119.8169,51.0693 119.8539,49.8913 C119.8889,48.7623 120.7219,47.9893 121.8809,48.0103 C123.0349,48.0303 123.8679,48.8723 123.8269,49.9743 C123.7839,51.1053 122.9719,51.8353 121.7719,51.8233" id="Fill-40"></path>
                <path d="M58.6047,51.8223 C57.4207,51.8383 56.5767,51.0583 56.5797,49.9493 C56.5827,48.8733 57.4607,48.0263 58.5907,48.0103 C59.7627,47.9933 60.5817,48.7743 60.5827,49.9103 C60.5847,51.0473 59.7997,51.8063 58.6047,51.8223" id="Fill-42"></path>
            </g>
            <g id="Page-1" fill="#FFFFFF">
                <path d="M30.6079263,27.447495 C30.8057227,27.6116646 31.0516353,27.7173538 31.2559627,27.874893 C31.7709796,28.2719237 32.3438426,28.3666063 32.9886801,28.3573237 C35.1409817,28.3266911 37.2939497,28.3500302 39.4466512,28.3403498 C39.7272182,28.3391563 39.9302127,28.4146107 40.1314745,28.6159108 C43.0095181,31.4968361 45.8982246,34.3672853 48.7722697,37.2523215 C48.9170182,37.3976607 49.0253797,37.6524021 49.0256463,37.8563544 C49.0381752,46.3248825 49.0351096,54.7934105 49.042307,63.2619385 C49.0425736,63.5352452 48.9508729,63.720367 48.7598741,63.9028367 C46.5036094,66.0587899 44.2530761,68.2205779 42.0009433,70.3807746 C40.8882721,71.4480099 39.781199,72.5213452 38.6545328,73.5737284 C38.5231128,73.6966567 38.2822651,73.756198 38.0919328,73.7565958 C32.1535103,73.7658785 26.2150878,73.7640219 20.2766653,73.7640219 C17.1713691,73.7640219 14.0659397,73.7604415 10.9606435,73.7699893 C10.6770109,73.7709176 10.4809473,73.6835284 10.2791524,73.489124 C6.93020943,70.2626202 3.57180321,67.0459295 0.226459,63.8158453 C0.0973049087,63.6911931 0.0173333352,63.4536908 0.0168001914,63.268569 C0.00533759919,58.8743125 0.0121351829,54.4799234 6.16095964e-06,50.0856669 C-0.00106012669,49.7227167 0.136224408,49.6625123 0.45651056,49.6631754 C4.76191351,49.6713971 9.06731645,49.6658276 13.3727194,49.6739167 C13.7397889,49.6747124 14.0116923,49.651771 14.1885627,49.2432034 C14.3795615,48.8021467 14.8489946,48.6406292 15.2755097,48.4655857 C15.4149268,48.4082987 15.5442142,48.3266117 15.6585735,48.1693377 C15.5839334,48.1552812 15.5086268,48.1267703 15.4345198,48.1295551 C15.1015715,48.1418877 14.7688898,48.1774268 14.4360748,48.1780899 C13.6642158,48.1798138 13.2550279,47.7224462 13.3251363,46.956498 C13.3328669,46.8729545 13.3404642,46.7894109 13.3523266,46.6598522 C13.1899844,46.6484478 13.0487012,46.6301478 12.9074181,46.6298826 C11.7815517,46.6274957 10.6555519,46.6387674 9.53008529,46.6186109 C9.3440181,46.6152956 9.11276696,46.526713 8.9824133,46.3975521 C6.06291772,43.5056202 3.1523523,40.6048036 0.251783332,37.6939087 C0.114765369,37.5563934 0.017999765,37.311465 0.0177331931,37.1163975 C0.00640388684,28.2540215 0.00627060088,19.3915128 0.0183996229,10.5291367 C0.0186661948,10.3231953 0.117964232,10.061293 0.263779068,9.92032992 C2.57762326,7.68202665 4.9071952,5.45990165 7.23183555,3.23260491 C8.23841109,2.26840662 9.24698592,1.30606484 10.2432984,0.331390454 C10.4786814,0.101314255 10.7195292,-0.000396663996 11.0579422,1.16228533e-06 C20.0522118,0.00901855799 29.0464814,0.00795768791 38.040751,0.00305116377 C38.2895958,0.00291855501 38.4804613,0.0527794489 38.668128,0.233790407 C40.5323986,2.0319652 42.4075987,3.81913346 44.276801,5.61226912 C45.7901297,7.06393722 47.3035917,8.5153401 48.8034586,9.9806669 C48.9331458,10.1073083 49.0263127,10.3367214 49.0268459,10.5186606 C49.0388416,15.355963 49.0364425,20.193398 49.0356427,25.0308329 C49.0356427,25.1505787 49.0252464,25.270457 49.018049,25.422957 C48.4186621,25.422957 47.8517969,25.4240179 47.2847984,25.4226918 C43.3509967,25.4140723 39.4170617,25.407044 35.48326,25.3911309 C35.2102904,25.3899375 35.126187,25.4695027 35.1183231,25.7467876 C35.0924656,26.6639098 34.2756893,27.1532361 33.391337,26.8693208 C32.919638,26.7178816 32.4044877,26.6979903 31.9078643,26.6259837 C31.2117117,26.5252011 30.5147595,26.4307836 29.8178072,26.3349075 C29.715177,26.3207184 29.6114805,26.3136901 29.5083172,26.3033466 C29.8267374,26.7589903 30.207402,27.1151774 30.6079263,27.447495 Z M34.3507293,24.148189 C38.6438699,24.148189 42.9370105,24.1483216 47.2301512,24.1483216 C47.781022,24.1483216 47.7811553,24.1483216 47.7811553,23.5816844 C47.7811553,19.4827476 47.7747576,15.3836782 47.7912851,11.2847415 C47.7928845,10.8878434 47.6654631,10.623289 47.3883616,10.3588671 C44.3445102,7.45592871 41.30679,4.54662512 38.2777334,1.62843674 C38.0282221,1.38788445 37.7884406,1.27437135 37.4353661,1.27503439 C31.5586551,1.28524527 25.6818107,1.28232787 19.8049663,1.28232787 C17.0336847,1.28232787 14.2622699,1.27861483 11.4909883,1.29041701 C11.3011891,1.29121266 11.0612744,1.35566052 10.930121,1.47978232 C9.2281926,3.09111137 7.54225854,4.71901651 5.85112634,6.3416173 C4.45362309,7.68229187 3.06491672,9.03224905 1.648087,10.3525019 C1.35632405,10.6243498 1.24769599,10.8859869 1.24822914,11.2742654 C1.25822558,19.5828672 1.26009159,27.8916017 1.24489699,36.2002036 C1.24396399,36.684756 1.38404753,37.0304671 1.72259385,37.3655694 C4.31847113,39.9353946 6.89848738,42.5211328 9.49623066,45.0889688 C9.64204549,45.2331145 9.9000871,45.3327037 10.1078799,45.3361515 C11.443805,45.358032 12.78013,45.3466276 14.1163217,45.3480863 C14.2429434,45.3482189 14.3695651,45.3618776 14.5521668,45.3724863 C14.3824938,45.6510973 14.2341465,45.8612822 14.1215199,46.0888389 C14.0019624,46.3303194 13.8985325,46.5830717 13.8190941,46.8404653 C13.6386249,47.4258004 13.879206,47.7874245 14.4927213,47.7517527 C15.1796771,47.7119701 15.8762295,47.6375766 16.5405267,47.4688982 C17.119121,47.3219677 17.6629277,47.0326154 18.213532,46.7871566 C18.4799707,46.6684718 18.7492083,46.6460609 18.9218136,46.8673849 C18.9904559,46.9553045 18.9007544,47.2331199 18.804522,47.3697069 C18.2272605,48.1893616 17.3846267,48.5430292 16.4192365,48.7026901 C15.9367413,48.782388 15.4422504,48.8943098 15.0017403,49.0965382 C14.3077204,49.4150644 14.2354794,50.1530322 14.8000787,50.6671563 C14.8765848,50.7369085 14.9920105,50.7643585 15.0894425,50.8114346 C15.0541217,50.8606325 15.018801,50.9098303 14.9834802,50.9590282 C14.6437343,50.9432478 14.3039884,50.9142064 13.9642425,50.9139412 C9.89382266,50.9107586 5.82340286,50.9118195 1.75298305,50.9119521 C1.25662615,50.9119521 1.25595972,50.9124825 1.25582644,51.3991567 C1.25569315,55.1412433 1.25822558,58.8831973 1.25062828,62.6252839 C1.24996185,62.9053536 1.32553499,63.1118254 1.53079536,63.3072907 C3.03159523,64.7360175 4.52439793,66.1729661 6.01800035,67.6089863 C7.60077108,69.1309371 9.18394166,70.65249 10.7608478,72.1804081 C10.9865009,72.39908 11.2216174,72.4944257 11.5459021,72.4940278 C20.0456808,72.485143 28.5453262,72.4786452 37.0449716,72.5033104 C37.6959402,72.505167 38.148446,72.3136799 38.6004187,71.8748775 C41.5652315,68.9963392 44.5527029,66.1408747 47.5219141,63.2667125 C47.6607981,63.1322472 47.7703592,62.893021 47.7706257,62.7024622 C47.7830213,54.6028517 47.7830213,46.5033739 47.7711589,38.4037634 C47.770759,38.2109502 47.6663961,37.9705306 47.5289783,37.8327501 C44.8731223,35.1659879 42.2030048,32.5132822 39.5432835,29.8502331 C39.3512185,29.6578178 39.1558213,29.5870047 38.8896492,29.5883308 C37.0833579,29.5972156 35.2770667,29.5949613 33.4707754,29.5895243 C33.3292257,29.5889939 33.1663503,29.5714895 33.0498583,29.5017373 C32.2661369,29.0332305 31.4929451,28.5472194 30.714955,28.0691649 C29.8467303,27.5355472 29.1567089,26.8233056 28.6027724,25.9773943 C28.508406,25.8331159 28.4504266,25.6653659 28.3725876,25.5021245 C29.6835882,25.9817704 30.9410079,26.1345357 32.2174875,26.22219 C32.678657,26.2538835 33.1408927,26.3597053 33.588067,26.4839597 C34.1691938,26.6456098 34.749121,26.2571988 34.6938073,25.6644376 C34.6698159,25.4085027 34.5394622,25.1507113 34.4111078,24.919309 C34.276489,24.6763697 34.0864232,24.4639305 33.8543724,24.148189 L34.3507293,24.148189 Z" id="Combined-Shape"></path>
                <path d="M28.0609189,20.3841671 C28.3991986,20.3841671 28.737745,20.3741063 29.0754916,20.3865499 C29.5782462,20.405083 30.0897977,20.5127073 30.5808232,20.4508862 C31.4409174,20.3424676 31.7304145,19.5508397 31.1069028,18.9531474 C30.6647933,18.5291367 30.0864655,18.2352547 29.5425256,17.9294587 C29.1470661,17.7070615 28.6922944,17.5889792 28.2955022,17.3685678 C28.0634513,17.2397628 27.8632558,17.0227932 27.7041124,16.8054265 C27.5625627,16.6120204 27.670391,16.4881134 27.9159037,16.4968504 C28.2237943,16.5078379 28.5343506,16.5373585 28.8394421,16.5104855 C29.3693871,16.4636233 29.6492876,16.0095624 29.3651219,15.5655624 C29.0924189,15.1394336 28.7117542,14.7739345 28.342019,14.4194229 C28.0889089,14.1766394 27.7730212,13.9984569 27.4422055,13.7605714 C27.5596304,13.6934551 27.6482656,13.6416948 27.7378337,13.5916555 C28.2965684,13.2801671 28.4093284,12.7581957 27.9922766,12.2715696 C27.8024774,12.0502315 27.5557651,11.8762852 27.3302453,11.6863209 C27.0292856,11.4326823 26.7165967,11.192414 26.4232343,10.9307002 C26.2463639,10.7729041 26.2362341,10.6116662 26.4553562,10.4477807 C26.6512866,10.3012369 26.8336218,10.1282172 26.9911658,9.94129767 C27.4208797,9.43097567 27.2081553,8.89086834 26.5481233,8.78165546 C26.3122071,8.74260358 26.0776238,8.69640322 25.8423741,8.65337996 C25.8094525,8.59407406 25.7763976,8.53476816 25.743476,8.47546225 C25.9016864,8.36783792 26.0708263,8.272922 26.2157081,8.14967692 C26.4709507,7.93270733 26.6702132,7.66741932 26.5469237,7.31436386 C26.4334973,6.98937281 26.139202,6.9211975 25.824114,6.90623864 C25.5210217,6.89194168 25.3998648,6.6596161 25.3377535,6.42000966 C25.1900727,5.84971986 25.0829108,5.26897209 24.9316312,4.69974132 C24.88818,4.53612057 24.7786189,4.30578068 24.6495981,4.26633166 C24.401553,4.19047835 24.116321,4.25428515 23.9857008,4.53201682 C23.8928005,4.72939428 23.8428182,4.94782004 23.7833727,5.15936208 C23.6242293,5.72647478 23.474016,6.2959703 23.31274,6.86242111 C23.2345011,7.13750519 23.0576307,7.29424222 22.752939,7.3122458 C22.4675737,7.32905796 22.2120646,7.4283424 22.1195641,7.73360894 C22.0303958,8.02788801 22.1584836,8.26458211 22.369342,8.45904723 C22.5937955,8.66595599 22.8297117,8.86095063 23.1160099,9.10916172 C22.8295784,9.35115098 22.5692709,9.58612415 22.2931024,9.80084329 C21.8847142,10.118024 21.4579326,10.4117735 21.0530099,10.7329256 C20.8137616,10.9224927 20.6560843,11.2176984 20.820959,11.4788826 C20.9530454,11.6883066 21.2325461,11.8296877 21.4749932,11.9386358 C21.6489314,12.0168719 21.8697862,11.9915875 22.0697152,12.0125034 C22.0753132,12.044142 22.0807779,12.0759131 22.0863759,12.1075517 C21.9354962,12.1734766 21.7835502,12.2372834 21.6340034,12.3058558 C20.8788051,12.6524247 20.252761,13.1626143 19.7441418,13.8115374 C19.5311508,14.083312 19.3959989,14.394668 19.5811331,14.7347503 C19.754938,15.0541814 20.0760238,15.0668898 20.3921781,15.0594766 C20.5895746,15.0548433 20.7867045,15.0367073 20.984101,15.0279703 C21.2959902,15.0139381 21.3922226,15.1293728 21.2316131,15.3969113 C21.1187199,15.5847574 20.934652,15.7614837 20.7400545,15.8635481 C20.2932799,16.097727 19.7945239,16.2409614 19.3656097,16.5005571 C18.9286983,16.7650508 18.5069816,17.0840848 18.1563062,17.4522315 C17.6646143,17.9683782 17.874673,18.5108683 18.5900187,18.5940025 C19.4235891,18.6910365 20.267689,18.7592118 21.0746022,18.4121134 C21.1761661,18.3684283 21.2866602,18.3105785 21.3904899,18.3153442 C21.5135129,18.3210365 21.6337368,18.3872261 21.7552936,18.4272047 C21.7123755,18.5342995 21.7010462,18.6869327 21.6216078,18.7409435 C21.1364469,19.0708326 20.655951,19.4167395 20.1366689,19.6863961 C18.2470739,20.6675911 16.4017299,21.7127252 14.8529471,23.1924605 C14.6062348,23.4280955 14.4284313,23.7642064 14.3016764,24.0860204 C14.1785201,24.3984354 14.278218,24.7215732 14.5526538,24.9521778 C14.8248237,25.1810615 15.1312482,25.2141564 15.4518009,25.0607288 C15.9709497,24.8125177 16.5023608,24.8114587 17.0737577,24.8481277 C17.6546179,24.8854587 18.2481402,24.7432834 18.834865,24.6706072 C19.4415827,24.5954157 19.9547336,24.322185 20.3741845,23.8621671 C20.4179023,23.8894372 20.4616201,23.9167073 20.5053379,23.9438451 C20.4157697,24.2037055 20.3679201,24.4881886 20.2291694,24.7189256 C19.6981581,25.6021599 18.9410939,26.2641886 18.0608735,26.7935732 C17.4897431,27.1370973 16.9227447,27.4875052 16.3465495,27.8221599 C14.95731,28.6291438 14.3603222,29.9240776 14.099215,31.4200955 C14.0043154,31.96338 13.9306083,32.5127538 13.8920886,33.0623925 C13.8662311,33.4305392 13.8938213,33.8415767 14.3116728,34.002947 C14.7381879,34.1676268 15.0805995,33.9120025 15.3025206,33.5974694 C15.9148363,32.7301206 16.7823946,32.452786 17.7825724,32.4559631 C18.6459988,32.4586107 19.4533118,32.2972404 20.1574615,31.768253 C20.1903832,31.743498 20.2412984,31.7421742 20.3512593,31.7105356 C20.2022456,32.1702887 19.9843231,32.529566 19.6361802,32.758185 C19.1859402,33.0539202 18.7014458,33.3046465 18.2125529,33.5345893 C17.5695814,33.8370758 16.9522009,34.1670973 16.4930308,34.7228254 C16.3616108,34.8819453 16.2309906,35.0564211 16.1588829,35.2459882 C16.008403,35.6419345 16.2433862,36.0054479 16.6540402,36.0548254 C17.0209764,36.0989077 17.3881792,36.1431224 17.7564483,36.173702 C18.7154408,36.2531295 19.5909962,35.9951224 20.4060399,35.5066429 C20.5289295,35.4330401 20.6482204,35.3536125 20.7691108,35.2769649 C20.8028321,35.2915267 20.8365535,35.3060884 20.8702748,35.3206501 C20.8362869,35.4987002 20.8554801,35.7150079 20.7584479,35.8473871 C20.4786807,36.2291689 20.2094431,36.6578129 19.8323771,36.9220419 C18.9666848,37.5288683 18.0458121,38.0597091 17.1356024,38.6018021 C16.1791423,39.1711653 15.2981222,39.8098952 14.8172264,40.8558236 C14.7463183,41.0100454 14.6894052,41.1777699 14.6654137,41.3449649 C14.6033025,41.7759918 14.8904004,42.0582243 15.3234465,42.0076555 C15.4082164,41.997727 15.4988508,41.9830329 15.5729578,41.9442458 C16.256848,41.5857628 16.9580655,41.6952404 17.670079,41.8370186 C18.0439461,41.9114157 18.4284761,41.9397449 18.809674,41.9675445 C18.9936086,41.9809148 19.0658496,42.0289685 19.0673157,42.2281993 C19.0715809,42.8487932 18.8808487,43.1557807 18.3062529,43.3967109 C17.8169602,43.6018987 17.3331321,43.8205893 16.8387745,44.0124068 C16.6484422,44.0862744 16.4355845,44.1380347 16.2327233,44.1389614 C14.3520585,44.1483603 12.4712603,44.1523317 10.5908621,44.1336662 C10.3841355,44.1315481 10.1263605,44.0306751 9.98067896,43.8870436 C7.61858525,41.5583603 5.27261914,39.2135267 2.91718973,36.8780919 C2.64022151,36.6035374 2.5093347,36.3170687 2.51000113,35.908414 C2.52346302,27.8841134 2.52186358,19.8596805 2.51346657,11.8352476 C2.51306671,11.5033728 2.59583729,11.2611188 2.84174988,11.0276018 C5.45215532,8.54999177 8.08441967,6.09369481 10.6355129,3.55704365 C11.3357973,2.86059642 12.03155,2.6559381 12.9764141,2.65964472 C20.9814353,2.69075385 28.9865898,2.67910447 36.9917443,2.67089696 C37.3148295,2.6706322 37.539283,2.76726905 37.7705342,2.98993095 C40.6017945,5.71813488 43.445317,8.43376279 46.2760442,11.1623639 C46.3990671,11.2808433 46.4937001,11.4934444 46.4942333,11.662625 C46.5064956,15.3123209 46.4999646,18.9620168 46.509961,22.6117127 C46.5107607,22.9078451 46.4267906,23.0171903 46.1327618,22.9778737 C45.999076,22.9600025 45.8609917,22.9745642 45.7249067,22.9746966 C41.4566906,22.9818451 37.1884744,22.9927002 32.9202582,22.9860812 C32.6843421,22.9856841 32.4120389,22.8902386 32.2187743,22.752829 C31.1079691,21.9638487 29.9681076,21.2381456 28.6481768,20.8333299 C28.4322535,20.7671403 28.2332576,20.6468075 28.0265311,20.5516268 C28.0379937,20.4957628 28.0494563,20.4400311 28.0609189,20.3841671" id="Fill-6"></path>
                <path d="M26.8827243,56.9399685 C27.0138777,56.9949059 27.0897174,57.0080114 27.1402328,57.0505052 C27.9342172,57.7186233 28.8710842,57.8720508 29.8599327,57.7492029 C30.8430499,57.6270168 31.7919127,57.6803657 32.6630697,58.1790383 C33.4547882,58.6321725 34.2185168,59.1334927 35.0002389,59.6042333 C35.369441,59.8266304 35.7374435,60.0606769 36.1318367,60.2302547 C36.9636743,60.5879435 37.5766564,60.1330884 37.4909536,59.2318504 C37.3719292,57.9812637 36.945814,56.8127521 36.404673,55.6942798 C36.0166776,54.8920615 35.2762741,54.4087449 34.5201429,53.9718934 C34.402718,53.9039828 34.2772959,53.8483835 34.1646692,53.7735893 C33.6980351,53.4638218 33.6684456,53.2244801 34.0161887,52.7967628 C34.1705338,52.6069309 34.3251455,52.4095535 34.4352397,52.1931134 C34.7848488,51.5058004 34.5683924,50.8409918 33.8502477,50.5531993 C33.3981417,50.3719721 32.9027178,50.2844694 32.4190231,50.1969667 C31.5364035,50.0374497 30.7632117,49.6939256 30.2110079,48.9687521 C30.0863856,48.8052637 29.8035528,48.6213889 30.029739,48.375693 C30.2359324,48.151575 30.5055699,48.204659 30.7816051,48.3240651 C31.3795259,48.5828665 31.9746477,48.8788665 32.6025578,49.0300436 C33.2552592,49.1873102 33.9438144,49.221464 34.6193076,49.2527055 C35.0771449,49.2738862 35.2975999,48.9032243 35.1667131,48.4279828 C34.8825474,47.3958218 34.3039531,46.5709667 33.334431,46.0842082 C32.4314187,45.6308093 31.4973507,45.2380401 30.5732792,44.826473 C30.0551967,44.595736 29.8601993,44.265185 29.9624296,43.7107807 C30.0197426,43.7465231 30.072124,43.7719399 30.1158418,43.8078147 C30.6716442,44.2643907 31.3044859,44.5034676 32.0304945,44.4686519 C32.6118879,44.4407199 33.1698229,44.4817574 33.6251277,44.9070919 C33.6769759,44.9555428 33.7528156,44.9825481 33.8215912,45.0088916 C34.1132209,45.1202225 34.4169796,45.2401581 34.7051438,45.0329846 C34.9918419,44.8268701 34.9565211,44.5041295 34.89401,44.2187199 C34.492686,42.3853996 33.5431568,40.9690741 31.8276333,40.0629381 C30.8061297,39.5234927 29.8527353,38.8540508 28.8854791,38.2179685 C28.6655573,38.0734104 28.5145443,37.8253317 28.3318092,37.6247771 L28.4060495,37.5351564 C28.5842528,37.6046555 28.766588,37.6654175 28.9401263,37.7449775 C29.6934586,38.0904873 30.464118,38.0817503 31.2615678,37.918659 C31.5490656,37.8598826 31.8636205,37.9244837 32.1651133,37.9440758 C32.2618789,37.9502977 32.354646,38.0028522 32.4518114,38.0168844 C32.7934233,38.0663943 33.1025135,37.9937181 33.3033754,37.6973209 C33.4906422,37.4210454 33.4353285,37.1257073 33.2613903,36.865185 C32.773697,36.134981 32.046089,35.6870097 31.2943562,35.280473 C30.8502474,35.0404694 30.3809475,34.8464014 29.9251096,34.6275785 C29.3215908,34.3379327 28.8786815,33.8920794 28.6287704,33.2712208 C28.5879849,33.1696859 28.5526641,32.9791921 28.597848,32.948083 C28.6942138,32.8812315 28.8532239,32.8536966 28.9715818,32.878981 C29.1745763,32.9224014 29.3649087,33.0215535 29.5624385,33.0921116 C30.4795791,33.4193531 31.3987191,33.7409023 32.3138605,34.0738361 C32.5329826,34.1535284 32.7331781,34.284981 32.9525668,34.3638791 C33.2976441,34.4879184 33.6452539,34.6477002 34.0031267,34.6851635 C34.7096755,34.7590311 35.1075341,34.3577896 34.9823786,33.6597538 C34.8400292,32.8661403 34.6001145,32.089736 34.3997857,31.3067127 C34.3732618,31.2030597 34.3299438,31.1036429 34.2795617,30.9601438 C34.4177793,30.9482297 34.5220089,30.9318147 34.6263718,30.9316823 C35.9008521,30.929829 37.1754657,30.9202977 38.4495462,30.9412136 C38.6460097,30.9445231 38.8896564,31.0411599 39.0281405,31.1777753 C41.4506127,33.5684122 43.8630885,35.9692422 46.2647682,38.3803979 C46.4008531,38.5168809 46.4933536,38.7619148 46.4936202,38.9565123 C46.5050828,46.7232029 46.5050828,54.4898934 46.4941533,62.2567163 C46.4938867,62.4393996 46.3999201,62.6710633 46.2690333,62.7970884 C43.8984093,65.0797038 41.5148566,67.3488165 39.1357023,69.6226948 C38.6634701,70.0741081 38.2140299,70.5508057 37.721405,70.9787878 C37.5452009,71.1318182 37.2743639,71.2504301 37.0439125,71.2554605 C36.1668909,71.2745231 35.2814723,71.3062941 34.4127144,71.2111134 C33.1201072,71.0693352 31.9801124,70.5725159 31.040713,69.6144873 C30.5046369,69.067761 29.8807253,68.5743835 29.2189606,68.1873066 C27.8978302,67.4147413 27.1807517,66.2907091 26.9793567,64.8160043 C26.9131135,64.3312315 26.8895219,63.8374569 26.8869895,63.3476537 C26.876993,61.3569345 26.8827243,59.3659506 26.8827243,57.3752315 L26.8827243,56.9399685 Z" id="Fill-10"></path>
                <path d="M14.8115618,52.2319403 C14.7186615,52.3201048 14.677876,52.3837792 14.6197633,52.4103875 C13.1501523,53.0828741 12.3309769,54.2651531 11.9276536,55.7785127 C11.8264895,56.1577792 11.6680125,56.5265878 11.6108328,56.9112819 C11.555919,57.2796934 11.5247301,57.6805377 11.613232,58.0351818 C11.8147604,58.8432247 12.6291375,59.0076397 13.209198,58.4066379 C14.3337316,57.2415682 15.732701,56.5226165 17.2673555,56.0747775 C17.7902363,55.9221442 18.3688307,55.9586809 18.9217008,55.9067882 C19.9857226,55.8068419 20.9011305,55.409307 21.6140771,54.5941156 C21.7235049,54.4690172 21.8714523,54.377146 22.0687155,54.2147166 C22.0793784,54.411697 22.0909743,54.527264 22.0909743,54.6428311 C22.0920406,56.6699546 22.1289608,58.6978723 22.077779,60.7236719 C22.0471232,61.9326916 21.8950439,63.1402551 21.7632241,64.3446415 C21.7015127,64.9084447 21.3455059,65.3294107 20.9181911,65.6874966 C19.8436398,66.588205 18.9010415,67.5944197 18.1911605,68.8173392 C17.6998684,69.6637721 17.0796889,70.4383231 16.1502859,70.8432712 C15.6759212,71.0499152 15.1401117,71.1813678 14.6234953,71.214595 C13.7119527,71.2735038 12.7937457,71.2405413 11.8787376,71.2225377 C11.7133297,71.2192283 11.5111349,71.1448311 11.391844,71.0335002 C10.4007296,70.1090959 9.42427674,69.1693356 8.44502482,68.2323553 C6.54876553,66.4177005 4.65050694,64.6052962 2.76491053,62.7799188 C2.63335729,62.6525699 2.5307271,62.4263338 2.52992739,62.2455038 C2.51593236,59.039146 2.52233009,55.8327882 2.5155325,52.626298 C2.51499936,52.3476397 2.55698443,52.2057292 2.89393133,52.2066558 C6.7777508,52.2167166 10.6617036,52.2123481 14.5456563,52.2126129 C14.614965,52.2126129 14.6842737,52.2224089 14.8115618,52.2319403" id="Fill-12"></path>
            </g>
            <path d="M263.079102,46 L263.079102,33.9140625 L266.797852,33.9140625 C267.860357,33.9140625 268.810787,34.1533993 269.64917,34.6320801 C270.487553,35.1107609 271.141925,35.7914181 271.612305,36.6740723 C272.082685,37.5567264 272.317871,38.5597275 272.317871,39.6831055 L272.317871,40.2392578 C272.317871,41.3626358 272.086835,42.3614865 271.624756,43.2358398 C271.162677,44.1101932 270.511072,44.7880835 269.669922,45.2695312 C268.828772,45.750979 267.879725,45.9944661 266.822754,46 L263.079102,46 Z M265.569336,35.9311523 L265.569336,43.9995117 L266.772949,43.9995117 C267.746912,43.9995117 268.491208,43.6813183 269.005859,43.0449219 C269.52051,42.4085255 269.783366,41.4982156 269.794434,40.3139648 L269.794434,39.6748047 C269.794434,38.4462829 269.539879,37.5152213 269.030762,36.8815918 C268.521645,36.2479623 267.777349,35.9311523 266.797852,35.9311523 L265.569336,35.9311523 Z M281.938608,40.762207 L277.157358,40.762207 L277.157358,43.9995117 L282.768686,43.9995117 L282.768686,46 L274.667124,46 L274.667124,33.9140625 L282.752085,33.9140625 L282.752085,35.9311523 L277.157358,35.9311523 L277.157358,38.8115234 L281.938608,38.8115234 L281.938608,40.762207 Z M288.023213,33.9140625 L291.127705,42.6796875 L294.215595,33.9140625 L297.486103,33.9140625 L297.486103,46 L294.987568,46 L294.987568,42.6962891 L295.236591,36.9936523 L291.974384,46 L290.264423,46 L287.010517,37.0019531 L287.259541,42.6962891 L287.259541,46 L284.769306,46 L284.769306,33.9140625 L288.023213,33.9140625 Z M310.128325,40.230957 C310.128325,41.4207416 309.91804,42.4638627 309.497465,43.3603516 C309.07689,44.2568404 308.47509,44.9485653 307.692045,45.4355469 C306.909001,45.9225285 306.011142,46.1660156 304.998442,46.1660156 C303.996809,46.1660156 303.103101,45.9252954 302.31729,45.4438477 C301.531478,44.9623999 300.92276,44.2748254 300.491118,43.3811035 C300.059475,42.4873816 299.84089,41.4594785 299.835356,40.2973633 L299.835356,39.699707 C299.835356,38.5099224 300.049791,37.462651 300.478666,36.5578613 C300.907542,35.6530716 301.513493,34.9585799 302.296538,34.4743652 C303.079582,33.9901506 303.974674,33.7480469 304.98184,33.7480469 C305.989007,33.7480469 306.884099,33.9901506 307.667143,34.4743652 C308.450187,34.9585799 309.056138,35.6530716 309.485014,36.5578613 C309.91389,37.462651 310.128325,38.5071555 310.128325,39.6914062 L310.128325,40.230957 Z M307.604887,39.6831055 C307.604887,38.4158465 307.378001,37.4529655 306.924223,36.7944336 C306.470445,36.1359017 305.82299,35.8066406 304.98184,35.8066406 C304.146224,35.8066406 303.501537,36.1317513 303.047758,36.7819824 C302.59398,37.4322135 302.364327,38.3854104 302.358793,39.6416016 L302.358793,40.230957 C302.358793,41.4650127 302.585679,42.4223599 303.039457,43.1030273 C303.493236,43.7836948 304.146224,44.1240234 304.998442,44.1240234 C305.834058,44.1240234 306.475979,43.7961459 306.924223,43.1403809 C307.372468,42.4846159 307.599353,41.5286521 307.604887,40.2724609 L307.604887,39.6831055 Z" id="DEMO" fill="#FFFFFF"></path>
            <path d="M253.5,0.5 L253.5,78.5" id="Line" stroke="#FFFFFF" stroke-linecap="round"></path>
        </g>
    </g>
</svg>