<?xml version="1.0" standalone="no"?>
<!DOCTYPE svg PUBLIC "-//W3C//DTD SVG 20010904//EN"
 "http://www.w3.org/TR/2001/REC-SVG-20010904/DTD/svg10.dtd">
<svg version="1.0" xmlns="http://www.w3.org/2000/svg"
 width="700.000000pt" height="700.000000pt" viewBox="0 0 700.000000 700.000000"
 preserveAspectRatio="xMidYMid meet">
<metadata>
Created by potrace 1.11, written by Peter Selinger 2001-2013
</metadata>
<g transform="translate(0.000000,700.000000) scale(0.100000,-0.100000)"
fill="#000000" stroke="none">
<path d="M888 5164 c-9 -3 -19 -12 -22 -21 -12 -31 -1 -34 158 -47 67 -6 142
-39 168 -76 40 -56 42 -106 42 -1155 1 -1030 -3 -1206 -27 -1307 -27 -108 -61
-134 -193 -143 -43 -3 -81 -8 -86 -11 -12 -8 -10 -42 5 -51 6 -4 98 -6 202 -4
235 5 398 5 675 1 118 -2 225 0 238 4 26 9 29 42 4 50 -10 3 -49 8 -87 11
-157 12 -195 26 -226 86 -24 47 -28 71 -35 207 -8 150 -11 1041 -3 1053 3 6
28 -16 55 -48 27 -32 70 -80 96 -108 25 -27 56 -61 68 -75 12 -14 54 -61 93
-104 40 -44 79 -87 87 -96 8 -10 53 -59 100 -110 47 -51 93 -102 103 -114 10
-12 37 -41 60 -66 23 -25 80 -88 127 -140 47 -52 87 -97 90 -100 3 -3 46 -50
95 -105 50 -54 97 -106 105 -115 8 -9 92 -101 185 -205 281 -313 384 -408 514
-470 109 -53 143 -57 507 -62 313 -5 342 -4 358 12 26 27 15 39 -50 52 -75 15
-237 73 -317 114 -167 85 -346 236 -572 483 -49 54 -101 110 -115 125 -14 15
-74 80 -135 145 -60 66 -123 134 -140 152 -16 17 -54 58 -84 90 -30 33 -105
113 -166 179 -62 66 -124 134 -140 150 -63 69 -218 236 -382 411 -154 164
-195 211 -193 221 2 16 803 812 895 889 101 85 217 168 270 194 130 63 235 19
260 -110 4 -19 9 -253 11 -520 7 -829 11 -1124 18 -1150 3 -14 7 -45 10 -70
22 -225 126 -463 263 -607 128 -133 325 -238 516 -274 29 -5 63 -12 77 -15 57
-14 435 -13 515 1 178 32 363 111 477 203 66 53 127 111 163 153 44 52 135
207 135 230 0 8 4 19 9 25 9 9 50 140 58 184 2 14 8 43 13 65 5 22 11 65 15
95 3 30 8 73 11 95 3 22 7 330 9 685 3 616 8 834 21 909 14 81 72 127 172 137
120 11 132 15 132 39 0 8 -6 17 -12 22 -17 10 -946 12 -975 2 -24 -9 -31 -33
-12 -45 6 -3 30 -8 52 -10 130 -11 154 -16 194 -35 55 -26 77 -59 93 -134 15
-68 20 -1443 7 -1640 -29 -418 -153 -629 -437 -743 -97 -39 -184 -52 -325 -48
-110 2 -143 7 -210 30 -110 38 -188 87 -271 172 -99 101 -176 263 -200 418 -3
22 -7 43 -9 46 -2 4 -7 40 -10 81 -4 41 -8 85 -11 99 -5 33 -5 1379 1 1490 6
105 12 135 37 181 23 42 65 65 134 74 27 3 65 8 84 11 44 6 58 19 44 42 -10
15 -32 17 -215 15 -479 -6 -1068 -5 -1250 1 -174 6 -198 5 -213 -9 -24 -25
-20 -34 28 -54 59 -26 72 -69 41 -135 -13 -27 -119 -168 -160 -212 -5 -6 -77
-82 -160 -169 -82 -87 -161 -171 -175 -185 -14 -15 -108 -113 -209 -219 -101
-105 -199 -208 -217 -228 -19 -20 -37 -33 -41 -29 -9 8 -8 780 1 924 7 132 14
159 50 196 31 34 41 37 191 63 54 9 65 27 32 51 -14 11 -64 12 -255 7 -130 -4
-241 -7 -247 -7 -361 7 -574 9 -587 6z"/>
</g>
</svg>
