<?xml version="1.0" encoding="UTF-8"?>
<svg width="137px" height="20px" viewBox="0 0 137 20" version="1.1" xmlns="http://www.w3.org/2000/svg" xmlns:xlink="http://www.w3.org/1999/xlink">
    <!-- Generator: Sketch 42 (36781) - http://www.bohemiancoding.com/sketch -->
    <title>logo-large-amazon-slu</title>
    <desc>Created with Sketch.</desc>
    <defs></defs>
    <g id="Hub" stroke="none" stroke-width="1" fill="none" fill-rule="evenodd">
        <g id="Landing---Mobile" transform="translate(-119.000000, -15.000000)" fill="#FFFFFF">
            <g id="logo-large-amazon-slu" transform="translate(119.000000, 15.000000)">
                <g id="Amazon.com-Logo">
                    <g id="svg1936">
                        <g id="layer1" transform="translate(0.109895, 0.036055)">
                            <g id="g1967" transform="translate(0.014574, 0.014349)">
                                <path d="M62.1760009,3.64548906 L62.1760009,1.22555993 C62.1760009,0.859325501 62.4566281,0.613624322 62.7933804,0.613624322 L73.7238115,0.613624322 C74.0745986,0.613624322 74.3552258,0.86396194 74.3552258,1.22555993 L74.3552258,3.29779861 C74.3505516,3.64548906 74.0558896,4.09980521 73.5320496,4.81836653 L67.8680565,12.833805 C69.9727631,12.782813 72.1943958,13.0934137 74.1026611,14.1596672 C74.5329564,14.400732 74.6498842,14.7530588 74.6826245,15.1007528 L74.6826245,17.6829378 C74.6826245,18.0352647 74.2897453,18.4478547 73.878159,18.2346068 C70.5153068,16.4868782 66.0486565,16.2968072 62.3303449,18.2531508 C61.9514988,18.4571294 61.5539438,18.0491723 61.5539438,17.6968454 L61.5539438,15.2444647 C61.5539438,14.8504152 61.5586179,14.1782094 61.9561729,13.5801814 L68.5181762,4.25279 L62.8074117,4.25279 C62.4566281,4.25279 62.1760009,4.00709059 62.1760009,3.64548906" id="path12"></path>
                                <path d="M22.3035351,18.7445514 L18.9781026,18.7445514 C18.660061,18.7213745 18.4074946,18.4849444 18.384108,18.1836095 L18.384108,1.26728611 C18.384108,0.928866774 18.6694128,0.659983402 19.0248741,0.659983402 L22.1258045,0.659983402 C22.448529,0.673882108 22.7057678,0.919592128 22.7291562,1.22555993 L22.7291562,3.43687762 L22.789959,3.43687762 C23.5991004,1.29973411 25.1191624,0.303020078 27.167744,0.303020078 C29.2490621,0.303020078 30.5493015,1.29973411 31.4847261,3.43687762 C32.2891916,1.29973411 34.1179451,0.303020078 36.0776614,0.303020078 C37.4714437,0.303020078 38.9961852,0.873233048 39.9269321,2.15273623 C40.9792846,3.57595132 40.764136,5.64355356 40.764136,7.45618527 L40.7594601,18.1326176 C40.7594601,18.4710369 40.4741553,18.7445514 40.118694,18.7445514 L36.7979356,18.7445514 C36.4658628,18.7213745 36.1992669,18.4571294 36.1992669,18.1326176 L36.1992669,9.16682419 C36.1992669,8.4528993 36.2647438,6.67272089 36.1057239,5.99588044 C35.8578369,4.86009271 35.1141742,4.54021382 34.1506853,4.54021382 C33.3462199,4.54021382 32.5043383,5.07334059 32.1629083,5.92634448 C31.8214784,6.7793466 31.8542186,8.20719459 31.8542186,9.16682419 L31.8542186,18.1326176 C31.8542186,18.4710369 31.5689137,18.7445514 31.2134525,18.7445514 L27.8926977,18.7445514 C27.5559455,18.7213745 27.2940255,18.4571294 27.2940255,18.1326176 L27.2893496,9.16682419 C27.2893496,7.28002183 27.6027134,4.50312762 25.2407697,4.50312762 C22.8507582,4.50312762 22.9443012,7.21048056 22.9443012,9.16682419 L22.9443012,18.1326176 C22.9443012,18.4710369 22.6589963,18.7445514 22.3035351,18.7445514" id="path14"></path>
                                <path d="M83.7655948,0.303020078 C88.6999582,0.303020078 91.3705934,4.50312762 91.3705934,9.84366286 C91.3705934,15.0033965 88.4193275,19.0968783 83.7655948,19.0968783 C78.9200949,19.0968783 76.2821964,14.8967708 76.2821964,9.66286298 C76.2821964,4.39650191 78.9528351,0.303020078 83.7655948,0.303020078 M83.7936556,3.75675297 C81.3428466,3.75675297 81.1884991,7.06676865 81.1884991,9.12973798 C81.1884991,11.1973402 81.1557589,15.6106974 83.7655948,15.6106974 C86.3426887,15.6106974 86.4642943,12.0503441 86.4642943,9.8807473 C86.4642943,8.4528993 86.4034915,6.74689506 85.9685168,5.39321594 C85.5943466,4.21570556 84.8506875,3.75675297 83.7936556,3.75675297" id="path16"></path>
                                <path d="M97.7688973,18.7445514 L94.4574961,18.7445514 C94.1254179,18.7213745 93.858822,18.4571294 93.858822,18.1326176 L93.8541479,1.21165239 C93.8822104,0.901048143 94.1581617,0.659983402 94.494914,0.659983402 L97.577139,0.659983402 C97.867118,0.673882108 98.1056514,0.868598378 98.1711336,1.13284354 L98.1711336,3.71966323 L98.2319328,3.71966323 C99.1626833,1.40635982 100.467597,0.303020078 102.764063,0.303020078 C104.256065,0.303020078 105.710652,0.836146845 106.646076,2.29644814 C107.51602,3.6501255 107.51602,5.92634448 107.51602,7.56280744 L107.51602,18.2114282 C107.478604,18.5081213 107.202653,18.7445514 106.875258,18.7445514 L103.540468,18.7445514 C103.236453,18.7213745 102.983888,18.498852 102.951151,18.2114282 L102.951151,9.02311228 C102.951151,7.17339612 103.166298,4.46603964 100.869829,4.46603964 C100.06069,4.46603964 99.3170255,5.00380462 98.9475329,5.819717 C98.4798233,6.85352077 98.4190206,7.88268633 98.4190206,9.02311228 L98.4190206,18.1326176 C98.4143465,18.4710369 98.1243621,18.7445514 97.7689009,18.7445514" id="path18"></path>
                                <path d="M53.4625213,10.6642135 C53.4625213,11.9483513 53.4952615,13.0192395 52.8404641,14.1596672 C52.31195,15.0868453 51.4700684,15.6570583 50.5393215,15.6570583 C49.262467,15.6570583 48.5141284,14.6927922 48.5141284,13.2695771 C48.5141284,10.4602349 51.0538044,9.95028857 53.4625213,9.95028857 L53.4625213,10.6642135 M56.8160181,18.6981923 C56.5961955,18.8928998 56.2781486,18.9068073 56.0302616,18.7770047 C54.92646,17.8683724 54.7253445,17.4465078 54.1219963,16.5795981 C52.2979187,18.4246778 51.0023534,18.976345 48.640408,18.976345 C45.838812,18.976345 43.663951,17.2657061 43.663951,13.8397936 C43.663951,11.1648887 45.1232154,9.34298763 47.2092113,8.4528993 C49.01458,7.66479671 51.5355453,7.52572301 53.4625213,7.30783692 L53.4625213,6.88133586 C53.4625213,6.09786971 53.523324,5.17069342 53.0556127,4.49385828 C52.6533799,3.88655557 51.8769752,3.63621795 51.1894412,3.63621795 C49.9219385,3.63621795 48.7947556,4.28060509 48.5188025,5.61573846 C48.4626774,5.91243693 48.2428548,6.20449719 47.9388391,6.21840473 L44.7163034,5.87534719 C44.4450298,5.8150841 44.1410177,5.59719448 44.2205294,5.1846045 C44.9595143,1.30900875 48.4954194,0.140764182 51.6571508,0.140764182 C53.2754371,0.140764182 55.3894955,0.567265242 56.66635,1.78186536 C58.2846328,3.27925462 58.1302888,5.27731912 58.1302888,7.45154884 L58.1302888,12.5881038 C58.1302888,14.1318539 58.7757308,14.808689 59.3837567,15.6431507 C59.5942293,15.9398439 59.6410008,16.2968072 59.3697165,16.5193297 C58.6915342,17.0802733 57.4848361,18.1233465 56.8206851,18.707467 L56.816011,18.6981835" id="path28"></path>
                                <path d="M9.86707146,10.6642135 C9.86707146,11.9483513 9.89980812,13.0192395 9.24501413,14.1596672 C8.7164964,15.0868453 7.8792925,15.6570583 6.94386793,15.6570583 C5.66701339,15.6570583 4.92335249,14.6927922 4.92335249,13.2695771 C4.92335249,10.4602349 7.4630285,9.95028857 9.86707146,9.95028857 L9.86707146,10.6642135 M13.2205665,18.6981923 C13.0007421,18.8928998 12.6826952,18.9068073 12.4348082,18.7770047 C11.3310102,17.8683724 11.1345688,17.4465078 10.526543,16.5795981 C8.70246513,18.4246778 7.41158289,18.976345 5.04495624,18.976345 C2.2480361,18.976345 0.0685007874,17.2657061 0.0685007874,13.8397936 C0.0685007874,11.1648887 1.53243952,9.34298763 3.61375773,8.4528993 C5.41912643,7.66479671 7.94009527,7.52572301 9.86707146,7.30783692 L9.86707146,6.88133586 C9.86707146,6.09786971 9.92787423,5.17069342 9.46483874,4.49385828 C9.05792636,3.88655557 8.28152701,3.63621795 7.59866531,3.63621795 C6.33116793,3.63621795 5.199302,4.28060509 4.92335249,5.61573846 C4.86722562,5.91243693 4.6474012,6.20449719 4.34806683,6.21840473 L1.12085321,5.87534719 C0.849579602,5.8150841 0.550243453,5.59719448 0.62507749,5.1846045 C1.36874018,1.30900875 4.89996585,0.140764182 8.06170259,0.140764182 C9.67998369,0.140764182 11.7940421,0.567265242 13.0708967,1.78186536 C14.6891829,3.27925462 14.5348354,5.27731912 14.5348354,7.45154884 L14.5348354,12.5881038 C14.5348354,14.1318539 15.180281,14.808689 15.7883069,15.6431507 C16.0034536,15.9398439 16.0502251,16.2968072 15.7789515,16.5193297 C15.1007693,17.0802733 13.8940729,18.1233465 13.2299183,18.707467 L13.2205665,18.6981835" id="path30"></path>
                            </g>
                        </g>
                    </g>
                </g>
                <g id="Group-2" transform="translate(112.159341, 0.377358)">
                    <path d="M0.690383779,10.3370304 C0.712835397,10.2807544 0.752125137,10.2526169 0.808254181,10.2526169 C0.830705798,10.2526169 0.855963488,10.2582444 0.88402801,10.2694996 C0.912092532,10.2807548 0.982252783,10.3145198 1.09451087,10.3707957 C1.50986579,10.5958994 1.9308273,10.7703521 2.35740803,10.8941591 C2.78398875,11.0179662 3.17688616,11.0798687 3.53611204,11.0798687 C4.16475732,11.0798687 4.66429831,10.905416 5.03475,10.5565053 C5.40520169,10.2075946 5.59042475,9.74613905 5.59042475,9.17212469 C5.59042475,8.91325547 5.55955424,8.68252767 5.49781229,8.47993437 C5.43607034,8.27734107 5.32381394,8.08037832 5.16103972,7.8890402 C4.99826549,7.69770208 4.78217192,7.50355308 4.51275251,7.30658737 C4.2433331,7.10962166 3.90095107,6.89296263 3.48559615,6.65660377 C3.12637028,6.45401047 2.83450363,6.28518525 2.60998746,6.15012305 C2.38547129,6.01506085 2.19744181,5.89406944 2.04589339,5.7871452 C1.89434498,5.68022096 1.76805653,5.57892583 1.66702425,5.48325677 C1.56599197,5.38758771 1.46496121,5.28347882 1.36392893,5.17092699 C1.13941276,4.91205777 0.971028153,4.62224114 0.858770067,4.30146842 C0.746511981,3.98069569 0.690383779,3.645859 0.690383779,3.29694832 C0.690383779,2.84674098 0.771769671,2.43593295 0.934543896,2.06451189 C1.09731812,1.69309084 1.32463734,1.37232293 1.61650836,1.10219852 C1.90837939,0.832074121 2.25637423,0.621042597 2.66050334,0.469097621 C3.06463246,0.317152645 3.51365807,0.241181296 4.00759365,0.241181296 C4.28823886,0.241181296 4.59413756,0.272132586 4.92529891,0.334036095 C5.25646027,0.395939604 5.56235896,0.471910953 5.84300418,0.56195242 C6.1236494,0.651993887 6.35658143,0.750475265 6.54180727,0.857399508 C6.72703312,0.96432375 6.81964465,1.06280513 6.81964465,1.1528466 L6.81964465,1.20349467 L6.48287207,2.0476292 C6.44919465,2.1151603 6.40429209,2.14892535 6.34816304,2.14892535 C6.33693723,2.14892535 6.32290518,2.14611159 6.30606647,2.140484 C6.28922776,2.13485641 6.25835725,2.1236014 6.21345401,2.10671862 C6.16855078,2.08983585 6.10119694,2.05888456 6.01139047,2.01386382 C5.921584,1.96884309 5.79248914,1.901313 5.62410201,1.81127153 C5.38836003,1.6987197 5.12455748,1.60867958 4.83268645,1.54114848 C4.54081543,1.47361738 4.26017442,1.43985234 3.99075502,1.43985234 C3.40701297,1.43985234 2.95237454,1.58616753 2.62682609,1.8788023 C2.30127764,2.17143707 2.13850585,2.5822451 2.13850585,3.11123872 C2.13850585,3.70776344 2.36301866,4.18610156 2.812051,4.54626743 C2.90185747,4.61379853 2.98043695,4.67007361 3.04779181,4.71509434 C3.11514666,4.76011507 3.21337101,4.82201765 3.34246781,4.90080394 C3.47156461,4.97959022 3.64836844,5.08932661 3.87288462,5.23001641 C4.09740079,5.3707062 4.41733154,5.5648552 4.83268645,5.81246924 C5.07965424,5.95878662 5.290135,6.08821929 5.46413503,6.20077112 C5.63813507,6.31332296 5.7868748,6.4202456 5.9103587,6.52154225 C6.03384259,6.6228389 6.14048617,6.72413403 6.23029264,6.82543068 C6.32009911,6.92672733 6.40990423,7.03927748 6.4997107,7.1630845 C6.69054945,7.42195371 6.83086995,7.70614283 6.92067642,8.01566038 C7.01048289,8.32517792 7.05538545,8.64875959 7.05538545,8.98641509 C7.05538545,9.48164317 6.97119315,9.93184375 6.80280602,10.3370304 C6.63441889,10.742217 6.39306763,11.0911224 6.07874498,11.3837572 C5.76442234,11.6763919 5.3911698,11.9014922 4.95897617,12.0590648 C4.52678254,12.2166374 4.04688642,12.2954225 3.51927341,12.2954225 C3.20495077,12.2954225 2.86256874,12.2616574 2.49211706,12.1941263 C2.12166537,12.1265952 1.77647693,12.0421826 1.45654139,11.940886 C1.13660584,11.8395893 0.869996886,11.7298529 0.656706522,11.6116735 C0.443416158,11.4934941 0.336772575,11.3837577 0.336772575,11.282461 C0.336772575,11.2374403 0.347998216,11.1924202 0.370449833,11.1473995 L0.690383779,10.3370304 Z M15.0537341,10.8603938 C15.2108954,10.8603938 15.2894749,10.8997863 15.2894749,10.9785726 C15.2894749,10.9898278 15.2782493,11.0404753 15.2557977,11.1305168 L14.9863796,11.8733552 C14.9302506,11.9971622 14.8460583,12.0590648 14.7338002,12.0590648 L9.64853428,12.0590648 C9.547502,12.0590648 9.48295457,12.044996 9.45489005,12.0168581 C9.42682553,11.9887201 9.41279348,11.9240038 9.41279348,11.8227071 L9.41279348,0.713896637 C9.41279348,0.612599986 9.42682553,0.547883652 9.45489005,0.519745693 C9.48295457,0.491607735 9.547502,0.477538966 9.64853428,0.477538966 L10.5578202,0.477538966 C10.6588525,0.477538966 10.7233999,0.491607735 10.7514645,0.519745693 C10.779529,0.547883652 10.793561,0.612599986 10.793561,0.713896637 L10.793561,10.8603938 L15.0537341,10.8603938 Z M17.8489465,0.477538966 C17.9499788,0.477538966 18.0145262,0.491607735 18.0425907,0.519745693 C18.0706552,0.547883652 18.0846873,0.612599986 18.0846873,0.713896637 L18.0846873,8.90200164 C18.0846873,9.72363003 18.2474591,10.306077 18.5730075,10.6493601 C18.898556,10.9926432 19.4486123,11.1642822 20.2231931,11.1642822 C21.0089997,11.1642822 21.5871202,10.9813882 21.9575719,10.6155947 C22.3280236,10.2498013 22.5132467,9.6786093 22.5132467,8.90200164 L22.5132467,0.713896637 C22.5132467,0.612599986 22.5272787,0.547883652 22.5553432,0.519745693 C22.5834077,0.491607735 22.6479552,0.477538966 22.7489875,0.477538966 L23.6077575,0.477538966 C23.7087898,0.477538966 23.7733372,0.491607735 23.8014018,0.519745693 C23.8294663,0.547883652 23.8434983,0.612599986 23.8434983,0.713896637 L23.8434983,8.95264971 C23.8434983,9.5041537 23.7761445,9.9656093 23.6414348,10.3370304 C23.5067251,10.7084514 23.2934379,11.0404743 23.0015669,11.3331091 C22.6535668,11.6707646 22.257863,11.9155612 21.8144436,12.0675062 C21.3710241,12.2194511 20.8181613,12.2954225 20.1558386,12.2954225 C17.8545479,12.2954225 16.7039197,11.181176 16.7039197,8.95264971 L16.7039197,0.713896637 C16.7039197,0.612599986 16.7179518,0.547883652 16.7460163,0.519745693 C16.7740808,0.491607735 16.8386283,0.477538966 16.9396605,0.477538966 L17.8489465,0.477538966 Z" id="SLU"></path>
                    <path d="M2.7632727,17.3206978 C2.7632727,17.6995082 2.62624096,17.9948974 2.35217336,18.2068742 C2.07810577,18.418851 1.70616247,18.5248379 1.23633231,18.5248379 C0.727349636,18.5248379 0.335830375,18.4590868 0.061762781,18.3275826 L0.061762781,17.844749 C0.237949091,17.9193334 0.429793529,17.978215 0.63730185,18.0213955 C0.844810171,18.0645759 1.05035778,18.0861658 1.25395085,18.0861658 C1.58674722,18.0861658 1.83731954,18.0228681 2.00567535,17.8962709 C2.17403116,17.7696736 2.2582078,17.5935196 2.2582078,17.3678036 C2.2582078,17.2186347 2.22835446,17.0964554 2.16864687,17.0012622 C2.10893929,16.9060689 2.00910188,16.8182372 1.86913164,16.7377645 C1.72916141,16.6572919 1.51627281,16.5660254 1.23045946,16.4639625 C0.831103826,16.3206819 0.545784164,16.1509067 0.374491918,15.9546319 C0.203199672,15.7583571 0.117554834,15.5022223 0.117554834,15.1862198 C0.117554834,14.8545154 0.241862199,14.5905297 0.490480659,14.3942549 C0.739099119,14.19798 1.0679753,14.0998441 1.47711906,14.0998441 C1.90388146,14.0998441 2.29637952,14.1783529 2.65462502,14.3353727 L2.49899455,14.7711006 C2.14466431,14.6219318 1.80012736,14.5473485 1.46537337,14.5473485 C1.2010939,14.5473485 0.994567492,14.6042673 0.845787941,14.7181067 C0.697008391,14.8319461 0.622619731,14.989945 0.622619731,15.192108 C0.622619731,15.3412769 0.650026079,15.4634561 0.704839598,15.5586494 C0.759653117,15.6538427 0.852149542,15.7411837 0.982331649,15.820675 C1.11251376,15.9001663 1.31169918,15.987998 1.5798939,16.0841726 C2.0301478,16.245118 2.33993742,16.4178372 2.50927204,16.6023356 C2.67860666,16.7868339 2.7632727,17.0262856 2.7632727,17.3206978 Z M6.90069386,18.4659557 L6.40150181,18.4659557 L6.40150181,16.4404097 L4.14045547,16.4404097 L4.14045547,18.4659557 L3.64126342,18.4659557 L3.64126342,14.1616704 L4.14045547,14.1616704 L4.14045547,15.9929053 L6.40150181,15.9929053 L6.40150181,14.1616704 L6.90069386,14.1616704 L6.90069386,18.4659557 Z M11.3200117,14.1616704 L11.3200117,16.9467962 C11.3200117,17.4374832 11.1722132,17.8231575 10.8766117,18.1038305 C10.5810102,18.3845035 10.174809,18.5248379 9.65799583,18.5248379 C9.14118265,18.5248379 8.74134361,18.3835221 8.4584667,18.1008864 C8.17558979,17.8182506 8.03415346,17.4296323 8.03415346,16.9350197 L8.03415346,14.1616704 L8.53334551,14.1616704 L8.53334551,16.970349 C8.53334551,17.329532 8.63122532,17.6052939 8.82698789,17.7976433 C9.02275046,17.9899926 9.31051711,18.0861658 9.69029649,18.0861658 C10.0524572,18.0861658 10.3314147,17.9895019 10.5271773,17.7961712 C10.7229398,17.6028405 10.8208197,17.3256065 10.8208197,16.9644608 L10.8208197,14.1616704 L11.3200117,14.1616704 Z M13.7777985,18.4659557 L13.2786064,18.4659557 L13.2786064,14.6062306 L11.9190422,14.6062306 L11.9190422,14.1616704 L15.1373627,14.1616704 L15.1373627,14.6062306 L13.7777985,14.6062306 L13.7777985,18.4659557 Z M17.22516,18.4659557 L16.725968,18.4659557 L16.725968,14.6062306 L15.3664037,14.6062306 L15.3664037,14.1616704 L18.5847242,14.1616704 L18.5847242,14.6062306 L17.22516,14.6062306 L17.22516,18.4659557 Z M19.2307375,18.4659557 L19.2307375,14.1616704 L19.7299295,14.1616704 L19.7299295,18.0125631 L21.6239229,18.0125631 L21.6239229,18.4659557 L19.2307375,18.4659557 Z M24.7453414,18.4659557 L22.352156,18.4659557 L22.352156,14.1616704 L24.7453414,14.1616704 L24.7453414,14.6062306 L22.8513481,14.6062306 L22.8513481,15.9929053 L24.6308209,15.9929053 L24.6308209,16.4345214 L22.8513481,16.4345214 L22.8513481,18.0184513 L24.7453414,18.0184513 L24.7453414,18.4659557 Z" id="SHUTTLE"></path>
                </g>
            </g>
        </g>
    </g>
</svg>