<?xml version="1.0" encoding="UTF-8"?>
<svg width="85px" height="25px" viewBox="0 0 85 25" version="1.1" xmlns="http://www.w3.org/2000/svg" xmlns:xlink="http://www.w3.org/1999/xlink">
    <!-- Generator: Sketch 43.2 (39069) - http://www.bohemiancoding.com/sketch -->
    <title>logo-sm-amazon</title>
    <desc>Created with Sketch.</desc>
    <defs></defs>
    <g id="Symbols" stroke="none" stroke-width="1" fill="none" fill-rule="evenodd">
        <g id="logo-sm-amazon" fill="#FFFFFF">
            <g id="Amazon.com-Logo">
                <g id="svg1936">
                    <g id="layer1" transform="translate(0.084521, 0.027977)">
                        <g id="g1967" transform="translate(0.011209, 0.011134)">
                            <path d="M47.8199136,2.82870889 L47.8199136,0.950970428 C47.8199136,0.666791657 48.0357456,0.476140389 48.2947436,0.476140389 L56.7013999,0.476140389 C56.9711923,0.476140389 57.1870242,0.670389291 57.1870242,0.950970428 L57.1870242,2.55891929 C57.1834294,2.82870889 56.9568031,3.18123448 56.5539148,3.73880049 L52.1977057,9.9583616 C53.8164475,9.91879449 55.5251177,10.1598044 56.9927753,10.9871614 C57.3237179,11.174215 57.4136477,11.4476023 57.4388284,11.7173946 L57.4388284,13.7210352 C57.4388284,13.9944224 57.1366629,14.3145707 56.8201095,14.1491015 C54.2337209,12.7929554 50.7983949,12.6454703 47.9386204,14.1634906 C47.6472478,14.3217673 47.3414859,14.0052139 47.3414859,13.7318267 L47.3414859,11.8289075 C47.3414859,11.5231457 47.3450808,11.0015492 47.6508426,10.5375107 L52.6977164,3.29994267 L48.3055352,3.29994267 C48.0357456,3.29994267 47.8199136,3.10929278 47.8199136,2.82870889" id="path12"></path>
                            <path d="M17.1537748,14.5447918 L14.5961659,14.5447918 C14.3515584,14.5268077 14.1573081,14.3433504 14.1393213,14.1095302 L14.1393213,0.98334776 C14.1393213,0.720752048 14.3587509,0.512112611 14.6321381,0.512112611 L17.0170812,0.512112611 C17.2652905,0.52289728 17.4631343,0.713555408 17.4811225,0.950970428 L17.4811225,2.66683733 L17.5278862,2.66683733 C18.1502014,1.00852571 19.3192897,0.235127736 20.8948654,0.235127736 C22.495619,0.235127736 23.4956404,1.00852571 24.2150807,2.66683733 C24.8337997,1.00852571 26.2403044,0.235127736 27.7475332,0.235127736 C28.8194991,0.235127736 29.9921864,0.677583186 30.7080291,1.67041075 C31.5173993,2.77475125 31.3519273,4.37910247 31.3519273,5.78560991 L31.3483311,14.0699631 C31.3483311,14.3325588 31.1289015,14.5447918 30.8555142,14.5447918 L28.3015002,14.5447918 C28.0461011,14.5268077 27.8410607,14.3217673 27.8410607,14.0699631 L27.8410607,7.11297626 C27.8410607,6.55900788 27.8914193,5.17768251 27.7691162,4.65248971 C27.578465,3.77117782 27.0065098,3.52296853 26.265485,3.52296853 C25.6467661,3.52296853 24.9992702,3.93664702 24.7366745,4.59853344 C24.4740788,5.26041848 24.4992595,6.36835387 24.4992595,7.11297626 L24.4992595,14.0699631 C24.4992595,14.3325588 24.2798299,14.5447918 24.0064427,14.5447918 L21.4524314,14.5447918 C21.1934334,14.5268077 20.9919892,14.3217673 20.9919892,14.0699631 L20.9883929,7.11297626 C20.9883929,5.64891629 21.2294028,3.49419157 19.4128186,3.49419157 C17.5746472,3.49419157 17.6465917,5.59495589 17.6465917,7.11297626 L17.6465917,14.0699631 C17.6465917,14.3325588 17.4271621,14.5447918 17.1537748,14.5447918" id="path14"></path>
                            <path d="M64.4245922,0.235127736 C68.219639,0.235127736 70.2736396,3.49419157 70.2736396,7.63816768 C70.2736396,11.6418512 68.0038043,14.818179 64.4245922,14.818179 C60.6978909,14.818179 58.6690683,11.5591152 58.6690683,7.49787643 C58.6690683,3.4114556 60.7230716,0.235127736 64.4245922,0.235127736 M64.4461739,2.91504387 C62.5612429,2.91504387 62.4425334,5.48344297 62.4425334,7.0841993 C62.4425334,8.68855053 62.4173527,12.1130849 64.4245922,12.1130849 C66.4066497,12.1130849 66.5001772,9.35043694 66.5001772,7.66694326 C66.5001772,6.55900788 66.4534135,5.23523779 66.118872,4.18485357 C65.8310956,3.27116709 65.2591431,2.91504387 64.4461739,2.91504387" id="path16"></path>
                            <path d="M75.1946113,14.5447918 L72.6477939,14.5447918 C72.3923907,14.5268077 72.1873503,14.3217673 72.1873503,14.0699631 L72.1837554,0.940178898 C72.2053385,0.699166245 72.4175742,0.512112611 72.6765722,0.512112611 L75.0471289,0.512112611 C75.2701534,0.52289728 75.4536108,0.673986925 75.5039735,0.879027356 L75.5039735,2.88626418 L75.5507345,2.88626418 C76.26658,1.09126168 77.2701963,0.235127736 79.0364219,0.235127736 C80.1839285,0.235127736 81.3026595,0.648806232 82.0220998,1.78192368 C82.6911788,2.83230653 82.6911788,4.59853344 82.6911788,5.86834314 L82.6911788,14.131116 C82.6624018,14.3613344 82.4501661,14.5447918 82.1983647,14.5447918 L79.6335591,14.5447918 C79.399739,14.5268077 79.2054901,14.3541419 79.1803121,14.131116 L79.1803121,7.00146333 C79.1803121,5.56618031 79.3457827,3.46541325 77.5795558,3.46541325 C76.957242,3.46541325 76.3852854,3.88269075 76.1011066,4.51579609 C75.7413885,5.31797376 75.6946248,6.11655243 75.6946248,7.00146333 L75.6946248,14.0699631 C75.6910299,14.3325588 75.4680013,14.5447918 75.1946141,14.5447918" id="path18"></path>
                            <path d="M41.1183272,8.27487203 C41.1183272,9.27129586 41.1435079,10.1022491 40.6398995,10.9871614 C40.2334163,11.7066031 39.5859204,12.1490585 38.8700777,12.1490585 C37.8880417,12.1490585 37.3124902,11.4008385 37.3124902,10.296498 C37.3124902,8.11659535 39.2657694,7.72090365 41.1183272,7.72090365 L41.1183272,8.27487203 M43.6975205,14.5088196 C43.5284537,14.6599023 43.2838421,14.6706939 43.0931908,14.5699738 C42.2442507,13.8649227 42.0895717,13.5375778 41.6255332,12.8649012 C40.2226247,14.2965866 39.2261982,14.7246515 37.4096126,14.7246515 C35.2548893,14.7246515 33.5821914,13.3972852 33.5821914,10.7389562 C33.5821914,8.66336983 34.7045199,7.24966988 36.3088711,6.55900788 C37.6973904,5.94748148 39.636279,5.83956755 41.1183272,5.67049934 L41.1183272,5.33955682 C41.1183272,4.73162805 41.1650909,4.01218773 40.8053715,3.48699905 C40.496012,3.0157639 39.8988748,2.821515 39.3700884,2.821515 C38.3952449,2.821515 37.5283222,3.32152573 37.3160851,4.35751941 C37.272919,4.58774191 37.1038522,4.8143654 36.870032,4.82515693 L34.3915616,4.55896221 C34.1829235,4.5122012 33.9491061,4.34313025 34.010259,4.022982 C34.5786164,1.01572235 37.2981011,0.109225645 39.7298065,0.109225645 C40.9744397,0.109225645 42.6003739,0.440168167 43.58241,1.38263435 C44.8270404,2.54453012 44.7083335,4.0949237 44.7083335,5.78201227 L44.7083335,9.76771033 C44.7083335,10.9655797 45.2047466,11.4907684 45.6723828,12.138267 C45.8342585,12.3684854 45.8702307,12.6454703 45.6615844,12.8181361 C45.1399906,13.253399 44.2119122,14.0627692 43.7011099,14.5160162 L43.6975151,14.5088127" id="path28"></path>
                            <path d="M7.58882041,8.27487203 C7.58882041,9.27129586 7.61399836,10.1022491 7.1103926,10.9871614 C6.70390663,11.7066031 6.06000838,12.1490585 5.34056806,12.1490585 C4.35853202,12.1490585 3.78657822,11.4008385 3.78657822,10.296498 C3.78657822,8.11659535 5.73985739,7.72090365 7.58882041,7.72090365 L7.58882041,8.27487203 M10.1680124,14.5088196 C9.9989442,14.6599023 9.75433254,14.6706939 9.56368127,14.5699738 C8.71474396,13.8649227 8.56365981,13.5375778 8.09602367,12.8649012 C6.6931151,14.2965866 5.70029028,14.7246515 3.88010435,14.7246515 C1.72897727,14.7246515 0.0526843426,13.3972852 0.0526843426,10.7389562 C0.0526843426,8.66336983 1.1786079,7.24966988 2.77936149,6.55900788 C4.16788075,5.94748148 6.10677213,5.83956755 7.58882041,5.67049934 L7.58882041,5.33955682 C7.58882041,4.73162805 7.63558416,4.01218773 7.27946095,3.48699905 C6.96650234,3.0157639 6.36936922,2.821515 5.84417642,2.821515 C4.86933702,2.821515 3.99881254,3.32152573 3.78657822,4.35751941 C3.74341073,4.58774191 3.57434252,4.8143654 3.34412277,4.82515693 L0.862054537,4.55896221 C0.653416472,4.5122012 0.423195349,4.34313025 0.480750629,4.022982 C1.0527058,1.01572235 3.76859142,0.109225645 6.20030101,0.109225645 C7.44493015,0.109225645 9.07086443,0.440168167 10.0529005,1.38263435 C11.2975336,2.54453012 11.178824,4.0949237 11.178824,5.78201227 L11.178824,9.76771033 C11.178824,10.9655797 11.6752399,11.4907684 12.142876,12.138267 C12.3083466,12.3684854 12.3443188,12.6454703 12.1356807,12.8181361 C11.614087,13.253399 10.6860099,14.0627692 10.1752049,14.5160162 L10.1680124,14.5088127" id="path30"></path>
                        </g>
                    </g>
                </g>
            </g>
            <path d="M6.84333333,24.8219048 L6.84333333,23.8004762 C7.70238525,24.2090497 8.48285363,24.4133333 9.1847619,24.4133333 C9.4780967,24.4133333 9.759205,24.3574609 10.0280952,24.2457143 C10.2969855,24.1339677 10.5003961,23.9724614 10.6383333,23.7611905 C10.7762705,23.5499196 10.8452381,23.3203187 10.8452381,23.072381 C10.8452381,22.7825382 10.7500803,22.511033 10.5597619,22.2578571 C10.3694435,22.0046813 10.0141296,21.726192 9.49380952,21.422381 L8.94380952,21.1080952 L8.38857143,20.7885714 C7.41428084,20.2123781 6.92714286,19.4965122 6.92714286,18.6409524 C6.92714286,18.0123778 7.14539464,17.4842085 7.58190476,17.0564286 C8.01841488,16.6286487 8.69761444,16.4147619 9.61952381,16.4147619 C10.2131776,16.4147619 10.7876163,16.5020626 11.3428571,16.6766667 L11.3428571,17.6038095 C10.731743,17.366348 10.1363521,17.247619 9.55666667,17.247619 C9.09571198,17.247619 8.72206492,17.36984 8.43571429,17.6142857 C8.14936365,17.8587314 8.00619048,18.1520618 8.00619048,18.4942857 C8.00619048,18.8365096 8.11618938,19.120237 8.33619048,19.3454762 C8.55619158,19.5707154 8.83555386,19.7776181 9.17428571,19.9661905 L9.59333333,20.217619 L10.1119048,20.5371429 L10.5571429,20.7938095 C11.468576,21.3525425 11.9242857,22.0544402 11.9242857,22.8995238 C11.9242857,23.5455588 11.6894468,24.0990453 11.2197619,24.56 C10.750077,25.0209547 9.99841787,25.2514286 8.9647619,25.2514286 C8.6365063,25.2514286 8.32222372,25.2234923 8.02190476,25.167619 C7.7215858,25.1117458 7.32873259,24.9965088 6.84333333,24.8219048 Z M18.2780952,24.0833333 L18.2780952,25 L13.7785714,25 L13.7785714,16.6661905 L14.8628571,16.6661905 L14.8628571,24.0833333 L18.2780952,24.0833333 Z M19.8757143,16.6661905 L20.96,16.6661905 L20.96,22.1347619 C20.96,22.8576227 21.0202375,23.3499987 21.1407143,23.6119048 C21.2611911,23.8738108 21.4462686,24.0737295 21.6959524,24.2116667 C21.9456362,24.3496039 22.2223794,24.4185714 22.5261905,24.4185714 C22.8474619,24.4185714 23.1346813,24.3443658 23.3878571,24.1959524 C23.641033,24.0475389 23.8269835,23.815319 23.9457143,23.4992857 C24.064445,23.1832524 24.1238095,22.5869885 24.1238095,21.7104762 L24.1238095,16.6661905 L25.1242857,16.6661905 L25.1242857,22.1033333 C25.1242857,22.8820674 25.0090488,23.4905534 24.7785714,23.9288095 C24.5480941,24.3670657 24.2460336,24.6970624 23.872381,24.9188095 C23.4987283,25.1405567 23.0290504,25.2514286 22.4633333,25.2514286 C21.9430133,25.2514286 21.4838115,25.1545248 21.0857143,24.9607143 C20.6876171,24.7669038 20.3864296,24.4770654 20.1821429,24.0911905 C19.9778561,23.7053155 19.8757143,23.0077828 19.8757143,21.9985714 L19.8757143,16.6661905 Z M33.1752381,24.8219048 L33.1752381,23.8004762 C34.03429,24.2090497 34.8147584,24.4133333 35.5166667,24.4133333 C35.8100015,24.4133333 36.0911098,24.3574609 36.36,24.2457143 C36.6288902,24.1339677 36.8323009,23.9724614 36.9702381,23.7611905 C37.1081753,23.5499196 37.1771429,23.3203187 37.1771429,23.072381 C37.1771429,22.7825382 37.0819851,22.511033 36.8916667,22.2578571 C36.7013483,22.0046813 36.3460343,21.726192 35.8257143,21.422381 L35.2757143,21.1080952 L34.7204762,20.7885714 C33.7461856,20.2123781 33.2590476,19.4965122 33.2590476,18.6409524 C33.2590476,18.0123778 33.4772994,17.4842085 33.9138095,17.0564286 C34.3503196,16.6286487 35.0295192,16.4147619 35.9514286,16.4147619 C36.5450823,16.4147619 37.119521,16.5020626 37.6747619,16.6766667 L37.6747619,17.6038095 C37.0636477,17.366348 36.4682569,17.247619 35.8885714,17.247619 C35.4276167,17.247619 35.0539697,17.36984 34.767619,17.6142857 C34.4812684,17.8587314 34.3380952,18.1520618 34.3380952,18.4942857 C34.3380952,18.8365096 34.4480941,19.120237 34.6680952,19.3454762 C34.8880963,19.5707154 35.1674586,19.7776181 35.5061905,19.9661905 L35.9252381,20.217619 L36.4438095,20.5371429 L36.8890476,20.7938095 C37.8004807,21.3525425 38.2561905,22.0544402 38.2561905,22.8995238 C38.2561905,23.5455588 38.0213516,24.0990453 37.5516667,24.56 C37.0819818,25.0209547 36.3303226,25.2514286 35.2966667,25.2514286 C34.9684111,25.2514286 34.6541285,25.2234923 34.3538095,25.167619 C34.0534906,25.1117458 33.6606373,24.9965088 33.1752381,24.8219048 Z M39.607619,25 L39.607619,16.6661905 L40.6919048,16.6661905 L40.6919048,20.2542857 L43.7771429,20.2542857 L43.7771429,16.6661905 L44.8561905,16.6661905 L44.8561905,25 L43.7771429,25 L43.7771429,21.0819048 L40.6919048,21.0819048 L40.6919048,25 L39.607619,25 Z M46.207619,16.6661905 L47.2919048,16.6661905 L47.2919048,22.1347619 C47.2919048,22.8576227 47.3521423,23.3499987 47.472619,23.6119048 C47.5930958,23.8738108 47.7781734,24.0737295 48.0278571,24.2116667 C48.2775409,24.3496039 48.5542842,24.4185714 48.8580952,24.4185714 C49.1793667,24.4185714 49.466586,24.3443658 49.7197619,24.1959524 C49.9729378,24.0475389 50.1588883,23.815319 50.277619,23.4992857 C50.3963498,23.1832524 50.4557143,22.5869885 50.4557143,21.7104762 L50.4557143,16.6661905 L51.4561905,16.6661905 L51.4561905,22.1033333 C51.4561905,22.8820674 51.3409535,23.4905534 51.1104762,23.9288095 C50.8799988,24.3670657 50.5779384,24.6970624 50.2042857,24.9188095 C49.8306331,25.1405567 49.3609552,25.2514286 48.7952381,25.2514286 C48.274918,25.2514286 47.8157163,25.1545248 47.417619,24.9607143 C47.0195218,24.7669038 46.7183344,24.4770654 46.5140476,24.0911905 C46.3097609,23.7053155 46.207619,23.0077828 46.207619,21.9985714 L46.207619,16.6661905 Z M54.8871429,25 L54.8871429,17.5828571 L52.3885714,17.5828571 L52.3885714,16.6661905 L58.4752381,16.6661905 L58.4752381,17.5828571 L55.9714286,17.5828571 L55.9714286,25 L54.8871429,25 Z M61.4871429,25 L61.4871429,17.5828571 L58.9885714,17.5828571 L58.9885714,16.6661905 L65.0752381,16.6661905 L65.0752381,17.5828571 L62.5714286,17.5828571 L62.5714286,25 L61.4871429,25 Z M71.01,24.0833333 L71.01,25 L66.5104762,25 L66.5104762,16.6661905 L67.5947619,16.6661905 L67.5947619,24.0833333 L71.01,24.0833333 Z M77.5209524,24.0833333 L77.5209524,25 L73.0214286,25 L73.0214286,16.6661905 L77.4371429,16.6661905 L77.4371429,17.5042857 L74.1057143,17.5042857 L74.1057143,20.3328571 L77.1019048,20.3328571 L77.1019048,21.1657143 L74.1057143,21.1657143 L74.1057143,24.0833333 L77.5209524,24.0833333 Z" id="SLU-SHUTTLE"></path>
        </g>
    </g>
</svg>