<?xml version="1.0" encoding="UTF-8"?>
<svg width="116px" height="27px" viewBox="0 0 116 27" version="1.1" xmlns="http://www.w3.org/2000/svg" xmlns:xlink="http://www.w3.org/1999/xlink">
    <!-- Generator: Sketch 40 (33762) - http://www.bohemiancoding.com/sketch -->
    <title>logo-sm-amazon</title>
    <desc>Created with Sketch.</desc>
    <defs>
        <linearGradient x1="50%" y1="0%" x2="50%" y2="65.3371711%" id="linearGradient-1">
            <stop stop-color="#FFFFFF" stop-opacity="0.69604846" offset="0%"></stop>
            <stop stop-color="#FFFFFF" stop-opacity="0" offset="100%"></stop>
        </linearGradient>
    </defs>
    <g id="Symbols" stroke="none" stroke-width="1" fill="none" fill-rule="evenodd">
        <g id="logo-sm-amazon">
            <rect id="Rectangle-6" fill="url(#linearGradient-1)" opacity="0.5" x="90" y="0" width="26.0499992" height="10" rx="1"></rect>
            <path d="M95.75,8.3 C95.9100008,8.3 96.0683325,8.2833335 96.225,8.25 C96.3816674,8.2166665 96.521666,8.15500045 96.645,8.065 C96.7683339,7.97499955 96.8666663,7.8500008 96.94,7.69 C97.0133337,7.5299992 97.05,7.3266679 97.05,7.08 C97.05,6.8399988 97.011667,6.6400008 96.935,6.48 C96.858333,6.3199992 96.7583339,6.19166715 96.635,6.095 C96.5116661,5.99833285 96.3683341,5.93166685 96.205,5.895 C96.0416659,5.85833315 95.8733342,5.84 95.7,5.84 L94.78,5.84 L94.78,8.3 L95.75,8.3 Z M95.49,5.17 C95.6366674,5.17 95.7866659,5.1566668 95.94,5.13 C96.0933341,5.1033332 96.2349993,5.04500045 96.365,4.955 C96.4950006,4.86499955 96.6016662,4.73500085 96.685,4.565 C96.7683337,4.39499915 96.81,4.1633348 96.81,3.87 C96.81,3.6499989 96.7800003,3.47166735 96.72,3.335 C96.6599997,3.19833265 96.5783339,3.09500035 96.475,3.025 C96.3716661,2.95499965 96.253334,2.90833345 96.12,2.885 C95.986666,2.86166655 95.8466674,2.85 95.7,2.85 L94.78,2.85 L94.78,5.17 L95.49,5.17 Z M95.72,2.15 C95.9066676,2.15 96.1149989,2.16166655 96.345,2.185 C96.5750012,2.20833345 96.7916656,2.2733328 96.995,2.38 C97.1983343,2.4866672 97.3683326,2.6499989 97.505,2.87 C97.6416674,3.0900011 97.71,3.3933314 97.71,3.78 C97.71,4.0400013 97.6733337,4.2633324 97.6,4.45 C97.5266663,4.6366676 97.4383339,4.79499935 97.335,4.925 C97.2316661,5.05500065 97.1233339,5.15833295 97.01,5.235 C96.8966661,5.31166705 96.8000004,5.3699998 96.72,5.41 C96.8466673,5.4500002 96.981666,5.503333 97.125,5.57 C97.268334,5.636667 97.4016661,5.7333327 97.525,5.86 C97.6483339,5.9866673 97.7499996,6.149999 97.83,6.35 C97.9100004,6.550001 97.95,6.8033318 97.95,7.11 C97.95,7.3166677 97.9266669,7.50166585 97.88,7.665 C97.8333331,7.82833415 97.776667,7.97166605 97.71,8.095 C97.643333,8.21833395 97.5716671,8.3233329 97.495,8.41 C97.418333,8.4966671 97.3500003,8.5666664 97.29,8.62 C97.0966657,8.7866675 96.8566681,8.89166645 96.57,8.935 C96.2833319,8.97833355 95.940002,9 95.54,9 L94.08,9 C93.9999996,9 93.96,8.9600004 93.96,8.88 L93.96,2.27 C93.96,2.1899996 93.9999996,2.15 94.08,2.15 L95.72,2.15 Z M102.85,8.86 C102.85,8.9200003 102.84,8.95833325 102.82,8.975 C102.8,8.99166675 102.763334,9 102.71,9 L99.63,9 C99.5499996,9 99.51,8.9600004 99.51,8.88 L99.51,2.27 C99.51,2.1899996 99.5499996,2.15 99.63,2.15 L102.74,2.15 C102.793334,2.15 102.828333,2.1566666 102.845,2.17 C102.861667,2.1833334 102.87,2.1966666 102.87,2.21 C102.87,2.2233334 102.866667,2.2433332 102.86,2.27 C102.853333,2.2966668 102.846667,2.3199999 102.84,2.34 L102.7,2.76 C102.686667,2.8066669 102.67,2.8333333 102.65,2.84 C102.63,2.8466667 102.596667,2.85 102.55,2.85 L100.33,2.85 L100.33,5.07 L102.29,5.07 C102.343334,5.07 102.378333,5.07833325 102.395,5.095 C102.411667,5.11166675 102.42,5.1466664 102.42,5.2 L102.42,5.64 C102.42,5.6933336 102.411667,5.72833325 102.395,5.745 C102.378333,5.76166675 102.343334,5.77 102.29,5.77 L100.33,5.77 L100.33,8.3 L102.73,8.3 C102.81,8.3 102.85,8.3366663 102.85,8.41 L102.85,8.86 Z M105.85,2.85 L105.85,8.88 C105.85,8.9600004 105.81,9 105.73,9 L105.15,9 C105.07,9 105.03,8.9600004 105.03,8.88 L105.03,2.85 L103.54,2.85 C103.46,2.85 103.42,2.8100004 103.42,2.73 L103.42,2.28 C103.42,2.1933329 103.466666,2.15 103.56,2.15 L107.48,2.15 C107.56,2.15 107.6,2.1766664 107.6,2.23 C107.6,2.2500001 107.595,2.2699999 107.585,2.29 C107.575,2.3100001 107.566667,2.3333332 107.56,2.36 L107.42,2.74 C107.393333,2.8133337 107.34,2.85 107.26,2.85 L105.85,2.85 Z M112.13,8.77 C112.143333,8.8033335 112.153333,8.8333332 112.16,8.86 C112.166667,8.8866668 112.173333,8.9133332 112.18,8.94 C112.18,8.9800002 112.133334,9 112.04,9 L111.42,9 C111.36,9 111.318333,8.9900001 111.295,8.97 C111.271667,8.9499999 111.253333,8.9233335 111.24,8.89 L110.68,6.96 L108.63,6.96 L108.12,8.89 C108.106667,8.9233335 108.088333,8.9499999 108.065,8.97 C108.041667,8.9900001 108,9 107.94,9 L107.32,9 C107.226666,9 107.18,8.9800002 107.18,8.94 C107.186667,8.9133332 107.193333,8.8866668 107.2,8.86 C107.206667,8.8333332 107.216667,8.8033335 107.23,8.77 L109.23,2.26 C109.243333,2.2066664 109.258333,2.17500005 109.275,2.165 C109.291667,2.15499995 109.326666,2.15 109.38,2.15 L109.97,2.15 C110.01,2.15 110.04,2.15499995 110.06,2.165 C110.08,2.17500005 110.1,2.2066664 110.12,2.26 L112.13,8.77 Z M109.89,4.05 C109.85,3.8966659 109.808334,3.73500085 109.765,3.565 C109.721666,3.39499915 109.686667,3.2400007 109.66,3.1 L109.64,3.1 C109.626667,3.1600003 109.613333,3.2299996 109.6,3.31 C109.586667,3.3900004 109.57,3.4733329 109.55,3.56 C109.53,3.6466671 109.51,3.7333329 109.49,3.82 C109.47,3.9066671 109.45,3.983333 109.43,4.05 L108.82,6.26 L110.49,6.26 L109.89,4.05 Z" id="BETA" fill="#9B9B9B"></path>
            <g id="Amazon.com-Logo" fill="#FFFFFF">
                <g id="svg1936">
                    <g id="layer1" transform="translate(0.084521, 0.027977)">
                        <g id="g1967" transform="translate(0.011209, 0.011134)">
                            <path d="M47.8199136,2.82870889 L47.8199136,0.950970428 C47.8199136,0.666791657 48.0357456,0.476140389 48.2947436,0.476140389 L56.7013999,0.476140389 C56.9711923,0.476140389 57.1870242,0.670389291 57.1870242,0.950970428 L57.1870242,2.55891929 C57.1834294,2.82870889 56.9568031,3.18123448 56.5539148,3.73880049 L52.1977057,9.9583616 C53.8164475,9.91879449 55.5251177,10.1598044 56.9927753,10.9871614 C57.3237179,11.174215 57.4136477,11.4476023 57.4388284,11.7173946 L57.4388284,13.7210352 C57.4388284,13.9944224 57.1366629,14.3145707 56.8201095,14.1491015 C54.2337209,12.7929554 50.7983949,12.6454703 47.9386204,14.1634906 C47.6472478,14.3217673 47.3414859,14.0052139 47.3414859,13.7318267 L47.3414859,11.8289075 C47.3414859,11.5231457 47.3450808,11.0015492 47.6508426,10.5375107 L52.6977164,3.29994267 L48.3055352,3.29994267 C48.0357456,3.29994267 47.8199136,3.10929278 47.8199136,2.82870889" id="path12"></path>
                            <path d="M17.1537748,14.5447918 L14.5961659,14.5447918 C14.3515584,14.5268077 14.1573081,14.3433504 14.1393213,14.1095302 L14.1393213,0.98334776 C14.1393213,0.720752048 14.3587509,0.512112611 14.6321381,0.512112611 L17.0170812,0.512112611 C17.2652905,0.52289728 17.4631343,0.713555408 17.4811225,0.950970428 L17.4811225,2.66683733 L17.5278862,2.66683733 C18.1502014,1.00852571 19.3192897,0.235127736 20.8948654,0.235127736 C22.495619,0.235127736 23.4956404,1.00852571 24.2150807,2.66683733 C24.8337997,1.00852571 26.2403044,0.235127736 27.7475332,0.235127736 C28.8194991,0.235127736 29.9921864,0.677583186 30.7080291,1.67041075 C31.5173993,2.77475125 31.3519273,4.37910247 31.3519273,5.78560991 L31.3483311,14.0699631 C31.3483311,14.3325588 31.1289015,14.5447918 30.8555142,14.5447918 L28.3015002,14.5447918 C28.0461011,14.5268077 27.8410607,14.3217673 27.8410607,14.0699631 L27.8410607,7.11297626 C27.8410607,6.55900788 27.8914193,5.17768251 27.7691162,4.65248971 C27.578465,3.77117782 27.0065098,3.52296853 26.265485,3.52296853 C25.6467661,3.52296853 24.9992702,3.93664702 24.7366745,4.59853344 C24.4740788,5.26041848 24.4992595,6.36835387 24.4992595,7.11297626 L24.4992595,14.0699631 C24.4992595,14.3325588 24.2798299,14.5447918 24.0064427,14.5447918 L21.4524314,14.5447918 C21.1934334,14.5268077 20.9919892,14.3217673 20.9919892,14.0699631 L20.9883929,7.11297626 C20.9883929,5.64891629 21.2294028,3.49419157 19.4128186,3.49419157 C17.5746472,3.49419157 17.6465917,5.59495589 17.6465917,7.11297626 L17.6465917,14.0699631 C17.6465917,14.3325588 17.4271621,14.5447918 17.1537748,14.5447918" id="path14"></path>
                            <path d="M64.4245922,0.235127736 C68.219639,0.235127736 70.2736396,3.49419157 70.2736396,7.63816768 C70.2736396,11.6418512 68.0038043,14.818179 64.4245922,14.818179 C60.6978909,14.818179 58.6690683,11.5591152 58.6690683,7.49787643 C58.6690683,3.4114556 60.7230716,0.235127736 64.4245922,0.235127736 M64.4461739,2.91504387 C62.5612429,2.91504387 62.4425334,5.48344297 62.4425334,7.0841993 C62.4425334,8.68855053 62.4173527,12.1130849 64.4245922,12.1130849 C66.4066497,12.1130849 66.5001772,9.35043694 66.5001772,7.66694326 C66.5001772,6.55900788 66.4534135,5.23523779 66.118872,4.18485357 C65.8310956,3.27116709 65.2591431,2.91504387 64.4461739,2.91504387" id="path16"></path>
                            <path d="M75.1946113,14.5447918 L72.6477939,14.5447918 C72.3923907,14.5268077 72.1873503,14.3217673 72.1873503,14.0699631 L72.1837554,0.940178898 C72.2053385,0.699166245 72.4175742,0.512112611 72.6765722,0.512112611 L75.0471289,0.512112611 C75.2701534,0.52289728 75.4536108,0.673986925 75.5039735,0.879027356 L75.5039735,2.88626418 L75.5507345,2.88626418 C76.26658,1.09126168 77.2701963,0.235127736 79.0364219,0.235127736 C80.1839285,0.235127736 81.3026595,0.648806232 82.0220998,1.78192368 C82.6911788,2.83230653 82.6911788,4.59853344 82.6911788,5.86834314 L82.6911788,14.131116 C82.6624018,14.3613344 82.4501661,14.5447918 82.1983647,14.5447918 L79.6335591,14.5447918 C79.399739,14.5268077 79.2054901,14.3541419 79.1803121,14.131116 L79.1803121,7.00146333 C79.1803121,5.56618031 79.3457827,3.46541325 77.5795558,3.46541325 C76.957242,3.46541325 76.3852854,3.88269075 76.1011066,4.51579609 C75.7413885,5.31797376 75.6946248,6.11655243 75.6946248,7.00146333 L75.6946248,14.0699631 C75.6910299,14.3325588 75.4680013,14.5447918 75.1946141,14.5447918" id="path18"></path>
                            <path d="M41.1183272,8.27487203 C41.1183272,9.27129586 41.1435079,10.1022491 40.6398995,10.9871614 C40.2334163,11.7066031 39.5859204,12.1490585 38.8700777,12.1490585 C37.8880417,12.1490585 37.3124902,11.4008385 37.3124902,10.296498 C37.3124902,8.11659535 39.2657694,7.72090365 41.1183272,7.72090365 L41.1183272,8.27487203 M43.6975205,14.5088196 C43.5284537,14.6599023 43.2838421,14.6706939 43.0931908,14.5699738 C42.2442507,13.8649227 42.0895717,13.5375778 41.6255332,12.8649012 C40.2226247,14.2965866 39.2261982,14.7246515 37.4096126,14.7246515 C35.2548893,14.7246515 33.5821914,13.3972852 33.5821914,10.7389562 C33.5821914,8.66336983 34.7045199,7.24966988 36.3088711,6.55900788 C37.6973904,5.94748148 39.636279,5.83956755 41.1183272,5.67049934 L41.1183272,5.33955682 C41.1183272,4.73162805 41.1650909,4.01218773 40.8053715,3.48699905 C40.496012,3.0157639 39.8988748,2.821515 39.3700884,2.821515 C38.3952449,2.821515 37.5283222,3.32152573 37.3160851,4.35751941 C37.272919,4.58774191 37.1038522,4.8143654 36.870032,4.82515693 L34.3915616,4.55896221 C34.1829235,4.5122012 33.9491061,4.34313025 34.010259,4.022982 C34.5786164,1.01572235 37.2981011,0.109225645 39.7298065,0.109225645 C40.9744397,0.109225645 42.6003739,0.440168167 43.58241,1.38263435 C44.8270404,2.54453012 44.7083335,4.0949237 44.7083335,5.78201227 L44.7083335,9.76771033 C44.7083335,10.9655797 45.2047466,11.4907684 45.6723828,12.138267 C45.8342585,12.3684854 45.8702307,12.6454703 45.6615844,12.8181361 C45.1399906,13.253399 44.2119122,14.0627692 43.7011099,14.5160162 L43.6975151,14.5088127" id="path28"></path>
                            <path d="M7.58882041,8.27487203 C7.58882041,9.27129586 7.61399836,10.1022491 7.1103926,10.9871614 C6.70390663,11.7066031 6.06000838,12.1490585 5.34056806,12.1490585 C4.35853202,12.1490585 3.78657822,11.4008385 3.78657822,10.296498 C3.78657822,8.11659535 5.73985739,7.72090365 7.58882041,7.72090365 L7.58882041,8.27487203 M10.1680124,14.5088196 C9.9989442,14.6599023 9.75433254,14.6706939 9.56368127,14.5699738 C8.71474396,13.8649227 8.56365981,13.5375778 8.09602367,12.8649012 C6.6931151,14.2965866 5.70029028,14.7246515 3.88010435,14.7246515 C1.72897727,14.7246515 0.0526843426,13.3972852 0.0526843426,10.7389562 C0.0526843426,8.66336983 1.1786079,7.24966988 2.77936149,6.55900788 C4.16788075,5.94748148 6.10677213,5.83956755 7.58882041,5.67049934 L7.58882041,5.33955682 C7.58882041,4.73162805 7.63558416,4.01218773 7.27946095,3.48699905 C6.96650234,3.0157639 6.36936922,2.821515 5.84417642,2.821515 C4.86933702,2.821515 3.99881254,3.32152573 3.78657822,4.35751941 C3.74341073,4.58774191 3.57434252,4.8143654 3.34412277,4.82515693 L0.862054537,4.55896221 C0.653416472,4.5122012 0.423195349,4.34313025 0.480750629,4.022982 C1.0527058,1.01572235 3.76859142,0.109225645 6.20030101,0.109225645 C7.44493015,0.109225645 9.07086443,0.440168167 10.0529005,1.38263435 C11.2975336,2.54453012 11.178824,4.0949237 11.178824,5.78201227 L11.178824,9.76771033 C11.178824,10.9655797 11.6752399,11.4907684 12.142876,12.138267 C12.3083466,12.3684854 12.3443188,12.6454703 12.1356807,12.8181361 C11.614087,13.253399 10.6860099,14.0627692 10.1752049,14.5160162 L10.1680124,14.5088127" id="path30"></path>
                        </g>
                    </g>
                </g>
            </g>
            <path d="M36.194,24.808 C36.2260002,24.8720003 36.242,24.9159999 36.242,24.94 C36.242,24.9800002 36.1980004,25.0079999 36.11,25.024 L35.354,25.168 C35.2659996,25.1840001 35.2060002,25.1520004 35.174,25.072 L33.194,21.256 L32.33,21.256 L32.33,24.856 C32.33,24.9520005 32.2820005,25 32.186,25 L31.49,25 C31.3939995,25 31.346,24.9520005 31.346,24.856 L31.346,16.924 C31.346,16.8279995 31.3939995,16.78 31.49,16.78 L33.35,16.78 C33.5820012,16.78 33.8399986,16.7939999 34.124,16.822 C34.4080014,16.8500001 34.6719988,16.9339993 34.916,17.074 C35.1600012,17.2140007 35.3659992,17.4319985 35.534,17.728 C35.7020008,18.0240015 35.786,18.4359974 35.786,18.964 C35.786,19.2920016 35.7340005,19.5819987 35.63,19.834 C35.5259995,20.0860013 35.3960008,20.3019991 35.24,20.482 C35.0839992,20.6620009 34.9140009,20.8079994 34.73,20.92 C34.5459991,21.0320006 34.3700008,21.1159997 34.202,21.172 L36.194,24.808 Z M33.11,20.476 C33.3340011,20.476 33.547999,20.4580002 33.752,20.422 C33.956001,20.3859998 34.1359992,20.3160005 34.292,20.212 C34.4480008,20.1079995 34.5719995,19.958001 34.664,19.762 C34.7560005,19.565999 34.802,19.3080016 34.802,18.988 C34.802,18.6519983 34.7540005,18.3920009 34.658,18.208 C34.5619995,18.0239991 34.4380008,17.8880004 34.286,17.8 C34.1339992,17.7119996 33.9660009,17.6600001 33.782,17.644 C33.5979991,17.6279999 33.4220008,17.62 33.254,17.62 L32.33,17.62 L32.33,20.476 L33.11,20.476 Z M40.853,24.856 C40.853,24.9520005 40.8050005,25 40.709,25 L37.541,25 C37.4449995,25 37.397,24.9520005 37.397,24.856 L37.397,24.364 C37.397,24.2679995 37.4449995,24.22 37.541,24.22 L38.633,24.22 L38.633,17.56 L37.541,17.56 C37.4449995,17.56 37.397,17.5120005 37.397,17.416 L37.397,16.924 C37.397,16.8279995 37.4449995,16.78 37.541,16.78 L40.709,16.78 C40.8050005,16.78 40.853,16.8279995 40.853,16.924 L40.853,17.416 C40.853,17.5120005 40.8050005,17.56 40.709,17.56 L39.617,17.56 L39.617,24.22 L40.709,24.22 C40.8050005,24.22 40.853,24.2679995 40.853,24.364 L40.853,24.856 Z M44.54,16.78 C44.9560021,16.78 45.3579981,16.8199996 45.746,16.9 C46.1340019,16.9800004 46.4779985,17.1579986 46.778,17.434 C47.0780015,17.7100014 47.3179991,18.1139973 47.498,18.646 C47.6780009,19.1780027 47.768,19.8999954 47.768,20.812 C47.768,21.5240036 47.7080006,22.1439974 47.588,22.672 C47.4679994,23.2000026 47.2740013,23.6359983 47.006,23.98 C46.7379987,24.3240017 46.3900021,24.5799992 45.962,24.748 C45.5339979,24.9160008 45.016003,25 44.408,25 L43.028,25 C42.9319995,25 42.884,24.9520005 42.884,24.856 L42.884,16.924 C42.884,16.8279995 42.9319995,16.78 43.028,16.78 L44.54,16.78 Z M44.612,24.16 C45.0440022,24.16 45.3939987,24.0800008 45.662,23.92 C45.9300013,23.7599992 46.1399992,23.5320015 46.292,23.236 C46.4440008,22.9399985 46.5479997,22.5820021 46.604,22.162 C46.6600003,21.7419979 46.688,21.2760026 46.688,20.764 C46.688,20.1079967 46.6420005,19.5740021 46.55,19.162 C46.4579995,18.7499979 46.3200009,18.4300011 46.136,18.202 C45.9519991,17.9739989 45.7260013,17.8200004 45.458,17.74 C45.1899987,17.6599996 44.8800018,17.62 44.528,17.62 L43.868,17.62 L43.868,24.16 L44.612,24.16 Z M53.915,24.832 C53.915,24.9040004 53.9030001,24.9499999 53.879,24.97 C53.8549999,24.9900001 53.8110003,25 53.747,25 L50.051,25 C49.9549995,25 49.907,24.9520005 49.907,24.856 L49.907,16.924 C49.907,16.8279995 49.9549995,16.78 50.051,16.78 L53.783,16.78 C53.8470003,16.78 53.8889999,16.7879999 53.909,16.804 C53.9290001,16.8200001 53.939,16.8359999 53.939,16.852 C53.939,16.8680001 53.935,16.8919998 53.927,16.924 C53.919,16.9560002 53.911,16.9839999 53.903,17.008 L53.735,17.512 C53.7189999,17.5680003 53.6990001,17.6 53.675,17.608 C53.6509999,17.616 53.6110003,17.62 53.555,17.62 L50.891,17.62 L50.891,20.284 L53.243,20.284 C53.3070003,20.284 53.3489999,20.2939999 53.369,20.314 C53.3890001,20.3340001 53.399,20.3759997 53.399,20.44 L53.399,20.968 C53.399,21.0320003 53.3890001,21.0739999 53.369,21.094 C53.3489999,21.1140001 53.3070003,21.124 53.243,21.124 L50.891,21.124 L50.891,24.16 L53.771,24.16 C53.8670005,24.16 53.915,24.2039996 53.915,24.292 L53.915,24.832 Z" id="RIDE" fill="#FFFFFF"></path>
        </g>
    </g>
</svg>