<?xml version="1.0" encoding="UTF-8"?>
<svg width="108px" height="25px" viewBox="0 0 108 25" version="1.1" xmlns="http://www.w3.org/2000/svg" xmlns:xlink="http://www.w3.org/1999/xlink">
    <!-- Generator: Sketch 44.1 (41455) - http://www.bohemiancoding.com/sketch -->
    <title>logo-large-amazon-fixed</title>
    <desc>Created with Sketch.</desc>
    <defs></defs>
    <g id="Symbols" stroke="none" stroke-width="1" fill="none" fill-rule="evenodd">
        <g id="Amazon-Logo" transform="translate(-134.000000, -27.000000)" fill="#F76F1E">
            <g id="logo-large-amazon-fixed" transform="translate(134.000000, 27.000000)">
                <path d="M16.2773438,21.3017578 L13.4648438,21.3017578 L13.4648438,24.2070312 L12,24.2070312 L12,17.0976562 L16.6289062,17.0976562 L16.6289062,18.2841797 L13.4648438,18.2841797 L13.4648438,20.1201172 L16.2773438,20.1201172 L16.2773438,21.3017578 Z M19.0361328,24.2070312 L17.5712891,24.2070312 L17.5712891,17.0976562 L19.0361328,17.0976562 L19.0361328,24.2070312 Z M23.0205078,19.5488281 L24.3535156,17.0976562 L26.0380859,17.0976562 L23.9677734,20.6230469 L26.0917969,24.2070312 L24.3876953,24.2070312 L23.0205078,21.7167969 L21.6533203,24.2070312 L19.9492188,24.2070312 L22.0732422,20.6230469 L20.0029297,17.0976562 L21.6875,17.0976562 L23.0205078,19.5488281 Z M31.1064453,21.1259766 L28.2939453,21.1259766 L28.2939453,23.0302734 L31.5947266,23.0302734 L31.5947266,24.2070312 L26.8291016,24.2070312 L26.8291016,17.0976562 L31.5849609,17.0976562 L31.5849609,18.2841797 L28.2939453,18.2841797 L28.2939453,19.9785156 L31.1064453,19.9785156 L31.1064453,21.1259766 Z M32.4541016,24.2070312 L32.4541016,17.0976562 L34.6416016,17.0976562 C35.2666047,17.0976562 35.8256811,17.2384426 36.3188477,17.5200195 C36.8120142,17.8015965 37.1969387,18.2019831 37.4736328,18.7211914 C37.7503269,19.2403997 37.8886719,19.8304003 37.8886719,20.4912109 L37.8886719,20.8183594 C37.8886719,21.47917 37.7527683,22.0667292 37.480957,22.5810547 C37.2091458,23.0953802 36.8258488,23.4941392 36.3310547,23.7773438 C35.8362605,24.0605483 35.2779979,24.203776 34.65625,24.2070312 L32.4541016,24.2070312 Z M33.9189453,18.2841797 L33.9189453,23.0302734 L34.6269531,23.0302734 C35.1998727,23.0302734 35.6376938,22.8431008 35.9404297,22.46875 C36.2431656,22.0943992 36.3977864,21.5589228 36.4042969,20.8623047 L36.4042969,20.4863281 C36.4042969,19.7636683 36.2545588,19.2159849 35.9550781,18.8432617 C35.6555975,18.4705385 35.2177763,18.2841797 34.6416016,18.2841797 L33.9189453,18.2841797 Z M44.0751953,21.6044922 L42.9082031,21.6044922 L42.9082031,24.2070312 L41.4433594,24.2070312 L41.4433594,17.0976562 L44.0849609,17.0976562 C44.9248089,17.0976562 45.5725889,17.2848289 46.0283203,17.6591797 C46.4840518,18.0335305 46.7119141,18.5624966 46.7119141,19.2460938 C46.7119141,19.7311222 46.6069346,20.1355778 46.3969727,20.4594727 C46.1870107,20.7833675 45.8688172,21.0413402 45.4423828,21.2333984 L46.9804688,24.1386719 L46.9804688,24.2070312 L45.4082031,24.2070312 L44.0751953,21.6044922 Z M42.9082031,20.4179688 L44.0898438,20.4179688 C44.4576841,20.4179688 44.742512,20.3243824 44.9443359,20.137207 C45.1461599,19.9500316 45.2470703,19.6920589 45.2470703,19.3632812 C45.2470703,19.0279931 45.1518564,18.7643239 44.9614258,18.5722656 C44.7709951,18.3802074 44.4788431,18.2841797 44.0849609,18.2841797 L42.9082031,18.2841797 L42.9082031,20.4179688 Z M53.6650391,20.8134766 C53.6650391,21.5133499 53.5413424,22.1269505 53.2939453,22.6542969 C53.0465482,23.1816433 52.6925479,23.5885402 52.2319336,23.875 C51.7713193,24.1614598 51.243167,24.3046875 50.6474609,24.3046875 C50.0582653,24.3046875 49.5325544,24.1630874 49.0703125,23.8798828 C48.6080706,23.5966783 48.2500013,23.1922227 47.9960938,22.6665039 C47.7421862,22.1407851 47.6136068,21.5361362 47.6103516,20.8525391 L47.6103516,20.5009766 C47.6103516,19.8011033 47.7364896,19.1850613 47.9887695,18.652832 C48.2410494,18.1206028 48.5974912,17.7120782 49.0581055,17.4272461 C49.5187198,17.1424139 50.0452444,17 50.6376953,17 C51.2301462,17 51.7566709,17.1424139 52.2172852,17.4272461 C52.6778994,17.7120782 53.0343412,18.1206028 53.2866211,18.652832 C53.538901,19.1850613 53.6650391,19.7994757 53.6650391,20.4960938 L53.6650391,20.8134766 Z M52.1806641,20.4912109 C52.1806641,19.7457645 52.0472019,19.1793639 51.7802734,18.7919922 C51.513345,18.4046205 51.1324895,18.2109375 50.6376953,18.2109375 C50.1461564,18.2109375 49.7669284,18.4021791 49.5,18.784668 C49.2330716,19.1671569 49.0979818,19.7278609 49.0947266,20.4667969 L49.0947266,20.8134766 C49.0947266,21.5393917 49.2281888,22.1025371 49.4951172,22.5029297 C49.7620456,22.9033223 50.1461563,23.1035156 50.6474609,23.1035156 C51.1389999,23.1035156 51.5166002,22.9106465 51.7802734,22.5249023 C52.0439466,22.1391582 52.1774088,21.5768266 52.1806641,20.8378906 L52.1806641,20.4912109 Z M60.1103516,17.0976562 L60.1103516,21.7802734 C60.1103516,22.5582721 59.8670272,23.1735003 59.3803711,23.6259766 C58.893715,24.0784528 58.2288454,24.3046875 57.3857422,24.3046875 C56.5556599,24.3046875 55.8964868,24.0849631 55.4082031,23.6455078 C54.9199194,23.2060525 54.6708985,22.6022174 54.6611328,21.8339844 L54.6611328,17.0976562 L56.1259766,17.0976562 L56.1259766,21.7900391 C56.1259766,22.2555362 56.2374663,22.5948883 56.4604492,22.8081055 C56.6834321,23.0213227 56.99186,23.1279297 57.3857422,23.1279297 C58.209314,23.1279297 58.6276041,22.6949913 58.640625,21.8291016 L58.640625,17.0976562 L60.1103516,17.0976562 Z M66.6630859,18.2841797 L64.4853516,18.2841797 L64.4853516,24.2070312 L63.0205078,24.2070312 L63.0205078,18.2841797 L60.8720703,18.2841797 L60.8720703,17.0976562 L66.6630859,17.0976562 L66.6630859,18.2841797 Z M71.7753906,21.1259766 L68.9628906,21.1259766 L68.9628906,23.0302734 L72.2636719,23.0302734 L72.2636719,24.2070312 L67.4980469,24.2070312 L67.4980469,17.0976562 L72.2539062,17.0976562 L72.2539062,18.2841797 L68.9628906,18.2841797 L68.9628906,19.9785156 L71.7753906,19.9785156 L71.7753906,21.1259766 Z" id="FIXED-ROUTE"></path>
                <g id="Group-2">
                    <path d="M48.610554,3.05626016 L48.610554,1.21412598 C48.610554,0.935335599 48.835516,0.74829932 49.1054701,0.74829932 L57.8677408,0.74829932 C58.1489458,0.74829932 58.3739078,0.938865017 58.3739078,1.21412598 L58.3739078,2.7915861 C58.3701608,3.05626016 58.1339479,3.40210141 57.7140168,3.94909527 L53.1735334,10.0507257 C54.8607504,10.0119088 56.6417001,10.2483488 58.1714418,11.0600181 C58.5163837,11.243525 58.6101178,11.5117284 58.6363636,11.7764052 L58.6363636,13.7420542 C58.6363636,14.0102577 58.321416,14.3243355 57.991472,14.1620038 C55.2956751,12.831572 51.7150296,12.6868833 48.7342823,14.1761201 C48.4305841,14.3313957 48.1118881,14.0208446 48.1118881,13.7526411 L48.1118881,11.8858037 C48.1118881,11.5858395 48.1156351,11.0741331 48.4343311,10.6188933 L53.6946954,3.51855875 L49.1167181,3.51855875 C48.835516,3.51855875 48.610554,3.33152382 48.610554,3.05626016" id="path12"></path>
                    <path d="M17.3088112,14.2176871 L14.7417498,14.2176871 C14.4962382,14.1998186 14.3012701,14.0175404 14.2832168,13.7852232 L14.2832168,0.743410756 C14.2832168,0.482502907 14.5034574,0.275204524 14.777855,0.275204524 L17.1716124,0.275204524 C17.420739,0.285919873 17.619314,0.475352525 17.6373687,0.711241532 L17.6373687,2.4160795 L17.6843053,2.4160795 C18.3089204,0.76842687 19.4823295,0 21.0637282,0 C22.6703978,0 23.6741152,0.76842687 24.3962145,2.4160795 C25.0172201,0.76842687 26.4289229,0 27.9417222,0 C29.0176499,0 30.1946713,0.439611518 30.9131596,1.42605757 C31.7255211,2.5232998 31.5594376,4.11733887 31.5594376,5.51480582 L31.555828,13.7459104 C31.555828,14.0068183 31.3355875,14.2176871 31.0611898,14.2176871 L28.4977366,14.2176871 C28.2413936,14.1998186 28.0355954,13.9960961 28.0355954,13.7459104 L28.0355954,6.83364038 C28.0355954,6.28323269 28.0861402,4.91078595 27.9633851,4.38896889 C27.7720292,3.51332172 27.1979602,3.26670782 26.4541967,3.26670782 C25.8331911,3.26670782 25.1833022,3.67772736 24.919736,4.33535942 C24.6561697,4.99299013 24.6814435,6.09380413 24.6814435,6.83364038 L24.6814435,13.7459104 C24.6814435,14.0068183 24.4612029,14.2176871 24.1868053,14.2176871 L21.6233549,14.2176871 C21.3633996,14.1998186 21.1612109,13.9960961 21.1612109,13.7459104 L21.1576014,6.83364038 C21.1576014,5.37899082 21.399502,3.23811584 19.576204,3.23811584 C17.7312391,3.23811584 17.8034494,5.32537726 17.8034494,6.83364038 L17.8034494,13.7459104 C17.8034494,14.0068183 17.5832089,14.2176871 17.3088112,14.2176871" id="path14"></path>
                    <path d="M66.1053783,1.6008528e-14 C70.03889,1.6008528e-14 72.1678322,3.34464332 72.1678322,7.59743574 C72.1678322,11.7062516 69.8151804,14.9659864 66.1053783,14.9659864 C62.2427057,14.9659864 60.1398601,11.6213431 60.1398601,7.45346059 C60.1398601,3.25973479 62.2688052,0 66.1053783,0 M66.1277474,2.75028783 C64.1740435,2.75028783 64.0510027,5.38613029 64.0510027,7.02892076 C64.0510027,8.6754005 64.0249033,12.1898595 66.1053783,12.1898595 C68.1597525,12.1898595 68.2566925,9.35466734 68.2566925,7.62696694 C68.2566925,6.48993837 68.2082225,5.13140752 67.861475,4.05344135 C67.5631989,3.11576245 66.9703784,2.75028783 66.1277474,2.75028783" id="path16"></path>
                    <path d="M76.6870708,14.2176871 L74.1361203,14.2176871 C73.8803026,14.1998186 73.6749294,13.9960961 73.6749294,13.7459104 L73.6713287,0.700519366 C73.6929468,0.461055849 73.9055269,0.275204524 74.1649453,0.275204524 L76.5393491,0.275204524 C76.7627355,0.285919873 76.9464906,0.436038372 76.9969351,0.639760882 L76.9969351,2.63409596 L77.043772,2.63409596 C77.7607791,0.850631049 78.7660242,0 80.5351161,0 C81.684485,0 82.8050315,0.411019531 83.5256394,1.53685374 C84.1958042,2.58048513 84.1958042,4.33535942 84.1958042,5.59700728 L84.1958042,13.8066703 C84.1669805,14.0354089 83.9544004,14.2176871 83.7021903,14.2176871 L81.1332224,14.2176871 C80.8990228,14.1998186 80.7044587,14.0282626 80.6792399,13.8066703 L80.6792399,6.72284421 C80.6792399,5.29678664 80.844979,3.20952249 79.0758857,3.20952249 C78.452562,3.20952249 77.8796772,3.62411789 77.5950373,4.25315388 C77.2347354,5.05017546 77.1878957,5.84362117 77.1878957,6.72284421 L77.1878957,13.7459104 C77.184295,14.0068183 76.9609045,14.2176871 76.6870736,14.2176871" id="path18"></path>
                    <path d="M42.4592247,8.36150474 C42.4592247,9.38182844 42.4855503,10.2327127 41.9590428,11.1388501 C41.5340767,11.8755481 40.8571391,12.3286161 40.1087469,12.3286161 C39.0820576,12.3286161 38.4803357,11.5624496 38.4803357,10.4316207 C38.4803357,8.19943169 40.5224308,7.79424907 42.4592247,7.79424907 L42.4592247,8.36150474 M45.1556944,14.7449776 C44.97894,14.8996842 44.7232058,14.9107345 44.5238856,14.8075987 C43.6363441,14.0856364 43.4746318,13.7504399 42.9894934,13.0616288 C41.5227945,14.5276541 40.4810603,14.9659864 38.5818743,14.9659864 C36.3291753,14.9659864 34.5804196,13.6067823 34.5804196,10.8846916 C34.5804196,8.75932092 35.7537806,7.31171244 37.4310819,6.60448447 C38.8827374,5.9782902 40.9097876,5.8677879 42.4592247,5.69466448 L42.4592247,5.35578408 C42.4592247,4.73327374 42.5081148,3.99657717 42.1320388,3.4587915 C41.8086127,2.97625347 41.1843235,2.77734538 40.6314932,2.77734538 C39.6123234,2.77734538 38.7059816,3.2893492 38.4840941,4.35019186 C38.4389652,4.5859364 38.2622108,4.8179956 38.0177589,4.82904597 L35.426592,4.5564664 C35.2084671,4.5085838 34.964018,4.33545757 35.0279515,4.00763035 C35.6221522,0.928239618 38.4652923,0 41.0075678,0 C42.3087946,0 44.0086603,0.338880394 45.0353497,1.30395224 C46.3365736,2.49371684 46.2124692,4.08129762 46.2124692,5.80885211 L46.2124692,9.89014974 C46.2124692,11.1167508 46.7314543,11.6545365 47.2203539,12.3175658 C47.3895901,12.5533061 47.427198,12.8369346 47.2090645,13.013742 C46.6637538,13.4594449 45.6934755,14.2882284 45.159447,14.7523468 L45.1556886,14.7449705" id="path28"></path>
                    <path d="M7.87674739,8.36150474 C7.87674739,9.38182844 7.90306331,10.2327127 7.37669604,11.1388501 C6.95183809,11.8755481 6.27883753,12.3286161 5.5268806,12.3286161 C4.50045941,12.3286161 3.90265496,11.5624496 3.90265496,10.4316207 C3.90265496,8.19943169 5.94421665,7.79424907 7.87674739,7.79424907 L7.87674739,8.36150474 M10.5725113,14.7449776 C10.3958017,14.8996842 10.1401343,14.9107345 9.94086619,14.8075987 C9.0535594,14.0856364 8.89564668,13.7504399 8.40687475,13.0616288 C6.94055882,14.5276541 5.90286122,14.9659864 4.0004082,14.9659864 C1.75205647,14.9659864 0,13.6067823 0,10.8846916 C0,8.75932092 1.17681201,7.31171244 2.84991498,6.60448447 C4.30119126,5.9782902 6.32771486,5.8677879 7.87674739,5.69466448 L7.87674739,5.35578408 C7.87674739,4.73327374 7.92562473,3.99657717 7.55340578,3.4587915 C7.22630236,2.97625347 6.60218057,2.77734538 6.05325059,2.77734538 C5.0343513,2.77734538 4.12448166,3.2893492 3.90265496,4.35019186 C3.85753643,4.5859364 3.68082683,4.8179956 3.44020182,4.82904597 L0.845951361,4.5564664 C0.627883466,4.5085838 0.38725702,4.33545757 0.447413632,4.00763035 C1.04521951,0.928239618 3.88385522,0 6.42547097,0 C7.72635371,0 9.42577547,0.338880394 10.4521967,1.30395224 C11.7530836,2.49371684 11.6290087,4.08129762 11.6290087,5.80885211 L11.6290087,9.89014974 C11.6290087,11.1167508 12.1478611,11.6545365 12.636633,12.3175658 C12.8095824,12.5533061 12.8471804,12.8369346 12.6291125,13.013742 C12.0839442,13.4594449 11.1139208,14.2882284 10.5800289,14.7523468 L10.5725113,14.7449705" id="path30"></path>
                </g>
                <g id="Group-3" transform="translate(87.000000, 0.000000)">
                    <path d="M1.2372588,8.21547667 C1.25520894,8.17006145 1.28662122,8.14735418 1.33149658,8.14735418 C1.34944673,8.14735418 1.36964034,8.15189563 1.39207802,8.16097868 C1.41451569,8.17006172 1.47060905,8.19731044 1.56035977,8.24272566 C1.89243742,8.42438654 2.22899757,8.5651716 2.57005029,8.66508508 C2.91110302,8.76499856 3.22522582,8.81495455 3.51242812,8.81495455 C4.01503213,8.81495455 4.41441684,8.67416949 4.71059421,8.39259513 C5.00677157,8.11102078 5.15485804,7.73862157 5.15485804,7.27538635 C5.15485804,7.06647634 5.13017696,6.88027674 5.08081406,6.71678195 C5.03145117,6.55328716 4.9417018,6.39433628 4.81156326,6.23992454 C4.68142472,6.0855128 4.50865718,5.92883264 4.29325546,5.76987938 C4.07785373,5.61092612 3.80411815,5.43608015 3.4720405,5.24533623 C3.1848382,5.08184144 2.95148983,4.94559783 2.7719884,4.83660131 C2.59248696,4.72760478 2.44215677,4.62996353 2.3209933,4.54367461 C2.19982983,4.4573857 2.09886179,4.37563953 2.01808614,4.29843366 C1.93731049,4.22122779 1.85653606,4.13721089 1.77576041,4.04638046 C1.59625898,3.83747045 1.46163492,3.60358559 1.3718842,3.34471884 C1.28213349,3.08585209 1.2372588,2.8156356 1.2372588,2.53406124 C1.2372588,2.1707395 1.3023271,1.83921337 1.43246564,1.53947293 C1.56260418,1.23973249 1.74434665,0.980869628 1.97769852,0.762876579 C2.21105038,0.544883531 2.48927344,0.374579016 2.81237602,0.251957926 C3.1354786,0.129336836 3.49447609,0.0680272109 3.88937925,0.0680272109 C4.11375604,0.0680272109 4.35832308,0.0930052064 4.62308769,0.142961947 C4.88785231,0.192918687 5.13241935,0.254228312 5.35679614,0.326892662 C5.58117293,0.399557011 5.76740288,0.479032452 5.91549156,0.565321367 C6.06358025,0.651610282 6.13762348,0.731085722 6.13762348,0.803750071 L6.13762348,0.844623564 L5.86837267,1.52584843 C5.84144746,1.5803467 5.80554771,1.60759542 5.76067235,1.60759542 C5.75169728,1.60759542 5.74047861,1.60532469 5.727016,1.60078317 C5.71355339,1.59624165 5.68887232,1.58715874 5.65297203,1.57353418 C5.61707174,1.55990961 5.56322212,1.53493161 5.49142154,1.49859944 C5.41962097,1.46226727 5.31640919,1.40776982 5.18178312,1.33510547 C4.99330661,1.24427503 4.78239559,1.17161177 4.54904372,1.11711351 C4.31569186,1.06261525 4.09131843,1.03536653 3.87591671,1.03536653 C3.40921297,1.03536653 3.04572802,1.15344432 2.78545094,1.38960346 C2.52517386,1.6257626 2.39503727,1.95728872 2.39503727,2.38419177 C2.39503727,2.86559309 2.57453601,3.25161665 2.93353888,3.54227405 C3.00533946,3.59677231 3.06816402,3.64218685 3.12201445,3.67851903 C3.17586488,3.7148512 3.25439558,3.76480719 3.3576089,3.8283885 C3.46082223,3.8919698 3.60217749,3.98052815 3.78167892,4.0940662 C3.96118036,4.20760424 4.21696607,4.3642844 4.54904372,4.56411136 C4.7464953,4.68219093 4.91477537,4.78664436 5.05388898,4.8774748 C5.1930026,4.96830524 5.31192051,5.05459286 5.4106463,5.13634025 C5.50937209,5.21808764 5.59463399,5.29983381 5.66643457,5.3815812 C5.73823514,5.4633286 5.81003464,5.55415767 5.88183521,5.65407115 C6.03441143,5.86298116 6.14659815,6.09232457 6.21839872,6.34210827 C6.2901993,6.59189197 6.32609904,6.85302556 6.32609904,7.12551687 C6.32609904,7.5251708 6.25878702,7.88848709 6.12416094,8.21547667 C5.98953486,8.54246624 5.79657371,8.82403637 5.54527171,9.06019551 C5.2939697,9.29635464 4.99555304,9.47801279 4.65001277,9.6051754 C4.30447251,9.73233802 3.92079395,9.79591837 3.49896558,9.79591837 C3.24766357,9.79591837 2.97392798,9.76866965 2.67775062,9.71417138 C2.38157325,9.65967312 2.10559393,9.59155131 1.84980439,9.50980392 C1.59401484,9.42805653 1.38086008,9.33949818 1.21033372,9.24412622 C1.03980736,9.14875426 0.954545455,9.06019592 0.954545455,8.97844852 C0.954545455,8.94211635 0.963520392,8.90578472 0.981470535,8.86945254 L1.2372588,8.21547667 Z M12.7208057,8.63783609 C12.8464567,8.63783609 12.9092813,8.66962626 12.9092813,8.73320757 C12.9092813,8.74229061 12.9003063,8.7831637 12.8823562,8.85582805 L12.6669555,9.45530593 C12.6220802,9.55521941 12.5547682,9.6051754 12.4650174,9.6051754 L8.39933025,9.6051754 C8.31855461,9.6051754 8.26694872,9.59382177 8.24451104,9.57111416 C8.22207336,9.54840655 8.21085469,9.49617983 8.21085469,9.41443244 L8.21085469,0.449513139 C8.21085469,0.367765745 8.22207336,0.315539028 8.24451104,0.292831418 C8.26694872,0.270123809 8.31855461,0.258770175 8.39933025,0.258770175 L9.12630743,0.258770175 C9.20708308,0.258770175 9.25868897,0.270123809 9.28112665,0.292831418 C9.30356432,0.315539028 9.314783,0.367765745 9.314783,0.449513139 L9.314783,8.63783609 L12.7208057,8.63783609 Z M14.9555874,0.258770175 C15.036363,0.258770175 15.0879689,0.270123809 15.1104066,0.292831418 C15.1328443,0.315539028 15.144063,0.367765745 15.144063,0.449513139 L15.144063,7.05739439 C15.144063,7.72045658 15.2741995,8.19049704 15.5344766,8.46752987 C15.7947537,8.7445627 16.2345256,8.88307704 16.8538056,8.88307704 C17.4820606,8.88307704 17.9442699,8.73547979 18.2404472,8.44028087 C18.5366246,8.14508195 18.6847111,7.6841244 18.6847111,7.05739439 L18.6847111,0.449513139 C18.6847111,0.367765745 18.6959297,0.315539028 18.7183674,0.292831418 C18.7408051,0.270123809 18.792411,0.258770175 18.8731866,0.258770175 L19.5597762,0.258770175 C19.6405518,0.258770175 19.6921577,0.270123809 19.7145954,0.292831418 C19.7370331,0.315539028 19.7482517,0.367765745 19.7482517,0.449513139 L19.7482517,7.09826788 C19.7482517,7.54333702 19.6944021,7.91573622 19.5867013,8.21547667 C19.4790004,8.51521711 19.3084766,8.78316288 19.0751247,9.01932201 C18.7968975,9.29181333 18.480531,9.48936656 18.1260156,9.61198765 C17.7715003,9.73460874 17.3294847,9.79591837 16.7999554,9.79591837 C14.9600657,9.79591837 14.0401347,8.89671053 14.0401347,7.09826788 L14.0401347,0.449513139 C14.0401347,0.367765745 14.0513533,0.315539028 14.073791,0.292831418 C14.0962287,0.270123809 14.1478346,0.258770175 14.2286102,0.258770175 L14.9555874,0.258770175 Z" id="SLU"></path>
                    <path d="M3.09371012,13.2675692 C3.09371012,13.5878674 2.98520285,13.83763 2.76818506,14.0168642 C2.55116727,14.1960985 2.25664755,14.2857143 1.88461705,14.2857143 C1.48158401,14.2857143 1.17156324,14.2301193 0.954545455,14.1189277 L0.954545455,13.7106739 C1.09405689,13.7737378 1.24596707,13.8235243 1.41028054,13.860035 C1.57459401,13.8965457 1.73735491,13.9148008 1.89856812,13.9148008 C2.16208972,13.9148008 2.36050301,13.8612802 2.49381394,13.7542376 C2.62712487,13.6471949 2.69377934,13.4982501 2.69377934,13.3073988 C2.69377934,13.181271 2.67014025,13.0779639 2.62286138,12.9974744 C2.5755825,12.916985 2.49652721,12.84272 2.38569312,12.7746774 C2.27485903,12.7066348 2.10628524,12.6294656 1.87996669,12.5431676 C1.56374077,12.4220185 1.33781314,12.2784673 1.20217702,12.1125097 C1.0665409,11.946552 0.998723855,11.7299805 0.998723855,11.4627887 C0.998723855,11.1823203 1.09715545,10.9591106 1.29402159,10.7931529 C1.49088772,10.6271953 1.75130517,10.5442177 2.07528173,10.5442177 C2.41320943,10.5442177 2.72400524,10.6105998 3.0076785,10.7433659 L2.88444401,11.11179 C2.60387101,10.9856622 2.33105274,10.9225992 2.06598101,10.9225992 C1.85671385,10.9225992 1.6931779,10.9707262 1.57536824,11.0669817 C1.45755859,11.1632371 1.39865464,11.296831 1.39865464,11.4677674 C1.39865464,11.5938952 1.42035609,11.6972023 1.46375965,11.7776918 C1.50716321,11.8581812 1.58040562,11.9320313 1.68348907,11.9992441 C1.78657252,12.066457 1.94429558,12.1407219 2.15666299,12.2220412 C2.51319222,12.3581265 2.75849615,12.504167 2.89258214,12.6601672 C3.02666813,12.8161674 3.09371012,13.0186327 3.09371012,13.2675692 Z M6.36988731,14.2359272 L5.97460688,14.2359272 L5.97460688,12.5232528 L4.18421906,12.5232528 L4.18421906,14.2359272 L3.78893864,14.2359272 L3.78893864,10.5964941 L4.18421906,10.5964941 L4.18421906,12.1448713 L5.97460688,12.1448713 L5.97460688,10.5964941 L6.36988731,10.5964941 L6.36988731,14.2359272 Z M9.86928168,10.5964941 L9.86928168,12.9514214 C9.86928168,13.3663156 9.75224884,13.6924175 9.51817966,13.9297369 C9.28411047,14.1670563 8.96246392,14.2857143 8.55323038,14.2857143 C8.14399683,14.2857143 7.82738812,14.1662266 7.60339476,13.9272475 C7.3794014,13.6882685 7.2674064,13.3596773 7.2674064,12.941464 L7.2674064,10.5964941 L7.66268683,10.5964941 L7.66268683,12.9713362 C7.66268683,13.2750387 7.74019202,13.5082058 7.89520472,13.6708443 C8.05021743,13.8334828 8.27808269,13.9148008 8.57880735,13.9148008 C8.86558085,13.9148008 9.08647065,13.8330679 9.24148336,13.6695996 C9.39649606,13.5061313 9.47400125,13.2717196 9.47400125,12.9663575 L9.47400125,10.5964941 L9.86928168,10.5964941 Z M11.8154565,14.2359272 L11.4201761,14.2359272 L11.4201761,10.9723863 L10.3436182,10.9723863 L10.3436182,10.5964941 L12.8920144,10.5964941 L12.8920144,10.9723863 L11.8154565,10.9723863 L11.8154565,14.2359272 Z M14.5452166,14.2359272 L14.1499362,14.2359272 L14.1499362,10.9723863 L13.0733783,10.9723863 L13.0733783,10.5964941 L15.6217745,10.5964941 L15.6217745,10.9723863 L14.5452166,10.9723863 L14.5452166,14.2359272 Z M16.1333139,14.2359272 L16.1333139,10.5964941 L16.5285943,10.5964941 L16.5285943,13.852567 L18.0283347,13.852567 L18.0283347,14.2359272 L16.1333139,14.2359272 Z M20.5,14.2359272 L18.6049791,14.2359272 L18.6049791,10.5964941 L20.5,10.5964941 L20.5,10.9723863 L19.0002596,10.9723863 L19.0002596,12.1448713 L20.409318,12.1448713 L20.409318,12.5182741 L19.0002596,12.5182741 L19.0002596,13.8575457 L20.5,13.8575457 L20.5,14.2359272 Z" id="SHUTTLE"></path>
                </g>
            </g>
        </g>
    </g>
</svg>