<?xml version="1.0" encoding="UTF-8"?>
<svg width="85px" height="25px" viewBox="0 0 85 25" version="1.1" xmlns="http://www.w3.org/2000/svg" xmlns:xlink="http://www.w3.org/1999/xlink">
    <!-- Generator: Sketch 43.2 (39069) - http://www.bohemiancoding.com/sketch -->
    <title>logo-sm-amazon</title>
    <desc>Created with Sketch.</desc>
    <defs></defs>
    <g id="Symbols" stroke="none" stroke-width="1" fill="none" fill-rule="evenodd">
        <g id="logo-sm-amazon" fill="#FFFFFF">
            <g id="Amazon.com-Logo">
                <g id="svg1936">
                    <g id="layer1" transform="translate(0.084521, 0.027977)">
                        <g id="g1967" transform="translate(0.011209, 0.011134)">
                            <path d="M47.8199136,2.82870889 L47.8199136,0.950970428 C47.8199136,0.666791657 48.0357456,0.476140389 48.2947436,0.476140389 L56.7013999,0.476140389 C56.9711923,0.476140389 57.1870242,0.670389291 57.1870242,0.950970428 L57.1870242,2.55891929 C57.1834294,2.82870889 56.9568031,3.18123448 56.5539148,3.73880049 L52.1977057,9.9583616 C53.8164475,9.91879449 55.5251177,10.1598044 56.9927753,10.9871614 C57.3237179,11.174215 57.4136477,11.4476023 57.4388284,11.7173946 L57.4388284,13.7210352 C57.4388284,13.9944224 57.1366629,14.3145707 56.8201095,14.1491015 C54.2337209,12.7929554 50.7983949,12.6454703 47.9386204,14.1634906 C47.6472478,14.3217673 47.3414859,14.0052139 47.3414859,13.7318267 L47.3414859,11.8289075 C47.3414859,11.5231457 47.3450808,11.0015492 47.6508426,10.5375107 L52.6977164,3.29994267 L48.3055352,3.29994267 C48.0357456,3.29994267 47.8199136,3.10929278 47.8199136,2.82870889" id="path12"></path>
                            <path d="M17.1537748,14.5447918 L14.5961659,14.5447918 C14.3515584,14.5268077 14.1573081,14.3433504 14.1393213,14.1095302 L14.1393213,0.98334776 C14.1393213,0.720752048 14.3587509,0.512112611 14.6321381,0.512112611 L17.0170812,0.512112611 C17.2652905,0.52289728 17.4631343,0.713555408 17.4811225,0.950970428 L17.4811225,2.66683733 L17.5278862,2.66683733 C18.1502014,1.00852571 19.3192897,0.235127736 20.8948654,0.235127736 C22.495619,0.235127736 23.4956404,1.00852571 24.2150807,2.66683733 C24.8337997,1.00852571 26.2403044,0.235127736 27.7475332,0.235127736 C28.8194991,0.235127736 29.9921864,0.677583186 30.7080291,1.67041075 C31.5173993,2.77475125 31.3519273,4.37910247 31.3519273,5.78560991 L31.3483311,14.0699631 C31.3483311,14.3325588 31.1289015,14.5447918 30.8555142,14.5447918 L28.3015002,14.5447918 C28.0461011,14.5268077 27.8410607,14.3217673 27.8410607,14.0699631 L27.8410607,7.11297626 C27.8410607,6.55900788 27.8914193,5.17768251 27.7691162,4.65248971 C27.578465,3.77117782 27.0065098,3.52296853 26.265485,3.52296853 C25.6467661,3.52296853 24.9992702,3.93664702 24.7366745,4.59853344 C24.4740788,5.26041848 24.4992595,6.36835387 24.4992595,7.11297626 L24.4992595,14.0699631 C24.4992595,14.3325588 24.2798299,14.5447918 24.0064427,14.5447918 L21.4524314,14.5447918 C21.1934334,14.5268077 20.9919892,14.3217673 20.9919892,14.0699631 L20.9883929,7.11297626 C20.9883929,5.64891629 21.2294028,3.49419157 19.4128186,3.49419157 C17.5746472,3.49419157 17.6465917,5.59495589 17.6465917,7.11297626 L17.6465917,14.0699631 C17.6465917,14.3325588 17.4271621,14.5447918 17.1537748,14.5447918" id="path14"></path>
                            <path d="M64.4245922,0.235127736 C68.219639,0.235127736 70.2736396,3.49419157 70.2736396,7.63816768 C70.2736396,11.6418512 68.0038043,14.818179 64.4245922,14.818179 C60.6978909,14.818179 58.6690683,11.5591152 58.6690683,7.49787643 C58.6690683,3.4114556 60.7230716,0.235127736 64.4245922,0.235127736 M64.4461739,2.91504387 C62.5612429,2.91504387 62.4425334,5.48344297 62.4425334,7.0841993 C62.4425334,8.68855053 62.4173527,12.1130849 64.4245922,12.1130849 C66.4066497,12.1130849 66.5001772,9.35043694 66.5001772,7.66694326 C66.5001772,6.55900788 66.4534135,5.23523779 66.118872,4.18485357 C65.8310956,3.27116709 65.2591431,2.91504387 64.4461739,2.91504387" id="path16"></path>
                            <path d="M75.1946113,14.5447918 L72.6477939,14.5447918 C72.3923907,14.5268077 72.1873503,14.3217673 72.1873503,14.0699631 L72.1837554,0.940178898 C72.2053385,0.699166245 72.4175742,0.512112611 72.6765722,0.512112611 L75.0471289,0.512112611 C75.2701534,0.52289728 75.4536108,0.673986925 75.5039735,0.879027356 L75.5039735,2.88626418 L75.5507345,2.88626418 C76.26658,1.09126168 77.2701963,0.235127736 79.0364219,0.235127736 C80.1839285,0.235127736 81.3026595,0.648806232 82.0220998,1.78192368 C82.6911788,2.83230653 82.6911788,4.59853344 82.6911788,5.86834314 L82.6911788,14.131116 C82.6624018,14.3613344 82.4501661,14.5447918 82.1983647,14.5447918 L79.6335591,14.5447918 C79.399739,14.5268077 79.2054901,14.3541419 79.1803121,14.131116 L79.1803121,7.00146333 C79.1803121,5.56618031 79.3457827,3.46541325 77.5795558,3.46541325 C76.957242,3.46541325 76.3852854,3.88269075 76.1011066,4.51579609 C75.7413885,5.31797376 75.6946248,6.11655243 75.6946248,7.00146333 L75.6946248,14.0699631 C75.6910299,14.3325588 75.4680013,14.5447918 75.1946141,14.5447918" id="path18"></path>
                            <path d="M41.1183272,8.27487203 C41.1183272,9.27129586 41.1435079,10.1022491 40.6398995,10.9871614 C40.2334163,11.7066031 39.5859204,12.1490585 38.8700777,12.1490585 C37.8880417,12.1490585 37.3124902,11.4008385 37.3124902,10.296498 C37.3124902,8.11659535 39.2657694,7.72090365 41.1183272,7.72090365 L41.1183272,8.27487203 M43.6975205,14.5088196 C43.5284537,14.6599023 43.2838421,14.6706939 43.0931908,14.5699738 C42.2442507,13.8649227 42.0895717,13.5375778 41.6255332,12.8649012 C40.2226247,14.2965866 39.2261982,14.7246515 37.4096126,14.7246515 C35.2548893,14.7246515 33.5821914,13.3972852 33.5821914,10.7389562 C33.5821914,8.66336983 34.7045199,7.24966988 36.3088711,6.55900788 C37.6973904,5.94748148 39.636279,5.83956755 41.1183272,5.67049934 L41.1183272,5.33955682 C41.1183272,4.73162805 41.1650909,4.01218773 40.8053715,3.48699905 C40.496012,3.0157639 39.8988748,2.821515 39.3700884,2.821515 C38.3952449,2.821515 37.5283222,3.32152573 37.3160851,4.35751941 C37.272919,4.58774191 37.1038522,4.8143654 36.870032,4.82515693 L34.3915616,4.55896221 C34.1829235,4.5122012 33.9491061,4.34313025 34.010259,4.022982 C34.5786164,1.01572235 37.2981011,0.109225645 39.7298065,0.109225645 C40.9744397,0.109225645 42.6003739,0.440168167 43.58241,1.38263435 C44.8270404,2.54453012 44.7083335,4.0949237 44.7083335,5.78201227 L44.7083335,9.76771033 C44.7083335,10.9655797 45.2047466,11.4907684 45.6723828,12.138267 C45.8342585,12.3684854 45.8702307,12.6454703 45.6615844,12.8181361 C45.1399906,13.253399 44.2119122,14.0627692 43.7011099,14.5160162 L43.6975151,14.5088127" id="path28"></path>
                            <path d="M7.58882041,8.27487203 C7.58882041,9.27129586 7.61399836,10.1022491 7.1103926,10.9871614 C6.70390663,11.7066031 6.06000838,12.1490585 5.34056806,12.1490585 C4.35853202,12.1490585 3.78657822,11.4008385 3.78657822,10.296498 C3.78657822,8.11659535 5.73985739,7.72090365 7.58882041,7.72090365 L7.58882041,8.27487203 M10.1680124,14.5088196 C9.9989442,14.6599023 9.75433254,14.6706939 9.56368127,14.5699738 C8.71474396,13.8649227 8.56365981,13.5375778 8.09602367,12.8649012 C6.6931151,14.2965866 5.70029028,14.7246515 3.88010435,14.7246515 C1.72897727,14.7246515 0.0526843426,13.3972852 0.0526843426,10.7389562 C0.0526843426,8.66336983 1.1786079,7.24966988 2.77936149,6.55900788 C4.16788075,5.94748148 6.10677213,5.83956755 7.58882041,5.67049934 L7.58882041,5.33955682 C7.58882041,4.73162805 7.63558416,4.01218773 7.27946095,3.48699905 C6.96650234,3.0157639 6.36936922,2.821515 5.84417642,2.821515 C4.86933702,2.821515 3.99881254,3.32152573 3.78657822,4.35751941 C3.74341073,4.58774191 3.57434252,4.8143654 3.34412277,4.82515693 L0.862054537,4.55896221 C0.653416472,4.5122012 0.423195349,4.34313025 0.480750629,4.022982 C1.0527058,1.01572235 3.76859142,0.109225645 6.20030101,0.109225645 C7.44493015,0.109225645 9.07086443,0.440168167 10.0529005,1.38263435 C11.2975336,2.54453012 11.178824,4.0949237 11.178824,5.78201227 L11.178824,9.76771033 C11.178824,10.9655797 11.6752399,11.4907684 12.142876,12.138267 C12.3083466,12.3684854 12.3443188,12.6454703 12.1356807,12.8181361 C11.614087,13.253399 10.6860099,14.0627692 10.1752049,14.5160162 L10.1680124,14.5088127" id="path30"></path>
                        </g>
                    </g>
                </g>
            </g>
            <path d="M35.848,25.028 C35.8800002,25.0920003 35.896,25.1359999 35.896,25.16 C35.896,25.2000002 35.8520004,25.2279999 35.764,25.244 L35.008,25.388 C34.9199996,25.4040001 34.8600002,25.3720004 34.828,25.292 L32.848,21.476 L31.984,21.476 L31.984,25.076 C31.984,25.1720005 31.9360005,25.22 31.84,25.22 L31.144,25.22 C31.0479995,25.22 31,25.1720005 31,25.076 L31,17.144 C31,17.0479995 31.0479995,17 31.144,17 L33.004,17 C33.2360012,17 33.4939986,17.0139999 33.778,17.042 C34.0620014,17.0700001 34.3259988,17.1539993 34.57,17.294 C34.8140012,17.4340007 35.0199992,17.6519985 35.188,17.948 C35.3560008,18.2440015 35.44,18.6559974 35.44,19.184 C35.44,19.5120016 35.3880005,19.8019987 35.284,20.054 C35.1799995,20.3060013 35.0500008,20.5219991 34.894,20.702 C34.7379992,20.8820009 34.5680009,21.0279994 34.384,21.14 C34.1999991,21.2520006 34.0240008,21.3359997 33.856,21.392 L35.848,25.028 Z M32.764,20.696 C32.9880011,20.696 33.201999,20.6780002 33.406,20.642 C33.610001,20.6059998 33.7899992,20.5360005 33.946,20.432 C34.1020008,20.3279995 34.2259995,20.178001 34.318,19.982 C34.4100005,19.785999 34.456,19.5280016 34.456,19.208 C34.456,18.8719983 34.4080005,18.6120009 34.312,18.428 C34.2159995,18.2439991 34.0920008,18.1080004 33.94,18.02 C33.7879992,17.9319996 33.6200009,17.8800001 33.436,17.864 C33.2519991,17.8479999 33.0760008,17.84 32.908,17.84 L31.984,17.84 L31.984,20.696 L32.764,20.696 Z M40.507,25.076 C40.507,25.1720005 40.4590005,25.22 40.363,25.22 L37.195,25.22 C37.0989995,25.22 37.051,25.1720005 37.051,25.076 L37.051,24.584 C37.051,24.4879995 37.0989995,24.44 37.195,24.44 L38.287,24.44 L38.287,17.78 L37.195,17.78 C37.0989995,17.78 37.051,17.7320005 37.051,17.636 L37.051,17.144 C37.051,17.0479995 37.0989995,17 37.195,17 L40.363,17 C40.4590005,17 40.507,17.0479995 40.507,17.144 L40.507,17.636 C40.507,17.7320005 40.4590005,17.78 40.363,17.78 L39.271,17.78 L39.271,24.44 L40.363,24.44 C40.4590005,24.44 40.507,24.4879995 40.507,24.584 L40.507,25.076 Z M44.194,17 C44.6100021,17 45.0119981,17.0399996 45.4,17.12 C45.7880019,17.2000004 46.1319985,17.3779986 46.432,17.654 C46.7320015,17.9300014 46.9719991,18.3339973 47.152,18.866 C47.3320009,19.3980027 47.422,20.1199954 47.422,21.032 C47.422,21.7440036 47.3620006,22.3639974 47.242,22.892 C47.1219994,23.4200026 46.9280013,23.8559983 46.66,24.2 C46.3919987,24.5440017 46.0440021,24.7999992 45.616,24.968 C45.1879979,25.1360008 44.670003,25.22 44.062,25.22 L42.682,25.22 C42.5859995,25.22 42.538,25.1720005 42.538,25.076 L42.538,17.144 C42.538,17.0479995 42.5859995,17 42.682,17 L44.194,17 Z M44.266,24.38 C44.6980022,24.38 45.0479987,24.3000008 45.316,24.14 C45.5840013,23.9799992 45.7939992,23.7520015 45.946,23.456 C46.0980008,23.1599985 46.2019997,22.8020021 46.258,22.382 C46.3140003,21.9619979 46.342,21.4960026 46.342,20.984 C46.342,20.3279967 46.2960005,19.7940021 46.204,19.382 C46.1119995,18.9699979 45.9740009,18.6500011 45.79,18.422 C45.6059991,18.1939989 45.3800013,18.0400004 45.112,17.96 C44.8439987,17.8799996 44.5340018,17.84 44.182,17.84 L43.522,17.84 L43.522,24.38 L44.266,24.38 Z M53.569,25.052 C53.569,25.1240004 53.5570001,25.1699999 53.533,25.19 C53.5089999,25.2100001 53.4650003,25.22 53.401,25.22 L49.705,25.22 C49.6089995,25.22 49.561,25.1720005 49.561,25.076 L49.561,17.144 C49.561,17.0479995 49.6089995,17 49.705,17 L53.437,17 C53.5010003,17 53.5429999,17.0079999 53.563,17.024 C53.5830001,17.0400001 53.593,17.0559999 53.593,17.072 C53.593,17.0880001 53.589,17.1119998 53.581,17.144 C53.573,17.1760002 53.565,17.2039999 53.557,17.228 L53.389,17.732 C53.3729999,17.7880003 53.3530001,17.82 53.329,17.828 C53.3049999,17.836 53.2650003,17.84 53.209,17.84 L50.545,17.84 L50.545,20.504 L52.897,20.504 C52.9610003,20.504 53.0029999,20.5139999 53.023,20.534 C53.0430001,20.5540001 53.053,20.5959997 53.053,20.66 L53.053,21.188 C53.053,21.2520003 53.0430001,21.2939999 53.023,21.314 C53.0029999,21.3340001 52.9610003,21.344 52.897,21.344 L50.545,21.344 L50.545,24.38 L53.425,24.38 C53.5210005,24.38 53.569,24.4239996 53.569,24.512 L53.569,25.052 Z" id="RIDE"></path>
        </g>
    </g>
</svg>