<?xml version="1.0" encoding="UTF-8"?>
<svg width="138px" height="31px" viewBox="0 0 138 31" version="1.1" xmlns="http://www.w3.org/2000/svg" xmlns:xlink="http://www.w3.org/1999/xlink">
    <!-- Generator: Sketch 44.1 (41455) - http://www.bohemiancoding.com/sketch -->
    <title>logo-large-amazon-white</title>
    <desc>Created with Sketch.</desc>
    <defs></defs>
    <g id="Symbols" stroke="none" stroke-width="1" fill="none" fill-rule="evenodd">
        <g id="logo-large-amazon-white" fill="#FFFFFF">
            <path d="M20.4652406,27.3001337 L16.8716578,27.3001337 L16.8716578,30.8796791 L15,30.8796791 L15,22.1203209 L20.9144385,22.1203209 L20.9144385,23.5822193 L16.8716578,23.5822193 L16.8716578,25.8442513 L20.4652406,25.8442513 L20.4652406,27.3001337 Z M23.9901961,30.8796791 L22.1185383,30.8796791 L22.1185383,22.1203209 L23.9901961,22.1203209 L23.9901961,30.8796791 Z M29.0811052,25.1403743 L30.7843137,22.1203209 L32.9367201,22.1203209 L30.2914439,26.4639037 L33.0053476,30.8796791 L30.8279857,30.8796791 L29.0811052,27.8114973 L27.3342246,30.8796791 L25.1568627,30.8796791 L27.8707665,26.4639037 L25.2254902,22.1203209 L27.3778966,22.1203209 L29.0811052,25.1403743 Z M39.412656,27.0835561 L35.8190731,27.0835561 L35.8190731,29.4298128 L40.0365419,29.4298128 L40.0365419,30.8796791 L33.9474153,30.8796791 L33.9474153,22.1203209 L40.0240642,22.1203209 L40.0240642,23.5822193 L35.8190731,23.5822193 L35.8190731,25.6697861 L39.412656,25.6697861 L39.412656,27.0835561 Z M41.1345811,30.8796791 L41.1345811,22.1203209 L43.92959,22.1203209 C44.728168,22.1203209 45.4425102,22.2937817 46.0726381,22.6407086 C46.7027661,22.9876354 47.1945912,23.480946 47.5481283,24.1206551 C47.9016655,24.7603642 48.0784314,25.4872954 48.0784314,26.3014706 L48.0784314,26.7045455 C48.0784314,27.5187206 47.9047849,28.2426439 47.5574866,28.8763369 C47.2101884,29.5100299 46.7204429,30.0013352 46.0882353,30.3502674 C45.4560277,30.6991996 44.7427253,30.8756684 43.9483066,30.8796791 L41.1345811,30.8796791 Z M43.0062389,23.5822193 L43.0062389,29.4298128 L43.9108734,29.4298128 C44.6429032,29.4298128 45.2023154,29.1992002 45.5891266,28.7379679 C45.9759378,28.2767357 46.1734997,27.6169829 46.1818182,26.7586898 L46.1818182,26.2954545 C46.1818182,25.4050758 45.9904951,24.730283 45.6078431,24.2710561 C45.2251912,23.8118293 44.6657791,23.5822193 43.92959,23.5822193 L43.0062389,23.5822193 Z M55.983066,27.6731283 L54.4919786,27.6731283 L54.4919786,30.8796791 L52.6203209,30.8796791 L52.6203209,22.1203209 L55.9955437,22.1203209 C57.0686328,22.1203209 57.8963132,22.3509335 58.4786096,22.8121658 C59.0609061,23.273398 59.3520499,23.9251295 59.3520499,24.7673797 C59.3520499,25.3649763 59.2179158,25.8633001 58.9496435,26.2623663 C58.6813712,26.6614325 58.2748096,26.9792769 57.7299465,27.2159091 L59.6951872,30.7954545 L59.6951872,30.8796791 L57.6862745,30.8796791 L55.983066,27.6731283 Z M54.4919786,26.2112299 L56.0017825,26.2112299 C56.4717789,26.2112299 56.8357088,26.0959236 57.0935829,25.8653075 C57.351457,25.6346914 57.4803922,25.3168469 57.4803922,24.9117647 C57.4803922,24.498661 57.3587356,24.173798 57.1154189,23.9371658 C56.8721022,23.7005336 56.4988142,23.5822193 55.9955437,23.5822193 L54.4919786,23.5822193 L54.4919786,26.2112299 Z M68.2361854,26.6985294 C68.2361854,27.5608332 68.0781359,28.3168417 67.7620321,28.9665775 C67.4459283,29.6163134 66.9936155,30.1176453 66.4050802,30.4705882 C65.8165449,30.8235312 65.141715,31 64.3805704,31 C63.6277443,31 62.9560339,30.8255365 62.3654189,30.4766043 C61.7748039,30.1276721 61.3172922,29.6293482 60.9928699,28.9816176 C60.6684476,28.3338871 60.5041593,27.588908 60.5,26.7466578 L60.5,26.3135027 C60.5,25.4511989 60.6611689,24.6921824 60.9835116,24.0364305 C61.3058543,23.3806785 61.7612864,22.8773413 62.3498217,22.5264037 C62.9383571,22.1754662 63.6111073,22 64.3680927,22 C65.1250781,22 65.7978283,22.1754662 66.3863636,22.5264037 C66.974899,22.8773413 67.4303311,23.3806785 67.7526738,24.0364305 C68.0750165,24.6921824 68.2361854,25.4491936 68.2361854,26.3074866 L68.2361854,26.6985294 Z M66.3395722,26.3014706 C66.3395722,25.3830168 66.1690451,24.6851628 65.8279857,24.2078877 C65.4869264,23.7306126 65.0003002,23.4919786 64.3680927,23.4919786 C63.7400444,23.4919786 63.2554978,23.7276046 62.9144385,24.1988636 C62.5733792,24.6701227 62.4007725,25.360958 62.3966132,26.2713904 L62.3966132,26.6985294 C62.3966132,27.5929189 62.5671403,28.2867622 62.9081996,28.7800802 C63.249259,29.2733982 63.7400443,29.5200535 64.3805704,29.5200535 C65.0086187,29.5200535 65.4910857,29.2824222 65.8279857,28.8071524 C66.1648858,28.3318827 66.3354129,27.639042 66.3395722,26.7286096 L66.3395722,26.3014706 Z M76.4714795,22.1203209 L76.4714795,27.8897059 C76.4714795,28.8482668 76.1605795,29.6062806 75.5387701,30.1637701 C74.9169606,30.7212595 74.0674445,31 72.9901961,31 C71.9295847,31 71.0873471,30.7292808 70.4634581,30.1878342 C69.8395691,29.6463877 69.5213904,28.9024111 69.5089127,27.9558824 L69.5089127,22.1203209 L71.3805704,22.1203209 L71.3805704,27.901738 C71.3805704,28.4752702 71.5230229,28.893381 71.8079323,29.1560829 C72.0928416,29.4187847 72.4869256,29.5501337 72.9901961,29.5501337 C74.0424889,29.5501337 74.5769458,29.0167166 74.5935829,27.9498663 L74.5935829,22.1203209 L76.4714795,22.1203209 Z M84.8440285,23.5822193 L82.0614973,23.5822193 L82.0614973,30.8796791 L80.1898396,30.8796791 L80.1898396,23.5822193 L77.4447415,23.5822193 L77.4447415,22.1203209 L84.8440285,22.1203209 L84.8440285,23.5822193 Z M91.3761141,27.0835561 L87.7825312,27.0835561 L87.7825312,29.4298128 L92,29.4298128 L92,30.8796791 L85.9108734,30.8796791 L85.9108734,22.1203209 L91.9875223,22.1203209 L91.9875223,23.5822193 L87.7825312,23.5822193 L87.7825312,25.6697861 L91.3761141,25.6697861 L91.3761141,27.0835561 Z" id="FIXED-ROUTE"></path>
            <g id="Group-2">
                <path d="M62.3358869,3.87126287 L62.3358869,1.53789291 C62.3358869,1.18475843 62.6243676,0.947845805 62.970544,0.947845805 L74.2068676,0.947845805 C74.5674716,0.947845805 74.8559523,1.18922902 74.8559523,1.53789291 L74.8559523,3.53600906 C74.8511474,3.87126287 74.5482391,4.30932845 74.0097392,5.00218734 L68.187237,12.7309192 C70.3508447,12.6817511 72.6346507,12.9812419 74.5963195,14.0093563 C75.0386568,14.2417983 75.1588569,14.5815227 75.1925134,14.9167799 L75.1925134,17.406602 C75.1925134,17.7463264 74.7886393,18.1441583 74.3655346,17.9385382 C70.9085716,16.2533245 66.3169204,16.0700522 62.4945503,17.9564188 C62.105102,18.1531012 61.6964212,17.7597365 61.6964212,17.4200121 L61.6964212,15.0553513 C61.6964212,14.6753967 61.7012261,14.0272352 62.1099069,13.4505982 L68.8555505,4.45684108 L62.9849679,4.45684108 C62.6243676,4.45684108 62.3358869,4.21993017 62.3358869,3.87126287" id="path12"></path>
                <path d="M22.196005,18.0090703 L18.9041262,18.0090703 C18.5892937,17.9864369 18.3392757,17.7555512 18.3161251,17.4612827 L18.3161251,0.941653624 C18.3161251,0.611170349 18.5985512,0.348592397 18.9504258,0.348592397 L22.0200677,0.348592397 C22.3395359,0.362165172 22.5941792,0.602113198 22.6173316,0.900905941 L22.6173316,3.06036737 L22.6775209,3.06036737 C23.4784979,0.973340702 24.9832225,0 27.0111338,0 C29.0714514,0 30.3585713,0.973340702 31.2845574,3.06036737 C32.0809057,0.973340702 33.8912071,0 35.8311497,0 C37.2108687,0 38.7202255,0.556841256 39.6415811,1.80633959 C40.6833153,3.19617974 40.4703376,5.21529591 40.4703376,6.98542071 L40.4657089,17.4114865 C40.4657089,17.7419698 40.1832828,18.0090703 39.8314081,18.0090703 L36.5441563,18.0090703 C36.2154342,17.9864369 35.9515282,17.7283884 35.9515282,17.4114865 L35.9515282,8.65594448 C35.9515282,7.95876141 36.0163444,6.22032887 35.8589291,5.55936059 C35.6135433,4.45020752 34.8773842,4.13782991 33.9236169,4.13782991 C33.1272686,4.13782991 32.2938816,4.65845465 31.9558967,5.49145527 C31.6179118,6.32445416 31.6503217,7.71881857 31.6503217,8.65594448 L31.6503217,17.4114865 C31.6503217,17.7419698 31.3678955,18.0090703 31.0160209,18.0090703 L27.7287727,18.0090703 C27.3954183,17.9864369 27.1361411,17.7283884 27.1361411,17.4114865 L27.1315123,8.65594448 C27.1315123,6.81338837 27.4417143,4.10161339 25.1036028,4.10161339 C22.7377066,4.10161339 22.8303057,6.74547786 22.8303057,8.65594448 L22.8303057,17.4114865 C22.8303057,17.7419698 22.5478796,18.0090703 22.196005,18.0090703" id="path14"></path>
                <path d="M84.7704263,2.02774689e-14 C89.8145766,2.02774689e-14 92.5446318,4.2365482 92.5446318,9.62341861 C92.5446318,14.8279187 89.5277019,18.9569161 84.7704263,18.9569161 C79.8171168,18.9569161 77.1205265,14.7203679 77.1205265,9.44105008 C77.1205265,4.1289974 79.8505854,0 84.7704263,0 M84.7991114,3.48369792 C82.2937734,3.48369792 82.1359917,6.82243171 82.1359917,8.90329962 C82.1359917,10.9888406 82.102523,15.4404887 84.7704263,15.4404887 C87.4048591,15.4404887 87.5291703,11.8492453 87.5291703,9.66082479 C87.5291703,8.22058861 87.4670147,6.49978286 87.0223621,5.13435904 C86.6398668,3.94663244 85.8796617,3.48369792 84.7991114,3.48369792" id="path16"></path>
                <path d="M98.3398908,18.0090703 L95.0686719,18.0090703 C94.7406233,17.9864369 94.4772624,17.7283884 94.4772624,17.4114865 L94.472645,0.887324531 C94.500367,0.584004076 94.7729698,0.348592397 95.1056357,0.348592397 L98.1504594,0.348592397 C98.4369196,0.362165172 98.6725585,0.552315271 98.7372461,0.810363784 L98.7372461,3.33652155 L98.7973076,3.33652155 C99.7167638,1.077466 101.005843,0 103.274443,0 C104.74834,0 106.185276,0.520624739 107.109349,1.9466814 C107.968737,3.2686145 107.968737,5.49145527 107.968737,7.08954255 L107.968737,17.488449 C107.931775,17.7781846 107.659172,18.0090703 107.33575,18.0090703 L104.041426,18.0090703 C103.7411,17.9864369 103.4916,17.7691326 103.459261,17.488449 L103.459261,8.51560267 C103.459261,6.70926307 103.671797,4.06539515 101.403195,4.06539515 C100.603874,4.06539515 99.8692331,4.59054933 99.5042243,5.38732825 C99.0421901,6.39688892 98.9821251,7.40192015 98.9821251,8.51560267 L98.9821251,17.4114865 C98.9775077,17.7419698 98.6910422,18.0090703 98.3398943,18.0090703" id="path18"></path>
                <path d="M54.4477116,10.5912393 C54.4477116,11.8836494 54.4814704,12.961436 53.806302,14.1092102 C53.2613454,15.0423609 52.3932725,15.6162471 51.4335696,15.6162471 C50.1169915,15.6162471 49.3453717,14.6457694 49.3453717,13.2133863 C49.3453717,10.3859468 51.9640583,9.87271549 54.4477116,9.87271549 L54.4477116,10.5912393 M57.9055375,18.6769716 C57.678876,18.8729333 57.3509346,18.8869304 57.0953357,18.7562917 C55.9571943,17.8418061 55.749822,17.4172239 55.1277033,16.5447298 C53.2468777,18.4016951 51.9110067,18.9569161 49.4755799,18.9569161 C46.5868248,18.9569161 44.3443028,17.2352576 44.3443028,13.787276 C44.3443028,11.0951398 45.8489657,9.26150243 47.999858,8.36568032 C49.8613926,7.57250092 52.4607864,7.43253133 54.4477116,7.21324167 L54.4477116,6.78399317 C54.4477116,5.99548008 54.510406,5.06233109 54.0281439,4.3811359 C53.6133975,3.76992106 52.8128384,3.51797082 52.1039148,3.51797082 C50.7969795,3.51797082 49.6347293,4.16650898 49.3501912,5.51024303 C49.29232,5.80885277 49.0656586,6.10279442 48.7521849,6.11679156 L45.4293944,5.7715241 C45.1496813,5.71087281 44.8362113,5.49157959 44.9181967,5.07633178 C45.6801717,1.17577018 49.3260807,0 52.5861751,0 C54.2548071,0 56.434635,0.429248499 57.7512132,1.65167284 C59.4198415,3.158708 59.2606958,5.16964366 59.2606958,7.35787934 L59.2606958,12.527523 C59.2606958,14.0812177 59.9262178,14.7624128 60.5531597,15.60225 C60.7701802,15.9008544 60.8184068,16.2601172 60.5386827,16.4840731 C59.8394019,17.0486303 58.5951627,18.0984227 57.9103497,18.686306 L57.9055301,18.6769627" id="path28"></path>
                <path d="M10.1007702,10.5912393 C10.1007702,11.8836494 10.1345165,12.961436 9.45952787,14.1092102 C8.91471003,15.0423609 8.05168577,15.6162471 7.0874116,15.6162471 C5.77117736,15.6162471 5.00458107,14.6457694 5.00458107,13.2133863 C5.00458107,10.3859468 7.6225837,9.87271549 10.1007702,9.87271549 L10.1007702,10.5912393 M13.557691,18.6769716 C13.3310869,18.8729333 13.0032311,18.8869304 12.747699,18.7562917 C11.6098585,17.8418061 11.4073587,17.4172239 10.7805806,16.5447298 C8.90024601,18.4016951 7.56955144,18.9569161 5.12993522,18.9569161 C2.24675476,18.9569161 0,17.2352576 0,13.787276 C0,11.0951398 1.50908834,9.26150243 3.65459686,8.36568032 C5.51564526,7.57250092 8.11436377,7.43253133 10.1007702,7.21324167 L10.1007702,6.78399317 C10.1007702,5.99548008 10.1634482,5.06233109 9.68613212,4.3811359 C9.26667009,3.76992106 8.46632567,3.51797082 7.7624037,3.51797082 C6.4558152,3.51797082 5.28904119,4.16650898 5.00458107,5.51024303 C4.94672319,5.80885277 4.72011911,6.10279442 4.41155292,6.11679156 L1.08480822,5.7715241 C0.805168209,5.71087281 0.496600179,5.49157959 0.573742187,5.07633178 C1.34034031,1.17577018 4.98047316,0 8.2397216,0 C9.90791241,0 12.0871709,0.429248499 13.4034051,1.65167284 C15.0716013,3.158708 14.9124935,5.16964366 14.9124935,7.35787934 L14.9124935,12.527523 C14.9124935,14.0812177 15.5778454,14.7624128 16.2046235,15.60225 C16.4264056,15.9008544 16.4746196,16.2601172 16.1949796,16.4840731 C15.4958814,17.0486303 14.2519691,18.0984227 13.5673312,18.686306 L13.557691,18.6769627" id="path30"></path>
            </g>
            <g id="Group-3" transform="translate(112.000000, 0.000000)">
                <path d="M0.590761316,10.4062704 C0.613840072,10.3487445 0.654227289,10.319982 0.711924179,10.319982 C0.735002935,10.319982 0.760966146,10.3257345 0.789814591,10.3372397 C0.818663036,10.3487448 0.890783066,10.3832599 1.00617685,10.4407858 C1.43313383,10.6708896 1.86585401,10.8492174 2.30435038,10.9757744 C2.74284674,11.1023315 3.14671891,11.1656091 3.51597901,11.1656091 C4.16218417,11.1656091 4.67567879,10.9872814 5.05647826,10.6306205 C5.43727774,10.2739597 5.62767462,9.80225399 5.62767462,9.21548937 C5.62767462,8.95087003 5.5959418,8.7150172 5.53247523,8.5079238 C5.46900865,8.30083041 5.3536166,8.09949263 5.18629562,7.90390442 C5.01897464,7.70831621 4.79684494,7.50985468 4.51989987,7.30851388 C4.2429548,7.10717308 3.89100905,6.88570152 3.46405207,6.64409256 C3.09479197,6.43699916 2.79477264,6.26442392 2.56398508,6.12636166 C2.33319752,5.98829939 2.13991584,5.86462047 1.98413424,5.75532118 C1.82835264,5.64602188 1.69853658,5.54247674 1.59468218,5.44468263 C1.49082778,5.34688853 1.38697493,5.24046713 1.28312053,5.12541525 C1.05233297,4.86079591 0.8792449,4.56454174 0.76385112,4.23664386 C0.64845734,3.90874599 0.590761316,3.56647176 0.590761316,3.20981091 C0.590761316,2.74960336 0.674420551,2.32967027 0.841741532,1.94999905 C1.00906251,1.57032782 1.24273141,1.24243486 1.54275524,0.966310334 C1.84277907,0.690185805 2.20049442,0.474466753 2.61591202,0.319146706 C3.03132963,0.163826659 3.49289783,0.0861678005 4.00063046,0.0861678005 C4.28911491,0.0861678005 4.60355824,0.117806595 4.94396989,0.181085132 C5.28438154,0.24436367 5.59882487,0.322022529 5.88730932,0.414064038 C6.17579377,0.506105548 6.41523227,0.606774439 6.60563201,0.716073731 C6.79603175,0.825373024 6.89123019,0.926041914 6.89123019,1.01808342 L6.89123019,1.06985651 L6.54505058,1.93274135 C6.51043245,2.00177248 6.46427563,2.03628753 6.40657874,2.03628753 C6.39503936,2.03628753 6.38061535,2.03341128 6.36330629,2.02765868 C6.34599722,2.02190609 6.31426441,2.01040107 6.26810689,1.99314329 C6.22194938,1.97588551 6.15271415,1.94424671 6.06039913,1.89822596 C5.9680841,1.8522052 5.83538325,1.78317511 5.66229258,1.6911336 C5.41996564,1.57608171 5.14879433,1.48404158 4.8487705,1.41501045 C4.54874667,1.34597932 4.26026655,1.31146427 3.98332148,1.31146427 C3.38327382,1.31146427 2.91593603,1.46102948 2.58129406,1.76016438 C2.2466521,2.05929929 2.07933363,2.47923238 2.07933363,3.01997624 C2.07933363,3.62975124 2.31011773,4.11871443 2.77169285,4.48688047 C2.86400787,4.5559116 2.94478231,4.61343668 3.01401857,4.65945743 C3.08325484,4.70547819 3.18422289,4.76875578 3.31692573,4.8492921 C3.44962858,4.92982842 3.63137106,5.04200233 3.86215862,5.18581718 C4.09294617,5.32963204 4.42181351,5.52809357 4.8487705,5.78120772 C5.10263681,5.93077517 5.31899691,6.06308286 5.49785726,6.17813475 C5.67671762,6.29318663 5.82961209,6.40248429 5.95654525,6.50603098 C6.0834784,6.60957768 6.19310085,6.71312283 6.28541587,6.81666952 C6.3777309,6.92021622 6.47004454,7.03526638 6.56235956,7.16182346 C6.75852899,7.4264428 6.90276905,7.71694446 6.99508407,8.03333714 C7.08739909,8.34972983 7.13355591,8.68049905 7.13355591,9.02565471 C7.13355591,9.53188301 7.04701188,9.99208365 6.87392121,10.4062704 C6.70083054,10.8204572 6.45273763,11.1771127 6.12963505,11.4762476 C5.80653247,11.7753825 5.4228539,12.0054829 4.97858785,12.1665555 C4.5343218,12.3276282 4.04102079,12.4081633 3.49867003,12.4081633 C3.17556744,12.4081633 2.82362169,12.3736482 2.44282222,12.3046171 C2.06202275,12.235586 1.7071922,12.1492983 1.37831993,12.0457516 C1.04944765,11.9422049 0.775391537,11.830031 0.556143355,11.7092265 C0.336895174,11.5884221 0.227272727,11.4762482 0.227272727,11.3727015 C0.227272727,11.3266807 0.238811932,11.2806606 0.261890688,11.2346399 L0.590761316,10.4062704 Z M15.3553216,10.941259 C15.5168729,10.941259 15.5976473,10.9815266 15.5976473,11.0620629 C15.5976473,11.0735681 15.5861081,11.1253407 15.5630294,11.2173822 L15.2860857,11.9767208 C15.2283888,12.1032779 15.1418448,12.1665555 15.026451,12.1665555 L9.7991389,12.1665555 C9.6952845,12.1665555 9.62893407,12.1521742 9.60008562,12.1234113 C9.57123718,12.0946483 9.55681317,12.0284945 9.55681317,11.9249478 L9.55681317,0.569383309 C9.55681317,0.465836611 9.57123718,0.399682768 9.60008562,0.370919796 C9.62893407,0.342156825 9.6952845,0.327775555 9.7991389,0.327775555 L10.7338238,0.327775555 C10.8376782,0.327775555 10.9040287,0.342156825 10.9328771,0.370919796 C10.9617256,0.399682768 10.9761496,0.465836611 10.9761496,0.569383309 L10.9761496,10.941259 L15.3553216,10.941259 Z M18.2286124,0.327775555 C18.3324668,0.327775555 18.3988172,0.342156825 18.4276656,0.370919796 C18.4565141,0.399682768 18.4709381,0.465836611 18.4709381,0.569383309 L18.4709381,8.93936622 C18.4709381,9.779245 18.6382566,10.3746296 18.9728985,10.7255378 C19.3075405,11.0764461 19.8729615,11.2518976 20.6691786,11.2518976 C21.4769351,11.2518976 22.0712041,11.0649411 22.4520036,10.6910224 C22.8328031,10.3171038 23.0231999,9.73322424 23.0231999,8.93936622 L23.0231999,0.569383309 C23.0231999,0.465836611 23.0376239,0.399682768 23.0664724,0.370919796 C23.0953208,0.342156825 23.1616713,0.327775555 23.2655257,0.327775555 L24.1482837,0.327775555 C24.2521381,0.327775555 24.3184885,0.342156825 24.3473369,0.370919796 C24.3761854,0.399682768 24.3906094,0.465836611 24.3906094,0.569383309 L24.3906094,8.99113931 C24.3906094,9.55489356 24.3213742,10.0265992 24.1829016,10.4062704 C24.0444291,10.7859417 23.8251842,11.1253396 23.5251604,11.4244746 C23.1674397,11.7696302 22.7606827,12.0198643 22.3048773,12.1751844 C21.8490718,12.3305044 21.280766,12.4081633 20.5999427,12.4081633 C18.2343702,12.4081633 17.0516017,11.2691667 17.0516017,8.99113931 L17.0516017,0.569383309 C17.0516017,0.465836611 17.0660257,0.399682768 17.0948741,0.370919796 C17.1237226,0.342156825 17.190073,0.327775555 17.2939274,0.327775555 L18.2286124,0.327775555 Z" id="SLU"></path>
                <path d="M2.9776273,16.8055876 C2.9776273,17.2112988 2.83811795,17.5276646 2.55909508,17.7546947 C2.28007221,17.9817248 1.90140399,18.0952381 1.42307906,18.0952381 C0.904893726,18.0952381 0.506295601,18.0248178 0.227272727,17.8839751 L0.227272727,17.3668536 C0.406644574,17.4467345 0.601957656,17.5097975 0.813217831,17.5560444 C1.02447801,17.6022912 1.23374202,17.6254143 1.44101616,17.6254143 C1.77982965,17.6254143 2.03493245,17.5576216 2.20633221,17.4220342 C2.37773198,17.2864468 2.46343057,17.0977835 2.46343057,16.8560385 C2.46343057,16.6962766 2.43303747,16.5654209 2.37225034,16.4634676 C2.31146321,16.3615143 2.20982069,16.2674454 2.06731973,16.181258 C1.92481876,16.0950707 1.70808103,15.9973231 1.41710003,15.8880123 C1.01052384,15.7345568 0.72004546,15.5527253 0.545656164,15.3425123 C0.371266868,15.1322992 0.284073528,14.8579753 0.284073528,14.5195324 C0.284073528,14.1642723 0.410628433,13.8815401 0.66374204,13.671327 C0.916855646,13.461114 1.25167807,13.3560091 1.66821936,13.3560091 C2.10269784,13.3560091 2.50229246,13.440093 2.86701521,13.6082634 L2.70857087,14.074934 C2.34783416,13.9151721 1.99706781,13.8352924 1.6562613,13.8352924 C1.38720353,13.8352924 1.17694302,13.8962532 1.02547346,14.0181768 C0.874003896,14.1401004 0.798270252,14.3093193 0.798270252,14.5258387 C0.798270252,14.6856006 0.826172121,14.8164563 0.881976696,14.9184096 C0.93778127,15.0203629 1.03195008,15.1139063 1.16448594,15.1990426 C1.29702181,15.2841789 1.4998086,15.3782478 1.77285242,15.4812522 C2.23124714,15.6536268 2.5466379,15.8386115 2.71903418,16.0362118 C2.89143045,16.233812 2.9776273,16.4902681 2.9776273,16.8055876 Z M7.18985511,18.0321745 L6.68163742,18.0321745 L6.68163742,15.8627869 L4.37971023,15.8627869 L4.37971023,18.0321745 L3.87149253,18.0321745 L3.87149253,13.4222258 L4.37971023,13.4222258 L4.37971023,15.3835036 L6.68163742,15.3835036 L6.68163742,13.4222258 L7.18985511,13.4222258 L7.18985511,18.0321745 Z M11.6890764,13.4222258 L11.6890764,16.4051338 C11.6890764,16.9306664 11.5386057,17.3437288 11.2376596,17.6443334 C10.9367135,17.944938 10.5231679,18.0952381 9.99701048,18.0952381 C9.47085307,18.0952381 9.06378473,17.943887 8.77579326,17.6411802 C8.4878018,17.3384735 8.34380823,16.9222579 8.34380823,16.3925211 L8.34380823,13.4222258 L8.85202592,13.4222258 L8.85202592,16.4303592 C8.85202592,16.8150491 8.95167545,17.110394 9.1509775,17.3164027 C9.35027955,17.5224115 9.64324918,17.6254143 10.0298952,17.6254143 C10.398604,17.6254143 10.6826051,17.521886 10.8819072,17.3148261 C11.0812092,17.1077663 11.1808588,16.8108448 11.1808588,16.4240529 L11.1808588,13.4222258 L11.6890764,13.4222258 Z M14.1913012,18.0321745 L13.6830835,18.0321745 L13.6830835,13.898356 L12.2989377,13.898356 L12.2989377,13.4222258 L15.575447,13.4222258 L15.575447,13.898356 L14.1913012,13.898356 L14.1913012,18.0321745 Z M17.7009928,18.0321745 L17.1927751,18.0321745 L17.1927751,13.898356 L15.8086293,13.898356 L15.8086293,13.4222258 L19.0851386,13.4222258 L19.0851386,13.898356 L17.7009928,13.898356 L17.7009928,18.0321745 Z M19.7428321,18.0321745 L19.7428321,13.4222258 L20.2510498,13.4222258 L20.2510498,17.5465848 L22.1792875,17.5465848 L22.1792875,18.0321745 L19.7428321,18.0321745 Z M25.3571429,18.0321745 L22.9206874,18.0321745 L22.9206874,13.4222258 L25.3571429,13.4222258 L25.3571429,13.898356 L23.4289051,13.898356 L23.4289051,15.3835036 L25.2405517,15.3835036 L25.2405517,15.8564805 L23.4289051,15.8564805 L23.4289051,17.5528912 L25.3571429,17.5528912 L25.3571429,18.0321745 Z" id="SHUTTLE"></path>
            </g>
        </g>
    </g>
</svg>