<?xml version="1.0" encoding="UTF-8"?>
<svg width="130px" height="32px" viewBox="0 0 130 32" version="1.1" xmlns="http://www.w3.org/2000/svg" xmlns:xlink="http://www.w3.org/1999/xlink">
    <!-- Generator: Sketch 44.1 (41455) - http://www.bohemiancoding.com/sketch -->
    <title>SLU-logo-white</title>
    <desc>Created with Sketch.</desc>
    <defs></defs>
    <g id="Symbols" stroke="none" stroke-width="1" fill="none" fill-rule="evenodd">
        <g id="SLU-logo-white" fill="#4A4A4A">
            <path d="M0,0 L32,0 L32,32 L0,32 L0,0 Z M8.30200364,5.65508685 C8.33406193,5.58613034 8.3420765,5.55165208 8.3420765,5.52579339 C8.3420765,5.37926081 7.55664845,5 6.79526412,5 C5.86557377,5 5.03205829,5.51717383 5.03205829,6.75839101 C5.03205829,7.47381481 5.30455373,7.81859736 5.72932605,8.0944234 C6.54681239,8.62883636 7.36429872,8.70641243 7.36429872,9.47355361 C7.36429872,10.0079666 7.09180328,10.2665535 6.64298725,10.2665535 C5.95373406,10.2665535 5.36065574,9.88729267 5.31256831,9.88729267 C5.28051002,9.88729267 5.24043716,9.92177093 5.22440801,9.97348831 L5.04007286,10.5423795 C5.02404372,10.5940969 5,10.6544339 5,10.6802925 C5,10.8182056 5.8575592,11.1974664 6.67504554,11.1974664 C7.6848816,11.1974664 8.40619308,10.473423 8.40619308,9.37873841 C8.40619308,8.72365156 8.12568306,8.26681468 7.71693989,7.93927126 C7.01165756,7.37899961 6.07395264,7.25832572 6.07395264,6.60323887 C6.07395264,6.08606504 6.45865209,5.93091289 6.8273224,5.93091289 C7.40437158,5.93091289 7.90127505,6.3101737 7.94936248,6.3101737 C7.98142077,6.3101737 8.01347905,6.27569544 8.03752277,6.22397806 L8.30200364,5.65508685 Z M13.0225865,8.10304297 C13.0225865,6.01710853 12.2612022,5 11.0269581,5 C9.79271403,5 9.03132969,6.00848896 9.03132969,8.10304297 C9.03132969,10.1889774 9.78469945,11.1974664 11.0269581,11.1974664 C12.2692168,11.1974664 13.0225865,10.1889774 13.0225865,8.10304297 Z M11.0269581,10.2924122 C10.4258652,10.2924122 10.1693989,9.44769492 10.1693989,8.10304297 C10.1693989,6.75839101 10.4258652,5.9050542 11.0269581,5.9050542 C11.628051,5.9050542 11.8845173,6.74977145 11.8845173,8.10304297 C11.8845173,9.44769492 11.628051,10.2924122 11.0269581,10.2924122 Z M17.863388,5.32754342 C17.863388,5.17239128 17.8313297,5.14653258 17.695082,5.14653258 L16.9497268,5.14653258 C16.8134791,5.14653258 16.7814208,5.17239128 16.7814208,5.32754342 L16.7814208,9.05119498 C16.7814208,9.67180358 16.7413479,10.2665535 15.9318761,10.2665535 C15.1224044,10.2665535 15.0823315,9.67180358 15.0823315,9.05119498 L15.0823315,5.32754342 C15.0823315,5.17239128 15.0502732,5.14653258 14.9140255,5.14653258 L14.1686703,5.14653258 C14.0324226,5.14653258 14.0003643,5.17239128 14.0003643,5.32754342 L14.0003643,9.05119498 C14.0003643,10.33551 14.417122,11.1974664 15.9318761,11.1974664 C17.4466302,11.1974664 17.863388,10.33551 17.863388,9.05119498 L17.863388,5.32754342 Z M20.7406193,6.18088024 L21.7344262,6.18088024 C21.7985428,6.18088024 21.8867031,6.18088024 21.9187614,6.04296722 L22.0870674,5.36202168 C22.1030965,5.30168473 22.1111111,5.28444561 22.1111111,5.24134779 C22.1111111,5.16377171 22.0710383,5.14653258 21.9107468,5.14653258 L18.6087432,5.14653258 C18.4965392,5.14653258 18.4724954,5.17239128 18.4724954,5.29306517 L18.4724954,6.03434766 C18.4724954,6.15502155 18.4965392,6.18088024 18.6087432,6.18088024 L19.6586521,6.18088024 L19.6586521,10.8699229 C19.6586521,11.0250751 19.6907104,11.0509338 19.8269581,11.0509338 L20.5723133,11.0509338 C20.708561,11.0509338 20.7406193,11.0250751 20.7406193,10.8699229 L20.7406193,6.18088024 Z M26.382878,5.32754342 C26.382878,5.17239128 26.3508197,5.14653258 26.2145719,5.14653258 L25.4692168,5.14653258 C25.332969,5.14653258 25.3009107,5.17239128 25.3009107,5.32754342 L25.3009107,7.53415176 L23.7781421,7.53415176 L23.7781421,5.32754342 C23.7781421,5.17239128 23.7460838,5.14653258 23.6098361,5.14653258 L22.8644809,5.14653258 C22.7282332,5.14653258 22.6961749,5.17239128 22.6961749,5.32754342 L22.6961749,10.8699229 C22.6961749,11.0250751 22.7282332,11.0509338 22.8644809,11.0509338 L23.6098361,11.0509338 C23.7460838,11.0509338 23.7781421,11.0250751 23.7781421,10.8699229 L23.7781421,8.46506465 L25.3009107,8.46506465 L25.3009107,10.8699229 C25.3009107,11.0250751 25.332969,11.0509338 25.4692168,11.0509338 L26.2145719,11.0509338 C26.3508197,11.0509338 26.382878,11.0250751 26.382878,10.8699229 L26.382878,5.32754342 Z M8.63060109,18.1419616 C8.63861566,18.1074833 8.64663024,18.055766 8.64663024,18.0299073 C8.64663024,17.9609508 8.61457195,17.9178529 8.50236794,17.9178529 L6.5708561,17.9178529 L6.5708561,13.2288102 C6.5708561,13.0736581 6.53879781,13.0477994 6.40255009,13.0477994 L5.6571949,13.0477994 C5.52094718,13.0477994 5.48888889,13.0736581 5.48888889,13.2288102 L5.48888889,18.7711898 C5.48888889,18.9263419 5.52094718,18.9522006 5.6571949,18.9522006 L8.30200364,18.9522006 C8.42222222,18.9522006 8.44626594,18.9349615 8.47832423,18.7970485 L8.63060109,18.1419616 Z M10.4499089,17.3748204 L11.8284153,17.3748204 L12.1810565,18.7711898 C12.2211293,18.9263419 12.2371585,18.9522006 12.3173042,18.9522006 L13.2149362,18.9522006 C13.295082,18.9522006 13.3752277,18.9349615 13.3752277,18.8832441 C13.3752277,18.8487658 13.351184,18.7798093 13.3431694,18.7453311 L11.7723133,13.1857124 C11.740255,13.0822777 11.7242259,13.0477994 11.6040073,13.0477994 L10.7704918,13.0477994 C10.6342441,13.0477994 10.6262295,13.0650385 10.5941712,13.1770929 L9.01530055,18.7280919 C9.00728597,18.7625702 8.98324226,18.8315267 8.98324226,18.8746245 C8.99125683,18.9349615 9.03934426,18.9522006 9.1435337,18.9522006 L9.95300546,18.9522006 C10.073224,18.9522006 10.0892532,18.9263419 10.1213115,18.7711898 L10.4499089,17.3748204 Z M11.628051,16.5990597 L10.5701275,16.5990597 L10.9227687,15.1164947 C11.0029144,14.7717122 11.0750455,14.2717775 11.1071038,13.9097558 L11.123133,13.9097558 C11.1632058,14.2717775 11.2273224,14.7803317 11.2994536,15.1164947 L11.628051,16.5990597 Z M15.3227687,16.3490923 L15.3387978,16.3490923 L17.1821494,18.9866789 C17.2061931,19.0297767 17.2703097,19.0987332 17.3183971,19.0987332 C17.3584699,19.0987332 17.3985428,19.0642549 17.4626594,19.0297767 L18.1038251,18.6849941 C18.1519126,18.6591354 18.2080146,18.607418 18.2080146,18.5815594 C18.2080146,18.4953637 18.1759563,18.4781246 18.1519126,18.4436463 L16.2684882,15.9267337 L17.975592,13.5046363 C17.9996357,13.470158 18.031694,13.4529189 18.031694,13.3667233 C18.031694,13.3408646 17.975592,13.2891472 17.9275046,13.2632885 L17.3825137,12.9702233 C17.3183971,12.9357451 17.2783242,12.9012668 17.2382514,12.9012668 C17.1901639,12.9012668 17.1260474,12.9702233 17.1020036,13.0133211 L15.3387978,15.6422881 L15.3227687,15.6422881 L15.3227687,13.2288102 C15.3227687,13.0736581 15.2907104,13.0477994 15.1544627,13.0477994 L14.4091075,13.0477994 C14.2728597,13.0477994 14.2408015,13.0736581 14.2408015,13.2288102 L14.2408015,18.7711898 C14.2408015,18.9263419 14.2728597,18.9522006 14.4091075,18.9522006 L15.1544627,18.9522006 C15.2907104,18.9522006 15.3227687,18.9263419 15.3227687,18.7711898 L15.3227687,16.3490923 Z M21.7344262,18.2022986 C21.7344262,18.0471464 21.7103825,18.0212877 21.5661202,18.0212877 L19.8510018,18.0212877 L19.8510018,16.3318532 L21.2134791,16.3318532 C21.3497268,16.3318532 21.3817851,16.3059945 21.3817851,16.1508424 L21.3817851,15.5819512 C21.3817851,15.426799 21.3577413,15.4009403 21.2134791,15.4009403 L19.8510018,15.4009403 L19.8510018,13.9787123 L21.4058288,13.9787123 C21.4699454,13.9787123 21.5581056,13.9700927 21.5901639,13.8407993 L21.7424408,13.2632885 C21.7584699,13.2029515 21.7664845,13.1857124 21.7664845,13.1426146 C21.7664845,13.0650385 21.7264117,13.0477994 21.5661202,13.0477994 L18.9373406,13.0477994 C18.8010929,13.0477994 18.7690346,13.0736581 18.7690346,13.2288102 L18.7690346,18.7711898 C18.7690346,18.9263419 18.8010929,18.9522006 18.9373406,18.9522006 L21.5741348,18.9522006 C21.7103825,18.9522006 21.7344262,18.9263419 21.7344262,18.7711898 L21.7344262,18.2022986 Z M9.2557377,21.1300771 C9.2557377,20.9749249 9.22367942,20.9490662 9.08743169,20.9490662 L8.3420765,20.9490662 C8.20582878,20.9490662 8.17377049,20.9749249 8.17377049,21.1300771 L8.17377049,24.8537286 C8.17377049,25.4743372 8.13369763,26.0690871 7.32422587,26.0690871 C6.5147541,26.0690871 6.47468124,25.4743372 6.47468124,24.8537286 L6.47468124,21.1300771 C6.47468124,20.9749249 6.44262295,20.9490662 6.30637523,20.9490662 L5.56102004,20.9490662 C5.42477231,20.9490662 5.39271403,20.9749249 5.39271403,21.1300771 L5.39271403,24.8537286 C5.39271403,26.1380436 5.80947177,27 7.32422587,27 C8.83897996,27 9.2557377,26.1380436 9.2557377,24.8537286 L9.2557377,21.1300771 Z M14.2327869,21.1300771 C14.2327869,20.9749249 14.2007286,20.9490662 14.0644809,20.9490662 L13.4794171,20.9490662 C13.3431694,20.9490662 13.3111111,20.9749249 13.3111111,21.1300771 L13.3111111,23.8624788 C13.3111111,24.1038266 13.3351548,24.707196 13.3351548,24.9830221 L13.3191257,24.9830221 C13.2229508,24.62962 13.070674,24.1900222 12.8462659,23.7331853 L11.5238616,21.0611205 C11.4757741,20.9663053 11.459745,20.9490662 11.3395264,20.9490662 L10.6823315,20.9490662 C10.5460838,20.9490662 10.5140255,20.9749249 10.5140255,21.1300771 L10.5140255,26.6724566 C10.5140255,26.8276087 10.5460838,26.8534674 10.6823315,26.8534674 L11.2673953,26.8534674 C11.403643,26.8534674 11.4357013,26.8276087 11.4357013,26.6724566 L11.4357013,23.5694136 C11.4357013,23.1729137 11.4116576,22.7333159 11.4116576,22.6212616 L11.4276867,22.6212616 C11.5078324,23.009142 11.6440801,23.3108267 11.8845173,23.7935223 L13.351184,26.7327935 C13.3992714,26.8362283 13.4233151,26.8534674 13.5355191,26.8534674 L14.0644809,26.8534674 C14.2087432,26.8534674 14.2327869,26.8276087 14.2327869,26.6724566 L14.2327869,21.1300771 Z M17.526776,26.2070001 C17.526776,26.051848 17.4947177,26.0259893 17.3584699,26.0259893 L16.9176685,26.0259893 L16.9176685,21.7765443 L17.3584699,21.7765443 C17.4947177,21.7765443 17.526776,21.7506856 17.526776,21.5955335 L17.526776,21.1300771 C17.526776,20.9749249 17.4947177,20.9490662 17.3584699,20.9490662 L15.3948998,20.9490662 C15.2586521,20.9490662 15.2265938,20.9749249 15.2265938,21.1300771 L15.2265938,21.5955335 C15.2265938,21.7506856 15.2586521,21.7765443 15.3948998,21.7765443 L15.8357013,21.7765443 L15.8357013,26.0259893 L15.3948998,26.0259893 C15.2586521,26.0259893 15.2265938,26.051848 15.2265938,26.2070001 L15.2265938,26.6724566 C15.2265938,26.8276087 15.2586521,26.8534674 15.3948998,26.8534674 L17.3584699,26.8534674 C17.4947177,26.8534674 17.526776,26.8276087 17.526776,26.6724566 L17.526776,26.2070001 Z M22.2313297,23.9055766 C22.2313297,21.8196422 21.4699454,20.8025336 20.2357013,20.8025336 C19.0014572,20.8025336 18.2400729,21.8110226 18.2400729,23.9055766 C18.2400729,25.991511 18.9934426,27 20.2357013,27 C21.4779599,27 22.2313297,25.991511 22.2313297,23.9055766 Z M20.2357013,26.0949458 C19.6346084,26.0949458 19.3781421,25.2502285 19.3781421,23.9055766 C19.3781421,22.5609246 19.6346084,21.7075878 20.2357013,21.7075878 C20.8367942,21.7075878 21.0932605,22.5523051 21.0932605,23.9055766 C21.0932605,25.2502285 20.8367942,26.0949458 20.2357013,26.0949458 Z M27,21.1300771 C27,20.9749249 26.9679417,20.9490662 26.831694,20.9490662 L26.2466302,20.9490662 C26.1103825,20.9490662 26.0783242,20.9749249 26.0783242,21.1300771 L26.0783242,23.8624788 C26.0783242,24.1038266 26.1023679,24.707196 26.1023679,24.9830221 L26.0863388,24.9830221 C25.9901639,24.62962 25.8378871,24.1900222 25.6134791,23.7331853 L24.2910747,21.0611205 C24.2429872,20.9663053 24.2269581,20.9490662 24.1067395,20.9490662 L23.4495446,20.9490662 C23.3132969,20.9490662 23.2812386,20.9749249 23.2812386,21.1300771 L23.2812386,26.6724566 C23.2812386,26.8276087 23.3132969,26.8534674 23.4495446,26.8534674 L24.0346084,26.8534674 C24.1708561,26.8534674 24.2029144,26.8276087 24.2029144,26.6724566 L24.2029144,23.5694136 C24.2029144,23.1729137 24.1788707,22.7333159 24.1788707,22.6212616 L24.1948998,22.6212616 C24.2750455,23.009142 24.4112933,23.3108267 24.6517304,23.7935223 L26.1183971,26.7327935 C26.1664845,26.8362283 26.1905282,26.8534674 26.3027322,26.8534674 L26.831694,26.8534674 C26.9759563,26.8534674 27,26.8276087 27,26.6724566 L27,21.1300771 Z" id="Combined-Shape"></path>
            <path d="M39.496582,20 L38.5834961,20 L38.5834961,12.9584961 L36.0966797,12.9584961 L36.0966797,12.1474609 L41.9833984,12.1474609 L41.9833984,12.9584961 L39.496582,12.9584961 L39.496582,20 Z M44.078125,16.734375 L44.078125,20 L43.1650391,20 L43.1650391,12.1474609 L45.3188477,12.1474609 C46.2820686,12.1474609 46.9937314,12.3318666 47.4538574,12.7006836 C47.9139834,13.0695005 48.144043,13.624508 48.144043,14.3657227 C48.144043,15.4041393 47.617681,16.1059552 46.5649414,16.4711914 L48.6972656,20 L47.6176758,20 L45.7163086,16.734375 L44.078125,16.734375 Z M44.078125,15.9501953 L45.3295898,15.9501953 C45.9741243,15.9501953 46.4467758,15.8221855 46.7475586,15.5661621 C47.0483413,15.3101387 47.1987305,14.9261093 47.1987305,14.4140625 C47.1987305,13.8948542 47.0456558,13.5206717 46.739502,13.2915039 C46.4333481,13.0623361 45.9418979,12.9477539 45.2651367,12.9477539 L44.078125,12.9477539 L44.078125,15.9501953 Z M54.9008789,20 L53.9233398,17.5024414 L50.7758789,17.5024414 L49.809082,20 L48.8852539,20 L51.9897461,12.1152344 L52.7578125,12.1152344 L55.8461914,20 L54.9008789,20 Z M53.6386719,16.6806641 L52.7255859,14.2475586 C52.6074213,13.9396143 52.4856777,13.5618512 52.3603516,13.1142578 C52.2815751,13.4580095 52.1687833,13.8357727 52.0219727,14.2475586 L51.0981445,16.6806641 L53.6386719,16.6806641 Z M63.0595703,20 L62.0175781,20 L57.7260742,13.409668 L57.6831055,13.409668 C57.7403974,14.1831093 57.769043,14.8920866 57.769043,15.5366211 L57.769043,20 L56.9257812,20 L56.9257812,12.1474609 L57.9570312,12.1474609 L62.237793,18.7109375 L62.2807617,18.7109375 C62.2736002,18.6142573 62.2574871,18.3036322 62.2324219,17.7790527 C62.2073566,17.2544733 62.1984049,16.8793957 62.2055664,16.6538086 L62.2055664,12.1474609 L63.0595703,12.1474609 L63.0595703,20 Z M69.6499023,17.9106445 C69.6499023,18.6017287 69.3992538,19.1406231 68.8979492,19.5273438 C68.3966446,19.9140644 67.7163129,20.1074219 66.8569336,20.1074219 C65.9259394,20.1074219 65.2098007,19.9874686 64.7084961,19.7475586 L64.7084961,18.8666992 C65.0307633,19.0027676 65.3816713,19.1101884 65.7612305,19.1889648 C66.1407897,19.2677413 66.5167625,19.3071289 66.8891602,19.3071289 C67.4978872,19.3071289 67.9562159,19.1916515 68.2641602,18.9606934 C68.5721044,18.7297352 68.7260742,18.4083679 68.7260742,17.996582 C68.7260742,17.7244453 68.6714686,17.5015471 68.5622559,17.3278809 C68.4530431,17.1542146 68.2704277,16.9939786 68.0144043,16.847168 C67.7583809,16.7003573 67.3689805,16.5338551 66.8461914,16.3476562 C66.115719,16.0862617 65.5938329,15.7765317 65.2805176,15.418457 C64.9672022,15.0603823 64.8105469,14.5931018 64.8105469,14.0166016 C64.8105469,13.4114553 65.0379209,12.9298521 65.4926758,12.5717773 C65.9474307,12.2137026 66.5489871,12.034668 67.2973633,12.034668 C68.0779661,12.034668 68.7958952,12.1778957 69.4511719,12.4643555 L69.1665039,13.2592773 C68.5183887,12.9871406 67.8881867,12.8510742 67.2758789,12.8510742 C66.7924781,12.8510742 66.4147149,12.9549143 66.1425781,13.1625977 C65.8704413,13.370281 65.734375,13.6585268 65.734375,14.0273438 C65.734375,14.2994805 65.7845047,14.5223787 65.8847656,14.6960449 C65.9850265,14.8697112 66.1542143,15.029052 66.392334,15.1740723 C66.6304537,15.3190925 66.9947892,15.4793285 67.4853516,15.6547852 C68.3089234,15.9484064 68.8755681,16.2635074 69.1853027,16.6000977 C69.4950374,16.9366879 69.6499023,17.3735325 69.6499023,17.9106445 Z M76.2348633,14.4355469 C76.2348633,15.2304727 75.9636258,15.8418761 75.4211426,16.2697754 C74.8786594,16.6976747 74.1025441,16.9116211 73.0927734,16.9116211 L72.1689453,16.9116211 L72.1689453,20 L71.2558594,20 L71.2558594,12.1474609 L73.2915039,12.1474609 C75.2537533,12.1474609 76.2348633,12.9101486 76.2348633,14.4355469 Z M72.1689453,16.1274414 L72.9907227,16.1274414 C73.7999715,16.1274414 74.3854149,15.9967461 74.7470703,15.7353516 C75.1087258,15.473957 75.2895508,15.0550159 75.2895508,14.4785156 C75.2895508,13.9593073 75.1194678,13.5725924 74.7792969,13.3183594 C74.4391259,13.0641263 73.9091833,12.9370117 73.1894531,12.9370117 L72.1689453,12.9370117 L72.1689453,16.1274414 Z M84.6943359,16.0629883 C84.6943359,17.3198305 84.3765494,18.3081019 83.7409668,19.027832 C83.1053842,19.7475622 82.2218481,20.1074219 81.090332,20.1074219 C79.9337507,20.1074219 79.0412629,19.7538284 78.4128418,19.0466309 C77.7844207,18.3394333 77.4702148,17.341315 77.4702148,16.0522461 C77.4702148,14.7739194 77.7853159,13.7829625 78.4155273,13.0793457 C79.0457388,12.3757289 79.9409122,12.0239258 81.1010742,12.0239258 C82.2290095,12.0239258 83.1098601,12.3819951 83.7436523,13.0981445 C84.3774446,13.8142939 84.6943359,14.8025653 84.6943359,16.0629883 Z M78.4370117,16.0629883 C78.4370117,17.1264702 78.6634906,17.9330213 79.1164551,18.482666 C79.5694196,19.0323107 80.227372,19.3071289 81.090332,19.3071289 C81.9604536,19.3071289 82.6175108,19.0332059 83.0615234,18.4853516 C83.5055361,17.9374973 83.7275391,17.1300509 83.7275391,16.0629883 C83.7275391,15.0066679 83.5064312,14.2054878 83.064209,13.6594238 C82.6219867,13.1133599 81.967615,12.840332 81.1010742,12.840332 C80.2309527,12.840332 79.5694196,13.1151502 79.1164551,13.6647949 C78.6634906,14.2144396 78.4370117,15.0138294 78.4370117,16.0629883 Z M87.3583984,16.734375 L87.3583984,20 L86.4453125,20 L86.4453125,12.1474609 L88.5991211,12.1474609 C89.5623421,12.1474609 90.2740049,12.3318666 90.7341309,12.7006836 C91.1942569,13.0695005 91.4243164,13.624508 91.4243164,14.3657227 C91.4243164,15.4041393 90.8979545,16.1059552 89.8452148,16.4711914 L91.9775391,20 L90.8979492,20 L88.996582,16.734375 L87.3583984,16.734375 Z M87.3583984,15.9501953 L88.6098633,15.9501953 C89.2543978,15.9501953 89.7270493,15.8221855 90.027832,15.5661621 C90.3286148,15.3101387 90.4790039,14.9261093 90.4790039,14.4140625 C90.4790039,13.8948542 90.3259293,13.5206717 90.0197754,13.2915039 C89.7136215,13.0623361 89.2221714,12.9477539 88.5454102,12.9477539 L87.3583984,12.9477539 L87.3583984,15.9501953 Z M95.6621094,20 L94.7490234,20 L94.7490234,12.9584961 L92.262207,12.9584961 L92.262207,12.1474609 L98.1489258,12.1474609 L98.1489258,12.9584961 L95.6621094,12.9584961 L95.6621094,20 Z M103.498535,20 L102.520996,17.5024414 L99.3735352,17.5024414 L98.4067383,20 L97.4829102,20 L100.587402,12.1152344 L101.355469,12.1152344 L104.443848,20 L103.498535,20 Z M102.236328,16.6806641 L101.323242,14.2475586 C101.205078,13.9396143 101.083334,13.5618512 100.958008,13.1142578 C100.879231,13.4580095 100.76644,13.8357727 100.619629,14.2475586 L99.6958008,16.6806641 L102.236328,16.6806641 Z M107.172363,20 L106.259277,20 L106.259277,12.9584961 L103.772461,12.9584961 L103.772461,12.1474609 L109.65918,12.1474609 L109.65918,12.9584961 L107.172363,12.9584961 L107.172363,20 Z M110.84082,20 L110.84082,12.1474609 L111.753906,12.1474609 L111.753906,20 L110.84082,20 Z M120.723633,16.0629883 C120.723633,17.3198305 120.405846,18.3081019 119.770264,19.027832 C119.134681,19.7475622 118.251145,20.1074219 117.119629,20.1074219 C115.963048,20.1074219 115.07056,19.7538284 114.442139,19.0466309 C113.813718,18.3394333 113.499512,17.341315 113.499512,16.0522461 C113.499512,14.7739194 113.814613,13.7829625 114.444824,13.0793457 C115.075036,12.3757289 115.970209,12.0239258 117.130371,12.0239258 C118.258306,12.0239258 119.139157,12.3819951 119.772949,13.0981445 C120.406741,13.8142939 120.723633,14.8025653 120.723633,16.0629883 Z M114.466309,16.0629883 C114.466309,17.1264702 114.692787,17.9330213 115.145752,18.482666 C115.598716,19.0323107 116.256669,19.3071289 117.119629,19.3071289 C117.98975,19.3071289 118.646808,19.0332059 119.09082,18.4853516 C119.534833,17.9374973 119.756836,17.1300509 119.756836,16.0629883 C119.756836,15.0066679 119.535728,14.2054878 119.093506,13.6594238 C118.651284,13.1133599 117.996912,12.840332 117.130371,12.840332 C116.26025,12.840332 115.598716,13.1151502 115.145752,13.6647949 C114.692787,14.2144396 114.466309,15.0138294 114.466309,16.0629883 Z M128.608398,20 L127.566406,20 L123.274902,13.409668 L123.231934,13.409668 C123.289226,14.1831093 123.317871,14.8920866 123.317871,15.5366211 L123.317871,20 L122.474609,20 L122.474609,12.1474609 L123.505859,12.1474609 L127.786621,18.7109375 L127.82959,18.7109375 C127.822428,18.6142573 127.806315,18.3036322 127.78125,17.7790527 C127.756185,17.2544733 127.747233,16.8793957 127.754395,16.6538086 L127.754395,12.1474609 L128.608398,12.1474609 L128.608398,20 Z" id="TRANSPORTATION"></path>
        </g>
    </g>
</svg>