<?xml version="1.0" encoding="UTF-8"?>
<svg width="70px" height="32px" viewBox="0 0 70 32" version="1.1" xmlns="http://www.w3.org/2000/svg" xmlns:xlink="http://www.w3.org/1999/xlink">
    <!-- Generator: Sketch 44.1 (41455) - http://www.bohemiancoding.com/sketch -->
    <title>SLU-Ride</title>
    <desc>Created with Sketch.</desc>
    <defs></defs>
    <g id="Symbols" stroke="none" stroke-width="1" fill="none" fill-rule="evenodd">
        <g id="SLU-Ride" fill="#FFFFFF">
            <path d="M0,0 L32,0 L32,32 L0,32 L0,0 Z M8.30200364,5.65508685 C8.33406193,5.58613034 8.3420765,5.55165208 8.3420765,5.52579339 C8.3420765,5.37926081 7.55664845,5 6.79526412,5 C5.86557377,5 5.03205829,5.51717383 5.03205829,6.75839101 C5.03205829,7.47381481 5.30455373,7.81859736 5.72932605,8.0944234 C6.54681239,8.62883636 7.36429872,8.70641243 7.36429872,9.47355361 C7.36429872,10.0079666 7.09180328,10.2665535 6.64298725,10.2665535 C5.95373406,10.2665535 5.36065574,9.88729267 5.31256831,9.88729267 C5.28051002,9.88729267 5.24043716,9.92177093 5.22440801,9.97348831 L5.04007286,10.5423795 C5.02404372,10.5940969 5,10.6544339 5,10.6802925 C5,10.8182056 5.8575592,11.1974664 6.67504554,11.1974664 C7.6848816,11.1974664 8.40619308,10.473423 8.40619308,9.37873841 C8.40619308,8.72365156 8.12568306,8.26681468 7.71693989,7.93927126 C7.01165756,7.37899961 6.07395264,7.25832572 6.07395264,6.60323887 C6.07395264,6.08606504 6.45865209,5.93091289 6.8273224,5.93091289 C7.40437158,5.93091289 7.90127505,6.3101737 7.94936248,6.3101737 C7.98142077,6.3101737 8.01347905,6.27569544 8.03752277,6.22397806 L8.30200364,5.65508685 Z M13.0225865,8.10304297 C13.0225865,6.01710853 12.2612022,5 11.0269581,5 C9.79271403,5 9.03132969,6.00848896 9.03132969,8.10304297 C9.03132969,10.1889774 9.78469945,11.1974664 11.0269581,11.1974664 C12.2692168,11.1974664 13.0225865,10.1889774 13.0225865,8.10304297 Z M11.0269581,10.2924122 C10.4258652,10.2924122 10.1693989,9.44769492 10.1693989,8.10304297 C10.1693989,6.75839101 10.4258652,5.9050542 11.0269581,5.9050542 C11.628051,5.9050542 11.8845173,6.74977145 11.8845173,8.10304297 C11.8845173,9.44769492 11.628051,10.2924122 11.0269581,10.2924122 Z M17.863388,5.32754342 C17.863388,5.17239128 17.8313297,5.14653258 17.695082,5.14653258 L16.9497268,5.14653258 C16.8134791,5.14653258 16.7814208,5.17239128 16.7814208,5.32754342 L16.7814208,9.05119498 C16.7814208,9.67180358 16.7413479,10.2665535 15.9318761,10.2665535 C15.1224044,10.2665535 15.0823315,9.67180358 15.0823315,9.05119498 L15.0823315,5.32754342 C15.0823315,5.17239128 15.0502732,5.14653258 14.9140255,5.14653258 L14.1686703,5.14653258 C14.0324226,5.14653258 14.0003643,5.17239128 14.0003643,5.32754342 L14.0003643,9.05119498 C14.0003643,10.33551 14.417122,11.1974664 15.9318761,11.1974664 C17.4466302,11.1974664 17.863388,10.33551 17.863388,9.05119498 L17.863388,5.32754342 Z M20.7406193,6.18088024 L21.7344262,6.18088024 C21.7985428,6.18088024 21.8867031,6.18088024 21.9187614,6.04296722 L22.0870674,5.36202168 C22.1030965,5.30168473 22.1111111,5.28444561 22.1111111,5.24134779 C22.1111111,5.16377171 22.0710383,5.14653258 21.9107468,5.14653258 L18.6087432,5.14653258 C18.4965392,5.14653258 18.4724954,5.17239128 18.4724954,5.29306517 L18.4724954,6.03434766 C18.4724954,6.15502155 18.4965392,6.18088024 18.6087432,6.18088024 L19.6586521,6.18088024 L19.6586521,10.8699229 C19.6586521,11.0250751 19.6907104,11.0509338 19.8269581,11.0509338 L20.5723133,11.0509338 C20.708561,11.0509338 20.7406193,11.0250751 20.7406193,10.8699229 L20.7406193,6.18088024 Z M26.382878,5.32754342 C26.382878,5.17239128 26.3508197,5.14653258 26.2145719,5.14653258 L25.4692168,5.14653258 C25.332969,5.14653258 25.3009107,5.17239128 25.3009107,5.32754342 L25.3009107,7.53415176 L23.7781421,7.53415176 L23.7781421,5.32754342 C23.7781421,5.17239128 23.7460838,5.14653258 23.6098361,5.14653258 L22.8644809,5.14653258 C22.7282332,5.14653258 22.6961749,5.17239128 22.6961749,5.32754342 L22.6961749,10.8699229 C22.6961749,11.0250751 22.7282332,11.0509338 22.8644809,11.0509338 L23.6098361,11.0509338 C23.7460838,11.0509338 23.7781421,11.0250751 23.7781421,10.8699229 L23.7781421,8.46506465 L25.3009107,8.46506465 L25.3009107,10.8699229 C25.3009107,11.0250751 25.332969,11.0509338 25.4692168,11.0509338 L26.2145719,11.0509338 C26.3508197,11.0509338 26.382878,11.0250751 26.382878,10.8699229 L26.382878,5.32754342 Z M8.63060109,18.1419616 C8.63861566,18.1074833 8.64663024,18.055766 8.64663024,18.0299073 C8.64663024,17.9609508 8.61457195,17.9178529 8.50236794,17.9178529 L6.5708561,17.9178529 L6.5708561,13.2288102 C6.5708561,13.0736581 6.53879781,13.0477994 6.40255009,13.0477994 L5.6571949,13.0477994 C5.52094718,13.0477994 5.48888889,13.0736581 5.48888889,13.2288102 L5.48888889,18.7711898 C5.48888889,18.9263419 5.52094718,18.9522006 5.6571949,18.9522006 L8.30200364,18.9522006 C8.42222222,18.9522006 8.44626594,18.9349615 8.47832423,18.7970485 L8.63060109,18.1419616 Z M10.4499089,17.3748204 L11.8284153,17.3748204 L12.1810565,18.7711898 C12.2211293,18.9263419 12.2371585,18.9522006 12.3173042,18.9522006 L13.2149362,18.9522006 C13.295082,18.9522006 13.3752277,18.9349615 13.3752277,18.8832441 C13.3752277,18.8487658 13.351184,18.7798093 13.3431694,18.7453311 L11.7723133,13.1857124 C11.740255,13.0822777 11.7242259,13.0477994 11.6040073,13.0477994 L10.7704918,13.0477994 C10.6342441,13.0477994 10.6262295,13.0650385 10.5941712,13.1770929 L9.01530055,18.7280919 C9.00728597,18.7625702 8.98324226,18.8315267 8.98324226,18.8746245 C8.99125683,18.9349615 9.03934426,18.9522006 9.1435337,18.9522006 L9.95300546,18.9522006 C10.073224,18.9522006 10.0892532,18.9263419 10.1213115,18.7711898 L10.4499089,17.3748204 Z M11.628051,16.5990597 L10.5701275,16.5990597 L10.9227687,15.1164947 C11.0029144,14.7717122 11.0750455,14.2717775 11.1071038,13.9097558 L11.123133,13.9097558 C11.1632058,14.2717775 11.2273224,14.7803317 11.2994536,15.1164947 L11.628051,16.5990597 Z M15.3227687,16.3490923 L15.3387978,16.3490923 L17.1821494,18.9866789 C17.2061931,19.0297767 17.2703097,19.0987332 17.3183971,19.0987332 C17.3584699,19.0987332 17.3985428,19.0642549 17.4626594,19.0297767 L18.1038251,18.6849941 C18.1519126,18.6591354 18.2080146,18.607418 18.2080146,18.5815594 C18.2080146,18.4953637 18.1759563,18.4781246 18.1519126,18.4436463 L16.2684882,15.9267337 L17.975592,13.5046363 C17.9996357,13.470158 18.031694,13.4529189 18.031694,13.3667233 C18.031694,13.3408646 17.975592,13.2891472 17.9275046,13.2632885 L17.3825137,12.9702233 C17.3183971,12.9357451 17.2783242,12.9012668 17.2382514,12.9012668 C17.1901639,12.9012668 17.1260474,12.9702233 17.1020036,13.0133211 L15.3387978,15.6422881 L15.3227687,15.6422881 L15.3227687,13.2288102 C15.3227687,13.0736581 15.2907104,13.0477994 15.1544627,13.0477994 L14.4091075,13.0477994 C14.2728597,13.0477994 14.2408015,13.0736581 14.2408015,13.2288102 L14.2408015,18.7711898 C14.2408015,18.9263419 14.2728597,18.9522006 14.4091075,18.9522006 L15.1544627,18.9522006 C15.2907104,18.9522006 15.3227687,18.9263419 15.3227687,18.7711898 L15.3227687,16.3490923 Z M21.7344262,18.2022986 C21.7344262,18.0471464 21.7103825,18.0212877 21.5661202,18.0212877 L19.8510018,18.0212877 L19.8510018,16.3318532 L21.2134791,16.3318532 C21.3497268,16.3318532 21.3817851,16.3059945 21.3817851,16.1508424 L21.3817851,15.5819512 C21.3817851,15.426799 21.3577413,15.4009403 21.2134791,15.4009403 L19.8510018,15.4009403 L19.8510018,13.9787123 L21.4058288,13.9787123 C21.4699454,13.9787123 21.5581056,13.9700927 21.5901639,13.8407993 L21.7424408,13.2632885 C21.7584699,13.2029515 21.7664845,13.1857124 21.7664845,13.1426146 C21.7664845,13.0650385 21.7264117,13.0477994 21.5661202,13.0477994 L18.9373406,13.0477994 C18.8010929,13.0477994 18.7690346,13.0736581 18.7690346,13.2288102 L18.7690346,18.7711898 C18.7690346,18.9263419 18.8010929,18.9522006 18.9373406,18.9522006 L21.5741348,18.9522006 C21.7103825,18.9522006 21.7344262,18.9263419 21.7344262,18.7711898 L21.7344262,18.2022986 Z M9.2557377,21.1300771 C9.2557377,20.9749249 9.22367942,20.9490662 9.08743169,20.9490662 L8.3420765,20.9490662 C8.20582878,20.9490662 8.17377049,20.9749249 8.17377049,21.1300771 L8.17377049,24.8537286 C8.17377049,25.4743372 8.13369763,26.0690871 7.32422587,26.0690871 C6.5147541,26.0690871 6.47468124,25.4743372 6.47468124,24.8537286 L6.47468124,21.1300771 C6.47468124,20.9749249 6.44262295,20.9490662 6.30637523,20.9490662 L5.56102004,20.9490662 C5.42477231,20.9490662 5.39271403,20.9749249 5.39271403,21.1300771 L5.39271403,24.8537286 C5.39271403,26.1380436 5.80947177,27 7.32422587,27 C8.83897996,27 9.2557377,26.1380436 9.2557377,24.8537286 L9.2557377,21.1300771 Z M14.2327869,21.1300771 C14.2327869,20.9749249 14.2007286,20.9490662 14.0644809,20.9490662 L13.4794171,20.9490662 C13.3431694,20.9490662 13.3111111,20.9749249 13.3111111,21.1300771 L13.3111111,23.8624788 C13.3111111,24.1038266 13.3351548,24.707196 13.3351548,24.9830221 L13.3191257,24.9830221 C13.2229508,24.62962 13.070674,24.1900222 12.8462659,23.7331853 L11.5238616,21.0611205 C11.4757741,20.9663053 11.459745,20.9490662 11.3395264,20.9490662 L10.6823315,20.9490662 C10.5460838,20.9490662 10.5140255,20.9749249 10.5140255,21.1300771 L10.5140255,26.6724566 C10.5140255,26.8276087 10.5460838,26.8534674 10.6823315,26.8534674 L11.2673953,26.8534674 C11.403643,26.8534674 11.4357013,26.8276087 11.4357013,26.6724566 L11.4357013,23.5694136 C11.4357013,23.1729137 11.4116576,22.7333159 11.4116576,22.6212616 L11.4276867,22.6212616 C11.5078324,23.009142 11.6440801,23.3108267 11.8845173,23.7935223 L13.351184,26.7327935 C13.3992714,26.8362283 13.4233151,26.8534674 13.5355191,26.8534674 L14.0644809,26.8534674 C14.2087432,26.8534674 14.2327869,26.8276087 14.2327869,26.6724566 L14.2327869,21.1300771 Z M17.526776,26.2070001 C17.526776,26.051848 17.4947177,26.0259893 17.3584699,26.0259893 L16.9176685,26.0259893 L16.9176685,21.7765443 L17.3584699,21.7765443 C17.4947177,21.7765443 17.526776,21.7506856 17.526776,21.5955335 L17.526776,21.1300771 C17.526776,20.9749249 17.4947177,20.9490662 17.3584699,20.9490662 L15.3948998,20.9490662 C15.2586521,20.9490662 15.2265938,20.9749249 15.2265938,21.1300771 L15.2265938,21.5955335 C15.2265938,21.7506856 15.2586521,21.7765443 15.3948998,21.7765443 L15.8357013,21.7765443 L15.8357013,26.0259893 L15.3948998,26.0259893 C15.2586521,26.0259893 15.2265938,26.051848 15.2265938,26.2070001 L15.2265938,26.6724566 C15.2265938,26.8276087 15.2586521,26.8534674 15.3948998,26.8534674 L17.3584699,26.8534674 C17.4947177,26.8534674 17.526776,26.8276087 17.526776,26.6724566 L17.526776,26.2070001 Z M22.2313297,23.9055766 C22.2313297,21.8196422 21.4699454,20.8025336 20.2357013,20.8025336 C19.0014572,20.8025336 18.2400729,21.8110226 18.2400729,23.9055766 C18.2400729,25.991511 18.9934426,27 20.2357013,27 C21.4779599,27 22.2313297,25.991511 22.2313297,23.9055766 Z M20.2357013,26.0949458 C19.6346084,26.0949458 19.3781421,25.2502285 19.3781421,23.9055766 C19.3781421,22.5609246 19.6346084,21.7075878 20.2357013,21.7075878 C20.8367942,21.7075878 21.0932605,22.5523051 21.0932605,23.9055766 C21.0932605,25.2502285 20.8367942,26.0949458 20.2357013,26.0949458 Z M27,21.1300771 C27,20.9749249 26.9679417,20.9490662 26.831694,20.9490662 L26.2466302,20.9490662 C26.1103825,20.9490662 26.0783242,20.9749249 26.0783242,21.1300771 L26.0783242,23.8624788 C26.0783242,24.1038266 26.1023679,24.707196 26.1023679,24.9830221 L26.0863388,24.9830221 C25.9901639,24.62962 25.8378871,24.1900222 25.6134791,23.7331853 L24.2910747,21.0611205 C24.2429872,20.9663053 24.2269581,20.9490662 24.1067395,20.9490662 L23.4495446,20.9490662 C23.3132969,20.9490662 23.2812386,20.9749249 23.2812386,21.1300771 L23.2812386,26.6724566 C23.2812386,26.8276087 23.3132969,26.8534674 23.4495446,26.8534674 L24.0346084,26.8534674 C24.1708561,26.8534674 24.2029144,26.8276087 24.2029144,26.6724566 L24.2029144,23.5694136 C24.2029144,23.1729137 24.1788707,22.7333159 24.1788707,22.6212616 L24.1948998,22.6212616 C24.2750455,23.009142 24.4112933,23.3108267 24.6517304,23.7935223 L26.1183971,26.7327935 C26.1664845,26.8362283 26.1905282,26.8534674 26.3027322,26.8534674 L26.831694,26.8534674 C26.9759563,26.8534674 27,26.8276087 27,26.6724566 L27,21.1300771 Z" id="Combined-Shape" fill-opacity="0.95"></path>
            <path d="M37.9926758,13.734375 L37.9926758,17 L37.0795898,17 L37.0795898,9.14746094 L39.2333984,9.14746094 C40.1966194,9.14746094 40.9082822,9.33186665 41.3684082,9.70068359 C41.8285342,10.0695005 42.0585938,10.624508 42.0585938,11.3657227 C42.0585938,12.4041393 41.5322318,13.1059552 40.4794922,13.4711914 L42.6118164,17 L41.5322266,17 L39.6308594,13.734375 L37.9926758,13.734375 Z M37.9926758,12.9501953 L39.2441406,12.9501953 C39.8886751,12.9501953 40.3613266,12.8221855 40.6621094,12.5661621 C40.9628921,12.3101387 41.1132812,11.9261093 41.1132812,11.4140625 C41.1132812,10.8948542 40.9602066,10.5206717 40.6540527,10.2915039 C40.3478989,10.0623361 39.8564487,9.94775391 39.1796875,9.94775391 L37.9926758,9.94775391 L37.9926758,12.9501953 Z M43.8793945,17 L43.8793945,9.14746094 L44.7924805,9.14746094 L44.7924805,17 L43.8793945,17 Z M53.2143555,12.9985352 C53.2143555,14.2947656 52.8625523,15.2857225 52.1589355,15.9714355 C51.4553187,16.6571486 50.4428777,17 49.121582,17 L46.9462891,17 L46.9462891,9.14746094 L49.3525391,9.14746094 C50.5735738,9.14746094 51.5224576,9.48583646 52.1992188,10.1625977 C52.8759799,10.8393589 53.2143555,11.7846619 53.2143555,12.9985352 Z M52.2475586,13.0307617 C52.2475586,12.0066681 51.9906438,11.2350286 51.4768066,10.7158203 C50.9629694,10.196612 50.1993866,9.93701172 49.1860352,9.93701172 L47.859375,9.93701172 L47.859375,16.2104492 L48.9711914,16.2104492 C50.0597385,16.2104492 50.8779269,15.9427924 51.4257812,15.4074707 C51.9736356,14.872149 52.2475586,14.0799206 52.2475586,13.0307617 Z M59.3427734,17 L54.965332,17 L54.965332,9.14746094 L59.3427734,9.14746094 L59.3427734,9.95849609 L55.878418,9.95849609 L55.878418,12.4882812 L59.1333008,12.4882812 L59.1333008,13.2939453 L55.878418,13.2939453 L55.878418,16.1835938 L59.3427734,16.1835938 L59.3427734,17 Z" id="RIDE"></path>
            <path d="M38.3876953,20.2558594 C37.9853496,20.2558594 37.6689465,20.3984361 37.4384766,20.6835938 C37.2080067,20.9687514 37.0927734,21.3623022 37.0927734,21.8642578 C37.0927734,22.3896511 37.2036122,22.787108 37.425293,23.0566406 C37.6469738,23.3261732 37.9677713,23.4609375 38.3876953,23.4609375 C38.5693368,23.4609375 38.7451163,23.4428713 38.9150391,23.4067383 C39.0849618,23.3706053 39.2617178,23.324219 39.4453125,23.2675781 L39.4453125,23.8681641 C39.1093733,23.9951178 38.7285178,24.0585938 38.3027344,24.0585938 C37.6757781,24.0585938 37.1943376,23.8686542 36.8583984,23.4887695 C36.5224593,23.1088848 36.3544922,22.5654332 36.3544922,21.8583984 C36.3544922,21.4130837 36.4360343,21.0234392 36.5991211,20.6894531 C36.7622078,20.3554671 36.9980453,20.0996103 37.3066406,19.921875 C37.6152359,19.7441397 37.977537,19.6552734 38.3935547,19.6552734 C38.8310569,19.6552734 39.2353497,19.7470694 39.6064453,19.9306641 L39.3544922,20.5136719 C39.2099602,20.4453122 39.0571297,20.3852542 38.8959961,20.3334961 C38.7348625,20.281738 38.5654306,20.2558594 38.3876953,20.2558594 Z M44.0507812,21.8525391 C44.0507812,22.5498082 43.8764666,23.0917949 43.527832,23.4785156 C43.1791975,23.8652363 42.6855501,24.0585938 42.046875,24.0585938 C41.4003874,24.0585938 40.9038103,23.8667011 40.5571289,23.4829102 C40.2104475,23.0991192 40.0371094,22.5537145 40.0371094,21.8466797 C40.0371094,21.1396449 40.211424,20.5966816 40.5600586,20.2177734 C40.9086931,19.8388653 41.4062468,19.6494141 42.0527344,19.6494141 C42.6894563,19.6494141 43.1816389,19.841795 43.5292969,20.2265625 C43.8769549,20.61133 44.0507812,21.1533168 44.0507812,21.8525391 Z M40.78125,21.8525391 C40.78125,22.3798854 40.8876942,22.7797838 41.1005859,23.0522461 C41.3134776,23.3247084 41.6289042,23.4609375 42.046875,23.4609375 C42.4628927,23.4609375 42.7768544,23.3261732 42.9887695,23.0566406 C43.2006847,22.787108 43.3066406,22.3857449 43.3066406,21.8525391 C43.3066406,21.3271458 43.2016612,20.9287123 42.9916992,20.6572266 C42.7817372,20.3857408 42.4687521,20.25 42.0527344,20.25 C41.6328104,20.25 41.315919,20.3857408 41.1020508,20.6572266 C40.8881825,20.9287123 40.78125,21.3271458 40.78125,21.8525391 Z M46.8222656,24 L45.5800781,20.4228516 L45.5566406,20.4228516 C45.5898439,20.9541042 45.6064453,21.4521461 45.6064453,21.9169922 L45.6064453,24 L44.9707031,24 L44.9707031,19.7167969 L45.9580078,19.7167969 L47.1474609,23.1240234 L47.1650391,23.1240234 L48.3896484,19.7167969 L49.3798828,19.7167969 L49.3798828,24 L48.7060547,24 L48.7060547,21.8818359 C48.7060547,21.6689442 48.7114257,21.3916033 48.722168,21.0498047 C48.7329102,20.7080061 48.7421875,20.5009769 48.75,20.4287109 L48.7265625,20.4287109 L47.4404297,24 L46.8222656,24 Z M52.359375,24 L51.1171875,20.4228516 L51.09375,20.4228516 C51.1269533,20.9541042 51.1435547,21.4521461 51.1435547,21.9169922 L51.1435547,24 L50.5078125,24 L50.5078125,19.7167969 L51.4951172,19.7167969 L52.6845703,23.1240234 L52.7021484,23.1240234 L53.9267578,19.7167969 L54.9169922,19.7167969 L54.9169922,24 L54.2431641,24 L54.2431641,21.8818359 C54.2431641,21.6689442 54.2485351,21.3916033 54.2592773,21.0498047 C54.2700196,20.7080061 54.2792968,20.5009769 54.2871094,20.4287109 L54.2636719,20.4287109 L52.9775391,24 L52.359375,24 Z M59.4023438,19.7167969 L59.4023438,22.4882812 C59.4023438,22.8046891 59.3344733,23.0815418 59.1987305,23.3188477 C59.0629876,23.5561535 58.8667005,23.7387689 58.6098633,23.8666992 C58.3530261,23.9946295 58.0459002,24.0585938 57.6884766,24.0585938 C57.1572239,24.0585938 56.7441421,23.9179702 56.4492188,23.6367188 C56.1542954,23.3554673 56.0068359,22.9687525 56.0068359,22.4765625 L56.0068359,19.7167969 L56.7099609,19.7167969 L56.7099609,22.4267578 C56.7099609,22.7802752 56.7919914,23.0410148 56.9560547,23.2089844 C57.120118,23.376954 57.3720686,23.4609375 57.7119141,23.4609375 C58.3720736,23.4609375 58.7021484,23.1142613 58.7021484,22.4208984 L58.7021484,19.7167969 L59.4023438,19.7167969 Z M61.9775391,24 L61.2773438,24 L61.2773438,20.3173828 L60.0175781,20.3173828 L60.0175781,19.7167969 L63.2373047,19.7167969 L63.2373047,20.3173828 L61.9775391,20.3173828 L61.9775391,24 Z M66.3164062,24 L63.8935547,24 L63.8935547,19.7167969 L66.3164062,19.7167969 L66.3164062,20.3085938 L64.59375,20.3085938 L64.59375,21.4746094 L66.2080078,21.4746094 L66.2080078,22.0605469 L64.59375,22.0605469 L64.59375,23.4052734 L66.3164062,23.4052734 L66.3164062,24 Z M67.9423828,21.7089844 L68.4287109,21.7089844 C68.7548844,21.7089844 68.9912102,21.6484381 69.1376953,21.5273438 C69.2841804,21.4062494 69.3574219,21.2265637 69.3574219,20.9882812 C69.3574219,20.7460925 69.2783211,20.5722662 69.1201172,20.4667969 C68.9619133,20.3613276 68.7236344,20.3085938 68.4052734,20.3085938 L67.9423828,20.3085938 L67.9423828,21.7089844 Z M67.9423828,22.2890625 L67.9423828,24 L67.2421875,24 L67.2421875,19.7167969 L68.4521484,19.7167969 C69.0048856,19.7167969 69.4140612,19.8203115 69.6796875,20.0273438 C69.9453138,20.234376 70.078125,20.5468729 70.078125,20.9648438 C70.078125,21.4980495 69.800784,21.8779286 69.2460938,22.1044922 L70.4560547,24 L69.6591797,24 L68.6337891,22.2890625 L67.9423828,22.2890625 Z" id="COMMUTER"></path>
        </g>
    </g>
</svg>