<?xml version="1.0" encoding="UTF-8"?>
<svg width="102px" height="32px" viewBox="0 0 102 32" version="1.1" xmlns="http://www.w3.org/2000/svg" xmlns:xlink="http://www.w3.org/1999/xlink">
    <!-- Generator: Sketch 44.1 (41455) - http://www.bohemiancoding.com/sketch -->
    <title>SLU-OnDemand-white</title>
    <desc>Created with Sketch.</desc>
    <defs></defs>
    <g id="Symbols" stroke="none" stroke-width="1" fill="none" fill-rule="evenodd">
        <g id="SLU-OnDemand-white" fill="#4990E2">
            <path d="M43.8960211,13.0632753 C43.8960211,14.3202068 43.578212,15.3085484 42.9425842,16.0283297 C42.3069565,16.748111 41.4233576,17.1079962 40.2917611,17.1079962 C39.1350976,17.1079962 38.2425464,16.7543776 37.6140806,16.0471298 C36.9856149,15.339882 36.6713867,14.3416928 36.6713867,13.0525323 C36.6713867,11.7741148 36.9865101,10.7830875 37.6167664,10.0794207 C38.2470226,9.3757539 39.1422596,9.02392578 40.3025041,9.02392578 C41.4305195,9.02392578 42.3114327,9.38202056 42.94527,10.0982209 C43.5791072,10.8144212 43.8960211,11.8027627 43.8960211,13.0632753 Z M37.6382523,13.0632753 C37.6382523,14.1268327 37.8647472,14.9334412 38.3177439,15.4831249 C38.7707406,16.0328086 39.4287398,16.3076464 40.2917611,16.3076464 C41.1619445,16.3076464 41.8190484,16.0337039 42.2630926,15.4858107 C42.7071368,14.9379174 42.9291555,14.1304137 42.9291555,13.0632753 C42.9291555,12.0068798 42.708032,11.2056428 42.2657783,10.65954 C41.8235246,10.1134373 41.1691064,9.84039004 40.3025041,9.84039004 C39.4323207,9.84039004 38.7707406,10.1152278 38.3177439,10.6649115 C37.8647472,11.2145952 37.6382523,12.0140418 37.6382523,13.0632753 Z M51.781347,17.0005667 L50.7392807,17.0005667 L46.4474719,10.4097664 L46.4045001,10.4097664 C46.4617961,11.1832627 46.4904437,11.8922904 46.4904437,12.5368707 L46.4904437,17.0005667 L45.6471221,17.0005667 L45.6471221,9.14746971 L46.6784453,9.14746971 L50.9595112,15.7114126 L51.002483,15.7114126 C50.995321,15.6147256 50.9792068,15.3040784 50.9541397,14.7794616 C50.9290727,14.2548449 50.9201204,13.8797406 50.9272824,13.6541376 L50.9272824,9.14746971 L51.781347,9.14746971 L51.781347,17.0005667 Z M63.0668167,12.9988176 C63.0668167,14.2951401 62.7149886,15.2861674 62.0113218,15.9719292 C61.307655,16.657691 60.295142,17.0005667 58.9737525,17.0005667 L56.798305,17.0005667 L56.798305,9.14746971 L59.2047259,9.14746971 C60.4258474,9.14746971 61.3747986,9.48586928 62.0516079,10.1626786 C62.7284171,10.8394878 63.0668167,11.7848581 63.0668167,12.9988176 Z M62.0999511,13.0310464 C62.0999511,12.00688 61.8430181,11.2351857 61.3291444,10.7159405 C60.8152707,10.1966953 60.0516336,9.9370766 59.0382102,9.9370766 L57.7114558,9.9370766 L57.7114558,16.2109598 L58.8233512,16.2109598 C59.9119756,16.2109598 60.7302222,15.943284 61.2781154,15.4079243 C61.8260086,14.8725645 62.0999511,14.0802798 62.0999511,13.0310464 Z M69.1956701,17.0005667 L64.8179177,17.0005667 L64.8179177,9.14746971 L69.1956701,9.14746971 L69.1956701,9.9585625 L65.7310685,9.9585625 L65.7310685,12.4885274 L68.9861826,12.4885274 L68.9861826,13.2942487 L65.7310685,13.2942487 L65.7310685,16.1841025 L69.1956701,16.1841025 L69.1956701,17.0005667 Z M74.4113727,17.0005667 L71.7471209,10.0391346 L71.7041491,10.0391346 C71.7542831,10.5906089 71.7793498,11.2459223 71.7793498,12.0050946 L71.7793498,17.0005667 L70.9360281,17.0005667 L70.9360281,9.14746971 L72.3111258,9.14746971 L74.7981189,15.625469 L74.8410907,15.625469 L77.3495697,9.14746971 L78.7139245,9.14746971 L78.7139245,17.0005667 L77.8007737,17.0005667 L77.8007737,11.9406369 C77.8007737,11.3605147 77.8258403,10.7302679 77.8759743,10.0498776 L77.8330025,10.0498776 L75.1472648,17.0005667 L74.4113727,17.0005667 Z M85.804272,17.0005667 L84.8266635,14.5028307 L81.6789789,14.5028307 L80.7121133,17.0005667 L79.7882196,17.0005667 L82.8929323,9.11524086 L83.6610533,9.11524086 L86.7496516,17.0005667 L85.804272,17.0005667 Z M84.5419753,13.6809949 L83.6288245,11.2477166 C83.5106514,10.9397505 83.3888992,10.5619605 83.2635641,10.1143353 C83.1847821,10.4581114 83.0719822,10.8359014 82.9251612,11.2477166 L82.0012674,13.6809949 L84.5419753,13.6809949 Z M93.9635431,17.0005667 L92.9214769,17.0005667 L88.629668,10.4097664 L88.5866962,10.4097664 C88.6439922,11.1832627 88.6726398,11.8922904 88.6726398,12.5368707 L88.6726398,17.0005667 L87.8293182,17.0005667 L87.8293182,9.14746971 L88.8606415,9.14746971 L93.1417073,15.7114126 L93.1846791,15.7114126 C93.1775171,15.6147256 93.1614029,15.3040784 93.1363359,14.7794616 C93.1112689,14.2548449 93.1023165,13.8797406 93.1094785,13.6541376 L93.1094785,9.14746971 L93.9635431,9.14746971 L93.9635431,17.0005667 Z M102.391388,12.9988176 C102.391388,14.2951401 102.03956,15.2861674 101.335893,15.9719292 C100.632226,16.657691 99.6197133,17.0005667 98.2983237,17.0005667 L96.1228762,17.0005667 L96.1228762,9.14746971 L98.5292971,9.14746971 C99.7504187,9.14746971 100.69937,9.48586928 101.376179,10.1626786 C102.052988,10.8394878 102.391388,11.7848581 102.391388,12.9988176 Z M101.424522,13.0310464 C101.424522,12.00688 101.167589,11.2351857 100.653716,10.7159405 C100.139842,10.1966953 99.3762048,9.9370766 98.3627814,9.9370766 L97.036027,9.9370766 L97.036027,16.2109598 L98.1479224,16.2109598 C99.2365468,16.2109598 100.054793,15.943284 100.602687,15.4079243 C101.15058,14.8725645 101.424522,14.0802798 101.424522,13.0310464 Z" id="ON-DEMAND"></path>
            <path d="M0,0 L32,0 L32,32 L0,32 L0,0 Z M8.30200364,5.65508685 C8.33406193,5.58613034 8.3420765,5.55165208 8.3420765,5.52579339 C8.3420765,5.37926081 7.55664845,5 6.79526412,5 C5.86557377,5 5.03205829,5.51717383 5.03205829,6.75839101 C5.03205829,7.47381481 5.30455373,7.81859736 5.72932605,8.0944234 C6.54681239,8.62883636 7.36429872,8.70641243 7.36429872,9.47355361 C7.36429872,10.0079666 7.09180328,10.2665535 6.64298725,10.2665535 C5.95373406,10.2665535 5.36065574,9.88729267 5.31256831,9.88729267 C5.28051002,9.88729267 5.24043716,9.92177093 5.22440801,9.97348831 L5.04007286,10.5423795 C5.02404372,10.5940969 5,10.6544339 5,10.6802925 C5,10.8182056 5.8575592,11.1974664 6.67504554,11.1974664 C7.6848816,11.1974664 8.40619308,10.473423 8.40619308,9.37873841 C8.40619308,8.72365156 8.12568306,8.26681468 7.71693989,7.93927126 C7.01165756,7.37899961 6.07395264,7.25832572 6.07395264,6.60323887 C6.07395264,6.08606504 6.45865209,5.93091289 6.8273224,5.93091289 C7.40437158,5.93091289 7.90127505,6.3101737 7.94936248,6.3101737 C7.98142077,6.3101737 8.01347905,6.27569544 8.03752277,6.22397806 L8.30200364,5.65508685 Z M13.0225865,8.10304297 C13.0225865,6.01710853 12.2612022,5 11.0269581,5 C9.79271403,5 9.03132969,6.00848896 9.03132969,8.10304297 C9.03132969,10.1889774 9.78469945,11.1974664 11.0269581,11.1974664 C12.2692168,11.1974664 13.0225865,10.1889774 13.0225865,8.10304297 Z M11.0269581,10.2924122 C10.4258652,10.2924122 10.1693989,9.44769492 10.1693989,8.10304297 C10.1693989,6.75839101 10.4258652,5.9050542 11.0269581,5.9050542 C11.628051,5.9050542 11.8845173,6.74977145 11.8845173,8.10304297 C11.8845173,9.44769492 11.628051,10.2924122 11.0269581,10.2924122 Z M17.863388,5.32754342 C17.863388,5.17239128 17.8313297,5.14653258 17.695082,5.14653258 L16.9497268,5.14653258 C16.8134791,5.14653258 16.7814208,5.17239128 16.7814208,5.32754342 L16.7814208,9.05119498 C16.7814208,9.67180358 16.7413479,10.2665535 15.9318761,10.2665535 C15.1224044,10.2665535 15.0823315,9.67180358 15.0823315,9.05119498 L15.0823315,5.32754342 C15.0823315,5.17239128 15.0502732,5.14653258 14.9140255,5.14653258 L14.1686703,5.14653258 C14.0324226,5.14653258 14.0003643,5.17239128 14.0003643,5.32754342 L14.0003643,9.05119498 C14.0003643,10.33551 14.417122,11.1974664 15.9318761,11.1974664 C17.4466302,11.1974664 17.863388,10.33551 17.863388,9.05119498 L17.863388,5.32754342 Z M20.7406193,6.18088024 L21.7344262,6.18088024 C21.7985428,6.18088024 21.8867031,6.18088024 21.9187614,6.04296722 L22.0870674,5.36202168 C22.1030965,5.30168473 22.1111111,5.28444561 22.1111111,5.24134779 C22.1111111,5.16377171 22.0710383,5.14653258 21.9107468,5.14653258 L18.6087432,5.14653258 C18.4965392,5.14653258 18.4724954,5.17239128 18.4724954,5.29306517 L18.4724954,6.03434766 C18.4724954,6.15502155 18.4965392,6.18088024 18.6087432,6.18088024 L19.6586521,6.18088024 L19.6586521,10.8699229 C19.6586521,11.0250751 19.6907104,11.0509338 19.8269581,11.0509338 L20.5723133,11.0509338 C20.708561,11.0509338 20.7406193,11.0250751 20.7406193,10.8699229 L20.7406193,6.18088024 Z M26.382878,5.32754342 C26.382878,5.17239128 26.3508197,5.14653258 26.2145719,5.14653258 L25.4692168,5.14653258 C25.332969,5.14653258 25.3009107,5.17239128 25.3009107,5.32754342 L25.3009107,7.53415176 L23.7781421,7.53415176 L23.7781421,5.32754342 C23.7781421,5.17239128 23.7460838,5.14653258 23.6098361,5.14653258 L22.8644809,5.14653258 C22.7282332,5.14653258 22.6961749,5.17239128 22.6961749,5.32754342 L22.6961749,10.8699229 C22.6961749,11.0250751 22.7282332,11.0509338 22.8644809,11.0509338 L23.6098361,11.0509338 C23.7460838,11.0509338 23.7781421,11.0250751 23.7781421,10.8699229 L23.7781421,8.46506465 L25.3009107,8.46506465 L25.3009107,10.8699229 C25.3009107,11.0250751 25.332969,11.0509338 25.4692168,11.0509338 L26.2145719,11.0509338 C26.3508197,11.0509338 26.382878,11.0250751 26.382878,10.8699229 L26.382878,5.32754342 Z M8.63060109,18.1419616 C8.63861566,18.1074833 8.64663024,18.055766 8.64663024,18.0299073 C8.64663024,17.9609508 8.61457195,17.9178529 8.50236794,17.9178529 L6.5708561,17.9178529 L6.5708561,13.2288102 C6.5708561,13.0736581 6.53879781,13.0477994 6.40255009,13.0477994 L5.6571949,13.0477994 C5.52094718,13.0477994 5.48888889,13.0736581 5.48888889,13.2288102 L5.48888889,18.7711898 C5.48888889,18.9263419 5.52094718,18.9522006 5.6571949,18.9522006 L8.30200364,18.9522006 C8.42222222,18.9522006 8.44626594,18.9349615 8.47832423,18.7970485 L8.63060109,18.1419616 Z M10.4499089,17.3748204 L11.8284153,17.3748204 L12.1810565,18.7711898 C12.2211293,18.9263419 12.2371585,18.9522006 12.3173042,18.9522006 L13.2149362,18.9522006 C13.295082,18.9522006 13.3752277,18.9349615 13.3752277,18.8832441 C13.3752277,18.8487658 13.351184,18.7798093 13.3431694,18.7453311 L11.7723133,13.1857124 C11.740255,13.0822777 11.7242259,13.0477994 11.6040073,13.0477994 L10.7704918,13.0477994 C10.6342441,13.0477994 10.6262295,13.0650385 10.5941712,13.1770929 L9.01530055,18.7280919 C9.00728597,18.7625702 8.98324226,18.8315267 8.98324226,18.8746245 C8.99125683,18.9349615 9.03934426,18.9522006 9.1435337,18.9522006 L9.95300546,18.9522006 C10.073224,18.9522006 10.0892532,18.9263419 10.1213115,18.7711898 L10.4499089,17.3748204 Z M11.628051,16.5990597 L10.5701275,16.5990597 L10.9227687,15.1164947 C11.0029144,14.7717122 11.0750455,14.2717775 11.1071038,13.9097558 L11.123133,13.9097558 C11.1632058,14.2717775 11.2273224,14.7803317 11.2994536,15.1164947 L11.628051,16.5990597 Z M15.3227687,16.3490923 L15.3387978,16.3490923 L17.1821494,18.9866789 C17.2061931,19.0297767 17.2703097,19.0987332 17.3183971,19.0987332 C17.3584699,19.0987332 17.3985428,19.0642549 17.4626594,19.0297767 L18.1038251,18.6849941 C18.1519126,18.6591354 18.2080146,18.607418 18.2080146,18.5815594 C18.2080146,18.4953637 18.1759563,18.4781246 18.1519126,18.4436463 L16.2684882,15.9267337 L17.975592,13.5046363 C17.9996357,13.470158 18.031694,13.4529189 18.031694,13.3667233 C18.031694,13.3408646 17.975592,13.2891472 17.9275046,13.2632885 L17.3825137,12.9702233 C17.3183971,12.9357451 17.2783242,12.9012668 17.2382514,12.9012668 C17.1901639,12.9012668 17.1260474,12.9702233 17.1020036,13.0133211 L15.3387978,15.6422881 L15.3227687,15.6422881 L15.3227687,13.2288102 C15.3227687,13.0736581 15.2907104,13.0477994 15.1544627,13.0477994 L14.4091075,13.0477994 C14.2728597,13.0477994 14.2408015,13.0736581 14.2408015,13.2288102 L14.2408015,18.7711898 C14.2408015,18.9263419 14.2728597,18.9522006 14.4091075,18.9522006 L15.1544627,18.9522006 C15.2907104,18.9522006 15.3227687,18.9263419 15.3227687,18.7711898 L15.3227687,16.3490923 Z M21.7344262,18.2022986 C21.7344262,18.0471464 21.7103825,18.0212877 21.5661202,18.0212877 L19.8510018,18.0212877 L19.8510018,16.3318532 L21.2134791,16.3318532 C21.3497268,16.3318532 21.3817851,16.3059945 21.3817851,16.1508424 L21.3817851,15.5819512 C21.3817851,15.426799 21.3577413,15.4009403 21.2134791,15.4009403 L19.8510018,15.4009403 L19.8510018,13.9787123 L21.4058288,13.9787123 C21.4699454,13.9787123 21.5581056,13.9700927 21.5901639,13.8407993 L21.7424408,13.2632885 C21.7584699,13.2029515 21.7664845,13.1857124 21.7664845,13.1426146 C21.7664845,13.0650385 21.7264117,13.0477994 21.5661202,13.0477994 L18.9373406,13.0477994 C18.8010929,13.0477994 18.7690346,13.0736581 18.7690346,13.2288102 L18.7690346,18.7711898 C18.7690346,18.9263419 18.8010929,18.9522006 18.9373406,18.9522006 L21.5741348,18.9522006 C21.7103825,18.9522006 21.7344262,18.9263419 21.7344262,18.7711898 L21.7344262,18.2022986 Z M9.2557377,21.1300771 C9.2557377,20.9749249 9.22367942,20.9490662 9.08743169,20.9490662 L8.3420765,20.9490662 C8.20582878,20.9490662 8.17377049,20.9749249 8.17377049,21.1300771 L8.17377049,24.8537286 C8.17377049,25.4743372 8.13369763,26.0690871 7.32422587,26.0690871 C6.5147541,26.0690871 6.47468124,25.4743372 6.47468124,24.8537286 L6.47468124,21.1300771 C6.47468124,20.9749249 6.44262295,20.9490662 6.30637523,20.9490662 L5.56102004,20.9490662 C5.42477231,20.9490662 5.39271403,20.9749249 5.39271403,21.1300771 L5.39271403,24.8537286 C5.39271403,26.1380436 5.80947177,27 7.32422587,27 C8.83897996,27 9.2557377,26.1380436 9.2557377,24.8537286 L9.2557377,21.1300771 Z M14.2327869,21.1300771 C14.2327869,20.9749249 14.2007286,20.9490662 14.0644809,20.9490662 L13.4794171,20.9490662 C13.3431694,20.9490662 13.3111111,20.9749249 13.3111111,21.1300771 L13.3111111,23.8624788 C13.3111111,24.1038266 13.3351548,24.707196 13.3351548,24.9830221 L13.3191257,24.9830221 C13.2229508,24.62962 13.070674,24.1900222 12.8462659,23.7331853 L11.5238616,21.0611205 C11.4757741,20.9663053 11.459745,20.9490662 11.3395264,20.9490662 L10.6823315,20.9490662 C10.5460838,20.9490662 10.5140255,20.9749249 10.5140255,21.1300771 L10.5140255,26.6724566 C10.5140255,26.8276087 10.5460838,26.8534674 10.6823315,26.8534674 L11.2673953,26.8534674 C11.403643,26.8534674 11.4357013,26.8276087 11.4357013,26.6724566 L11.4357013,23.5694136 C11.4357013,23.1729137 11.4116576,22.7333159 11.4116576,22.6212616 L11.4276867,22.6212616 C11.5078324,23.009142 11.6440801,23.3108267 11.8845173,23.7935223 L13.351184,26.7327935 C13.3992714,26.8362283 13.4233151,26.8534674 13.5355191,26.8534674 L14.0644809,26.8534674 C14.2087432,26.8534674 14.2327869,26.8276087 14.2327869,26.6724566 L14.2327869,21.1300771 Z M17.526776,26.2070001 C17.526776,26.051848 17.4947177,26.0259893 17.3584699,26.0259893 L16.9176685,26.0259893 L16.9176685,21.7765443 L17.3584699,21.7765443 C17.4947177,21.7765443 17.526776,21.7506856 17.526776,21.5955335 L17.526776,21.1300771 C17.526776,20.9749249 17.4947177,20.9490662 17.3584699,20.9490662 L15.3948998,20.9490662 C15.2586521,20.9490662 15.2265938,20.9749249 15.2265938,21.1300771 L15.2265938,21.5955335 C15.2265938,21.7506856 15.2586521,21.7765443 15.3948998,21.7765443 L15.8357013,21.7765443 L15.8357013,26.0259893 L15.3948998,26.0259893 C15.2586521,26.0259893 15.2265938,26.051848 15.2265938,26.2070001 L15.2265938,26.6724566 C15.2265938,26.8276087 15.2586521,26.8534674 15.3948998,26.8534674 L17.3584699,26.8534674 C17.4947177,26.8534674 17.526776,26.8276087 17.526776,26.6724566 L17.526776,26.2070001 Z M22.2313297,23.9055766 C22.2313297,21.8196422 21.4699454,20.8025336 20.2357013,20.8025336 C19.0014572,20.8025336 18.2400729,21.8110226 18.2400729,23.9055766 C18.2400729,25.991511 18.9934426,27 20.2357013,27 C21.4779599,27 22.2313297,25.991511 22.2313297,23.9055766 Z M20.2357013,26.0949458 C19.6346084,26.0949458 19.3781421,25.2502285 19.3781421,23.9055766 C19.3781421,22.5609246 19.6346084,21.7075878 20.2357013,21.7075878 C20.8367942,21.7075878 21.0932605,22.5523051 21.0932605,23.9055766 C21.0932605,25.2502285 20.8367942,26.0949458 20.2357013,26.0949458 Z M27,21.1300771 C27,20.9749249 26.9679417,20.9490662 26.831694,20.9490662 L26.2466302,20.9490662 C26.1103825,20.9490662 26.0783242,20.9749249 26.0783242,21.1300771 L26.0783242,23.8624788 C26.0783242,24.1038266 26.1023679,24.707196 26.1023679,24.9830221 L26.0863388,24.9830221 C25.9901639,24.62962 25.8378871,24.1900222 25.6134791,23.7331853 L24.2910747,21.0611205 C24.2429872,20.9663053 24.2269581,20.9490662 24.1067395,20.9490662 L23.4495446,20.9490662 C23.3132969,20.9490662 23.2812386,20.9749249 23.2812386,21.1300771 L23.2812386,26.6724566 C23.2812386,26.8276087 23.3132969,26.8534674 23.4495446,26.8534674 L24.0346084,26.8534674 C24.1708561,26.8534674 24.2029144,26.8276087 24.2029144,26.6724566 L24.2029144,23.5694136 C24.2029144,23.1729137 24.1788707,22.7333159 24.1788707,22.6212616 L24.1948998,22.6212616 C24.2750455,23.009142 24.4112933,23.3108267 24.6517304,23.7935223 L26.1183971,26.7327935 C26.1664845,26.8362283 26.1905282,26.8534674 26.3027322,26.8534674 L26.831694,26.8534674 C26.9759563,26.8534674 27,26.8276087 27,26.6724566 L27,21.1300771 Z" id="Combined-Shape"></path>
            <path d="M37.9599609,24 L37.2597656,24 L37.2597656,20.3173828 L36,20.3173828 L36,19.7167969 L39.2197266,19.7167969 L39.2197266,20.3173828 L37.9599609,20.3173828 L37.9599609,24 Z M40.5761719,21.7089844 L41.0625,21.7089844 C41.3886735,21.7089844 41.6249993,21.6484381 41.7714844,21.5273438 C41.9179695,21.4062494 41.9912109,21.2265637 41.9912109,20.9882812 C41.9912109,20.7460925 41.9121102,20.5722662 41.7539062,20.4667969 C41.5957023,20.3613276 41.3574235,20.3085938 41.0390625,20.3085938 L40.5761719,20.3085938 L40.5761719,21.7089844 Z M40.5761719,22.2890625 L40.5761719,24 L39.8759766,24 L39.8759766,19.7167969 L41.0859375,19.7167969 C41.6386746,19.7167969 42.0478502,19.8203115 42.3134766,20.0273438 C42.5791029,20.234376 42.7119141,20.5468729 42.7119141,20.9648438 C42.7119141,21.4980495 42.4345731,21.8779286 41.8798828,22.1044922 L43.0898438,24 L42.2929688,24 L41.2675781,22.2890625 L40.5761719,22.2890625 Z M46.3681641,24 L45.9404297,22.8105469 L44.3027344,22.8105469 L43.8837891,24 L43.1455078,24 L44.7480469,19.6992188 L45.5097656,19.6992188 L47.1123047,24 L46.3681641,24 Z M45.7558594,22.2070312 L45.3544922,21.0410156 C45.3251952,20.9628902 45.2846682,20.8398446 45.2329102,20.671875 C45.1811521,20.5039054 45.1455079,20.3808598 45.1259766,20.3027344 C45.0732419,20.54297 44.9960943,20.8056626 44.8945312,21.0908203 L44.5078125,22.2070312 L45.7558594,22.2070312 Z M51.2460938,24 L50.3876953,24 L48.28125,20.5869141 L48.2578125,20.5869141 L48.2724609,20.7773438 C48.2998048,21.1406268 48.3134766,21.4726547 48.3134766,21.7734375 L48.3134766,24 L47.6777344,24 L47.6777344,19.7167969 L48.5273438,19.7167969 L50.6279297,23.1123047 L50.6455078,23.1123047 C50.6416015,23.0673826 50.6337891,22.90381 50.6220703,22.621582 C50.6103515,22.3393541 50.6044922,22.1191414 50.6044922,21.9609375 L50.6044922,19.7167969 L51.2460938,19.7167969 L51.2460938,24 Z M54.8466797,22.8369141 C54.8466797,23.2177753 54.7089858,23.5166005 54.4335938,23.7333984 C54.1582017,23.9501964 53.7783227,24.0585938 53.2939453,24.0585938 C52.8095679,24.0585938 52.4130875,23.9833992 52.1044922,23.8330078 L52.1044922,23.1708984 C52.2998057,23.2626958 52.5073231,23.3349607 52.7270508,23.3876953 C52.9467784,23.44043 53.1513662,23.4667969 53.3408203,23.4667969 C53.6181654,23.4667969 53.8227532,23.414063 53.9545898,23.3085938 C54.0864264,23.2031245 54.1523438,23.0615243 54.1523438,22.8837891 C54.1523438,22.723632 54.0917975,22.5878912 53.9707031,22.4765625 C53.8496088,22.3652338 53.5996113,22.2333992 53.2207031,22.0810547 C52.8300762,21.9228508 52.5546883,21.7421885 52.3945312,21.5390625 C52.2343742,21.3359365 52.1542969,21.0917983 52.1542969,20.8066406 C52.1542969,20.449217 52.2812487,20.1679698 52.5351562,19.9628906 C52.7890638,19.7578115 53.1298807,19.6552734 53.5576172,19.6552734 C53.9677755,19.6552734 54.3759745,19.7451163 54.7822266,19.9248047 L54.5595703,20.4960938 C54.178709,20.3359367 53.8388687,20.2558594 53.5400391,20.2558594 C53.3134754,20.2558594 53.1416021,20.3051753 53.0244141,20.4038086 C52.907226,20.5024419 52.8486328,20.6328117 52.8486328,20.7949219 C52.8486328,20.9062506 52.8720701,21.0014644 52.9189453,21.0805664 C52.9658205,21.1596684 53.0429682,21.2343746 53.1503906,21.3046875 C53.257813,21.3750004 53.4511705,21.4677729 53.7304688,21.5830078 C54.0449234,21.7138678 54.2753899,21.8359369 54.421875,21.9492188 C54.5683601,22.0625006 54.6757809,22.190429 54.7441406,22.3330078 C54.8125003,22.4755867 54.8466797,22.6435537 54.8466797,22.8369141 Z M58.5117188,21.0117188 C58.5117188,21.4589866 58.3652358,21.8017566 58.0722656,22.0400391 C57.7792954,22.2783215 57.3623074,22.3974609 56.8212891,22.3974609 L56.3759766,22.3974609 L56.3759766,24 L55.6757812,24 L55.6757812,19.7167969 L56.9091797,19.7167969 C57.4443386,19.7167969 57.8452135,19.8261708 58.1118164,20.0449219 C58.3784193,20.263673 58.5117188,20.5859354 58.5117188,21.0117188 Z M56.3759766,21.8085938 L56.7480469,21.8085938 C57.1074237,21.8085938 57.3710929,21.7460944 57.5390625,21.6210938 C57.7070321,21.4960931 57.7910156,21.3007826 57.7910156,21.0351562 C57.7910156,20.7890613 57.7158211,20.6054694 57.5654297,20.484375 C57.4150383,20.3632806 57.1806657,20.3027344 56.8623047,20.3027344 L56.3759766,20.3027344 L56.3759766,21.8085938 Z M63.1699219,21.8525391 C63.1699219,22.5498082 62.9956072,23.0917949 62.6469727,23.4785156 C62.2983381,23.8652363 61.8046907,24.0585938 61.1660156,24.0585938 C60.519528,24.0585938 60.022951,23.8667011 59.6762695,23.4829102 C59.3295881,23.0991192 59.15625,22.5537145 59.15625,21.8466797 C59.15625,21.1396449 59.3305647,20.5966816 59.6791992,20.2177734 C60.0278338,19.8388653 60.5253874,19.6494141 61.171875,19.6494141 C61.8085969,19.6494141 62.3007795,19.841795 62.6484375,20.2265625 C62.9960955,20.61133 63.1699219,21.1533168 63.1699219,21.8525391 Z M59.9003906,21.8525391 C59.9003906,22.3798854 60.0068349,22.7797838 60.2197266,23.0522461 C60.4326183,23.3247084 60.7480448,23.4609375 61.1660156,23.4609375 C61.5820333,23.4609375 61.895995,23.3261732 62.1079102,23.0566406 C62.3198253,22.787108 62.4257812,22.3857449 62.4257812,21.8525391 C62.4257812,21.3271458 62.3208018,20.9287123 62.1108398,20.6572266 C61.9008779,20.3857408 61.5878927,20.25 61.171875,20.25 C60.751951,20.25 60.4350597,20.3857408 60.2211914,20.6572266 C60.0073231,20.9287123 59.9003906,21.3271458 59.9003906,21.8525391 Z M64.7900391,21.7089844 L65.2763672,21.7089844 C65.6025407,21.7089844 65.8388665,21.6484381 65.9853516,21.5273438 C66.1318367,21.4062494 66.2050781,21.2265637 66.2050781,20.9882812 C66.2050781,20.7460925 66.1259774,20.5722662 65.9677734,20.4667969 C65.8095695,20.3613276 65.5712907,20.3085938 65.2529297,20.3085938 L64.7900391,20.3085938 L64.7900391,21.7089844 Z M64.7900391,22.2890625 L64.7900391,24 L64.0898438,24 L64.0898438,19.7167969 L65.2998047,19.7167969 C65.8525418,19.7167969 66.2617174,19.8203115 66.5273438,20.0273438 C66.7929701,20.234376 66.9257812,20.5468729 66.9257812,20.9648438 C66.9257812,21.4980495 66.6484403,21.8779286 66.09375,22.1044922 L67.3037109,24 L66.5068359,24 L65.4814453,22.2890625 L64.7900391,22.2890625 Z M69.4042969,24 L68.7041016,24 L68.7041016,20.3173828 L67.4443359,20.3173828 L67.4443359,19.7167969 L70.6640625,19.7167969 L70.6640625,20.3173828 L69.4042969,20.3173828 L69.4042969,24 Z M73.5585938,24 L73.1308594,22.8105469 L71.4931641,22.8105469 L71.0742188,24 L70.3359375,24 L71.9384766,19.6992188 L72.7001953,19.6992188 L74.3027344,24 L73.5585938,24 Z M72.9462891,22.2070312 L72.5449219,21.0410156 C72.5156249,20.9628902 72.4750979,20.8398446 72.4233398,20.671875 C72.3715818,20.5039054 72.3359376,20.3808598 72.3164062,20.3027344 C72.2636716,20.54297 72.1865239,20.8056626 72.0849609,21.0908203 L71.6982422,22.2070312 L72.9462891,22.2070312 Z M75.9287109,24 L75.2285156,24 L75.2285156,20.3173828 L73.96875,20.3173828 L73.96875,19.7167969 L77.1884766,19.7167969 L77.1884766,20.3173828 L75.9287109,20.3173828 L75.9287109,24 Z M77.8447266,24 L77.8447266,19.7167969 L78.5449219,19.7167969 L78.5449219,24 L77.8447266,24 Z M83.4785156,21.8525391 C83.4785156,22.5498082 83.304201,23.0917949 82.9555664,23.4785156 C82.6069319,23.8652363 82.1132844,24.0585938 81.4746094,24.0585938 C80.8281218,24.0585938 80.3315447,23.8667011 79.9848633,23.4829102 C79.6381819,23.0991192 79.4648438,22.5537145 79.4648438,21.8466797 C79.4648438,21.1396449 79.6391584,20.5966816 79.987793,20.2177734 C80.3364275,19.8388653 80.8339811,19.6494141 81.4804688,19.6494141 C82.1171907,19.6494141 82.6093733,19.841795 82.9570312,20.2265625 C83.3046892,20.61133 83.4785156,21.1533168 83.4785156,21.8525391 Z M80.2089844,21.8525391 C80.2089844,22.3798854 80.3154286,22.7797838 80.5283203,23.0522461 C80.741212,23.3247084 81.0566385,23.4609375 81.4746094,23.4609375 C81.8906271,23.4609375 82.2045888,23.3261732 82.4165039,23.0566406 C82.628419,22.787108 82.734375,22.3857449 82.734375,21.8525391 C82.734375,21.3271458 82.6293956,20.9287123 82.4194336,20.6572266 C82.2094716,20.3857408 81.8964865,20.25 81.4804688,20.25 C81.0605448,20.25 80.7436534,20.3857408 80.5297852,20.6572266 C80.3159169,20.9287123 80.2089844,21.3271458 80.2089844,21.8525391 Z M87.9667969,24 L87.1083984,24 L85.0019531,20.5869141 L84.9785156,20.5869141 L84.9931641,20.7773438 C85.0205079,21.1406268 85.0341797,21.4726547 85.0341797,21.7734375 L85.0341797,24 L84.3984375,24 L84.3984375,19.7167969 L85.2480469,19.7167969 L87.3486328,23.1123047 L87.3662109,23.1123047 C87.3623047,23.0673826 87.3544922,22.90381 87.3427734,22.621582 C87.3310546,22.3393541 87.3251953,22.1191414 87.3251953,21.9609375 L87.3251953,19.7167969 L87.9667969,19.7167969 L87.9667969,24 Z" id="TRANSPORTATION"></path>
        </g>
    </g>
</svg>