<?xml version="1.0" encoding="UTF-8"?>
<svg width="436px" height="55px" viewBox="0 0 436 55" version="1.1" xmlns="http://www.w3.org/2000/svg" xmlns:xlink="http://www.w3.org/1999/xlink">
    <!-- Generator: Sketch 44 (41411) - http://www.bohemiancoding.com/sketch -->
    <title>logo-stanford-full-white</title>
    <desc>Created with Sketch.</desc>
    <defs></defs>
    <g id="Page-1" stroke="none" stroke-width="1" fill="none" fill-rule="evenodd">
        <g id="Artboard" transform="translate(-500.000000, -118.000000)" fill="#FFFFFF">
            <g id="logo-stanford-full-white" transform="translate(500.000000, 118.000000)">
                <g id="Group-2" transform="translate(0.000000, 0.836431)">
                    <path d="M114.079093,0 C115.506579,0.531860695 116.950128,1.02527363 118.355126,1.609466 C119.278226,1.99394361 119.383172,2.61658374 118.708517,3.40903482 C118.155941,4.05837478 117.671903,4.76859037 117.197502,5.47773796 C116.622438,6.33747262 116.217645,6.37698837 115.688629,5.3912305 C114.641306,3.4432106 113.077818,2.64648755 111.191994,2.9615456 C109.343652,3.26912769 108.290974,4.31042121 108.187099,6.38446433 C108.057522,8.97755221 108.156043,11.58132 108.156043,14.2972272 L113.442989,14.2972272 L113.442989,17.4179038 L108.244926,17.4179038 C108.159256,17.7393698 108.060735,17.9337446 108.061805,18.1270514 C108.065018,23.5054659 108.014687,28.8838805 108.11642,34.2601591 C108.171035,37.1618971 108.824274,37.6980297 111.711372,37.9009485 C111.923407,37.9159004 112.136512,37.9308523 112.439572,37.9511442 C112.469557,38.3217379 112.499541,38.6869916 112.53381,39.102441 L99,39.102441 L99,38.1017312 C99.14564,38.0632835 99.2987761,38.0109518 99.4551249,37.982116 C101.260632,37.652106 102.177308,36.9675223 102.203009,35.3003846 C102.296176,29.4200132 102.239419,23.5364377 102.239419,17.5172271 L99.3566038,17.5172271 C99.0257012,16.5538971 99.1242223,15.9430049 100.111576,15.6695986 C101.990974,15.1484179 102.675268,13.9821691 102.542478,11.9764776 C102.428965,10.2623482 102.679551,8.47239135 103.07899,6.78923381 C103.972106,3.03416915 106.486538,0.909930346 110.28817,0.272338308 C110.614789,0.216802653 110.930699,0.0918474293 111.251964,0 L114.079093,0 Z" id="Fill-4"></path>
                    <path d="M180.112211,26.5065273 C180.112211,24.0341227 180.144337,21.56065 180.084368,19.0893134 C180.072588,18.6129883 179.832711,17.9711243 179.473965,17.70199 C175.870446,14.9903548 170.369324,16.5934129 168.857239,20.8173266 C167.817412,23.7244046 167.66963,26.7265339 168.366775,29.7478871 C169.725724,35.6368026 174.876668,36.368378 178.798238,35.3495123 C179.756678,35.1006699 180.177535,34.606189 180.138983,33.5403316 C180.053312,31.1982221 180.112211,28.8518407 180.112211,26.5065273 M188.956627,36.8628589 L188.956627,37.8902685 C186.27728,38.3580496 183.68039,38.8343747 181.07065,39.2263282 C180.82756,39.26264 180.400278,38.8055389 180.245,38.4872768 C180.094006,38.1786268 180.182889,37.7535654 180.168968,37.4288954 C178.580849,38.0120198 177.079472,38.7948589 175.483858,39.108849 C168.315372,40.5207362 162.586152,36.0266201 162.053924,28.6809618 C161.872945,26.1871973 162.136382,23.7425605 163.013434,21.3812271 C164.769681,16.6574925 169.138881,13.6297313 174.414047,13.517592 C176.242042,13.4780762 178.07218,13.511184 180.105786,13.511184 C180.105786,11.6528756 180.114353,9.53611274 180.101502,7.42041789 C180.096148,6.61087892 180.056525,5.80027196 180.007264,4.99180098 C179.900176,3.19543614 179.520013,2.72872304 177.746632,2.51298838 C176.90706,2.41046102 176.733577,2.0761791 176.969172,1.39052736 C179.90446,0.927018239 182.799054,0.46991708 185.772894,0 C185.772894,1.51014262 185.771823,2.98504145 185.772894,4.45887229 C185.773965,14.1017844 185.733272,23.7446964 185.802879,33.3865405 C185.823226,36.2177909 186.062033,36.3245903 188.956627,36.8628589" id="Fill-6"></path>
                    <path d="M95.1317318,39.2625633 L82.4032256,39.2625633 C82.8926188,38.7424506 83.1292838,38.2703975 83.4837458,38.1529182 C85.4049085,37.5163942 85.9660508,37.0123013 86.0067443,34.970298 C86.0902731,30.7506562 86.1438172,26.5246065 86.0035317,22.3081687 C85.8996561,19.1586563 84.1391257,17.6132699 80.9982281,17.4787027 C80.7412164,17.4680228 80.4842046,17.4733627 80.2282638,17.4883146 C76.3302525,17.7318171 76.1225013,17.9400758 76.1353519,21.783784 C76.1503442,26.1390609 76.1653366,30.4943378 76.2210225,34.8496148 C76.243511,36.5915119 76.7061321,37.9339796 78.8275498,38.1796181 C79.1102627,38.2127259 79.3330062,38.7606065 79.6532,39.154696 L73.2097016,39.154696 L67.0671211,39.154696 C66.8968508,38.6014754 67.0071517,38.2394257 67.9088346,38.0813627 C69.4990947,37.8015484 70.3001146,36.9866695 70.3247449,35.3836114 C70.4082737,29.9667491 70.3900687,24.5488188 70.378289,19.1308884 C70.3750763,17.7894888 69.5654894,17.107041 68.2632966,17.0450974 C67.341267,17.0013097 66.877575,16.6883876 67.2309661,15.668454 C68.9797168,15.4655352 70.7520269,15.2935883 72.5125573,15.0415418 C73.2236231,14.9400825 73.9282636,14.7136679 74.6029194,14.4584175 C75.9511601,13.9468486 75.9404513,13.9222848 75.9832866,15.3181521 C75.9897119,15.5296148 76.0036334,15.7400095 76.0154131,15.9610841 C77.5328532,15.3800957 78.9753316,14.6090045 80.5109767,14.3024904 C82.0755356,13.9885004 83.763246,13.9051969 85.3438682,14.1177276 C89.0962396,14.6228884 91.484307,17.276852 91.6427975,21.0714324 C91.8173513,25.2483544 91.8066425,29.4338204 91.8858878,33.6160824 C91.8998093,34.3401819 91.9340775,35.0664174 92.011181,35.7862449 C92.1578919,37.1575484 92.9310688,37.9766993 94.3157196,38.1048585 C95.112456,38.1785501 95.3908853,38.4978801 95.1317318,39.2625633" id="Fill-8"></path>
                    <path d="M0.0172104589,30.6541669 L1.24551238,30.6541669 C2.20930639,34.8065251 4.87044875,36.4747307 9.58018881,35.9321901 C9.83505878,35.9022863 10.0856452,35.8424787 10.3405152,35.8083029 C12.4726417,35.5242167 14.2567315,34.6997258 14.8917647,32.4654837 C15.5792711,30.0454107 15.2997708,27.7353411 13.2715199,26.0308236 C11.7069609,24.7161238 9.96035201,23.6171586 8.28763395,22.432754 C7.03255998,21.5431155 5.73786335,20.7079447 4.5117032,19.7819945 C1.20267709,17.280754 0.0193522234,13.9571587 0.947807121,9.94897958 C1.84627732,6.07643564 4.56417643,4.11773581 8.30690984,3.37761641 C12.2370476,2.60011724 16.1275628,3.19285356 20.08126,3.64461475 L20.08126,10.8268701 C19.289878,11.2134837 18.8304696,11.0479447 18.7362319,10.0803428 C18.5359769,8.01697958 17.3376597,6.73752353 15.3426061,6.48334111 C13.4589243,6.24304261 11.5163439,6.15973912 9.62944939,6.33061806 C7.98457428,6.47906914 6.61705767,7.43705919 6.15550743,9.15012054 C5.64790925,11.0351288 5.64576748,12.9660608 7.20711378,14.390764 C8.49217246,15.5623527 9.97427347,16.5267507 11.4071139,17.5285285 C13.051989,18.6787573 14.7546918,19.7467507 16.4070631,20.8884356 C20.3575476,23.6171586 21.4252172,27.4587308 20.362902,31.9165351 C19.335926,36.2280243 16.0483175,38.0713808 11.988603,38.7655765 C8.3090516,39.3946246 4.66591024,39.0411188 1.06024976,38.0874007 C0.227103377,37.8673941 -0.0191995371,37.4957324 0.00114722537,36.6787175 C0.0504078081,34.6847739 0.0172104589,32.6876263 0.0172104589,30.6541669" id="Fill-10"></path>
                    <path d="M122.328058,32.6690293 C123.379544,34.7624031 124.936727,36.0812681 127.400827,36.100492 C129.933464,36.1207838 131.68864,34.8488037 132.602102,32.6273775 C134.437594,28.1642333 134.400114,23.6370094 132.413627,19.2176529 C131.461613,17.10089 129.744988,15.9560011 127.334433,15.9666811 C124.921735,15.977361 123.141929,17.1233179 122.31842,19.2785285 C121.524896,21.3525716 121.276572,23.0997019 121.276572,25.7696854 C121.276572,25.7696854 121.16341,27.1374242 121.276572,28.4396688 C121.389734,29.7419133 121.776725,31.571396 122.328058,32.6690293 Z M139.173036,30.2777921 C137.456411,36.4871056 131.896391,39.9036163 125.211944,38.9434903 C118.874463,38.0335599 115.111383,33.845958 115.003224,27.3578983 C114.973239,25.5059978 115.149934,23.5825417 115.638257,21.8032648 C117.288486,15.7958021 122.34305,12.4914307 128.683744,13.0638751 C135.907916,13.7164191 139.813423,18.1133477 139.992261,25.639497 C139.726682,27.1870193 139.589609,28.7708535 139.173036,30.2777921 Z" id="Fill-12"></path>
                    <path d="M56.3020531,25.8987747 C53.9760968,26.508599 51.8171983,27.0895873 50.0630932,28.4801147 C48.7169942,29.5459721 48.4621242,31.1266023 48.8101609,32.7926719 C49.0853777,34.1041678 49.8831849,34.9457465 51.1661019,35.2042009 C52.7124558,35.516055 54.2438174,35.352652 55.6348934,34.544181 C55.920819,34.3775741 56.2677848,34.0027084 56.2731392,33.7186222 C56.3223998,31.172526 56.3020531,28.6253618 56.3020531,25.8987747 M46.3985342,19.3284796 C45.1273969,19.0636172 45.0652858,18.3801015 45.6135775,17.3868676 C46.6812471,15.4548676 48.2832869,14.1807516 50.3661528,13.5335476 C52.7167393,12.8019721 55.1080194,12.826536 57.4371882,13.5837433 C60.6112832,14.6154249 61.840656,17.1166653 61.9124051,20.1999622 C61.9959339,23.7788079 61.8577901,27.3629936 61.8256636,30.9439754 C61.8192383,31.7086586 61.7892536,32.4829538 61.8877748,33.2369571 C62.1544245,35.2907084 62.9575861,35.7211097 64.8466224,34.8603071 C65.0661533,35.0995376 65.2942512,35.347312 65.5662553,35.6431462 C64.7191874,36.9834779 63.6429508,38.0322473 62.140503,38.5598361 C59.8359644,39.368307 57.9415738,38.6890633 56.4530475,36.5114248 C54.5276012,38.256526 52.2626853,38.9891694 49.6572288,38.8610102 C46.0719151,38.6826553 43.8230624,36.9322142 43.1708951,33.6534746 C42.4737508,30.1483203 43.9322924,27.1365791 47.1299467,25.7844995 C48.9740059,25.0048643 50.9037357,24.4238759 52.8002682,23.770264 C53.4449393,23.5481214 54.0960357,23.2982109 54.7642662,23.1988875 C56.1050107,23.0002408 56.4637563,22.2740053 56.3234707,20.9945492 C56.1017981,18.9739058 55.3810943,17.3697797 53.3250004,16.6488842 C51.1768107,15.8959489 48.6977183,16.5399489 47.2423894,18.2316504 C46.9393297,18.5830202 46.6737509,18.9685658 46.3985342,19.3284796" id="Fill-14"></path>
                    <path d="M31.8619537,13.793864 L40.2823007,13.793864 L40.2823007,16.9081326 L32.0011684,16.9081326 C31.9529787,17.338534 31.886584,17.658932 31.8855131,17.980398 C31.8790878,22.2075157 31.8812296,26.4357014 31.8823005,30.6628192 C31.8823005,30.8764178 31.8855131,31.0900165 31.8994346,31.3025472 C32.159659,35.3438341 34.5852073,36.9746599 38.4639427,35.7112238 C38.9019335,35.5691807 39.3270738,35.3865538 40.1420152,35.3865538 C40.0081549,35.845791 40.0113675,36.4310513 39.7190167,36.7450414 C37.3330911,39.3103614 31.6156508,39.85931 28.7510408,37.8173067 C27.0547634,36.6083382 26.3094293,34.8376052 26.2826573,32.8383217 C26.2173335,28.0579834 26.2590979,23.2765771 26.2569561,18.4951708 C26.2569561,18.0337976 26.2569561,17.5734925 26.2569561,16.9455124 C25.2995874,16.9455124 24.4557322,16.9764842 23.6172314,16.9252205 C23.3923461,16.9113366 23.0368132,16.6710381 23.0046868,16.4894792 C22.9672059,16.2780166 23.1610356,15.8753831 23.3537944,15.7952836 C26.6703167,14.4261161 28.7028511,11.7956484 30.4248298,8.81701492 C30.6261556,8.46991708 31.2215662,8.35030182 31.8619537,8 L31.8619537,13.793864 Z" id="Fill-16"></path>
                    <path d="M150.90974,14.1629005 C150.956859,14.6947612 151.009332,15.2736136 151.07894,16.0585887 C151.526568,15.7745025 151.888527,15.531 152.264406,15.3099253 C154.834524,13.7955108 157.474248,13.5189005 160.201785,14.877388 C161.161296,15.3558491 161.36048,16.0286849 160.792912,16.9642471 C160.306732,17.7663101 159.894442,18.6110928 159.435034,19.4291757 C158.850332,20.4736733 158.335238,20.5238689 157.527792,19.6352985 C156.141,18.1091359 154.097757,17.5986351 152.158389,18.2298192 C151.326313,18.5000215 151.076798,18.9912985 151.087507,19.8456932 C151.148547,24.6238955 151.135696,29.4031658 151.184957,34.1813681 C151.2128,36.9602868 151.871392,37.6085588 154.664253,37.7869137 C154.915911,37.8029336 155.167568,37.8242934 155.496329,37.8488573 L155.496329,39.0887976 L142.069607,39.0887976 C142.049261,38.8068473 142.023559,38.4544095 142,38.1179916 C144.847476,37.3671923 145.342223,36.9207711 145.39898,34.1087445 C145.49643,29.206655 145.481438,24.3013615 145.407547,19.3982039 C145.379704,17.5099917 144.908516,17.0849303 143.046252,16.8777396 C141.896124,16.7495804 142.032126,16.1344162 142.184192,15.4818723 C145.118409,15.038655 147.963743,14.6082537 150.90974,14.1629005" id="Fill-18"></path>
                </g>
                <g id="Group" transform="translate(202.252788, 3.509294)">
                    <path d="M12.061735,0.631675779 C12.4549778,0.63508576 12.8465034,0.931754072 13.238029,1.09202316 C12.9083232,1.4364312 12.6266996,2.00419297 12.2386084,2.09114747 C10.4046202,2.49693517 9.79329084,3.7739729 9.78642197,5.39541867 C9.75722928,12.2102649 9.68510615,19.0268161 9.84309015,25.8382524 C9.90834441,28.7026361 10.758367,31.524395 13.8630961,32.6258187 C17.4744043,33.9079714 21.1681389,34.0921104 24.4737824,31.7341088 C26.5533327,30.2490623 26.9912231,27.8143361 27.0393052,25.5074842 C27.1783998,18.696048 27.1234489,11.8794968 27.1114283,5.06635555 C27.1079939,3.5455042 26.4331275,2.4901152 24.810357,2.11331235 C24.3741838,2.01271792 24.0324575,1.5063358 23.8710391,0.761255042 L35.9877251,0.761255042 C35.2939693,1.42279128 34.9831529,1.9820281 34.5658691,2.07409757 C32.5137943,2.52592 32.0467112,3.99732663 32.0329734,5.75176165 C31.9934774,11.0662164 32.0226701,16.3823762 31.9539814,21.6985359 C31.9299404,23.5331055 31.8303418,25.3847249 31.540132,27.1937196 C30.7879908,31.8926729 28.158931,35.1645493 23.3747633,36.0340943 C20.3816533,36.5779862 17.1979323,36.7740601 14.185933,36.4126022 C7.045743,35.5566971 4.00283376,31.9335927 3.83282924,24.5663296 C3.69545185,18.5732887 3.69888628,12.5768378 3.71434124,6.58038693 C3.71949289,4.40481931 3.64908698,2.42362058 0.877498092,1.94281332 C0.60789496,1.89507359 0.43617322,1.29832699 0,0.611215896 C4.3909249,0.611215896 8.22718857,0.597575973 12.061735,0.631675779 Z" id="Fill-20"></path>
                    <path d="M44.1880944,12.6141349 C46.8563126,10.9551184 49.6954608,10.2095893 52.8029691,10.531795 C57.10186,10.9756847 59.8042642,13.678442 59.9717756,18.0573544 C60.1187755,21.8895454 60.0504034,25.7303057 60.0982639,29.5676383 C60.1085197,30.4537039 60.2179149,31.3397696 60.2503916,32.2275491 C60.3119264,33.8625715 60.992228,34.9508727 62.69811,35.2816476 C63.028005,35.3450605 63.3014931,35.7118265 63.4177255,36.3442409 L50.9483781,36.3442409 C50.880006,36.2139875 50.8099247,36.085448 50.7398434,35.9569085 C51.0885407,35.7032572 51.4047613,35.3244941 51.7944818,35.2199487 C53.3499453,34.8034807 54.1105841,33.7357459 54.132805,32.2344045 C54.2028863,27.7852239 54.4575721,23.3154769 54.1174213,18.8937181 C53.7806891,14.535372 48.3160552,12.3861915 44.714559,14.9621231 C44.3641524,15.2140606 44.1248503,15.8567581 44.1214317,16.3212141 C44.0821178,21.2554172 44.0530597,26.1896202 44.1265596,31.1221093 C44.157327,33.0913345 44.4427802,35.0554181 47.040917,35.3296357 C47.1913355,35.3467743 47.3468818,35.5627207 47.4426026,35.7203958 C47.5024282,35.8197997 47.4528584,35.9843302 47.4528584,36.3065359 L34.375,36.3065359 C35.0570109,35.7598146 35.3424641,35.3587713 35.7065451,35.2662229 C37.434648,34.8309024 38.2414378,33.6500529 38.2585308,31.9876087 C38.316647,26.645507 38.3081005,21.2999775 38.2892982,15.9578758 C38.2841703,14.4565344 37.3474736,13.8172646 35.9509751,13.5978906 C35.5971499,13.5413332 35.3082781,13.0820187 34.9886389,12.8060872 C35.3031502,12.5438666 35.5903127,12.1016908 35.9373007,12.0485611 C38.5320189,11.6406624 41.1404115,11.3098874 43.8650366,10.9379798 C43.9368272,11.3081736 44.0496411,11.8925998 44.1880944,12.6141349 Z" id="Fill-22"></path>
                    <path d="M223.551472,11.7331812 L233.761349,11.7331812 C233.538916,12.2935931 233.445527,12.8067414 233.165363,13.1814747 C232.239971,14.4221456 230.876503,15.4686981 230.338247,16.8444081 C226.847226,25.7536074 223.576941,34.7488941 220.141953,43.6800373 C217.864979,49.5998103 213.686281,51.851586 207.85716,50.4961318 C207.463231,50.4032925 207.009874,50.3475889 206.711032,50.1146466 C205.970718,49.5356668 204.605552,48.539754 204.726108,48.2831799 C205.247384,47.1724839 206.188058,46.2440907 207.054021,45.3224493 C207.13043,45.2414259 207.841878,45.6127832 208.14072,45.8946772 C210.426184,48.0569895 213.423097,47.9151985 215.065031,45.2245461 C216.38605,43.0571698 217.284274,40.6230915 218.238532,38.2548446 C218.447382,37.7366324 218.211364,36.9500301 217.983837,36.3609224 C215.323122,29.5161321 212.677689,22.6629018 209.881137,15.8721271 C209.449853,14.8238867 208.26637,14.0896121 207.464929,13.1814747 C207.164389,12.8421891 206.960633,12.4168162 206.542933,11.7669409 L218.696983,11.7669409 C218.168915,12.4252561 217.929502,13.0430597 217.540667,13.1544668 C215.596495,13.7182548 215.630454,14.9791816 216.197575,16.4831787 C217.856489,20.8938907 219.525591,25.3029147 221.294873,29.9904566 C221.600507,29.396285 221.846712,29.0333676 221.984248,28.6333145 C223.379977,24.5568241 224.762122,20.4735817 226.140872,16.3903394 C226.636678,14.918414 226.500841,13.7587665 224.740049,13.1966665 C224.330839,13.0666915 224.088029,12.4201922 223.551472,11.7331812" id="Fill-24"></path>
                    <path d="M121.062173,19.2226294 C121.020016,15.1283698 119.536398,13.3135904 116.384319,13.3608757 C113.504641,13.4032695 111.7697,15.6256813 111.897794,19.2226294 L121.062173,19.2226294 Z M111.829693,22.177149 C111.408119,30.6428583 117.191796,34.1354526 125.436819,30.7602564 C126.461569,31.4923642 126.254025,32.1902308 125.38169,32.8978807 C121.410783,36.1149154 116.953444,36.4410213 112.385847,34.7224432 C108.278739,33.1767012 106.675135,29.6955206 106.357333,25.5050597 C106.102767,22.1282331 106.561634,18.8867403 108.204153,15.8751523 C110.97033,10.809097 117.974951,8.93398806 122.881429,11.9472066 C125.785429,13.7326365 127.306339,17.8399404 126.531291,22.177149 L111.829693,22.177149 Z" id="Fill-26"></path>
                    <path d="M106.315301,11.5 C105.944122,12.1197013 105.737346,12.5966529 105.413624,12.9778784 C104.456015,14.1097989 103.128921,15.0519464 102.522153,16.3350135 C99.6510217,22.3976737 96.9578527,28.5426249 94.2375656,34.6724614 C93.7223212,35.8362906 93.161315,37.0824108 91.7020208,36.6759942 C90.9850853,36.4761448 90.2986577,35.4819357 89.9732402,34.6959731 C87.4614237,28.6249158 85.0479104,22.5135528 82.5886353,16.4223427 C81.9954263,14.9545407 81.6428906,13.2902481 79.6886906,12.8468846 C79.4598814,12.794823 79.3802219,12.1012278 79.1666667,11.5319087 L91.1766071,11.5319087 C90.4630614,12.2456568 90.1528978,12.7881054 89.6969743,12.9694814 C88.354627,13.5035329 87.9580244,14.378504 88.4444558,15.6750064 C90.0156123,19.8718452 91.6037176,24.0636457 93.3511419,28.6954509 C95.2239875,24.0099047 97.0070044,19.7509279 98.5646018,15.4130189 C98.7713775,14.8353028 97.8968179,13.8108644 97.4019121,13.0719252 C97.098528,12.6184852 96.5646399,12.3161919 96.1358345,11.9467223 C96.2460019,11.7972551 96.3578642,11.6494672 96.4697265,11.5 L106.315301,11.5 Z" id="Fill-28"></path>
                    <path d="M166.731443,10.9919292 L166.731443,17.8131102 C165.8879,17.1486985 165.182146,16.8772003 164.987224,16.3949116 C163.873142,13.6310265 161.063571,12.3511065 158.29937,13.467453 C156.017434,14.3898723 155.753616,17.2836044 157.93137,18.8232183 C159.789854,20.1368648 161.831498,21.1857584 163.753836,22.4134023 C166.94653,24.4521682 168.032046,27.0018902 167.341416,30.4537956 C166.756649,33.3761953 164.861197,34.9815758 162.149087,35.7437943 C158.89758,36.6594683 155.629269,36.4891496 152.436575,35.4959047 C151.897178,35.3272723 151.275443,34.4723059 151.21663,33.8837788 C151.051954,32.2227496 151.159497,30.5347392 151.159497,28.2278478 C151.792995,28.7893937 152.513872,29.1165406 152.671826,29.6207515 C153.725415,32.9765365 158.027151,34.639252 160.999717,32.7573143 C162.881726,31.5667695 163.026238,28.9647714 161.097178,27.4656293 C159.300868,26.0727256 157.297872,24.9479475 155.373854,23.7236762 C153.280119,22.3897938 151.863571,20.6056629 151.628319,18.0542546 C151.262,14.0593528 153.730456,11.032401 157.847352,10.5770935 C159.504192,10.3949705 161.198,10.4590508 162.868283,10.5281901 C164.126877,10.5804662 165.377069,10.8216105 166.731443,10.9919292" id="Fill-30"></path>
                    <path d="M189.75901,14.3971248 C188.535731,14.3292678 187.539559,14.2749822 186.541667,14.2206966 C189.48717,11.2672203 192.35525,8.39347594 195.490009,5.25 L195.490009,11.0161493 L204.109735,11.0161493 L204.109735,14.2766786 L195.880564,14.2766786 C195.880564,19.847739 195.780774,25.1745143 195.932179,30.4928073 C195.990676,32.5251247 197.50644,33.6413725 199.565884,33.6159262 C200.973256,33.5989619 202.375467,33.2630697 204.219847,33.0086059 C203.882629,33.6956581 203.767355,34.345389 203.3768,34.664317 C200.383123,37.1037764 196.935233,37.329401 193.482181,36.0502964 C190.388714,34.9052093 189.774494,32.1179827 189.764171,29.1899528 C189.746966,24.3229088 189.75901,19.4558648 189.75901,14.3971248" id="Fill-32"></path>
                    <path d="M143.024436,35.7545439 L129.705803,35.7545439 C129.63097,35.6266006 129.557837,35.4969738 129.483004,35.3690305 C129.860572,35.0710572 130.193921,34.6198887 130.620811,34.5003627 C132.262042,34.0374099 132.921936,32.9061215 132.935542,31.3489166 C132.979762,26.3793287 132.964455,21.4080572 133.013777,16.4384693 C133.030784,14.7297525 132.517155,13.5849965 130.591898,13.3493114 C130.176913,13.2988075 129.838462,12.6590909 129.25,12.0816625 C132.607296,11.576623 135.452663,11.1473395 138.451099,10.6944875 C138.54294,11.098519 138.668796,11.6591128 138.823565,12.3476499 C139.114394,12.2314908 139.423932,12.1591018 139.673944,11.9974892 C141.971667,10.5109898 144.430963,10.0749725 147.051831,10.9436403 C148.987293,11.5850404 149.233903,12.2904121 148.28488,14.108554 C148.067183,14.5260533 147.805266,14.9216675 147.613081,15.3492676 C146.932777,16.8627024 146.254175,17.3290221 144.840846,15.8610408 C144.128228,15.1203164 142.835652,14.7213352 141.750569,14.5799242 C139.573599,14.2954186 138.816762,15.0815967 138.825266,17.2532662 C138.845675,21.8895282 138.92561,26.5257901 138.900099,31.1603686 C138.888194,33.2360806 139.810004,34.2596272 141.884929,34.4380745 C142.410463,34.483528 142.901982,34.9060777 143.410508,35.1569139 C143.281251,35.3555628 143.153694,35.5558951 143.024436,35.7545439" id="Fill-34"></path>
                    <path d="M172.469283,12.0063225 C175.815495,11.4676265 178.598919,11.0184316 181.814605,10.5 C181.814605,12.105956 181.814605,13.7980357 181.814605,15.4884268 C181.814605,20.6170159 181.855288,25.745605 181.792568,30.8725054 C181.767141,32.9783172 182.379087,34.4356674 184.689567,34.7295016 C185.069279,34.778474 185.433734,34.9389007 185.806666,35.0469776 C185.632066,35.283396 185.459162,35.5181256 185.284562,35.7545439 L171.916667,35.7545439 C172.664225,35.1955834 173.001558,34.7598982 173.416868,34.6653309 C175.040815,34.2938164 175.888386,33.3346334 175.903642,31.6881486 C175.949411,26.4970775 175.978229,21.3076952 176.012131,16.1166241 C176.020607,14.505602 175.469686,13.3927472 173.642322,13.1867255 C173.271086,13.1445079 172.964265,12.5247541 172.469283,12.0063225" id="Fill-36"></path>
                    <path d="M178.134547,6.31339471 C176.005166,6.29187225 174.719502,5.06509197 174.784135,3.11482589 C174.845274,1.24568293 176.30038,-0.0340757175 178.324951,0.000691334937 C180.340788,0.0338028134 181.795894,1.42779606 181.724275,3.25223852 C181.649161,5.12469263 180.230738,6.3332616 178.134547,6.31339471" id="Fill-40"></path>
                    <g id="Group-5" transform="translate(65.625000, 0.041667)">
                        <path d="M13.9268134,35.9877251 L0.0368141962,35.9877251 C0.748332439,35.3911611 1.05620091,34.9209877 1.44787802,34.8400977 C3.28311618,34.45587 4.14856866,33.3234095 4.16054132,31.5606807 C4.19474893,26.3769775 4.18448664,21.191589 4.18277626,16.0078857 C4.18106588,14.5181609 3.49862411,13.6367965 1.92165339,13.3890707 C1.47353372,13.3199772 1.10580194,12.7588025 0.44901587,12.2127948 C3.85267285,11.6785835 6.71927038,11.2286326 9.88005335,10.7331812 C9.93991666,11.2286326 10.0835886,11.8420488 10.0801679,12.4554649 C10.0528018,18.5121065 10.0014904,24.5670629 9.9535997,30.6237044 C9.9364959,32.7251602 10.278572,34.5552973 12.9228201,34.8889687 C13.2067432,34.9243581 13.430803,35.4248652 13.9268134,35.9877251" id="Fill-38"></path>
                        <path d="M6.33827036,6.31323575 C4.28409716,6.33973222 2.81980478,5.04802909 2.82500962,3.2114922 C2.83021445,1.42960429 4.35349491,0.0269471701 6.31398115,0.000450695587 C8.34733502,-0.0277018086 9.7682538,1.26565735 9.76998875,3.14690704 C9.77345864,5.02981276 8.41152793,6.28673927 6.33827036,6.31323575" id="Fill-42"></path>
                    </g>
                </g>
            </g>
        </g>
    </g>
</svg>